<svg xmlns="http://www.w3.org/2000/svg" width="400" height="300"><path fill="#B3E3F6" d="M44 111c1 3 1 3 .813 5.813.238 4.062 1.846 5.924 4.187 9.187.75 2.375.75 2.375 1 4l2.188-2.375c4.777-4.459 8.513-4.846 14.824-4.793C69 123 69 123 71 124v2l-2.367 1.277c-3.266 2.137-3.669 3.6-4.758 7.285-1.571 5.235-1.571 5.235-4.875 7.438-6.033-.323-6.033-.323-8.875-2.312-1.256-1.884-1.742-3.467-2.125-5.688l-3 2c-5.996.535-5.996.535-8.875-1-2.168-3.854-2.51-7.811-1.758-12.09C36.093 117.36 39.37 114.35 44 111"/><path fill="#2F2F6C" d="m172 139 2 1v17h8l.516-1.652c1.81-5.632 3.987-10.987 6.484-16.348 3 1 3 1 4.075 2.718l.968 2.212 1.064 2.41 1.08 2.535 1.116 2.512C200 157.582 200 157.582 200 161l-4-1-1-4c-1.46.06-2.918.149-4.375.25l-2.46.14c-2.353.402-2.353.402-3.454 2.657L184 161q-3.22.039-6.437.063l-3.622.035C171 161 171 161 170 160a69 69 0 0 1-.098-4.473l.01-2.724.025-2.865.014-2.877q.018-3.53.049-7.061zm18 8-2 5h4l-1-5z"/><path fill="#C1E6F7" d="M59.438 154.688c4.216 1.553 5.969 3.111 8.468 6.78C70.283 166.97 69.87 173.393 68 179h-2l-.875-2.687c-2.683-4.182-5.374-5.226-9.848-7.137C53 168 53 168 51 165c-.437-2.375-.437-2.375 0-5 2.615-3.645 3.92-4.902 8.438-5.312"/><path fill="#DBF1FC" d="M49 165c2.95 2.458 3.001 4.014 3.375 7.875-.225 4.857-1.59 8.286-5.027 11.828C42.599 189 42.599 189 39 189l.324-1.977c.803-5.852.554-8.747-2.324-14.023 0-3.187 0-3.187 1-6 3.68-3.26 6.377-3.507 11-2"/><path fill="#C0E7F9" d="M14 122h2l1.438 2.375c3.42 3.504 6.252 3.502 11.003 3.973C31 129 31 129 32.848 130.836c1.761 3.308 1.054 5.619.152 9.164-1.187 1.938-1.187 1.938-3 3-3.753.584-5.692.148-9.125-1.5-4.19-3.643-6.578-7.415-7.117-13.02A75 75 0 0 1 14 122"/><path fill="#CCEBF9" d="M25 144c2.692 2.188 2.94 3.584 3.438 7-.438 3-.438 3-1.875 5.375-3.835 2.431-7.147 2.35-11.563 1.625-5.874-1.974-8.845-5.838-12-11v-2l3 1c4.624.355 4.624.355 8.938-1 3.46-1.677 6.241-1.364 10.062-1"/><path fill="#BFE8F7" d="M26 158c3.345.182 6.01.426 8.938 2.125 1.761 3.11 1.544 5.383 1.062 8.875-2.621 3.932-5.294 5.355-9.75 6.5-5.34.882-9.383-.314-14.25-2.5 1-2 1-2 3.363-2.844 3.18-1.394 4.046-2.72 5.825-5.656 1.514-2.461 2.763-4.451 4.812-6.5"/><path fill="#ABE2FA" d="M70.898 141.656c4.58 2.32 7.792 5.756 10.102 10.344v3l-3.687-1.125c-3.906-.985-5.621-.536-9.313 1.125-3.495.435-6.776.612-10-1-1.634-3.268-1.646-6.435-1-10 3.271-4.362 9.125-3.994 13.898-2.344"/><path fill="#2F2F6B" d="M201 139c4.02 2.01 6.145 3.938 9.25 7.125l2.703 2.758L215 151l.148-2.371.227-3.066c.07-1.01.14-2.02.21-3.06.138-.825.274-1.652.415-2.503l2-1 2 1v21c-4.02-2.01-6.145-3.938-9.25-7.125l-2.703-2.758L206 149l-1 12-4-1z"/><path fill="#2C2B69" d="M273 139c2.031.305 2.031.305 4.5.875l2.469.555C282 141 282 141 283 142c.043 2 .04 4 0 6v2l2 2c.063 2.938.063 2.938-1 6-4.452 2.654-7.055 3.236-12 2q-.042-4.969-.062-9.937l-.026-2.866-.01-2.724-.016-2.524C272 140 272 140 273 139m3 4v5l3-1-1-4zm0 8v6l4-1v-4z"/><path fill="#30296B" d="M331 139c2.215.234 2.215.234 4.938.75l2.714.484C341 141 341 141 343 144c-.296 3.85-1.52 6.088-4 9l2 2.875c2 3.125 2 3.125 2 5.125-2.312-.187-2.312-.187-5-1-1.812-2.562-1.812-2.562-3-5l-2 6-3-1q-.042-4.969-.062-9.937l-.026-2.866-.01-2.724-.016-2.524C330 140 330 140 331 139m3 4v6l5-2-2-4z"/><path fill="#302E6D" d="M296 139c1.698.252 3.385.576 5.063.938l2.785.59L306 141c1.25 2.625 1.25 2.625 2 6-1.875 3.375-1.875 3.375-4 6l2 2.875c2 3.125 2 3.125 2 5.125-2.312-.187-2.312-.187-5-1-1.812-2.562-1.812-2.562-3-5l-2 6-3-1q-.042-4.969-.062-9.937l-.026-2.866-.01-2.724-.016-2.524C295 140 295 140 296 139m3 4v6c1.985-.267 1.985-.267 4-1l1-3z"/><path fill="#302D68" d="M310 140h4l.184 3.246.253 4.191.12 2.143c-.08 3.507-.08 3.507 1.443 6.42 2.5.167 2.5.167 5 0 1.996-1.996 1.41-5.817 1.563-8.562l.13-2.155q.159-2.64.307-5.283h4c.136 2.564.234 5.121.313 7.688l.126 2.185c.096 4.165-.098 5.684-2.736 9.111C322 161 322 161 318.438 161.562c-3.919-.64-5.064-1.457-7.438-4.562-1.533-3.065-1.103-6.268-1.062-9.625l.013-2.14q.02-2.618.049-5.235"/><path fill="#2E2D66" d="M145 139c3 1 3 1 4.075 2.718l.968 2.212 1.064 2.41 1.08 2.535 1.116 2.512C156 157.582 156 157.582 156 161c-1.812-.25-1.812-.25-4-1l-1.312-2.062L149 156c-3.626-.334-3.626-.334-7 0l-2 5-4-1zm1 8-2 5h4l-1-5z"/><path fill="#312D65" d="M386 139h2c1.51 3.1 3.006 6.205 4.5 9.313.43.88.859 1.762 1.3 2.67.61 1.27.61 1.27 1.231 2.568l1.143 2.364C397 158 397 158 397 161c-1.812-.25-1.812-.25-4-1l-1.375-2.062c-1.538-2.25-1.538-2.25-4.625-2.5-3.207.251-3.207.251-4.875 3.062L381 161l-4-1zm1 8-2 5h4l-1-5z"/><path fill="#2D2C66" d="m258 139 3 1v4l-2.082-.035-2.73-.028-2.708-.035c-2.614-.012-2.614-.012-5.48 1.098l-.187 3.813-.106 2.144c.15 2.107.15 2.107 1.48 3.793 2.441 1.683 4.065 1.552 7 1.438l2.731-.083L261 156v4c-3.484 1.742-7.199 1.587-11 1-3.075-1.703-5.406-3.812-7-7-.681-6.813-.681-6.813 1.047-9.824 4.256-5.17 7.49-5.611 13.953-5.176"/><path fill="#2F2E69" d="M353 139c2.258 2.069 3.6 3.886 4.824 6.688l.928 2.117.935 2.195.971 2.195c1.33 3.076 2.342 5.419 2.342 8.805-1.812-.25-1.812-.25-4-1l-1.375-2.062c-1.538-2.25-1.538-2.25-4.625-2.5l-3 .562c-1.717 2.445-1.717 2.445-3 5h-3c.679-4.79 2.54-8.876 4.5-13.25l.973-2.219c2.385-5.389 2.385-5.389 3.527-6.531m0 8-2 5h5l-2-5z"/><path fill="#2F2E61" d="M100 140c9 0 9 0 11.625 1.625C113 144 113 144 112.938 147.125 112 150 112 150 109 152c-2.687.125-2.687.125-5 0v9l-4-1zm4 3v6l5-2v-3z"/><path fill="#303061" d="M362 139c1.75.125 1.75.125 4 1 2.25 3.063 2.25 3.063 4 6l1.75-2.937C374 140 374 140 376.25 139.125L378 139c-.39 3.307-.982 4.975-3 7.688-2.645 4.381-2.801 8.279-3 13.312h-4l-.043-1.906c-.328-5.89-1.387-9.638-4.898-14.403C362 142 362 142 362 139"/><path fill="#9CDAF2" d="M39 174h13c-1.129 6.771-1.129 6.771-3.875 9.75l-1.555 1.734C44.022 187.944 42.593 189 39 189l.254-2.012.309-2.675.316-2.637c.247-3.087.247-3.087-.879-7.676"/><path fill="#151B4D" d="M156 139h11l1 4-4 1v16l-4 1-1-17-4-1z"/><path fill="#2E3163" d="M221 140h14l-1 4-4-1v17h-4l-1-16-4-1z"/><path fill="#312F5F" d="M114 140h14v3h-5v17h-4v-17l-3 1-2-1z"/><path fill="#67D0EE" d="M64 158c4.94 4.781 4.94 4.781 5.133 8.715l-.008 3.222.008 3.215C69 176 69 176 68 179h-2l-1.187-2.875c-2.01-3.466-3.04-4.105-6.813-5.125v-2h2c1.491-3.622 2.787-7.276 4-11"/><path fill="#81D3F2" d="M68 142c6.136 1.227 7.894 3.53 11.813 8.125C81 152 81 152 81 155l-3.625-1c-3.533-.893-6.716-1.183-10.375-1z"/><path fill="#8CD0EE" d="m3 145 3 1c3.684.132 6.49.17 10-1v13c-6.388-2.044-9.632-5.189-13-11z"/><path fill="#CEEFF6" d="M49 133c8.035-.788 8.035-.788 12.063 2.5L63 138c-1.562 2.063-1.562 2.063-4 4-3.524-.062-5.951-.323-8.937-2.25-1.417-2.334-1.28-4.071-1.063-6.75"/><path fill="#CCEBFE" d="m46 128 1 7c-3.05 1.525-5.642 1.236-9 1-1.937-1.312-1.937-1.312-3-3v-3c3.83-1.802 6.781-2.196 11-2"/><path fill="#65C8E3" d="M44 111c1.067 3.2.948 4.885.563 8.188l-.31 2.73L44 124h-7c-.875-2.062-.875-2.062-1-5 2.091-3.236 4.524-6.262 8-8"/><path fill="#2F2D5F" d="M331 139c2.215.234 2.215.234 4.938.75l2.714.484C341 141 341 141 343 144c-.25 2.625-.25 2.625-1 5l-2 1-.75-2.375c-1.404-2.948-2.257-3.527-5.25-4.625v-2h-3v18l3 1h-4q-.042-4.969-.062-9.937l-.026-2.866-.01-2.724-.016-2.524C330 140 330 140 331 139"/><path fill="#DDF5FC" d="M64 142v9l-3 1v2l-4-2c-.347-5.29-.347-5.29 0-8 2.6-2.96 3.195-3.268 7-2"/><path fill="#66CDEB" d="m24 167 1 8c-3.43 1.188-5.378.802-8.75-.437l-2.422-.872L12 173c1.404-2.808 3.109-2.924 6-4l2.188-1.125C22 167 22 167 24 167"/><path fill="#333058" d="m289 139 2 1v21h-3q-.042-5.22-.062-10.437l-.026-3.01-.01-2.862-.016-2.65C288 140 288 140 289 139"/><path fill="#E3F2F7" d="m55 156 5 2-1 6-7 2c-1-1-1-1-1.312-3.312.401-3.455 1.711-4.493 4.312-6.688"/><path fill="#30335D" d="M237 140h3v21h-3z"/><path fill="#95D6EA" d="m23 161 .75 1.75c2.076 3.736 4.182 5.894 8.25 7.25l-1 4-6 1c-.826-2.892-1-4.887-1-8l-4 1c1.875-5.875 1.875-5.875 3-7"/><path fill="#59C6EC" d="m64.563 122.875 2.378-.008C69 123 69 123 71 124v2c-5.063 4.028-5.063 4.028-8.125 3.938-2.213-1.107-4.028-2.289-5.875-3.938v-2c2.827-.942 4.632-1.135 7.563-1.125"/><path fill="#DBF3F7" d="M26 158c6.396.603 6.396.603 9 2.313 1 1.687 1 1.687.813 3.75C35 166 35 166 33 168c-2.625-.375-2.625-.375-5-1l1-8z"/><path fill="#312E5E" d="m201 139 4 2-3 1 2 9h1v10l-4-1z"/><path fill="#2D2C77" d="M331 141h3q.293 3.093.563 6.188l.316 3.48c.11 3.018-.139 5.421-.879 8.332h-3z"/><path fill="#DBF3F8" d="M34 133c-.615 6.523-.615 6.523-2.562 8.938-.475.35-.95.7-1.438 1.062l-3-1-1-7c6.875-2 6.875-2 8-2"/><path fill="#2B2B57" d="M156 139h11l1 4c-2.076.553-3.844 1-6 1l-1 2-6-3z"/><path fill="#4DBBDE" d="M14 122h2c2.459 2.531 3.881 4.149 4.375 7.688C20 132 20 132 18 134h-3c-.96-2.882-1.106-4.699-1.062-7.687l.027-2.45z"/><path fill="#9FD7F1" d="M44 120c2 1.813 2 1.813 4 4v3H36v2h-2l1-8 2 2c2.323.4 4.657.74 7 1z"/><path fill="#AADDF2" d="M20.063 143.938 23 144l-1 5-3 1-1 7h-2q-.04-2.97-.062-5.937l-.036-3.34c.139-3.86.252-3.706 4.16-3.786"/><path fill="#8DD3F0" d="M55 125c3.995 1.37 6.8 3.257 10 6l-1 5h-2l-1.25-2.437c-1.558-2.888-1.558-2.888-4.937-3.375L53 130c.875-3.875.875-3.875 2-5"/><path fill="#22264C" d="M100 144h1l1 8 7-2v2h-5v9l-4-1z"/><path fill="#96D8F1" d="M20 128h4c-.875 4.875-.875 4.875-2 6q-.062 3.5 0 7c-2.993-1.098-3.846-1.677-5.25-4.625L16 134l3-2c.724-2.06.724-2.06 1-4"/><path fill="#2D2D5F" d="m283 151 2 1c-.062 2.813-.062 2.813-1 6-3.538 2.109-5.807 3.127-9.937 2.688L272 160v-5l1.313 1.5c1.684 1.832 1.684 1.832 4.687 1.5 2.68-2.286 3.874-3.622 5-7"/><path fill="#31B7D9" d="M73 145c1.75.125 1.75.125 4 1 4 5.111 4 5.111 4 9-5.75-1.875-5.75-1.875-8-3z"/><path fill="#2E2F73" d="m389 150 3 2v3l-3.312.438c-3.62.445-3.62.445-6.688 1.562l-1-3h2l1-3 5 1z"/><path fill="#292B63" d="m303 140 3 1c1.188 3.063 1.188 3.063 2 6l-5 5-2-4h2z"/><path fill="#E3F5F9" d="M57 135v7c-2.782-.376-4.588-.673-6.812-2.437C49 138 49 138 49 136c2.892-.826 4.887-1 8-1"/><path fill="#39B9DC" d="M66 168h3c.125 7.625.125 7.625-1 11h-2a491 491 0 0 1-.562-4.375l-.317-2.46C65 170 65 170 66 168"/><path fill="#91D7F0" d="M64 158a91 91 0 0 1 4 4v2l-6 2v5h-4v-2h2c1.491-3.622 2.787-7.276 4-11"/><path fill="#E1F7FC" d="m28 150-1 6h-4v-2h-2v-3c2.463-1.231 4.28-1.072 7-1"/><path fill="#272A6A" d="M101 142h7l-4 1 1 8-4 2z"/><path fill="#A5DDF5" d="M24 128h4v4l-4 2v6h-3c-.125-2.875-.125-2.875 0-6l2-2c.643-2.069.643-2.069 1-4"/><path fill="#BBE0F4" d="M38 169h3l1 4 10-1v2c-1.79.195-3.583.38-5.375.563l-3.023.316C41 175 41 175 39 174l-1 2a129 129 0 0 1-1-6z"/><path fill="#C6EBFB" d="M49 167h2l1 5c-7.429 2.429-7.429 2.429-11 1v-1h5l.938-1.937C48 168 48 168 49 167"/><path fill="#3EBAD9" d="M42 182h5c-.38 2.755-.807 3.82-2.875 5.75C42 189 42 189 39 189c1.875-4.75 1.875-4.75 3-7"/><path fill="#2EC3ED" d="M40 114h3v6c-3.75 1.125-3.75 1.125-6 0 .573-2.867.861-3.861 3-6"/><path fill="#2C3060" d="M162 148h1l1 12-4 1v-8h2z"/><path fill="#39BBE4" d="M13 171h8v4l-8-1z"/><path fill="#A8E1F8" d="m62 156 2 1c.501 5.264-.688 7.91-4 12h-2l.875-2c1.36-3.625 2.231-7.233 3.125-11"/><path fill="#2F305F" d="M302 153h2c4 5.412 4 5.412 4 8-2.375-.187-2.375-.187-5-1-1.375-2.437-1.375-2.437-2-5z"/><path fill="#363163" d="M323 140h4v16h-1l-1-13-1 5h-1z"/><path fill="#A6DDF4" d="M51 128h2v2l2.813-.187c3.187.187 3.187.187 5 1.437 1.3 1.916 1.796 3.48 2.187 5.75-2.198-.985-3.82-1.813-5.5-3.562-1.426-1.61-1.426-1.61-3.625-1.938L52 131z"/><path fill="#E6F2F8" d="m44 132 1 4c-3.375.188-3.375.188-7 0l-2-3c2.709-1.354 5.01-1.065 8-1"/><path fill="#C7ECF9" d="m61 141 3 1v9l-3 1v2l-4-2c3.75-2 3.75-2 6-2l-1-2.25C61 145 61 145 61 141"/><path fill="#2A2658" d="m380 153 3 1c0 4 0 4-2 7l-4-1z"/><path fill="#39B7D2" d="M3 145c2.915 1.074 4.778 1.778 7 4v3l-3 1c-4-5.75-4-5.75-4-8"/><path fill="#343260" d="M196 152c2.503 2.938 3.47 5.179 4 9l-4-1c-.981-3.053-.981-4.947 0-8"/><path fill="#4CC7F2" d="M8 147h4v8l-4-1 .563-2.375c.697-2.596.697-2.596-.563-4.625"/><path fill="#D2EFF9" d="M58 158h2l-1 6-7 2-1-4 6 1z"/><path fill="#39346E" d="M338 153c2.799 2.528 4.458 4.204 5 8l-5-1a129 129 0 0 1-1-6z"/><path fill="#73D3F0" d="M20 128h2c-.61 3.558-1.578 6.683-3 10l-3-2v-2l3-2c.724-2.06.724-2.06 1-4"/><path fill="#5ECCEF" d="M42 179h5l1 5-1-2h-5l-1 2z"/><path fill="#82D0E8" d="m50 176 2 1-3 6-2-3c-3.084-.25-3.084-.25-6 0v-2h9z"/><path fill="#8AD5E6" d="m44 120 3 3-1 2H35l1-4 1 2c2.322.407 4.657.744 7 1z"/><path fill="#37355B" d="M360 153c1.945 2.918 2.453 4.625 3 8l-4-1-1-4h2z"/><path fill="#2F2D59" d="M253.938 138.813c2.738.025 4.402.3 7.062 1.187v4h-2l-2-3c-2.207-.364-2.207-.364-4.625-.187l-2.477.082L248 141c2-2 2-2 5.938-2.187"/><path fill="#323352" d="M153 154c3 3.625 3 3.625 3 7l-4-1-1-4h2z"/><path fill="#6FD2FA" d="M12 147h3v7h-3z"/><path fill="#2DBAEF" d="M61 124h6v3l-5 1z"/><path fill="#A9DEF0" d="m26 168 6 2-1 4h-3z"/><path fill="#B7E5FC" d="M19 149h1c1.125 6.75 1.125 6.75 0 9l-4-1h2l-.062-3.437C18 150 18 150 19 149"/><path fill="#58C9ED" d="m72 143 3 2h-2v8l-2-1c-.098-6.152-.098-6.152 0-8z"/><path fill="#C9E9ED" d="m58 136 5 1-1 3c-2.562 1.188-2.562 1.188-5 2z"/><path fill="#33335B" d="M261 156v4l-3 1v-3h-6v-1c3.058-.544 5.888-1 9-1"/><path fill="#39385C" d="M201 150h1l1 8 2-1v4l-4-1z"/><path fill="#72D2F7" d="M56 126c3.871.574 6.082 2.487 9 5-4.266 0-5.633-.568-9-3z"/><path fill="#48B0D0" d="M60 123q2.188-.04 4.375-.062l2.46-.036C69 123 69 123 71 124v2l-4 1v-3h-7z"/><path fill="#CBE8ED" d="M33 165h3c-.312 2.375-.312 2.375-1 5l-3 2z"/><path fill="#302E5A" d="m189 139 3 1c.688 2.063.688 2.063 1 4h-5z"/><path fill="#2A2D6C" d="M160 141h5l-1 3h-2l-1 2z"/><path fill="#22BFEC" d="m15 127 4 1-1 4h-3z"/></svg>