<?xml version="1.0" encoding="UTF-8"?>
<svg version="1.1" xmlns="http://www.w3.org/2000/svg" width="400" height="300">
<path d="M0 0 C1 3 1 3 0.8125 5.8125 C1.05148567 9.87525631 2.6588286 11.73654896 5 15 C5.75 17.375 5.75 17.375 6 19 C6.721875 18.21625 7.44375 17.4325 8.1875 16.625 C12.96492731 12.16606785 16.70086754 11.77899889 23.01171875 11.83203125 C25 12 25 12 27 13 C27 13.66 27 14.32 27 15 C25.82824219 15.63228516 25.82824219 15.63228516 24.6328125 16.27734375 C21.36742838 18.4138933 20.9644278 19.87709334 19.875 23.5625 C18.30381848 28.79745434 18.30381848 28.79745434 15 31 C8.96685083 30.67679558 8.96685083 30.67679558 6.125 28.6875 C4.86920188 26.80380283 4.38295049 25.22111286 4 23 C3.01 23.66 2.02 24.32 1 25 C-4.99617591 25.53537285 -4.99617591 25.53537285 -7.875 24 C-10.04294211 20.14588069 -10.38456072 16.18872322 -9.6328125 11.91015625 C-7.9066827 6.35883757 -4.63059966 3.34925564 0 0 Z " fill="#B3E3F6" transform="translate(44,111)"/>
<path d="M0 0 C0.66 0.33 1.32 0.66 2 1 C2 6.61 2 12.22 2 18 C4.64 18 7.28 18 10 18 C10.17015625 17.45472656 10.3403125 16.90945312 10.515625 16.34765625 C12.32540814 10.71615022 14.50345378 5.36060431 17 0 C20 1 20 1 21.07495117 2.71826172 C21.55411987 3.81291748 21.55411987 3.81291748 22.04296875 4.9296875 C22.39423828 5.72503906 22.74550781 6.52039063 23.10742188 7.33984375 C23.64206055 8.59474609 23.64206055 8.59474609 24.1875 9.875 C24.55552734 10.70386719 24.92355469 11.53273437 25.30273438 12.38671875 C28 18.58192254 28 18.58192254 28 22 C26.68 21.67 25.36 21.34 24 21 C23.67 19.68 23.34 18.36 23 17 C21.54052295 17.06006078 20.08220728 17.1488689 18.625 17.25 C17.81289062 17.29640625 17.00078125 17.3428125 16.1640625 17.390625 C13.81161073 17.7922092 13.81161073 17.7922092 12.7109375 20.046875 C12.47632813 20.69140625 12.24171875 21.3359375 12 22 C9.85423363 22.02685938 7.70837355 22.04633088 5.5625 22.0625 C4.36753906 22.07410156 3.17257813 22.08570313 1.94140625 22.09765625 C-1 22 -1 22 -2 21 C-2.08669432 19.5112814 -2.10703494 18.018555 -2.09765625 16.52734375 C-2.09443359 15.62822266 -2.09121094 14.72910156 -2.08789062 13.80273438 C-2.07951172 12.85720703 -2.07113281 11.91167969 -2.0625 10.9375 C-2.05798828 9.98810547 -2.05347656 9.03871094 -2.04882812 8.06054688 C-2.0370011 5.70696935 -2.02052025 3.35351523 -2 1 C-1.34 0.67 -0.68 0.34 0 0 Z M18 8 C17.34 9.65 16.68 11.3 16 13 C17.32 13 18.64 13 20 13 C19.67 11.35 19.34 9.7 19 8 C18.67 8 18.34 8 18 8 Z " fill="#2F2F6C" transform="translate(172,139)"/>
<path d="M0 0 C4.2169088 1.55359798 5.96935932 3.11193177 8.46875 6.78125 C10.8457982 12.2824187 10.4318986 18.70430419 8.5625 24.3125 C7.9025 24.3125 7.2425 24.3125 6.5625 24.3125 C6.27375 23.425625 5.985 22.53875 5.6875 21.625 C3.00495664 17.44338829 0.31308435 16.3997541 -4.16015625 14.48828125 C-6.4375 13.3125 -6.4375 13.3125 -8.4375 10.3125 C-8.875 7.9375 -8.875 7.9375 -8.4375 5.3125 C-5.82291664 1.66792926 -4.51739304 0.41067209 0 0 Z " fill="#C1E6F7" transform="translate(59.4375,154.6875)"/>
<path d="M0 0 C2.94995683 2.45829736 3.00139073 4.01437087 3.375 7.875 C3.15012695 12.73225796 1.78460793 16.16054596 -1.65234375 19.703125 C-6.40099299 24 -6.40099299 24 -10 24 C-9.89300781 23.34773438 -9.78601562 22.69546875 -9.67578125 22.0234375 C-8.87298798 16.17081558 -9.12205661 13.27622954 -12 8 C-12 4.8125 -12 4.8125 -11 2 C-7.32022978 -1.25922505 -4.62295425 -1.50748508 0 0 Z " fill="#DBF1FC" transform="translate(49,165)"/>
<path d="M0 0 C0.66 0 1.32 0 2 0 C2.474375 0.78375 2.94875 1.5675 3.4375 2.375 C6.8585155 5.8794549 9.69012167 5.87704055 14.44140625 6.34765625 C17 7 17 7 18.84765625 8.8359375 C20.60916353 12.14398845 19.90241249 14.45480807 19 18 C17.8125 19.9375 17.8125 19.9375 16 21 C12.24699256 21.58380116 10.30845181 21.14805687 6.875 19.5 C2.68542507 15.85689137 0.29654189 12.08499228 -0.2421875 6.48046875 C-0.2490436 4.30365678 -0.18071995 2.1686394 0 0 Z " fill="#C0E7F9" transform="translate(14,122)"/>
<path d="M0 0 C2.6923481 2.18753283 2.93936827 3.58423955 3.4375 7 C3 10 3 10 1.5625 12.375 C-2.27175137 14.80647648 -5.583585 14.72485999 -10 14 C-15.87442934 12.02628517 -18.84518898 8.16241803 -22 3 C-22 2.34 -22 1.68 -22 1 C-21.01 1.33 -20.02 1.66 -19 2 C-14.37550438 2.35519119 -14.37550438 2.35519119 -10.0625 1 C-6.60277712 -0.67744139 -3.82095843 -0.3639008 0 0 Z " fill="#CCEBF9" transform="translate(25,144)"/>
<path d="M0 0 C3.3454582 0.18247954 6.01065234 0.42554007 8.9375 2.125 C10.69937187 5.23418565 10.48159369 7.50844577 10 11 C7.3789794 14.9315309 4.70573797 16.3548337 0.25 17.5 C-5.09055785 18.38207412 -9.13336997 17.18645697 -14 15 C-13 13 -13 13 -10.63671875 12.15625 C-7.45701691 10.76189186 -6.59055846 9.43641826 -4.8125 6.5 C-3.29819797 4.03875976 -2.0486932 2.0486932 0 0 Z " fill="#BFE8F7" transform="translate(26,158)"/>
<path d="M0 0 C4.58028237 2.32014303 7.79138388 5.75533071 10.1015625 10.34375 C10.1015625 11.33375 10.1015625 12.32375 10.1015625 13.34375 C8.8846875 12.9725 7.6678125 12.60125 6.4140625 12.21875 C2.50808811 11.23370567 0.79330689 11.68246502 -2.8984375 13.34375 C-6.39320602 13.7788694 -9.67426573 13.95583588 -12.8984375 12.34375 C-14.5321994 9.0762262 -14.54456733 5.90860426 -13.8984375 2.34375 C-10.6270601 -2.01808654 -4.77391714 -1.65024296 0 0 Z " fill="#ABE2FA" transform="translate(70.8984375,141.65625)"/>
<path d="M0 0 C4.01987409 2.00993705 6.14516995 3.93846389 9.25 7.125 C10.14203125 8.03507813 11.0340625 8.94515625 11.953125 9.8828125 C12.62859375 10.58148438 13.3040625 11.28015625 14 12 C14.04898438 11.21753906 14.09796875 10.43507812 14.1484375 9.62890625 C14.22320312 8.61699219 14.29796875 7.60507813 14.375 6.5625 C14.44460937 5.55316406 14.51421875 4.54382813 14.5859375 3.50390625 C14.72257813 2.67761719 14.85921875 1.85132813 15 1 C15.66 0.67 16.32 0.34 17 0 C17.66 0.33 18.32 0.66 19 1 C19 7.93 19 14.86 19 22 C14.98012591 19.99006295 12.85483005 18.06153611 9.75 14.875 C8.85796875 13.96492187 7.9659375 13.05484375 7.046875 12.1171875 C6.37140625 11.41851562 5.6959375 10.71984375 5 10 C4.67 13.96 4.34 17.92 4 22 C2.68 21.67 1.36 21.34 0 21 C0 14.07 0 7.14 0 0 Z " fill="#2F2F6B" transform="translate(201,139)"/>
<path d="M0 0 C2.03125 0.3046875 2.03125 0.3046875 4.5 0.875 C5.72203125 1.14957031 5.72203125 1.14957031 6.96875 1.4296875 C9 2 9 2 10 3 C10.04254356 4.99954746 10.04080783 7.00041636 10 9 C10 9.66 10 10.32 10 11 C10.66 11.66 11.32 12.32 12 13 C12.0625 15.9375 12.0625 15.9375 11 19 C6.5479316 21.6541177 3.9453066 22.23632665 -1 21 C-1.02888146 17.68751813 -1.04675799 14.37506833 -1.0625 11.0625 C-1.07087891 10.11697266 -1.07925781 9.17144531 -1.08789062 8.19726562 C-1.09111328 7.29814453 -1.09433594 6.39902344 -1.09765625 5.47265625 C-1.10289307 4.64000244 -1.10812988 3.80734863 -1.11352539 2.94946289 C-1 1 -1 1 0 0 Z M3 4 C3 5.65 3 7.3 3 9 C3.99 8.67 4.98 8.34 6 8 C5.67 6.68 5.34 5.36 5 4 C4.34 4 3.68 4 3 4 Z M3 12 C3 13.98 3 15.96 3 18 C4.32 17.67 5.64 17.34 7 17 C7 15.68 7 14.36 7 13 C5.68 12.67 4.36 12.34 3 12 Z " fill="#2C2B69" transform="translate(273,139)"/>
<path d="M0 0 C2.21484375 0.234375 2.21484375 0.234375 4.9375 0.75 C6.28134766 0.98976562 6.28134766 0.98976562 7.65234375 1.234375 C10 2 10 2 12 5 C11.70390197 8.84927445 10.48092261 11.08761258 8 14 C8.66 14.94875 9.32 15.8975 10 16.875 C12 20 12 20 12 22 C9.6875 21.8125 9.6875 21.8125 7 21 C5.1875 18.4375 5.1875 18.4375 4 16 C3.34 17.98 2.68 19.96 2 22 C1.01 21.67 0.02 21.34 -1 21 C-1.02888146 17.68751813 -1.04675799 14.37506833 -1.0625 11.0625 C-1.07087891 10.11697266 -1.07925781 9.17144531 -1.08789062 8.19726562 C-1.09111328 7.29814453 -1.09433594 6.39902344 -1.09765625 5.47265625 C-1.10289307 4.64000244 -1.10812988 3.80734863 -1.11352539 2.94946289 C-1 1 -1 1 0 0 Z M3 4 C3 5.98 3 7.96 3 10 C4.65 9.34 6.3 8.68 8 8 C7.34 6.68 6.68 5.36 6 4 C5.01 4 4.02 4 3 4 Z " fill="#30296B" transform="translate(331,139)"/>
<path d="M0 0 C1.69752187 0.25245197 3.38471545 0.57645775 5.0625 0.9375 C5.98160156 1.13214844 6.90070313 1.32679688 7.84765625 1.52734375 C8.91306641 1.76130859 8.91306641 1.76130859 10 2 C11.25 4.625 11.25 4.625 12 8 C10.125 11.375 10.125 11.375 8 14 C8.66 14.94875 9.32 15.8975 10 16.875 C12 20 12 20 12 22 C9.6875 21.8125 9.6875 21.8125 7 21 C5.1875 18.4375 5.1875 18.4375 4 16 C3.34 17.98 2.68 19.96 2 22 C1.01 21.67 0.02 21.34 -1 21 C-1.02888146 17.68751813 -1.04675799 14.37506833 -1.0625 11.0625 C-1.07087891 10.11697266 -1.07925781 9.17144531 -1.08789062 8.19726562 C-1.09111328 7.29814453 -1.09433594 6.39902344 -1.09765625 5.47265625 C-1.10289307 4.64000244 -1.10812988 3.80734863 -1.11352539 2.94946289 C-1 1 -1 1 0 0 Z M3 4 C3 5.98 3 7.96 3 10 C4.98491642 9.73323796 4.98491642 9.73323796 7 9 C7.33 8.01 7.66 7.02 8 6 C5.525 5.01 5.525 5.01 3 4 Z " fill="#302E6D" transform="translate(296,139)"/>
<path d="M0 0 C1.32 0 2.64 0 4 0 C4.06058594 1.07121094 4.12117188 2.14242187 4.18359375 3.24609375 C4.26798537 4.64324391 4.35263406 6.04037857 4.4375 7.4375 C4.47681641 8.14455078 4.51613281 8.85160156 4.55664062 9.58007812 C4.47624438 13.08690419 4.47624438 13.08690419 6 16 C8.5 16.16666667 8.5 16.16666667 11 16 C12.99616554 14.00383446 12.40983427 10.18298037 12.5625 7.4375 C12.60568359 6.72658203 12.64886719 6.01566406 12.69335938 5.28320312 C12.79971777 3.52238088 12.90038846 1.7612168 13 0 C14.32 0 15.64 0 17 0 C17.13559675 2.56428515 17.23433188 5.12135216 17.3125 7.6875 C17.35439453 8.40873047 17.39628906 9.12996094 17.43945312 9.87304688 C17.53454982 14.03828211 17.34072603 15.55728795 14.703125 18.984375 C12 21 12 21 8.4375 21.5625 C4.51898289 20.92128811 3.37441774 20.10500781 1 17 C-0.53266582 13.93466836 -0.10276471 10.73245728 -0.0625 7.375 C-0.05798828 6.66859375 -0.05347656 5.9621875 -0.04882812 5.234375 C-0.03703875 3.48954725 -0.01910324 1.744763 0 0 Z " fill="#302D68" transform="translate(310,140)"/>
<path d="M0 0 C3 1 3 1 4.07495117 2.71826172 C4.39439697 3.44803223 4.71384277 4.17780273 5.04296875 4.9296875 C5.39423828 5.72503906 5.74550781 6.52039063 6.10742188 7.33984375 C6.64206055 8.59474609 6.64206055 8.59474609 7.1875 9.875 C7.55552734 10.70386719 7.92355469 11.53273437 8.30273438 12.38671875 C11 18.58192254 11 18.58192254 11 22 C9.1875 21.75 9.1875 21.75 7 21 C6.566875 20.319375 6.13375 19.63875 5.6875 18.9375 C5.130625 18.298125 4.57375 17.65875 4 17 C0.37436186 16.66619186 0.37436186 16.66619186 -3 17 C-3.99 19.475 -3.99 19.475 -5 22 C-6.32 21.67 -7.64 21.34 -9 21 C-6.03 14.07 -3.06 7.14 0 0 Z M1 8 C0.34 9.65 -0.32 11.3 -1 13 C0.32 13 1.64 13 3 13 C2.67 11.35 2.34 9.7 2 8 C1.67 8 1.34 8 1 8 Z " fill="#2E2D66" transform="translate(145,139)"/>
<path d="M0 0 C0.66 0 1.32 0 2 0 C3.5094588 3.09965403 5.00590667 6.20541403 6.5 9.3125 C6.92925781 10.19357422 7.35851562 11.07464844 7.80078125 11.98242188 C8.40986328 13.25375977 8.40986328 13.25375977 9.03125 14.55078125 C9.40830078 15.33106689 9.78535156 16.11135254 10.17382812 16.9152832 C11 19 11 19 11 22 C9.1875 21.75 9.1875 21.75 7 21 C6.319375 19.9790625 6.319375 19.9790625 5.625 18.9375 C4.0873329 16.68789796 4.0873329 16.68789796 1 16.4375 C-2.20668471 16.6890131 -2.20668471 16.6890131 -3.875 19.5 C-4.24625 20.325 -4.6175 21.15 -5 22 C-6.32 21.67 -7.64 21.34 -9 21 C-6.03 14.07 -3.06 7.14 0 0 Z M1 8 C0.34 9.65 -0.32 11.3 -1 13 C0.32 13 1.64 13 3 13 C2.67 11.35 2.34 9.7 2 8 C1.67 8 1.34 8 1 8 Z " fill="#312D65" transform="translate(386,139)"/>
<path d="M0 0 C0.99 0.33 1.98 0.66 3 1 C3 2.32 3 3.64 3 5 C2.31292969 4.98839844 1.62585938 4.97679687 0.91796875 4.96484375 C0.01691406 4.95582031 -0.88414062 4.94679687 -1.8125 4.9375 C-2.70582031 4.92589844 -3.59914062 4.91429687 -4.51953125 4.90234375 C-7.13413791 4.88990033 -7.13413791 4.88990033 -10 6 C-10.061875 7.258125 -10.12375 8.51625 -10.1875 9.8125 C-10.22230469 10.52019531 -10.25710937 11.22789062 -10.29296875 11.95703125 C-10.14310951 14.06427479 -10.14310951 14.06427479 -8.8125 15.75 C-6.37151024 17.43344122 -4.74808519 17.30187345 -1.8125 17.1875 C-0.91144531 17.16042969 -0.01039063 17.13335937 0.91796875 17.10546875 C1.60503906 17.07066406 2.29210937 17.03585938 3 17 C3 18.32 3 19.64 3 21 C-0.48443422 22.74221711 -4.19887045 22.58675154 -8 22 C-11.07469523 20.29748281 -13.40613254 18.18773492 -15 15 C-15.68128376 8.18716238 -15.68128376 8.18716238 -13.953125 5.17578125 C-9.69738477 0.00630855 -6.46252684 -0.43510082 0 0 Z " fill="#2D2C66" transform="translate(258,139)"/>
<path d="M0 0 C2.25832694 2.06857496 3.60066123 3.88592622 4.82421875 6.6875 C5.28344727 7.73550781 5.28344727 7.73550781 5.75195312 8.8046875 C6.06068359 9.52914062 6.36941406 10.25359375 6.6875 11 C7.00783203 11.72445312 7.32816406 12.44890625 7.65820312 13.1953125 C8.98887733 16.27090064 10 18.61403593 10 22 C8.1875 21.75 8.1875 21.75 6 21 C5.319375 19.9790625 5.319375 19.9790625 4.625 18.9375 C3.0873329 16.68789796 3.0873329 16.68789796 0 16.4375 C-0.99 16.623125 -1.98 16.80875 -3 17 C-4.71711243 19.44496043 -4.71711243 19.44496043 -6 22 C-6.99 22 -7.98 22 -9 22 C-8.32123256 17.21091862 -6.45906236 13.1244525 -4.5 8.75 C-4.01853516 7.65171875 -4.01853516 7.65171875 -3.52734375 6.53125 C-1.14218231 1.14218231 -1.14218231 1.14218231 0 0 Z M0 8 C-0.66 9.65 -1.32 11.3 -2 13 C-0.35 13 1.3 13 3 13 C2.34 11.35 1.68 9.7 1 8 C0.67 8 0.34 8 0 8 Z " fill="#2F2E69" transform="translate(353,139)"/>
<path d="M0 0 C9 0 9 0 11.625 1.625 C13 4 13 4 12.9375 7.125 C12 10 12 10 9 12 C6.3125 12.125 6.3125 12.125 4 12 C4 14.97 4 17.94 4 21 C2.68 20.67 1.36 20.34 0 20 C0 13.4 0 6.8 0 0 Z M4 3 C4 4.98 4 6.96 4 9 C5.65 8.34 7.3 7.68 9 7 C9 6.01 9 5.02 9 4 C7.35 3.67 5.7 3.34 4 3 Z " fill="#2F2E61" transform="translate(100,140)"/>
<path d="M0 0 C1.75 0.125 1.75 0.125 4 1 C6.25 4.0625 6.25 4.0625 8 7 C8.5775 6.030625 9.155 5.06125 9.75 4.0625 C12 1 12 1 14.25 0.125 C14.8275 0.08375 15.405 0.0425 16 0 C15.61094439 3.30697265 15.01838245 4.97529859 13 7.6875 C10.35452626 12.06906588 10.19894807 15.96661391 10 21 C8.68 21 7.36 21 6 21 C5.98582031 20.3709375 5.97164063 19.741875 5.95703125 19.09375 C5.62880294 13.20338247 4.56979764 9.45590105 1.05859375 4.69140625 C0 3 0 3 0 0 Z " fill="#303061" transform="translate(362,139)"/>
<path d="M0 0 C4.29 0 8.58 0 13 0 C11.87145749 6.77125506 11.87145749 6.77125506 9.125 9.75 C8.61195312 10.32234375 8.09890625 10.8946875 7.5703125 11.484375 C5.02219822 13.94374899 3.592698 15 0 15 C0.08378906 14.33613281 0.16757812 13.67226562 0.25390625 12.98828125 C0.35574219 12.10527344 0.45757812 11.22226563 0.5625 10.3125 C0.66691406 9.44238281 0.77132812 8.57226562 0.87890625 7.67578125 C1.1259706 4.58878315 1.1259706 4.58878315 0 0 Z " fill="#9CDAF2" transform="translate(39,174)"/>
<path d="M0 0 C3.63 0 7.26 0 11 0 C11.33 1.32 11.66 2.64 12 4 C10.68 4.33 9.36 4.66 8 5 C8 10.28 8 15.56 8 21 C6.68 21.33 5.36 21.66 4 22 C3.67 16.39 3.34 10.78 3 5 C1.68 4.67 0.36 4.34 -1 4 C-0.67 2.68 -0.34 1.36 0 0 Z " fill="#151B4D" transform="translate(156,139)"/>
<path d="M0 0 C4.62 0 9.24 0 14 0 C13.67 1.32 13.34 2.64 13 4 C11.68 3.67 10.36 3.34 9 3 C9 8.61 9 14.22 9 20 C7.68 20 6.36 20 5 20 C4.67 14.72 4.34 9.44 4 4 C2.68 3.67 1.36 3.34 0 3 C0 2.01 0 1.02 0 0 Z " fill="#2E3163" transform="translate(221,140)"/>
<path d="M0 0 C4.62 0 9.24 0 14 0 C14 0.99 14 1.98 14 3 C12.35 3 10.7 3 9 3 C9 8.61 9 14.22 9 20 C7.68 20 6.36 20 5 20 C5 14.39 5 8.78 5 3 C4.01 3.33 3.02 3.66 2 4 C1.34 3.67 0.68 3.34 0 3 C0 2.01 0 1.02 0 0 Z " fill="#312F5F" transform="translate(114,140)"/>
<path d="M0 0 C4.94036541 4.78099878 4.94036541 4.78099878 5.1328125 8.71484375 C5.13023438 9.77832031 5.12765625 10.84179688 5.125 11.9375 C5.12757812 12.99839844 5.13015625 14.05929688 5.1328125 15.15234375 C5 18 5 18 4 21 C3.34 21 2.68 21 2 21 C1.4121875 19.576875 1.4121875 19.576875 0.8125 18.125 C-1.19793856 14.65872662 -2.22699642 14.0197307 -6 13 C-6 12.34 -6 11.68 -6 11 C-5.34 11 -4.68 11 -4 11 C-2.50859979 7.37802806 -1.2125738 3.72433382 0 0 Z " fill="#67D0EE" transform="translate(64,158)"/>
<path d="M0 0 C6.13555999 1.227112 7.89362589 3.53045794 11.8125 8.125 C13 10 13 10 13 13 C11.80375 12.67 10.6075 12.34 9.375 12 C5.84208503 11.10734177 2.65920891 10.81703955 -1 11 C-0.67 7.37 -0.34 3.74 0 0 Z " fill="#81D3F2" transform="translate(68,142)"/>
<path d="M0 0 C0.99 0.33 1.98 0.66 3 1 C6.68382769 1.13156527 9.49053585 1.16982138 13 0 C13 4.29 13 8.58 13 13 C6.61212609 10.95588035 3.36842231 7.81145388 0 2 C0 1.34 0 0.68 0 0 Z " fill="#8CD0EE" transform="translate(3,145)"/>
<path d="M0 0 C8.03501094 -0.78774617 8.03501094 -0.78774617 12.0625 2.5 C12.701875 3.325 13.34125 4.15 14 5 C12.4375 7.0625 12.4375 7.0625 10 9 C6.47610516 8.93817728 4.04891604 8.67672002 1.0625 6.75 C-0.35440053 4.41628148 -0.21718696 2.67863922 0 0 Z " fill="#CEEFF6" transform="translate(49,133)"/>
<path d="M0 0 C0.33 2.31 0.66 4.62 1 7 C-2.04983996 8.52491998 -4.6423369 8.23562548 -8 8 C-9.9375 6.6875 -9.9375 6.6875 -11 5 C-11 4.01 -11 3.02 -11 2 C-7.17010894 0.19769832 -4.21878192 -0.19622241 0 0 Z " fill="#CCEBFE" transform="translate(46,128)"/>
<path d="M0 0 C1.06671952 3.20015856 0.94845472 4.88544294 0.5625 8.1875 C0.46066406 9.08855469 0.35882813 9.98960938 0.25390625 10.91796875 C0.17011719 11.60503906 0.08632813 12.29210937 0 13 C-2.31 13 -4.62 13 -7 13 C-7.875 10.9375 -7.875 10.9375 -8 8 C-5.90853912 4.76402633 -3.47635127 1.73817564 0 0 Z " fill="#65C8E3" transform="translate(44,111)"/>
<path d="M0 0 C2.21484375 0.234375 2.21484375 0.234375 4.9375 0.75 C6.28134766 0.98976562 6.28134766 0.98976562 7.65234375 1.234375 C10 2 10 2 12 5 C11.75 7.625 11.75 7.625 11 10 C10.01 10.495 10.01 10.495 9 11 C8.7525 10.21625 8.505 9.4325 8.25 8.625 C6.84610901 5.67682892 5.99324263 5.0975223 3 4 C3 3.34 3 2.68 3 2 C2.01 2 1.02 2 0 2 C0 7.94 0 13.88 0 20 C0.99 20.33 1.98 20.66 3 21 C1.68 21 0.36 21 -1 21 C-1.02888146 17.68751813 -1.04675799 14.37506833 -1.0625 11.0625 C-1.07087891 10.11697266 -1.07925781 9.17144531 -1.08789062 8.19726562 C-1.09111328 7.29814453 -1.09433594 6.39902344 -1.09765625 5.47265625 C-1.10289307 4.64000244 -1.10812988 3.80734863 -1.11352539 2.94946289 C-1 1 -1 1 0 0 Z " fill="#2F2D5F" transform="translate(331,139)"/>
<path d="M0 0 C0 3 0 6 0 9 C-0.99 9.33 -1.98 9.66 -3 10 C-3 10.66 -3 11.32 -3 12 C-4.32 11.34 -5.64 10.68 -7 10 C-7.34684009 4.71068868 -7.34684009 4.71068868 -7 2 C-4.39920807 -0.95952185 -3.80493073 -1.26831024 0 0 Z " fill="#DDF5FC" transform="translate(64,142)"/>
<path d="M0 0 C0.33 2.64 0.66 5.28 1 8 C-2.42943519 9.18771723 -4.37784675 8.80226223 -7.75 7.5625 C-8.54921875 7.27503906 -9.3484375 6.98757812 -10.171875 6.69140625 C-10.77515625 6.46324219 -11.3784375 6.23507813 -12 6 C-10.59575991 3.19151983 -8.89135802 3.07585415 -6 2 C-5.278125 1.62875 -4.55625 1.2575 -3.8125 0.875 C-2 0 -2 0 0 0 Z " fill="#66CDEB" transform="translate(24,167)"/>
<path d="M0 0 C0.66 0.33 1.32 0.66 2 1 C2 7.93 2 14.86 2 22 C1.01 22 0.02 22 -1 22 C-1.02887814 18.52085059 -1.04675687 15.04173169 -1.0625 11.5625 C-1.07087891 10.56927734 -1.07925781 9.57605469 -1.08789062 8.55273438 C-1.09111328 7.60849609 -1.09433594 6.66425781 -1.09765625 5.69140625 C-1.10289307 4.81685791 -1.10812988 3.94230957 -1.11352539 3.04125977 C-1 1 -1 1 0 0 Z " fill="#333058" transform="translate(289,139)"/>
<path d="M0 0 C2.475 0.99 2.475 0.99 5 2 C4.67 3.98 4.34 5.96 4 8 C1.69 8.66 -0.62 9.32 -3 10 C-4 9 -4 9 -4.3125 6.6875 C-3.91080481 3.23292134 -2.60100327 2.19459651 0 0 Z " fill="#E3F2F7" transform="translate(55,156)"/>
<path d="M0 0 C0.99 0 1.98 0 3 0 C3 6.93 3 13.86 3 21 C2.01 21 1.02 21 0 21 C0 14.07 0 7.14 0 0 Z " fill="#30335D" transform="translate(237,140)"/>
<path d="M0 0 C0.2475 0.5775 0.495 1.155 0.75 1.75 C2.82554091 5.48597363 4.93173944 7.64391315 9 9 C8.67 10.32 8.34 11.64 8 13 C6.02 13.33 4.04 13.66 2 14 C1.17361624 11.10765685 1 9.11257569 1 6 C-0.32 6.33 -1.64 6.66 -3 7 C-1.125 1.125 -1.125 1.125 0 0 Z " fill="#95D6EA" transform="translate(23,161)"/>
<path d="M0 0 C0.78503906 -0.00257812 1.57007812 -0.00515625 2.37890625 -0.0078125 C4.4375 0.125 4.4375 0.125 6.4375 1.125 C6.4375 1.785 6.4375 2.445 6.4375 3.125 C1.37429092 7.15255267 1.37429092 7.15255267 -1.6875 7.0625 C-3.90019474 5.95615263 -5.7151692 4.7744025 -7.5625 3.125 C-7.5625 2.465 -7.5625 1.805 -7.5625 1.125 C-4.73533905 0.18261302 -2.93073877 -0.00965647 0 0 Z " fill="#59C6EC" transform="translate(64.5625,122.875)"/>
<path d="M0 0 C6.39559286 0.60335782 6.39559286 0.60335782 9 2.3125 C10 4 10 4 9.8125 6.0625 C9 8 9 8 7 10 C4.375 9.625 4.375 9.625 2 9 C2.33 6.36 2.66 3.72 3 1 C2.01 0.67 1.02 0.34 0 0 Z " fill="#DBF3F7" transform="translate(26,158)"/>
<path d="M0 0 C1.98 0.99 1.98 0.99 4 2 C3.01 2.33 2.02 2.66 1 3 C1.66 5.97 2.32 8.94 3 12 C3.33 12 3.66 12 4 12 C4 15.3 4 18.6 4 22 C2.68 21.67 1.36 21.34 0 21 C0 14.07 0 7.14 0 0 Z " fill="#312E5E" transform="translate(201,139)"/>
<path d="M0 0 C0.99 0 1.98 0 3 0 C3.19620767 2.06168985 3.38160753 4.12440998 3.5625 6.1875 C3.66691406 7.33605469 3.77132813 8.48460937 3.87890625 9.66796875 C3.98859985 12.68631199 3.74002389 15.08923936 3 18 C2.01 18 1.02 18 0 18 C0 12.06 0 6.12 0 0 Z " fill="#2D2C77" transform="translate(331,141)"/>
<path d="M0 0 C-0.61538462 6.52307692 -0.61538462 6.52307692 -2.5625 8.9375 C-3.036875 9.288125 -3.51125 9.63875 -4 10 C-4.99 9.67 -5.98 9.34 -7 9 C-7.33 6.69 -7.66 4.38 -8 2 C-1.125 0 -1.125 0 0 0 Z " fill="#DBF3F8" transform="translate(34,133)"/>
<path d="M0 0 C3.63 0 7.26 0 11 0 C11.33 1.32 11.66 2.64 12 4 C9.92446352 4.5534764 8.15634036 5 6 5 C5.67 5.66 5.34 6.32 5 7 C3 6 1 5 -1 4 C-0.67 2.68 -0.34 1.36 0 0 Z " fill="#2B2B57" transform="translate(156,139)"/>
<path d="M0 0 C0.66 0 1.32 0 2 0 C4.45897686 2.53129971 5.88125259 4.14897689 6.375 7.6875 C6 10 6 10 4 12 C3.01 12 2.02 12 1 12 C0.03929566 9.11788698 -0.10581883 7.30149956 -0.0625 4.3125 C-0.05347656 3.50425781 -0.04445313 2.69601563 -0.03515625 1.86328125 C-0.02355469 1.24839844 -0.01195312 0.63351563 0 0 Z " fill="#4DBBDE" transform="translate(14,122)"/>
<path d="M0 0 C2 1.8125 2 1.8125 4 4 C4 4.99 4 5.98 4 7 C0.04 7 -3.92 7 -8 7 C-8 7.66 -8 8.32 -8 9 C-8.66 9 -9.32 9 -10 9 C-9.67 6.36 -9.34 3.72 -9 1 C-8.34 1.66 -7.68 2.32 -7 3 C-4.67724823 3.40047444 -2.34260643 3.7397104 0 4 C0 2.68 0 1.36 0 0 Z " fill="#9FD7F1" transform="translate(44,120)"/>
<path d="M0 0 C1.4540625 0.0309375 1.4540625 0.0309375 2.9375 0.0625 C2.6075 1.7125 2.2775 3.3625 1.9375 5.0625 C0.9475 5.3925 -0.0425 5.7225 -1.0625 6.0625 C-1.3925 8.3725 -1.7225 10.6825 -2.0625 13.0625 C-2.7225 13.0625 -3.3825 13.0625 -4.0625 13.0625 C-4.08936553 11.08340602 -4.10883375 9.10421029 -4.125 7.125 C-4.13660156 6.02285156 -4.14820313 4.92070312 -4.16015625 3.78515625 C-4.02168594 -0.07539595 -3.9087853 0.07977113 0 0 Z " fill="#AADDF2" transform="translate(20.0625,143.9375)"/>
<path d="M0 0 C3.99500618 1.3697164 6.80009492 3.25722422 10 6 C9.67 7.65 9.34 9.3 9 11 C8.34 11 7.68 11 7 11 C6.38125 9.7934375 6.38125 9.7934375 5.75 8.5625 C4.19196489 5.67500908 4.19196489 5.67500908 0.8125 5.1875 C-0.5796875 5.0946875 -0.5796875 5.0946875 -2 5 C-1.125 1.125 -1.125 1.125 0 0 Z " fill="#8DD3F0" transform="translate(55,125)"/>
<path d="M0 0 C0.33 0 0.66 0 1 0 C1.33 2.64 1.66 5.28 2 8 C4.31 7.34 6.62 6.68 9 6 C9 6.66 9 7.32 9 8 C7.35 8 5.7 8 4 8 C4 10.97 4 13.94 4 17 C2.68 16.67 1.36 16.34 0 16 C0 10.72 0 5.44 0 0 Z " fill="#22264C" transform="translate(100,144)"/>
<path d="M0 0 C1.32 0 2.64 0 4 0 C3.125 4.875 3.125 4.875 2 6 C1.95907063 8.33297433 1.95758277 10.66705225 2 13 C-0.99324263 11.9024777 -1.84610901 11.32317108 -3.25 8.375 C-3.4975 7.59125 -3.745 6.8075 -4 6 C-3.01 5.34 -2.02 4.68 -1 4 C-0.27617533 1.94074861 -0.27617533 1.94074861 0 0 Z " fill="#96D8F1" transform="translate(20,128)"/>
<path d="M0 0 C0.66 0.33 1.32 0.66 2 1 C1.9375 3.8125 1.9375 3.8125 1 7 C-2.53752787 9.10891084 -4.80731986 10.12688087 -8.9375 9.6875 C-9.618125 9.460625 -10.29875 9.23375 -11 9 C-11 7.35 -11 5.7 -11 4 C-10.3503125 4.7425 -10.3503125 4.7425 -9.6875 5.5 C-8.00259517 7.33218192 -8.00259517 7.33218192 -5 7 C-2.31943052 4.71363192 -1.12589193 3.3776758 0 0 Z " fill="#2D2D5F" transform="translate(283,151)"/>
<path d="M0 0 C1.75 0.125 1.75 0.125 4 1 C8 6.11111111 8 6.11111111 8 10 C2.25 8.125 2.25 8.125 0 7 C0 4.69 0 2.38 0 0 Z " fill="#31B7D9" transform="translate(73,145)"/>
<path d="M0 0 C0.99 0.66 1.98 1.32 3 2 C3 2.99 3 3.98 3 5 C1.3603125 5.2165625 1.3603125 5.2165625 -0.3125 5.4375 C-3.93122987 5.88288104 -3.93122987 5.88288104 -7 7 C-7.33 6.01 -7.66 5.02 -8 4 C-7.34 4 -6.68 4 -6 4 C-5.67 3.01 -5.34 2.02 -5 1 C-3.35 1.33 -1.7 1.66 0 2 C0 1.34 0 0.68 0 0 Z " fill="#2E2F73" transform="translate(389,150)"/>
<path d="M0 0 C0.99 0.33 1.98 0.66 3 1 C4.1875 4.0625 4.1875 4.0625 5 7 C3.35 8.65 1.7 10.3 0 12 C-0.66 10.68 -1.32 9.36 -2 8 C-1.34 8 -0.68 8 0 8 C0 5.36 0 2.72 0 0 Z " fill="#292B63" transform="translate(303,140)"/>
<path d="M0 0 C0 2.31 0 4.62 0 7 C-2.78211944 6.62403791 -4.5879284 6.32681541 -6.8125 4.5625 C-8 3 -8 3 -8 1 C-5.10765685 0.17361624 -3.11257569 0 0 0 Z " fill="#E3F5F9" transform="translate(57,135)"/>
<path d="M0 0 C0.99 0 1.98 0 3 0 C3.125 7.625 3.125 7.625 2 11 C1.34 11 0.68 11 0 11 C-0.19491452 9.54263913 -0.38069358 8.08405407 -0.5625 6.625 C-0.66691406 5.81289062 -0.77132812 5.00078125 -0.87890625 4.1640625 C-1 2 -1 2 0 0 Z " fill="#39B9DC" transform="translate(66,168)"/>
<path d="M0 0 C1.37562854 1.28965176 2.70766393 2.62689293 4 4 C4 4.66 4 5.32 4 6 C2.02 6.66 0.04 7.32 -2 8 C-2 9.65 -2 11.3 -2 13 C-3.32 13 -4.64 13 -6 13 C-6 12.34 -6 11.68 -6 11 C-5.34 11 -4.68 11 -4 11 C-2.50859979 7.37802806 -1.2125738 3.72433382 0 0 Z " fill="#91D7F0" transform="translate(64,158)"/>
<path d="M0 0 C-0.33 1.98 -0.66 3.96 -1 6 C-2.32 6 -3.64 6 -5 6 C-5 5.34 -5 4.68 -5 4 C-5.66 4 -6.32 4 -7 4 C-7 3.01 -7 2.02 -7 1 C-4.53721199 -0.231394 -2.7204945 -0.07159196 0 0 Z " fill="#E1F7FC" transform="translate(28,150)"/>
<path d="M0 0 C2.31 0 4.62 0 7 0 C5.68 0.33 4.36 0.66 3 1 C3.33 3.64 3.66 6.28 4 9 C2.02 9.99 2.02 9.99 0 11 C0 7.37 0 3.74 0 0 Z " fill="#272A6A" transform="translate(101,142)"/>
<path d="M0 0 C1.32 0 2.64 0 4 0 C4 1.32 4 2.64 4 4 C2.02 4.99 2.02 4.99 0 6 C0 7.98 0 9.96 0 12 C-0.99 12 -1.98 12 -3 12 C-3.125 9.125 -3.125 9.125 -3 6 C-2.34 5.34 -1.68 4.68 -1 4 C-0.3574765 1.93125966 -0.3574765 1.93125966 0 0 Z " fill="#A5DDF5" transform="translate(24,128)"/>
<path d="M0 0 C0.99 0 1.98 0 3 0 C3.33 1.32 3.66 2.64 4 4 C7.3 3.67 10.6 3.34 14 3 C14 3.66 14 4.32 14 5 C12.20909747 5.19466332 10.41723495 5.38051213 8.625 5.5625 C7.12839844 5.71912109 7.12839844 5.71912109 5.6015625 5.87890625 C3 6 3 6 1 5 C0.67 5.66 0.34 6.32 0 7 C-0.38133299 5.0085944 -0.71325582 3.00720923 -1 1 C-0.67 0.67 -0.34 0.34 0 0 Z " fill="#BBE0F4" transform="translate(38,169)"/>
<path d="M0 0 C0.66 0 1.32 0 2 0 C2.33 1.65 2.66 3.3 3 5 C-4.42857143 7.42857143 -4.42857143 7.42857143 -8 6 C-8 5.67 -8 5.34 -8 5 C-6.35 5 -4.7 5 -3 5 C-2.690625 4.360625 -2.38125 3.72125 -2.0625 3.0625 C-1 1 -1 1 0 0 Z " fill="#C6EBFB" transform="translate(49,167)"/>
<path d="M0 0 C1.65 0 3.3 0 5 0 C4.62005832 2.75457718 4.1926367 3.82020574 2.125 5.75 C0 7 0 7 -3 7 C-1.125 2.25 -1.125 2.25 0 0 Z " fill="#3EBAD9" transform="translate(42,182)"/>
<path d="M0 0 C0.99 0 1.98 0 3 0 C3 1.98 3 3.96 3 6 C-0.75 7.125 -0.75 7.125 -3 6 C-2.42655063 3.13275314 -2.1385485 2.1385485 0 0 Z " fill="#2EC3ED" transform="translate(40,114)"/>
<path d="M0 0 C0.33 0 0.66 0 1 0 C1.33 3.96 1.66 7.92 2 12 C0.68 12.33 -0.64 12.66 -2 13 C-2 10.36 -2 7.72 -2 5 C-1.34 5 -0.68 5 0 5 C0 3.35 0 1.7 0 0 Z " fill="#2C3060" transform="translate(162,148)"/>
<path d="M0 0 C2.64 0 5.28 0 8 0 C8 1.32 8 2.64 8 4 C5.36 3.67 2.72 3.34 0 3 C0 2.01 0 1.02 0 0 Z " fill="#39BBE4" transform="translate(13,171)"/>
<path d="M0 0 C0.66 0.33 1.32 0.66 2 1 C2.50130606 6.26371362 1.31168629 8.9090934 -2 13 C-2.66 13 -3.32 13 -4 13 C-3.71125 12.34 -3.4225 11.68 -3.125 11 C-1.76562701 7.37500535 -0.89375361 3.76653307 0 0 Z " fill="#A8E1F8" transform="translate(62,156)"/>
<path d="M0 0 C0.66 0 1.32 0 2 0 C6 5.41176471 6 5.41176471 6 8 C3.625 7.8125 3.625 7.8125 1 7 C-0.375 4.5625 -0.375 4.5625 -1 2 C-0.67 1.34 -0.34 0.68 0 0 Z " fill="#2F305F" transform="translate(302,153)"/>
<path d="M0 0 C1.32 0 2.64 0 4 0 C4 5.28 4 10.56 4 16 C3.67 16 3.34 16 3 16 C2.67 11.71 2.34 7.42 2 3 C1.67 4.65 1.34 6.3 1 8 C0.67 8 0.34 8 0 8 C0 5.36 0 2.72 0 0 Z " fill="#363163" transform="translate(323,140)"/>
<path d="M0 0 C0.66 0 1.32 0 2 0 C2 0.66 2 1.32 2 2 C2.928125 1.938125 3.85625 1.87625 4.8125 1.8125 C8 2 8 2 9.8125 3.25 C11.11258722 5.16591802 11.60856977 6.72970466 12 9 C9.80201017 8.01469421 8.17947452 7.18695263 6.5 5.4375 C5.07437419 3.82756672 5.07437419 3.82756672 2.875 3.5 C2.25625 3.335 1.6375 3.17 1 3 C0.67 2.01 0.34 1.02 0 0 Z " fill="#A6DDF4" transform="translate(51,128)"/>
<path d="M0 0 C0.33 1.32 0.66 2.64 1 4 C-2.375 4.1875 -2.375 4.1875 -6 4 C-6.66 3.01 -7.32 2.02 -8 1 C-5.29120665 -0.35439668 -2.99066732 -0.06501451 0 0 Z " fill="#E6F2F8" transform="translate(44,132)"/>
<path d="M0 0 C0.99 0.33 1.98 0.66 3 1 C3 4 3 7 3 10 C2.01 10.33 1.02 10.66 0 11 C0 11.66 0 12.32 0 13 C-1.32 12.34 -2.64 11.68 -4 11 C-0.25 9 -0.25 9 2 9 C1.67 8.2575 1.34 7.515 1 6.75 C0 4 0 4 0 0 Z " fill="#C7ECF9" transform="translate(61,141)"/>
<path d="M0 0 C0.99 0.33 1.98 0.66 3 1 C3 5 3 5 1 8 C-0.32 7.67 -1.64 7.34 -3 7 C-2.01 4.69 -1.02 2.38 0 0 Z " fill="#2A2658" transform="translate(380,153)"/>
<path d="M0 0 C2.91517292 1.07401108 4.77810176 1.77810176 7 4 C7 4.99 7 5.98 7 7 C6.01 7.33 5.02 7.66 4 8 C0 2.25 0 2.25 0 0 Z " fill="#39B7D2" transform="translate(3,145)"/>
<path d="M0 0 C2.50298434 2.93828597 3.46930939 5.17902761 4 9 C2.68 8.67 1.36 8.34 0 8 C-0.98120464 4.94736336 -0.98120464 3.05263664 0 0 Z " fill="#343260" transform="translate(196,152)"/>
<path d="M0 0 C1.32 0 2.64 0 4 0 C4 2.64 4 5.28 4 8 C2.68 7.67 1.36 7.34 0 7 C0.185625 6.21625 0.37125 5.4325 0.5625 4.625 C1.25962266 2.02910225 1.25962266 2.02910225 0 0 Z " fill="#4CC7F2" transform="translate(8,147)"/>
<path d="M0 0 C0.66 0 1.32 0 2 0 C1.67 1.98 1.34 3.96 1 6 C-1.31 6.66 -3.62 7.32 -6 8 C-6.33 6.68 -6.66 5.36 -7 4 C-4.03 4.495 -4.03 4.495 -1 5 C-0.67 3.35 -0.34 1.7 0 0 Z " fill="#D2EFF9" transform="translate(58,158)"/>
<path d="M0 0 C2.79872437 2.52788007 4.45773019 4.20411134 5 8 C3.35 7.67 1.7 7.34 0 7 C-0.38133299 5.0085944 -0.71325582 3.00720923 -1 1 C-0.67 0.67 -0.34 0.34 0 0 Z " fill="#39346E" transform="translate(338,153)"/>
<path d="M0 0 C0.66 0 1.32 0 2 0 C1.39009109 3.55780196 0.4216319 6.6828589 -1 10 C-1.99 9.34 -2.98 8.68 -4 8 C-4 7.34 -4 6.68 -4 6 C-3.01 5.34 -2.02 4.68 -1 4 C-0.27617533 1.94074861 -0.27617533 1.94074861 0 0 Z " fill="#73D3F0" transform="translate(20,128)"/>
<path d="M0 0 C1.65 0 3.3 0 5 0 C5.33 1.65 5.66 3.3 6 5 C5.67 4.34 5.34 3.68 5 3 C3.35 3 1.7 3 0 3 C-0.33 3.66 -0.66 4.32 -1 5 C-0.67 3.35 -0.34 1.7 0 0 Z " fill="#5ECCEF" transform="translate(42,179)"/>
<path d="M0 0 C0.66 0.33 1.32 0.66 2 1 C1.01 2.98 0.02 4.96 -1 7 C-1.66 6.01 -2.32 5.02 -3 4 C-6.08365871 3.7497843 -6.08365871 3.7497843 -9 4 C-9 3.34 -9 2.68 -9 2 C-6.03 2 -3.06 2 0 2 C0 1.34 0 0.68 0 0 Z " fill="#82D0E8" transform="translate(50,176)"/>
<path d="M0 0 C0.99 0.99 1.98 1.98 3 3 C2.67 3.66 2.34 4.32 2 5 C-1.63 5 -5.26 5 -9 5 C-8.67 3.68 -8.34 2.36 -8 1 C-7.67 1.66 -7.34 2.32 -7 3 C-4.67843403 3.40729228 -2.3431213 3.74438677 0 4 C0 2.68 0 1.36 0 0 Z " fill="#8AD5E6" transform="translate(44,120)"/>
<path d="M0 0 C1.9451 2.91765 2.45276317 4.62537285 3 8 C1.68 7.67 0.36 7.34 -1 7 C-1.33 5.68 -1.66 4.36 -2 3 C-1.34 3 -0.68 3 0 3 C0 2.01 0 1.02 0 0 Z " fill="#37355B" transform="translate(360,153)"/>
<path d="M0 0 C2.73886155 0.02559684 4.40257532 0.30085844 7.0625 1.1875 C7.0625 2.5075 7.0625 3.8275 7.0625 5.1875 C6.4025 5.1875 5.7425 5.1875 5.0625 5.1875 C4.4025 4.1975 3.7425 3.2075 3.0625 2.1875 C0.85524927 1.82387182 0.85524927 1.82387182 -1.5625 2 C-2.37976563 2.02707031 -3.19703125 2.05414063 -4.0390625 2.08203125 C-4.97878906 2.13423828 -4.97878906 2.13423828 -5.9375 2.1875 C-3.9375 0.1875 -3.9375 0.1875 0 0 Z " fill="#2F2D59" transform="translate(253.9375,138.8125)"/>
<path d="M0 0 C3 3.625 3 3.625 3 7 C1.68 6.67 0.36 6.34 -1 6 C-1.33 4.68 -1.66 3.36 -2 2 C-1.34 2 -0.68 2 0 2 C0 1.34 0 0.68 0 0 Z " fill="#323352" transform="translate(153,154)"/>
<path d="M0 0 C0.99 0 1.98 0 3 0 C3 2.31 3 4.62 3 7 C2.01 7 1.02 7 0 7 C0 4.69 0 2.38 0 0 Z " fill="#6FD2FA" transform="translate(12,147)"/>
<path d="M0 0 C1.98 0 3.96 0 6 0 C6 0.99 6 1.98 6 3 C4.35 3.33 2.7 3.66 1 4 C0.67 2.68 0.34 1.36 0 0 Z " fill="#2DBAEF" transform="translate(61,124)"/>
<path d="M0 0 C1.98 0.66 3.96 1.32 6 2 C5.67 3.32 5.34 4.64 5 6 C4.01 6 3.02 6 2 6 C1.34 4.02 0.68 2.04 0 0 Z " fill="#A9DEF0" transform="translate(26,168)"/>
<path d="M0 0 C0.33 0 0.66 0 1 0 C2.125 6.75 2.125 6.75 1 9 C-0.32 8.67 -1.64 8.34 -3 8 C-2.34 8 -1.68 8 -1 8 C-1.020625 6.865625 -1.04125 5.73125 -1.0625 4.5625 C-1 1 -1 1 0 0 Z " fill="#B7E5FC" transform="translate(19,149)"/>
<path d="M0 0 C1.485 0.99 1.485 0.99 3 2 C2.34 2 1.68 2 1 2 C1 4.64 1 7.28 1 10 C0.34 9.67 -0.32 9.34 -1 9 C-1.09765625 2.84765625 -1.09765625 2.84765625 -1 1 C-0.67 0.67 -0.34 0.34 0 0 Z " fill="#58C9ED" transform="translate(72,143)"/>
<path d="M0 0 C1.65 0.33 3.3 0.66 5 1 C4.67 1.99 4.34 2.98 4 4 C1.4375 5.1875 1.4375 5.1875 -1 6 C-0.67 4.02 -0.34 2.04 0 0 Z " fill="#C9E9ED" transform="translate(58,136)"/>
<path d="M0 0 C0 1.32 0 2.64 0 4 C-0.99 4.33 -1.98 4.66 -3 5 C-3 4.01 -3 3.02 -3 2 C-4.98 2 -6.96 2 -9 2 C-9 1.67 -9 1.34 -9 1 C-5.94152152 0.45627049 -3.11227195 0 0 0 Z " fill="#33335B" transform="translate(261,156)"/>
<path d="M0 0 C0.33 0 0.66 0 1 0 C1.33 2.64 1.66 5.28 2 8 C2.66 7.67 3.32 7.34 4 7 C4 8.32 4 9.64 4 11 C2.68 10.67 1.36 10.34 0 10 C0 6.7 0 3.4 0 0 Z " fill="#39385C" transform="translate(201,150)"/>
<path d="M0 0 C3.87132028 0.57352893 6.08172796 2.48704352 9 5 C4.73350364 5 3.36683915 4.43160605 0 2 C0 1.34 0 0.68 0 0 Z " fill="#72D2F7" transform="translate(56,126)"/>
<path d="M0 0 C1.45823212 -0.0270043 2.91660675 -0.04639787 4.375 -0.0625 C5.18710938 -0.07410156 5.99921875 -0.08570312 6.8359375 -0.09765625 C9 0 9 0 11 1 C11 1.66 11 2.32 11 3 C9.68 3.33 8.36 3.66 7 4 C7 3.01 7 2.02 7 1 C4.69 1 2.38 1 0 1 C0 0.67 0 0.34 0 0 Z " fill="#48B0D0" transform="translate(60,123)"/>
<path d="M0 0 C0.99 0 1.98 0 3 0 C2.6875 2.375 2.6875 2.375 2 5 C1.01 5.66 0.02 6.32 -1 7 C-0.67 4.69 -0.34 2.38 0 0 Z " fill="#CBE8ED" transform="translate(33,165)"/>
<path d="M0 0 C0.99 0.33 1.98 0.66 3 1 C3.6875 3.0625 3.6875 3.0625 4 5 C2.35 5 0.7 5 -1 5 C-0.67 3.35 -0.34 1.7 0 0 Z " fill="#302E5A" transform="translate(189,139)"/>
<path d="M0 0 C1.65 0 3.3 0 5 0 C4.67 0.99 4.34 1.98 4 3 C3.34 3 2.68 3 2 3 C1.67 3.66 1.34 4.32 1 5 C0.67 3.35 0.34 1.7 0 0 Z " fill="#2A2D6C" transform="translate(160,141)"/>
<path d="M0 0 C1.32 0.33 2.64 0.66 4 1 C3.67 2.32 3.34 3.64 3 5 C2.01 5 1.02 5 0 5 C0 3.35 0 1.7 0 0 Z " fill="#22BFEC" transform="translate(15,127)"/>
</svg>
