<svg xmlns="http://www.w3.org/2000/svg" width="500" height="500"><path fill="#30A7E3" d="m211.512 73.832 5.095-.01q5.325-.009 10.649-.007c4.507 0 9.013-.014 13.52-.031q5.26-.015 10.52-.013 2.49 0 4.978-.013c21.246-.09 43.125 1.959 59.261 17.547a226 226 0 0 1 5.19 5.34c3.146 3.391 3.146 3.391 7.275 5.355l.762-2.566c1.333-3.698 3.072-6.993 5.05-10.371l1.082-1.859c6.92-11.78 6.92-11.78 9.954-12.864 2.315-.366 4.494-.467 6.838-.47l2.803-.009 3.015.006 3.132-.003q3.285 0 6.57.006 4.98.005 9.96-.007 3.2 0 6.4.004l2.972-.006c18.384.061 18.384.061 20.462 2.139-.17 7.97-2.89 13.532-6.687 20.438l-1.569 2.947c-4.425 8.25-9.168 16.289-14.307 24.115-2.118 3.307-4.047 6.587-5.75 10.125-3.046 6.326-6.696 12.296-10.285 18.324l-1.211 2.06a125 125 0 0 1-2.425 3.892c-1.673 2.657-2.776 4.515-2.723 7.7 1.134 2.843 2.594 5.212 4.27 7.774 8.993 15.211 10.298 33.574 5.937 50.563-2.882 10.037-8.397 18.825-13.81 27.67-1.835 3.049-3.547 6.159-5.26 9.277-1.792 3.213-3.703 6.35-5.618 9.49a334 334 0 0 0-8.857 15.548c-2.047 3.693-4.21 7.306-6.392 10.92l-1.26 2.094L328 304l3.916.06c4.782.076 9.564.165 14.346.257q3.108.058 6.216.105c2.973.045 5.947.103 8.92.164l2.82.035 2.608.06 2.301.04C371 305 371 305 373 307c.04 19.613-20.232 44.013-29.625 60.188l-1.793 3.095-1.684 2.885-1.479 2.54c-1.363 2.202-2.857 4.229-4.419 6.292a228 228 0 0 0-2.5 4.875c-9.353 17.294-22.837 29.726-41.594 36.191-7.547 2.146-14.96 3.084-22.806 3.08l-2.295.01c-2.487.009-4.974.01-7.461.012l-5.243.01q-5.493.009-10.985.007c-4.651 0-9.303.014-13.955.031q-5.418.015-10.836.013-2.568 0-5.137.013c-24.238.1-45.218-3.492-63.188-21.242-4-4.488-4-4.488-4-7h-2l-.812-1.512C137.375 389.502 133.2 382.758 129 376c-7.808-12.568-15.535-25.206-22.5-38.266-1.46-2.661-3.005-5.264-4.56-7.87-3.848-6.51-7.746-13.303-8.94-20.864l2-4h44l-5-9q-1.27-2.303-2.535-4.605l-1.264-2.291q-1.272-2.307-2.539-4.618A165 165 0 0 0 120 272q-1.443-2.543-2.812-5.125A356 356 0 0 0 110.5 255c-12.741-21.73-22.813-41.317-16.5-67 3.243-9.987 8.739-18.974 14-28l1.785-3.09c2.475-4.265 4.98-8.513 7.485-12.762l2.48-4.21 1.268-2.153c2.787-4.736 5.551-9.485 8.3-14.243q1.425-2.469 2.859-4.933c1.846-3.174 3.68-6.345 5.428-9.574C143.44 98.48 152.374 88.785 163 83l2.39-1.355c14.65-7.855 29.92-7.806 46.122-7.813m-23.013 65.948c-1.412 2.585-1.412 2.585-2.499 5.22a1636 1636 0 0 1-2.312 4.563c-.389.814-.777 1.629-1.176 2.468-2.405 4.723-5.15 9.24-7.857 13.795-2.123 3.574-4.229 7.147-6.218 10.799-1.82 3.335-3.759 6.584-5.736 9.827a430 430 0 0 0-3.502 5.93 50.5 50.5 0 0 1-4.242 6.173c-1.952 2.68-2.744 4.115-2.957 7.445 1.805 5.609 5.261 10.55 8.414 15.475 2.684 4.273 5.114 8.69 7.586 13.088a1299 1299 0 0 0 12.791 21.933c1.647 2.773 3.21 5.506 4.611 8.414L187 268l.832 2.227c1.409 2.96 2.625 4.673 5.168 6.773 6.003 1.423 11.95 1.293 18.094 1.23q2.69.014 5.379.034c3.753.018 7.504.002 11.257-.036 4.803-.045 9.602-.006 14.405.06 3.701.04 7.401.032 11.103.011q2.655-.006 5.31.033c9.573.472 9.573.472 17.795-3.46 1.57-2.579 2.65-5.032 3.657-7.872l1.703-2.92 1.332-2.334 1.514-2.65 1.514-2.659 1.525-2.67c2.35-4.119 4.683-8.246 6.978-12.396a564 564 0 0 1 7.309-12.746l1.302-2.222a286 286 0 0 1 9.546-15.106c1.452-2.61 2.164-4.3 2.277-7.297-1.383-3.03-1.383-3.03-3.5-6.062q-1.125-1.734-2.246-3.47l-1.152-1.757c-1.638-2.544-3.151-5.154-4.664-7.774l-1.715-2.957L300 179c-4.667-8.1-4.667-8.1-9.562-16.062-3.681-5.822-6.839-11.945-10.083-18.016l-1.605-2.984-1.453-2.723c-1.233-2.32-1.233-2.32-3.297-4.215a91 91 0 0 0-7.552-.386l-2.36-.05a959 959 0 0 0-7.756-.11c-.883-.012-1.766-.022-2.676-.033q-7.014-.08-14.03-.121c-4.825-.033-9.647-.123-14.471-.225-3.714-.067-7.428-.09-11.142-.102a275 275 0 0 1-5.333-.091c-11.497-.655-11.497-.655-20.181 5.898M176 334c1.238 3.828 2.497 7.144 4.625 10.563l1.586 2.566L184 350q1.052 1.732 2.102 3.465c3.501 6.106 3.501 6.106 7.898 11.535 3.15.308 3.15.308 6.909.259l2.154.01c2.358.01 4.716.003 7.074-.003l4.918.005q5.164.005 10.328-.01c4.4-.012 8.8-.005 13.2.007q5.085.009 10.17 0 2.43-.003 4.864.005c2.276.005 4.551-.003 6.827-.014l3.918-.005c4.535-.317 9.118-.657 12.363-4.067l1.19-2.187 1.36-2.427 1.35-2.573 1.43-2.599c3.13-5.723 6.159-11.503 8.945-17.401l-2.416.214c-10.006.809-19.935.933-29.967.919l-5.244.003q-5.47.002-10.937-.006-6.918-.006-13.835.004-5.412.005-10.822 0-2.546 0-5.091.002c-12.258.014-24.45-.428-36.688-1.136"/><path fill="#FECC01" d="m139 304 1 2 3.613-.105 4.7-.082 2.38-.077 2.295-.029 2.11-.048c2.489.446 3.338 1.4 4.902 3.341l2 5a192 192 0 0 0 3.977 6.23C167 322 167 322 167 324l3 1 .875 2.313c.945 2.876.945 2.876 3.625 4.625 3.099 2.556 3.301 4.255 4.5 8.062 1.856 3.42 3.941 6.698 6 10q1.07 1.75 2.137 3.5c3.05 5.55 3.05 5.55 6.863 10.5 2.263.105 4.53.139 6.795.145l2.154.01q3.545.013 7.09.013l4.923.01q5.173.009 10.345.007c4.408 0 8.816.014 13.225.031q5.09.015 10.181.013 2.437 0 4.873.013c2.28.01 4.561.007 6.842 0l3.928.005c3.85-.26 7.029-.9 10.644-2.247 1.714-2.41 2.863-4.36 4.063-7q1.013-2.052 2.03-4.102l.981-2.024c2.826-5.72 6.102-10.964 10.238-15.812 4.27-5.246 6.808-11.34 9.492-17.5l1.083-2.43.944-2.19c1.493-2.48 2.61-3.547 5.169-4.942a68 68 0 0 1 7.813-.676l2.373-.1c9.282-.35 18.573-.41 27.86-.41 3.006-.002 6.011-.02 9.017-.039q2.874-.005 5.75-.005l2.714-.022c6.244.023 6.244.023 8.473 2.252.04 19.613-20.232 44.013-29.625 60.188l-1.793 3.095-1.684 2.885-1.479 2.54c-1.363 2.202-2.857 4.229-4.419 6.292a228 228 0 0 0-2.5 4.875c-9.353 17.294-22.837 29.726-41.594 36.191-7.547 2.146-14.96 3.084-22.806 3.08l-2.295.01c-2.487.009-4.974.01-7.461.012l-5.243.01q-5.493.009-10.985.007c-4.651 0-9.303.014-13.955.031q-5.418.015-10.836.013-2.569 0-5.137.013c-24.238.1-45.218-3.492-63.188-21.242-4-4.488-4-4.488-4-7h-2l-.812-1.512C137.375 389.502 133.2 382.758 129 376c-7.808-12.568-15.535-25.206-22.5-38.266-1.46-2.661-3.005-5.264-4.56-7.87-3.848-6.51-7.746-13.303-8.94-20.864l2-4z"/><path fill="#F0C228" d="M347.047 304.815c3.005-.003 6.01-.02 9.015-.04q2.876-.005 5.75-.005l2.715-.022c6.244.023 6.244.023 8.473 2.252.033 15.788-14.475 33.89-22 47l-1.895 3.319a2961 2961 0 0 1-5.668 9.868l-1.767 3.096-1.674 2.885-1.463 2.54c-1.617 2.417-3.415 4.308-5.533 6.292v-7h2l.25-2.563c.89-4.075 2.545-6.946 4.75-10.437 1.896-3.02 3.348-5.478 4-9l5-1 .367-1.758c1.534-7.15 3.015-13.365 7.633-19.242h3l1-4h3v-7l3-1v-10q-5.838-.037-11.676-.055-2.937-.012-5.873-.033c-7.257-.018-14.402.238-21.631.863-3.398.271-6.726.325-10.132.287l-3.301-.027L312 310v2h-6l-.437 2.312C305 317 305 317 304 320h-2l-.562 2.375c-1.706 4.3-4.118 7.572-6.88 11.258-1.456 2.212-2.123 3.783-2.558 6.367l-4 1-.367 1.941c-2.054 10.6-2.054 10.6-3.633 15.059l-3 2a161 161 0 0 0-3 7c-1.8 1.8-4.25 1.12-6.646 1.124l-2.454-.01h-2.572c-2.819 0-5.638-.009-8.457-.016l-5.847-.005q-7.712-.006-15.423-.024-7.862-.014-15.724-.02-15.439-.016-30.877-.049a345 345 0 0 1-1.5-3.75l-.844-2.11C187 360 187 360 187 356l-3-1-1.375-2.875c-1.355-3.276-1.355-3.276-4.25-4.688C176 346 176 346 175.313 343.375L175 341l-2-1v-5c-.606-.235-1.212-.47-1.836-.71-4.553-2.713-6.399-8.842-7.926-13.728-.464-1.842-.859-3.7-1.238-5.562 3.039 1.52 3.644 3.98 5 7v2l3 1 .875 2.312c.945 2.877.945 2.877 3.625 4.625 3.099 2.557 3.301 4.256 4.5 8.063 1.856 3.42 3.941 6.698 6 10q1.07 1.75 2.137 3.5c3.05 5.55 3.05 5.55 6.863 10.5 2.263.105 4.53.139 6.795.145l2.154.01q3.545.013 7.09.013l4.923.01q5.173.009 10.345.007c4.408 0 8.816.014 13.225.031q5.09.015 10.181.013 2.437 0 4.873.013c2.28.01 4.561.007 6.842 0l3.928.005c3.85-.26 7.029-.9 10.644-2.247 1.714-2.41 2.863-4.36 4.063-7q1.013-2.052 2.03-4.102l.981-2.024c2.826-5.72 6.102-10.964 10.238-15.812 4.27-5.246 6.808-11.34 9.492-17.5l1.083-2.43.944-2.19c1.493-2.48 2.61-3.547 5.169-4.942a68 68 0 0 1 7.813-.676l2.373-.1c9.282-.35 18.573-.41 27.86-.41"/><path fill="#EEC628" d="m331.461 304.855 2.65-.02 2.834-.003 2.928-.01q3.06-.007 6.118-.007c3.13-.002 6.258-.02 9.388-.04q2.97-.005 5.941-.005l2.848-.022 2.63.01 2.318-.005C371 305 371 305 373 307c.033 15.788-14.475 33.89-22 47l-1.895 3.319a2961 2961 0 0 1-5.667 9.868l-1.768 3.096-1.674 2.885-1.463 2.54c-1.617 2.417-3.415 4.308-5.533 6.292v-7h2l.25-2.563c.89-4.075 2.545-6.946 4.75-10.437 1.896-3.02 3.348-5.478 4-9l5-1 .367-1.758c1.534-7.15 3.015-13.365 7.633-19.242h3l1-4h3v-7l3-1v-10q-5.838-.037-11.676-.055-2.936-.012-5.873-.033c-7.257-.018-14.402.238-21.631.863-3.398.271-6.726.325-10.132.287l-3.301-.027L312 310v2h-4l2-5 2.703-.184 3.547-.254c1.16-.08 2.32-.162 3.516-.246 3.04-.21 3.04-.21 5.157-.827 2.246-.529 4.233-.623 6.538-.634"/><path fill="#2F99CC" d="m211.512 73.832 5.095-.01q5.325-.009 10.649-.007c4.507 0 9.013-.014 13.52-.031q5.26-.015 10.52-.013 2.49 0 4.978-.013c10.43-.045 20.42.567 30.726 2.242v2l2 1c-1 1-1 1-4.5 1.125C281 80 281 80 280 79a182 182 0 0 0-7.64-.114h-2.425c-2.657 0-5.313.009-7.97.016l-5.511.005q-7.267.006-14.535.024-7.41.014-14.82.02-14.55.016-29.099.049v1q-2.22.039-4.437.063l-2.497.035C189 80 189 80 188 79c-5.538.154-10.746 1.323-16 3v-2l5-1v-2c11.203-3.653 22.856-3.163 34.512-3.168"/><path fill="#EFD259" d="m139 304 1 2 3.613-.105 4.7-.082 2.38-.077 2.295-.029 2.11-.048c2.489.446 3.39 1.352 4.902 3.341-.312 2.188-.312 2.188-1 4v-2l-3-1v-2H97c1.68 6.146 1.68 6.146 4 12l2 1 .313 2.75c.872 4.127 2.639 5.42 5.687 8.25 3.055 3.927 3.374 7.182 3.496 12.012L113 346l1.84.86c3.297 1.74 3.871 4.331 5.285 7.702 1.542 4.516 1.542 4.516 4.875 7.438l.875 2.375c.89 2.72.89 2.72 3.09 3.98 2.522 2.039 2.915 3.477 3.722 6.582l.7 2.59L134 380l.582 2.316L135 384c-3.04-2.824-5.097-5.575-7.125-9.187l-1.812-3.188-.989-1.746c-2.027-3.545-4.12-7.052-6.199-10.567-2.903-4.926-5.787-9.857-8.531-14.875a608 608 0 0 0-3.5-6.25l-1.197-2.114q-1.173-2.07-2.35-4.14c-7.284-12.882-7.284-12.882-9.047-19.933l-.734-2.875L93 307c2.402-2.402 2.984-2.263 6.266-2.319l2.67-.06 2.884-.035 2.951-.059c3.118-.06 6.236-.106 9.354-.152l6.332-.117q7.77-.143 15.543-.258"/><path fill="#369CCE" d="m353.762 74.757 3.509-.01 3.772.023h3.877q4.053.003 8.107.024 5.205.023 10.411.02c3.306 0 6.612.01 9.917.018l3.791.003 3.48.02 3.079.011C406 75 406 75 407 76c-.142 8.147-3.083 13.935-6.937 21l-1.67 3.176c-4.098 7.676-4.098 7.676-6.393 8.824l-2-2h3l.375-3.25c.536-3.215 1.179-4.954 2.625-7.75v-4c.897-.03.897-.03 1.813-.063 2.543-.821 2.543-.821 3.875-4.062 1.356-3.56 1.925-7.084 2.312-10.875h-4l-1 3h-55l-1 5-3 1 .875-1.688c1.191-2.32 1.191-2.32 2-4.937 2.22-4.686 6.11-4.625 10.887-4.618"/><path fill="#4B99BA" d="M140 304c2.939.087 5.875.194 8.813.313l2.525.068 2.432.107 2.237.08c2.515.545 3.408 1.438 4.993 3.432l.938 2.563c.793 2.587.793 2.587 3 3.25 3.422 1.97 3.894 5.571 5.062 9.187a600 600 0 0 0 2 5h2v2l3.438-.062C181 330 181 330 182 331a120 120 0 0 0 5.785.316l3.545.127 3.732.12 3.745.13q4.596.16 9.193.307l1 2h64v-2h16c-6.154 4.615-12.65 4.15-20.122 4.13l-2.329.005q-3.779.004-7.557-.002l-5.313.003q-5.56.002-11.12-.006a5709 5709 0 0 0-14.14.004q-5.488.005-10.975 0-2.604 0-5.207.002c-34.413.037-34.413.037-40.944-5.613-1.535-1.809-1.724-3.247-2.293-5.523a540 540 0 0 0-3-3c-3.103-4.437-5.629-9.139-8-14-2.12-2.12-6.62-1.418-9.562-1.562l-2.444-.131A1763 1763 0 0 0 140 306z"/><path fill="#F1D35A" d="M167 418c6.392.724 12.68 1.803 19 3v2q19.377-.161 38.752-.34 8.998-.082 17.995-.157 8.685-.072 17.37-.156 3.312-.03 6.623-.056 4.642-.037 9.286-.086l2.757-.017c4.837-.056 9.446-.38 14.217-1.188-9.955 6.637-24.932 5.433-36.437 5.363q-2.605 0-5.21.002-5.42 0-10.84-.029c-4.589-.023-9.177-.023-13.766-.016a2920 2920 0 0 1-10.733-.013q-2.535-.006-5.07-.004c-26.83.004-26.83.004-38.381-4.928l-3.247-1.352L167 419z"/><path fill="#EBD259" d="M162 315c3.039 1.52 3.644 3.98 5 7v2l3 1 .875 2.313c.945 2.876.945 2.876 3.625 4.625 3.099 2.556 3.301 4.255 4.5 8.062 1.856 3.42 3.941 6.698 6 10q1.07 1.75 2.137 3.5c3.05 5.55 3.05 5.55 6.863 10.5 2.263.105 4.53.139 6.795.145l2.154.01q3.545.013 7.09.013l4.923.01q5.173.009 10.345.007c4.408 0 8.816.014 13.225.031q5.09.015 10.181.013 2.437 0 4.873.013c2.28.01 4.561.007 6.842 0l3.928.005c3.849-.26 7.032-.893 10.644-2.247 1.994-2.984 1.994-2.984 3-6l2 3h-2l.125 2.875C278 365 278 365 276 367a98 98 0 0 1-7.875.29l-2.464.02c-2.697.02-5.394.024-8.09.026l-5.613.02q-5.889.017-11.778.015c-5.033 0-10.065.027-15.098.061-3.866.022-7.731.026-11.597.025q-2.784.004-5.567.027c-2.595.02-5.19.014-7.785.002l-2.327.034c-3.453-.04-5.443-.255-8.267-2.316-2.08-2.978-2.264-5.63-2.539-9.204l-3-1-1.375-2.875c-1.355-3.276-1.355-3.276-4.25-4.687C176 346 176 346 175.313 343.375L175 341l-2-1v-5c-.606-.235-1.212-.47-1.836-.71-4.553-2.713-6.399-8.842-7.926-13.728-.464-1.842-.859-3.7-1.238-5.562"/><path fill="#4DA6CE" d="M298 174h4l.48 1.793c1.587 5.373 3.246 8.395 7.52 12.207v2h2l.813 2.188c1.066 2.81 1.066 2.81 2.75 5 2.112 4.132 2.71 8.183 2.437 12.812-1.812 3.125-1.812 3.125-4 5h-2l.125 2.375C312 220 312 220 310 222l-.937 2.938c-1.013 2.919-1.632 4.239-4.063 6.062h-2l-.875 2.25A82 82 0 0 1 299 240h-2l-1 3h-2c1.493-5.256 3.89-9.549 6.688-14.187l1.343-2.263a318 318 0 0 1 9.692-15.253c1.452-2.61 2.164-4.3 2.277-7.297-1.383-3.03-1.383-3.03-3.5-6.062q-1.113-1.72-2.223-3.442l-1.149-1.754c-1.754-2.709-3.416-5.468-5.065-8.242l-1.715-2.844c-1.32-2.602-1.937-4.781-2.348-7.656"/><path fill="#4FA5CA" d="M200.052 131.886h2.484c2.71 0 5.421.009 8.132.016l5.637.005q7.42.006 14.84.024 7.572.014 15.142.02 14.857.016 29.713.049v3l-3.13.011q-14.59.056-29.18.173c-5 .04-10.001.072-15.002.087-4.824.015-9.648.05-14.472.097q-2.764.022-5.528.024c-2.576.002-5.152.03-7.728.062l-2.32-.015c-4.304.071-4.304.071-7.637 2.595L190 140l-4-1 2-2 .438-2.063L189 133c3.725-1.242 7.173-1.132 11.052-1.114"/><path fill="#F6C516" d="m320 397 3 1c-5.023 11.301-16.862 18.666-28 23-6.436 1.843-12.535 2.28-19.201 2.227h-2.96c-3.198 0-6.395-.016-9.593-.032l-6.687-.008q-8.767-.014-17.533-.05c-5.973-.02-11.946-.03-17.919-.04-11.702-.02-23.405-.055-35.107-.097v-1l3.524-.031q16.401-.147 32.801-.308 8.433-.084 16.866-.158 8.13-.072 16.261-.156 3.11-.031 6.219-.056 4.34-.037 8.678-.086l2.625-.017c3.823.323 3.823.323 7.026-1.188 2.35-.235 4.706-.414 7.063-.562l3.91-.254L294 419v-2c3.62-1.316 6.096-2 10-2v-3l5-1v-2h3l2-5h2l-2-4h6z"/><path fill="#9ACFE3" d="m211.512 73.832 5.095-.01q5.325-.009 10.649-.007c4.507 0 9.013-.014 13.52-.031q5.26-.015 10.52-.013 2.49 0 4.978-.013c10.43-.045 20.42.567 30.726 2.242v1q-19.09.034-38.177.052-8.864.007-17.727.023-8.548.016-17.098.02-3.265.003-6.532.01-4.564.01-9.13.009l-2.744.01-2.51-.004-2.182.003C189 77 189 77 186 76v2l-6-1c9.039-4.995 21.443-3.163 31.512-3.168"/><path fill="#3691B9" d="m189 274 1.62.918c3.418 1.554 6.766 1.39 10.453 1.4l2.455.031c2.673.031 5.346.048 8.019.065q2.782.028 5.565.059c4.88.051 9.759.09 14.638.128 4.98.04 9.961.091 14.941.141q14.655.144 29.309.258c-2.878 2.878-5.814 2.347-9.675 2.398l-2.4.055c-2.627.057-5.255.098-7.882.137l-5.47.094q-5.742.095-11.483.169c-4.904.066-9.806.164-14.709.27-3.768.076-7.537.13-11.306.177q-2.71.04-5.421.105c-2.53.058-5.06.084-7.59.103l-2.26.073c-4.084-.008-5.633-.437-8.808-3.113L187 275z"/><path fill="#4A9EC7" d="M380 124h2c-1.73 10.207-8.374 19.178-13.598 27.95l-1.215 2.05a632 632 0 0 1-2.386 3.987c-2.19 3.541-2.19 3.541-2.801 7.576.975 2.631.975 2.631 3.063 5.375 2.152 3.401 2.312 5.123 1.937 9.062l-2-4h-2c-3.64-3.93-3.923-7.483-4.187-12.687C359 160 359 160 361 158l1-3h2l.75-1.937c1.39-3.404 2.908-6.736 4.445-10.075.93-1.94.93-1.94.805-3.988h3l1-7h4l.438-2.312C379 127 379 127 380 124"/><path fill="#409FC7" d="M140 304c2.939.087 5.875.194 8.813.313l2.525.068 2.432.107 2.237.08c2.515.545 3.408 1.438 4.993 3.432l.938 2.563c.793 2.587.793 2.587 3 3.25 3.422 1.97 3.894 5.571 5.062 9.187a600 600 0 0 0 2 5h2v2l3.438-.062C181 330 181 330 182 331a120 120 0 0 0 5.785.316l3.545.127 3.732.12 3.745.13q4.596.16 9.193.307l1 2c-27.502 2.558-27.502 2.558-36-2-2.624-2.276-3.172-3.687-4-7a540 540 0 0 0-3-3c-3.103-4.437-5.629-9.139-8-14-2.12-2.12-6.62-1.418-9.562-1.562l-2.444-.131A1763 1763 0 0 0 140 306z"/><path fill="#3199C6" d="M100 175c1.292 3.722.791 6.778.188 10.625l-.52 3.477C99 192 99 192 97 194c-.37 2.16-.37 2.16-.414 4.656l-.117 2.852-.094 2.992-.117 2.898A410 410 0 0 0 96 226c-5.897-11.355-5.04-25.903-2-38 3.889-10.889 3.889-10.889 6-13"/><path fill="#F5C81A" d="m108.734 306.867 2.637-.003q2.776 0 5.548.006c2.779.005 5.557 0 8.335-.007q7.874-.004 15.746.137l2.344.04c2.1.048 4.197.126 6.297.218l3.532.137c2.827.605 2.827.605 4.724 2.651L159 312l-1.555-.504c-3.235-.656-6.272-.511-9.57-.433-5.515.086-10.572-.331-15.922-1.723-2.159-.535-2.159-.535-4.953.66-1.812.036-3.626.014-5.437-.043l-3.211-.064q-3.353-.08-6.704-.196l-3.21-.052-2.942-.083c-2.621.218-2.621.218-4.355 2.257-1.577 3.014-.947 4.959-.141 8.181-2-1-2-1-3.125-3.187-.958-3.08-1.024-5.606-.875-8.813 3.919-1.306 7.65-1.143 11.734-1.133"/><path fill="#46A2B5" d="M332 296a123 123 0 0 1-2 5l-1.016 2.64C327 306 327 306 325.134 306.43c-2.367.145-4.7.168-7.072.132-5.988-.22-5.988-.22-11.378 1.938-2.337 3.47-4.011 7.111-5.684 10.938-2.216 5.042-4.291 9.398-8 13.562l-3-1 1.813-1.5c2.884-3.296 3.806-6.356 5.187-10.5h2l.379-1.75c.629-2.277 1.474-4.155 2.558-6.25l1.028-2 1.035-2 .941-2.187C306 304 306 304 309 303c2.395-.07 4.792-.084 7.188-.062l3.855.027L323 303l.352-1.89c.648-2.11.648-2.11 3.023-3.86C329 296 329 296 332 296"/><path fill="#E6C552" d="m139 304 1 2 3.613-.105 4.7-.082 2.38-.077 2.295-.029 2.11-.048c2.489.446 3.39 1.352 4.902 3.341-.312 2.188-.312 2.188-1 4v-2l-3-1v-2l-60-1v8c-1.954-2.931-2.647-4.558-3-8 2.402-2.402 2.984-2.263 6.266-2.319l2.67-.06 2.884-.035 2.951-.059c3.118-.06 6.236-.106 9.354-.152l6.332-.117q7.77-.143 15.543-.258"/><path fill="#37A5D7" d="M284 259c1.195 3.584.963 5.37 0 9l-2 1.938c-2.733 2.818-2.706 5.238-3 9.062-3.907 1.278-7.829 1.133-11.89 1.114h-2.395c-2.608 0-5.216-.009-7.824-.016l-5.431-.005q-7.142-.006-14.283-.024-7.29-.014-14.58-.02Q208.3 280.033 194 280v-1l80-1 2-5a339 339 0 0 1 3.563-6.75l1.878-3.484C283 260 283 260 284 259"/><path fill="#56A5C8" d="M371 187c5.29 7.936 4.107 21.529 2.553 30.611-1.598 7.158-3.444 14.23-7.553 20.389-1.104-3.311-.927-5.247-.562-8.687l.308-3.012L366 224h2l1-4h2v-20h-2l.063-3.25c-.049-2.898-.195-5.036-1.063-7.75l3 2z"/><path fill="#97D5E9" d="M351.974 73.773h2.91l3.104.032 3.207.008c3.373.011 6.745.037 10.118.062q3.435.016 6.869.027 8.409.034 16.818.098v1l-45 1v1l-2.875.187L344 78c-1.403 2.381-1.403 2.381-2 5l-1 2 3-1v4l-7 1-1 4h-3c1.295-4.314 2.932-7.928 5.313-11.75l1.738-2.86c3.242-3.976 6.947-4.643 11.923-4.617"/><path fill="#F0CD3E" d="m135 384 5 1 1 9h3v2l4 1 .313 1.938L149 401l3 1 1 5 7 1 2 6 5 1-1 2c-8.063-.904-14.518-8.09-19.687-13.937C144 400 144 400 144 398h-2c-5.371-9.41-5.371-9.41-7-14"/><path fill="#FBE37F" d="m278 356 2 3h-2l.125 2.875C278 365 278 365 276 367a93 93 0 0 1-7.754.135l-2.425-.028c-2.651-.034-5.303-.082-7.954-.13l-5.507-.076c-4.836-.067-9.673-.146-14.51-.227-4.933-.081-9.866-.15-14.8-.22A13509 13509 0 0 1 194 366v-1l2.762-.025q12.91-.116 25.82-.263 6.638-.076 13.274-.134 6.41-.056 12.818-.136 2.44-.028 4.881-.045c2.286-.017 4.572-.046 6.857-.078l3.937-.04c3.838-.293 7.045-.932 10.651-2.279 1.994-2.984 1.994-2.984 3-6"/><path fill="#EDCA42" d="m96 307 4 1h-3c1.656 6.122 1.656 6.122 4 12l2 1 .313 2.75c.872 4.127 2.639 5.42 5.687 8.25 3.103 4.24 3.103 4.24 2.688 7.313L111 341h-3a5536 5536 0 0 1-5.437-9.812l-1.565-2.815-1.494-2.705-1.38-2.491c-1.95-3.78-2.236-6.671-2.186-10.865l.027-3.011z"/><path fill="#47A6CA" d="m139 107 3 1-1 1-.25 3.313c-.92 4.518-2.236 4.945-5.75 7.687-1.358 3.625-1.358 3.625-2 7h-2v2l-2 1a134 134 0 0 0-3 6h-3c1.267-3.334 2.697-6.39 4.496-9.469l1.443-2.48 1.499-2.551c.49-.842.98-1.684 1.486-2.55A893 893 0 0 1 139 107"/><path fill="#449EC5" d="M396 75q2.469-.04 4.938-.062l2.777-.036C406 75 406 75 407 76c-.142 8.147-3.083 13.935-6.937 21l-1.67 3.176c-4.098 7.676-4.098 7.676-6.393 8.824l-2-2h3l.375-3.25c.536-3.215 1.179-4.954 2.625-7.75v-4l1.813-.062c2.531-.82 2.531-.82 3.875-4C403.189 84.004 403.633 80.18 404 76h-8z"/><path fill="#5AA6C3" d="M118 143c1.765 3.088 2 4.233 2 8h-4v5l-1.875.563c-3.181 2.151-3.32 4.812-4.125 8.437l-3-1 .188 2.688c-.21 3.692-.903 5.434-3.188 8.312h-3c1.549-5.416 4.054-10.008 6.813-14.875l1.29-2.316A306 306 0 0 1 118 143"/><path fill="#F2CC3C" d="m320 397 3 1c-4.815 10.834-15.337 17.009-25.531 22.066L295 421l-2-1 1-3c3.604-1.522 6.052-2 10-2v-3l5-1v-2h3l2-5h2l-2-4h6z"/><path fill="#EDD76E" d="M330 305q8.704-.075 17.407-.11 2.962-.015 5.925-.04c2.835-.025 5.67-.036 8.504-.045l2.686-.032c2.16 0 4.32.104 6.478.227l2 2c-.32 6.616-2.832 12.298-6 18l-2-3 2-2c1.55-5.166 2-8.453 2-14h-39z"/><path fill="#B0C368" d="m316.25 305.813 3.828.082L323 306v1h-13l-2 5h-2l-.437 2.313C305 317 305 317 304 320h-2l-.562 2.375c-2.025 5.104-5.189 9.229-8.438 13.625l-1-3a1021 1021 0 0 1 4-5c2.077-3.981 3.837-8.118 5.645-12.227l1.136-2.5 1.002-2.268c3.154-5.197 6.703-5.353 12.467-5.192"/><path fill="#64A494" d="M140 304c2.939.087 5.875.194 8.813.313l2.525.068 2.432.107 2.237.08c2.515.545 3.408 1.438 4.993 3.432l.938 2.563c.793 2.587.793 2.587 3 3.25 3.422 1.97 3.894 5.571 5.062 9.187a600 600 0 0 0 2 5h2l2 5c-2.468-1.152-4.048-2.048-6-4l-.437-1.937c-.684-2.505-1.737-3.25-3.563-5.063-3.103-4.437-5.629-9.139-8-14-2.12-2.12-6.62-1.418-9.562-1.562l-2.444-.131A1763 1763 0 0 0 140 306z"/><path fill="#48A4C0" d="m136 298 5 1 1 4 3.578-.14q2.336-.057 4.672-.11l2.355-.102c5.763-.098 5.763-.098 8.895 2.133 2.022 2.992 2.226 5.663 2.5 9.219-3.36-2.24-3.687-3.342-5-7-2.24-2.24-8.458-1.302-11.654-1.342-5.75-.212-5.75-.212-8.826-2.513C137 301 137 301 136 298"/><path fill="#F2D35F" d="m359 333 2 1c-1.449 4.94-3.564 9.079-6.125 13.5l-1.191 2.086q-1.224 2.14-2.454 4.277a1638 1638 0 0 0-3.601 6.293A4254 4254 0 0 1 342 370c-1.312-3.937-.243-6.125 1-10h3l.836-2.137c1.19-2.929 2.473-5.8 3.789-8.675l1.352-2.958L353 344h2v-5h2v-3h2z"/><path fill="#79BFD1" d="m96 183 1 2 2 1h-3c-.751 7.595-1.107 15.121-1.125 22.75l-.014 2.42c-.345 3.717-.345 3.717 1.139 6.83.141 2.67.042 5.324 0 8-6.184-11.2-4.785-26.002-2-38 .63-1.68 1.287-3.353 2-5"/><path fill="#79BAE0" d="m161 187 1 2a206 206 0 0 1-3.367 5.359c-4.449 6.432-4.449 6.432-5.121 13.852 1.32 2.468 2.778 4.581 4.488 6.789v2l-3-1v-3h-3c-.857-4.394-1.09-8.526-1-13l3-1 1-3.5 1-3.5 3-1v-3z"/><path fill="#2F9DC6" d="m332 93 3 1c-.594 6.302-.594 6.302-2.125 8.938-3.587 2.032-7.386 1.454-11.25.437-2.458-2.08-2.356-4.278-2.625-7.375l4.395 3.809c1.712 1.4 1.712 1.4 4.605 2.191l.875-2.812C330 96 330 96 332 93"/><path fill="#F7C718" d="M112 338h1l.688 2.688c1.496 3.777 3.431 5.503 6.312 8.312q1.021 2.491 2 5l2.563 2.813c3.102 3.495 3.2 6.608 3.437 11.187l-3-2v-4l-1.809-.598c-3.15-2.016-3.825-4.423-5.254-7.84-1.642-3.899-2.924-6.637-5.937-9.562-.187-3.187-.187-3.187 0-6"/><path fill="#40A0C8" d="M284 259c1.195 3.584.963 5.37 0 9l-2 1.938c-2.733 2.818-2.706 5.238-3 9.062l-5 1c.52-5.281 2.324-8.864 5-13.312l1.117-1.917c2.688-4.576 2.688-4.576 3.883-5.771"/><path fill="#51A5C8" d="m96 220 .875 1.813c1.172 2.38 1.172 2.38 3.125 5.187l.875 2.813c.99 3.27.99 3.27 3.125 6 2.479 3.95 3.232 7.637 4 12.187h-2q-2.223-4.154-4.437-8.312l-1.276-2.381-1.22-2.295-1.127-2.11C95.73 228.43 95.92 224.88 96 220"/><path fill="#F6CD20" d="M329 382h4c-.655 3.777-2.38 6.485-4.437 9.688l-1.872 2.949C325 397 325 397 323 398c-1.6-4.002-.293-7.046 1-11l5 1z"/><path fill="#F0D042" d="M167 418c6.392.724 12.68 1.803 19 3v2h8c-4.781 2.786-8.723 2.118-14 1-4.416-1.48-8.714-3.18-13-5z"/><path fill="#F0D33F" d="m341 364 2 1c-2.298 6.382-4.812 11.65-9 17-1-3-1-3-1-7h2l.188-2.687c.994-4.054 2.713-5.611 5.812-8.313"/><path fill="#EFE07B" d="M291 334h1v6l-4 1-2 10-3 1c-1.209 2-1.209 2-2 4h-2c1.738-4.957 4.397-9.314 7.063-13.812l1.392-2.39 1.33-2.255 1.215-2.062z"/><path fill="#F1C921" d="m351 345 2 1-7 14h-3v4l-3 1c.66-4.357 1.908-8.114 4-12 2.688-.937 2.688-.937 5-1l.438-2.375C350 347 350 347 351 345"/><path fill="#F1C842" d="m278 356 2 3h-2l.125 2.875C278 365 278 365 276 367c-2.82.195-2.82.195-6.125.125l-3.32-.055L264 367v-2l2.047-.191c5.296-.58 5.296-.58 9.508-3.5 1.225-2.124 1.225-2.124 2.445-5.309"/><path fill="#EFCF44" d="M125 367c2.313.5 2.313.5 5 2 1.032 1.969 1.7 3.917 2.371 6.035.6 2.08.6 2.08 1.879 4.277C135 381 135 381 134 384a1218 1218 0 0 1-4.5-6.812l-1.3-1.948c-3.2-4.9-3.2-4.9-3.2-8.24"/><path fill="#4AA9CD" d="M118 143c1.765 3.088 2 4.233 2 8h-4v5l-4 2c.385-6.165 2.47-9.986 6-15"/><path fill="#EED663" d="M183 348c2.364 3.084 4.558 6.25 6.688 9.5l1.886 2.844C193 363 193 363 193 367c-2.824-1.035-3.824-1.666-5.25-4.375C187 360 187 360 187 356l-3-1z"/><path fill="#BCCF63" d="M139 306q4.406-.118 8.813-.187l2.525-.077 2.432-.029 2.237-.048c2.553.437 3.454 1.292 4.993 3.341-.312 2.188-.312 2.188-1 4v-2l-3-1v-2l-3.21.07q-2.083.029-4.165.055l-2.117.05c-1.837.018-3.674-.072-5.508-.175z"/><path fill="#50A0A1" d="m303 312 1 2c-.68 1.756-.68 1.756-1.8 3.844l-1.214 2.277-1.298 2.379-1.264 2.379c-3.138 5.835-3.138 5.835-5.424 8.121l-3-1 1.813-1.5c2.884-3.296 3.806-6.356 5.187-10.5h2l.313-1.75c.785-2.57 1.992-4.187 3.687-6.25"/><path fill="#63A9C2" d="M396 75q2.469-.04 4.938-.062l2.777-.036C406 75 406 75 407 76c-.04 4.967-.344 9.344-4 13-.562-1.937-.562-1.937-1-4l1-1c.23-1.347.412-2.704.563-4.062L404 76h-8z"/><path fill="#E8D11B" d="M139 307c2.773.06 5.54.147 8.313.25l2.38.043c5.85.249 5.85.249 8.35 2.754L159 312l-1.578-.496c-3.098-.645-6.01-.598-9.172-.567l-3.547.028L142 311v-2h-3z"/><path fill="#61B2D8" d="m335 282 1 3h2v-2l2 1a1735 1735 0 0 1-3.437 6l-1.934 3.375L333 296h-1c-.324-5.504-.533-9.437 3-14"/><path fill="#57AAD2" d="m366 224 4 1c-.44 5.196-.883 8.663-4 13-1.104-3.311-.927-5.247-.562-8.687l.308-3.012z"/><path fill="#62ACCA" d="M367 148h3c-1.373 3.699-3.064 6.951-5.125 10.313l-1.633 2.675L362 163l-3-1 .938-1.812c1.164-2.278 1.164-2.278 2.062-5.188h2l.938-2.375C366 150 366 150 367 148"/><path fill="#45A1CB" d="m139 107 3 1-1 1-.375 3.375C140 116 140 116 138.563 117.938 137 119 137 119 135 119c-.504-5.294.81-7.814 4-12"/><path fill="#94BA7A" d="m316.188 305.875 3.855.055L323 306v1h-13l-2 5h-2l-2 4-1-2c2.987-7.17 5.608-8.264 13.188-8.125"/><path fill="#56AED1" d="M170 238c3.223 3.798 5.745 7.574 8 12l-1 2h-2v-4h-3c-2.43-3.644-2.162-5.712-2-10"/><path fill="#4FA1C3" d="M298 174h4l.586 1.898.789 2.477.773 2.46c.75 2.33.75 2.33 2.852 4.165-2.25-.125-2.25-.125-5-1-2.998-3.647-4-5.216-4-10"/><path fill="#5FAECE" d="m154 89 2 1-1.437 1.25c-1.726 1.932-2.129 3.232-2.563 5.75h-2l-1 3c-3.062 1.188-3.062 1.188-6 2 3.388-4.692 6.782-9.03 11-13"/><path fill="#6EB5D1" d="M209 75v1c-3.27.197-6.541.38-9.812.563l-2.815.17-2.705.146-2.491.143C189 77 189 77 186 76v2l-6-1c8.7-4.811 19.49-2.824 29-2"/><path fill="#5DA7C9" d="M184 140h5c-1.687 4.498-3.817 8.729-6 13h-1v-5h2z"/><path fill="#F5C816" d="M333 376c1 3 1 3 0 6h-4v6l-4 1 .875-1.562c1.28-2.567 1.28-2.567 2-6.063C329 378 329 378 331.125 376.563z"/><path fill="#F3E689" d="M98.477 304.805q2.074.02 4.148.07l2.14.027c1.746.024 3.49.06 5.235.098v1l-14 1v8c-1.954-2.931-2.647-4.558-3-8 2-2 2-2 5.477-2.195"/><path fill="#5AACD2" d="m300 231 3 2-4 7h-2l-1 3h-2c1.319-4.615 3.214-8.099 6-12"/><path fill="#61A8D1" d="M305 187c3.82 1.274 4.23 2.626 6.188 6.063l1.605 2.785L314 198l-2 3a1438 1438 0 0 1-3.5-5.875l-1.969-3.305C305 189 305 189 305 187"/><path fill="#F3CA20" d="M178 346c3.804 2.703 5.461 4.62 7 9l2 1c.633 1.848.633 1.848 1.125 4.063l.508 2.222L189 364h-2l-1.023-2.371-1.352-3.067-1.336-3.058c-1.04-2.625-1.04-2.625-3.289-3.504a101 101 0 0 1-2-6"/><path fill="#F3CB23" d="m290 340 3 1-1.312 1.563c-2.091 3.02-3.313 6.033-4.688 9.437l-2-1c.95-3.354 1.897-6.692 3-10z"/><path fill="#44A0CA" d="M122 267h2c1.478 2.957 1.06 5.742 1 9h2v6c-3.34-3.66-4.93-8.22-6-13z"/><path fill="#4494BE" d="m189 274 1.661.974c2.724 1.195 4.793 1.341 7.76 1.44l3.106.117 3.223.094 3.27.117q3.99.141 7.98.258v1c-3.896.058-7.791.094-11.687.125l-3.342.05-3.233.02-2.967.032c-2.942-.241-5.103-.996-7.771-2.227z"/><path fill="#6BB4D4" d="m353 253 3 1c-1.764 4.972-4.394 9.434-7 14h-1c-.25-2.75-.25-2.75 0-6a91 91 0 0 1 4-4c.797-2.642.797-2.642 1-5"/><path fill="#63AFCC" d="M293 243c1.38 2.76.651 4.07-.187 7l-.731 2.688c-1.282 2.739-2.293 3.296-5.082 4.312.428-5.706 2.843-9.41 6-14"/><path fill="#46A0CC" d="M186 76h3l-1 3-1.723.148c-4.988.483-9.503 1.328-14.277 2.852v-2l5-1v-2c6.75-.125 6.75-.125 9 1z"/><path fill="#55A2C7" d="m343 75 7 1v1l-2.875.188L344 78c-1.155 2.471-1.155 2.471-2 5-2.125.813-2.125.813-4 1 1.25-3.46 2.675-6.147 5-9"/><path fill="#F6DF76" d="m350 351 2 1-10 18c-1.312-3.937-.243-6.125 1-10h3l.875-2.25A82 82 0 0 1 350 351"/><path fill="#61ADCD" d="M308 86c4.672 2.825 7.66 5.678 11 10l-2 1-2-1v-2l-4-2v-2h-2z"/><path fill="#49A7D3" d="M286 328c2.962.613 4.38 1.254 7 3l-2 3c-3.606.474-5.898-.162-9-2l4-1z"/><path fill="#389DCB" d="M311 216c.625 1.875.625 1.875 1 4l-2 2a126 126 0 0 0-2 6h-2v-7h2l.375-1.937L309 217z"/><path fill="#F3CF40" d="m135 384 5 1 2 11c-3.258-3.258-4.866-5.953-7-10z"/><path fill="#63ADCF" d="M168 175c0 3.138-.49 4.385-1.875 7.125l-1.055 2.133C164 186 164 186 162 187c.262-4.457.577-6.515 3.563-9.937z"/><path fill="#E6CB28" d="M299 326h1c.313 2.813.313 2.813 0 6-2.375 1.563-2.375 1.563-5 3-1.347 2.571-1.347 2.571-2 5-.71-1.672-.71-1.672-1-4 1.398-2.578 1.398-2.578 3.375-5.25l1.96-2.703z"/><path fill="#50A6CC" d="M100 175c.967 3.122.99 5.52.563 8.75l-.31 2.422L100 188l-1-3h-2c.75-6.625.75-6.625 3-10"/><path fill="#399ABF" d="M196 132v2l-1.875.188c-2.403.64-2.403.64-3.375 3.375L190 140l-4-1 2-2 .438-2.062c.185-.64.37-1.28.562-1.938 3-1 3-1 7-1"/><path fill="#B9CA61" d="M162 315c3.039 1.52 3.644 3.98 5 7v2l3 1-1 4-1-3h-2a875 875 0 0 1-2-4.375l-1.125-2.46C162 317 162 317 162 315"/><path fill="#5FACCB" d="m161 187 1 2c-1.18 2.383-1.18 2.383-2.875 5.125l-1.68 2.758L156 199h-1l1-7 3-1v-3z"/><path fill="#68ACCE" d="M172 164h2c1 3 1 3 .04 5.043l-1.415 2.144-1.398 2.168L170 175h-1l1-7h2z"/><path fill="#329FCE" d="M156 89c2.125.375 2.125.375 4 1-.625 1.938-.625 1.938-2 4-3.125.75-3.125.75-6 1 1.152-2.468 2.048-4.048 4-6"/><path fill="#F8CA0E" d="m302 410 4 2h-2v3l-8 2v-2a159 159 0 0 1 6-5"/><path fill="#F7D958" d="M329 382h4c-.671 4.194-2.856 7.403-5 11-1.417-4.25-.193-6.719 1-11"/><path fill="#E6CE2F" d="M306 312h2c-3.1 10.091-3.1 10.091-6 14h-2l2-6h2l.438-1.75z"/><path fill="#62B5D2" d="M102 237c1.922.71 1.922.71 4 2 .828 2.164.828 2.164 1.25 4.625l.453 2.477L108 248h-2c-4-6.5-4-6.5-4-11"/><path fill="#6CB8D2" d="M162 224c2.97 2.546 4.478 5.422 6 9l-1 2-3-2 1-3-3 1z"/><path fill="#63B7D4" d="m287 158 5 1c1.438 2.375 1.438 2.375 2 5l-2 3z"/><path fill="#66B5D5" d="m395 98 3 1c-1.335 3.594-2.96 6.755-5 10l-3-2h3l.438-3.375C394 100 394 100 395 98"/><path fill="#329AC4" d="M277 77a365 365 0 0 1 4.875-.125l2.742-.07C287 77 287 77 289 79c-1 1-1 1-4.312 1.25-3.914-.265-4.81-.836-7.688-3.25"/><path fill="#F3DE76" d="m278 356 2 3h-2v5c-3.215 1.607-6.436 1.057-10 1v-1l3.313-.625c3.916-1.032 3.916-1.032 5.625-4.5z"/><path fill="#F1CC28" d="M284 352v6l-2.437.813L279 360l-1 3c.49-6.38.49-6.38 3-9.437 2-1.563 2-1.563 3-1.563"/><path fill="#5EB9D7" d="M284 259c1.16 3.478.708 5.459 0 9h-5q.965-1.97 1.938-3.937l1.09-2.215C283 260 283 260 284 259"/><path fill="#67B0CD" d="M380 124h2c-.607 4.86-2.728 8.74-5 13-1-2-1-2-.223-4.602l1.16-3.023 1.153-3.04z"/><path fill="#73B6D8" d="M293 79c3.76.581 6.53 1.652 9.813 3.563l2.394 1.378c.592.35 1.183.7 1.793 1.059-1.875.625-1.875.625-4 1l-2-2c-2.069-.643-2.069-.643-4-1v-2z"/><path fill="#E7C510" d="m152 404 1 3 7 1 1 5a174 174 0 0 1-4-2l-2.75-1.375L152 408z"/><path fill="#EBCC30" d="M167 326c2.252 2.688 3.882 4.646 5 8l3 1v2h-2v-2l-1.875-.812C169 333 169 333 167 330z"/><path fill="#3993B3" d="M368 182h2q.543 2.184 1.063 4.375l.597 2.46C372 191 372 191 371 193c-2.706-3.833-3.326-6.325-3-11"/><path fill="#3E98B9" d="m277 136 3 1c.95 2.066.95 2.066 1.688 4.563.25.826.502 1.652.761 2.503L283 146h-2v-2l-3-1z"/><path fill="#489BBF" d="M389 108h3c-.6 3.356-1.846 5.378-4 8l-2-1v-3l2-1z"/><path fill="#EBD33E" d="M109 334c1.563 1.25 1.563 1.25 3 3-.312 2.188-.312 2.188-1 4h-3l-2-5h2z"/><path fill="#6FAECE" d="M329 296h3c-1.125 2.972-2.223 5.334-4 8h-2v-4h2z"/><path fill="#399ACA" d="m295 242 2 1c-1.625 5.75-1.625 5.75-5 8 .498-3.735.875-5.812 3-9"/><path fill="#54A0CA" d="m319 96 4.395 3.71c1.47 1.182 3.035 2.244 4.605 3.29l-8-1z"/><path fill="#4196B7" d="m171 82-2.875 1.875c-3.07 1.945-3.07 1.945-5.125 4.125l-2-2h2v-3c3.067-1.862 4.597-2.215 8-1"/><path fill="#5BB5DF" d="m177 79-5 1 3 2c-2 2-2 2-4.625 2.125L168 84l2-2-1-2c3.067-1.862 4.597-2.215 8-1"/><path fill="#EED358" d="m285 347 1 4-3 1c-1.209 2-1.209 2-2 4h-2l2-5h3z"/><path fill="#3F95C1" d="M106 242c2.386 1.193 2.837 2.144 4.125 4.438l1.07 1.87C112 250 112 250 112 252h-3c-3-6.625-3-6.625-3-10"/><path fill="#4FA2C6" d="M371 216h2c-.468 4.056-.88 7.466-3 11l-1-7h2z"/><path fill="#E4CE2B" d="M310 308h13v1h-12v3h-3z"/><path fill="#3A9BC5" d="m130 283 3 1c1.188 3.563 1.188 3.563 2 7l-3-1v-2h-2z"/><path fill="#4BA8D4" d="M158 217c1.892 2.386 3.024 4.072 4 7l-5-1-1-4h2z"/><path fill="#338FBA" d="M284 148c2.97 2.546 4.478 5.422 6 9l-1 2c-3.81-2.77-4.068-6.629-5-11"/><path fill="#74B3DC" d="M186 267c3.08 2.773 4.688 5.063 6 9l-5-1 .063-2.312c.066-2.79.066-2.79-1.063-5.688"/><path fill="#63B4CF" d="M152 209c3.754 1.251 4.24 2.565 6 6v2l-3-1v-3h-3z"/><path fill="#74B8D3" d="M279 144h2v2l3 1c1.25 2.375 1.25 2.375 2 5l-1 3z"/><path fill="#64B5CE" d="M332 93c1.097 3.29.8 4.713 0 8l-4-1z"/><path fill="#80BED6" d="M130 288h2v2l3 1 1 6c-3.08-2.773-4.688-5.063-6-9"/><path fill="#E9CA1E" d="M105 328c3.938 3.323 3.938 3.323 4.25 6.75L109 337l-3-1z"/><path fill="#5FB2D8" d="M110 252h3c1.125 2.313 1.125 2.313 2 5l-2 3c-3-5.75-3-5.75-3-8"/><path fill="#8BC6DE" d="M93 214c1.904 1.904 2.935 3.334 3.2 6.047-.011 1.985-.1 3.97-.2 5.953-2.39-3.825-2.56-7.597-3-12"/><path fill="#6CBDD2" d="M134 115h1c-.25 3.375-.25 3.375-1 7-2.062 1.438-2.062 1.438-4 2 1.199-3.083 2.477-6.063 4-9"/><path fill="#6BB2D8" d="m163 84-1 4-6 1c4.75-5 4.75-5 7-5"/><path fill="#5CAECE" d="m404 80 2 2c-.33 3.297-.623 4.623-3 7-1.033-2.788-1.045-3.868-.062-6.75z"/><path fill="#F3C62C" d="m327 388 1 2c-.937 2.625-.937 2.625-2 5l-2-2v-4z"/><path fill="#EECF54" d="M102 328h3l2 6h-3z"/><path fill="#ECD556" d="m365 325 1 2c-.777 1.727-.777 1.727-1.937 3.625L362 334c-.75-1.687-.75-1.687-1-4 1.938-2.75 1.938-2.75 4-5"/><path fill="#4799C0" d="M342 272h2a129 129 0 0 1-2 7l-2 1c.875-5.75.875-5.75 2-8"/><path fill="#4EA1CB" d="M102 170h3l1 3-2 2h-3z"/><path fill="#61B0D8" d="M106 163h1v7l-2 1-2-2z"/><path fill="#3795C0" d="M186 76h3l-1 3h-7l-1-2 6 1z"/></svg>