<svg xmlns="http://www.w3.org/2000/svg" width="160" height="160"><path fill="#06518C" d="m59 17 2.25 2.438C65.153 23.074 68.83 22.89 74 23l2-6c3.16-.108 5.986-.005 9 1 1.332 1.96 2.05 3.906 2.91 6.11 1.394 2.418 2.437 2.818 5.09 3.578 2.944.49 3.624.559 6.188-1.125L101 25c3.506.257 5.028 1.019 8 3 .336 2.023.336 2.023.375 4.375.294 3.444.44 4.396 2.688 7.188 2.948 1.443 3.826 1.55 6.937 1.374 3.553-.188 3.912 0 7.063 2.25C128 46 128 46 127.875 48.564a189 189 0 0 1-1.625 4.374c-.43 3.545.687 5.21 2.75 8.063 2.163.782 2.163.782 4.563 1.313 2.406.632 2.406.632 4.437 1.687 1.392 2.941 1.79 5.77 2 9l-6 1 1 5-2 1c-.34 2.36-.34 2.36 0 5 1.774 1.824 1.774 1.824 4.063 3.313 3.81 3.074 3.81 3.074 4.386 5.843-.199 2.156-.199 2.156-1.449 5.844-2 1.25-2 1.25-4 2l-1 4-11-1c1 3.233 2.085 6.167 3.625 9.188C129 117 129 117 129 120a140 140 0 0 1-5 5c-1.714 1.965-3.354 3.977-5 6-4.562-.71-6.686-3.407-9.805-6.602-2.622-2.014-2.622-2.014-8.195-.398l-2 12-3 1-1 2.5-1 2.5c-2.75.917-4.36 1.109-7.187 1.063L83 143c-2.66-5.563-3.962-10.933-5-17l-3.625-.437c-2.588-.313-4.803-.695-7.312-1.47-3.31-.456-3.31-.456-5.836 2.434a117 117 0 0 0-2.602 3.41l-1.363 1.749A252 252 0 0 0 54 136c-3.447-.573-6.222-1.439-9.312-3.062l-2.114-1.098L41 131l.402-2.125q.55-2.957 1.055-5.922C43 120 43 120 43.637 117.734c.735-2.989.646-5.166-.727-7.921-2.22-2.658-3.597-3.7-6.91-4.813-6.165.276-12.136 2.202-18 4a274 274 0 0 1-2.562-4.687l-1.442-2.637c-1.148-3.084-1.07-4.594.004-7.676l2-1 1.375-2.375c1.647-2.66 2.98-4.003 5.625-5.625h2l-1-10-3.246-.586-4.192-.789-2.142-.383C12.6 72.894 10.797 72.453 9 72c-1.28-2.558-1.031-4.16-.812-7l.167-2.687L9 60q1.998-1.004 4-2l1-5 14-2 1-3-1.687-.625C24.075 45.45 22.318 42.961 20 40l1.938-1.812C24.203 36.092 24.203 36.092 25 33c4.569-4.903 4.569-4.903 7.965-5.133 2.054.26 4.02.657 6.035 1.133l3.5.563L45 30v-6l5-1-1-5c3.429-1.055 6.427-1.438 10-1m17 4 1 2Zm-24 2 1 3Zm19 9v1h17v-1c-5.911-.773-11.131-1.148-17 0m20 2 2 10q-5.15.756-10.305 1.48c-2.153.303-4.304.614-6.453.946-4.505.634-7.14.42-11.242-1.426-2.302-.34-4.595-.56-6.914-.754C56 44 56 44 53 43a483 483 0 0 0-3.062 5.75l-1.723 3.234C46.99 55.026 46.747 56.05 48 59l1-2c.315.58.63 1.16.953 1.758l1.297 2.367 1.266 2.32C54 66.11 54 66.11 56.094 68.813c2.191 3.664 2.769 6.897 3.156 11.062l.234 2.086c.187 1.678.353 3.358.516 5.039h-6c2.229 2.646 2.229 2.646 5 5 2.275-.045 2.275-.045 4-1l2 7 4 1v2c10.187 4.657 20.25 5.93 31 2.25 8.503-3.605 13.587-8.082 18-16.25 1.986-5.629 3.185-11.02 3-17-1.124 2.169-2.041 4.143-2.719 6.5C117 79 117 79 114.461 80.363 108.42 82.221 103.326 83.487 97 83c-1.07-8.601-.96-15.688 1.297-24.066.907-3.785.93-7.066.703-10.934h2v-2l-2-1c-.314-2.294-.38-4.558-.46-6.871-.332-2.284-.332-2.284-2.392-3.414-2.245-.873-2.245-.873-5.148-.715m21 15 1 2Zm-97 8v5h1v-5zm31 4v8h1v-8zm73 3v5h1v-5zm-89 3 1 4Zm17 2v5h1v-5zm-16 3 1 4Zm98 1v8h1v-8zm-81 1 1 3Zm-16 4 1 3Zm17 0 1 2Zm3 5 1 2Zm-29 4 1 2Zm-4 3 1 2 1-2zm32 18 1 2Zm-1 3 1 3Zm-1 4 1 3Zm-1 4 1 3Zm50 0 1 2Zm-36 2v3Zm23 2 1 2Zm13 1 1 2Zm-11 5 1 2Zm10 2 1 3Zm-5 3v1h5v-1z"/><path fill="#0E4574" d="M123 73h3l1 15 2-3c3.941 1.668 6.98 3.98 10 7 .375 3.313.375 3.313 0 6l-3 1-1 7-11-1c1 3.233 2.085 6.167 3.625 9.188C129 117 129 117 129 120a140 140 0 0 1-5 5c-1.714 1.965-3.354 3.977-5 6-4.562-.71-6.686-3.407-9.805-6.602-2.622-2.014-2.622-2.014-8.195-.398l-2 12-3 1-1 2.5-1 2.5c-2.75.917-4.36 1.109-7.187 1.063L83 143c-2.66-5.563-3.962-10.933-5-17l-3.625-.437c-2.588-.313-4.803-.695-7.312-1.47-3.31-.456-3.31-.456-5.836 2.434a117 117 0 0 0-2.602 3.41l-1.363 1.749A252 252 0 0 0 54 136c-3.447-.573-6.222-1.439-9.312-3.062l-2.114-1.098L41 131l.402-2.125q.55-2.957 1.055-5.922C43 120 43 120 43.637 117.734c.649-2.25.649-2.25.363-5.734-2.35-2.793-5.018-4.912-8-7l1-2c2 0 2 0 3.625 1.5L42 106l2-1c-.6-3.356-1.846-5.378-4-8l-5 1v1h-5v2h-2v-2h-4v-2l3.375-.312C32.435 96.07 37.166 94.575 42 93v2l3 1a91 91 0 0 1 4 4l1.75 1.625C52 103 52 103 52 105h2l1-4h2v-5c4.254.912 7.387 2.592 11 5v2l4 1v2l5-1v1c13.525 1.07 13.525 1.07 27 0v-2h2v-2l5.078-1.758c5.09-3.29 6.885-9.277 8.61-14.805l.642-1.958c1.117-3.464 2.044-6.893 2.67-10.479m-72 35 1 2Zm-1 3 1 3Zm-1 4 1 3Zm-1 4 1 3Zm50 0 1 2Zm-36 2v3Zm23 2 1 2Zm13 1 1 2Zm-11 5 1 2Zm10 2 1 3Zm-5 3v1h5v-1z"/><path fill="#0E4469" d="m102 26 6 3v8l1.813.875C112 39 112 39 115 41l3.875-.187c3.56-.093 4.066.145 7.188 2.374C128 46 128 46 127.875 48.564a189 189 0 0 1-1.625 4.374c-.43 3.545.687 5.21 2.75 8.063 2.163.782 2.163.782 4.563 1.313 2.406.632 2.406.632 4.437 1.687 1.392 2.941 1.79 5.77 2 9l-6 1 1 5-2 1c-.34 2.36-.34 2.36 0 5 1.774 1.824 1.774 1.824 4.063 3.313 3.852 3.073 3.852 3.073 4.246 5.914C141 96.437 141 96.437 140 100l-3 1-3-3h5v-6l-1.687-.75C134.6 89.784 132.364 87.97 130 86c-2.167.833-2.167.833-3 3-1.94-1.94-1.4-5.473-1.562-8.062l-.254-3.91L125 74c-2.566 4.607-3.992 9.718-5.613 14.713-1.968 5.797-4.155 9.8-9.387 13.287h-4v2h-2v2c-10.242 2.347-21.774 3.052-32 0v-2l-1.812-.312C68 103 68 103 66.562 101.5c-2.047-1.966-3.8-2.127-6.562-2.5v-2l-4-1v-2l-1.812-.625C49.352 90.335 48.375 84.226 47 79l-1.062-3.062C42.93 64.917 43.414 55.082 49 45c2.176-2.367 2.176-2.367 4-4l1 2c-1.215 2.82-1.215 2.82-2.937 6.125l-1.715 3.32L48 55l2.313 3.188A109 109 0 0 1 56 67l1.543 2.16c1.815 3.538 2.014 6.758 2.145 10.653l.103 2.1c.082 1.695.147 3.39.209 5.087l-5 1c3.061 2.624 3.732 3 8 3l1.313 3.438L66 98l3 1v2c11.446 3.924 22.32 4.68 33.695.168 2.366-1.115 2.366-1.115 4.485-2.805C109 97 109 97 111 97l.75-1.625C113 93 113 93 114.938 90.5c3.151-4.556 3.923-10.17 5.062-15.5l-1.145 2.355C115.591 82.008 110.338 82.76 105 84c-2.83.314-5.146.27-8 0-2.42-2.42-1.791-7.863-2.008-11.086.01-4.933.967-9.237 2.238-13.98.957-3.647 1.403-7.188 1.77-10.934h2v-2l-3-1c-.977-6.055-.977-6.055-1-8l2-2c-3.556-2.301-6.947-3.775-11-5v-1l2.047.105 2.703.082 2.672.106c3.025-.344 4.334-1.295 6.578-3.293m10 23 1 2ZM46 61v8h1v-8zm73 3v5h1v-5zm-72 5v5h1v-5zm82 4v8h1v-8zm-81 1 1 3Zm1 4 1 2Zm3 5 1 2Z"/><path fill="#07508C" d="M123 73h3l1 15 2-3c3.941 1.668 6.98 3.98 10 7 .375 3.313.375 3.313 0 6l-3 1c-.733 2.015-.733 2.015-1 4-3.664 1.357-5.506.523-9-1h-3l1-4c-2.794 1.397-2.996 3.132-4 6v1l2-1c1.915 4.963 3.61 9.866 5 15-7.194 0-7.194 0-10.437-3.062-3.799-3.032-6.259-3.25-11.063-2.813-1.838.26-3.674.54-5.5.875v2l-2 1c-.476 2.54-.84 5-1.125 7.563l-.262 2.154q-.316 2.64-.613 5.283l-6 1-.375-2.437L89 128l-2-1 1-9-4-1 1-4-3 2c-3.615.268-6.22.343-9.562-1.125-2.537-1.151-2.537-1.151-5.688-.187L64 115l-1 3h-2v3h-2l-1 2h-4l-3-12h3l-.625-2.187c-.435-3.26.208-4.896 1.625-7.813h2v-5c4.254.912 7.387 2.592 11 5v2l4 1v2l5-1v1c13.525 1.07 13.525 1.07 27 0v-2h2v-2l5.078-1.758c5.09-3.29 6.885-9.277 8.61-14.805l.642-1.958c1.117-3.464 2.044-6.893 2.67-10.479"/><path fill="#193E63" d="m59 17 2.25 2.438C65.153 23.074 68.83 22.89 74 23l2-6c3.16-.108 5.986-.005 9 1 1.332 1.96 2.05 3.906 2.91 6.11 1.394 2.418 2.437 2.818 5.09 3.578 2.944.49 3.624.559 6.188-1.125L101 25c3.506.257 5.028 1.019 8 3 .293 2.164.293 2.164.188 4.625l-.083 2.477L109 37h-1v-8c-2.778-1.288-2.778-1.288-6-2l-1.812 1.438c-2.72 1.943-3.638 1.61-6.876 1.187l-2.386-.398L89 29l-1 1 1.793.262C95.498 31.276 98.324 32.494 102 37c-3.38-.538-6.687-1.143-10-2l.473 1.934.59 2.504.597 2.496L94 44c-2.95 2.95-10.97 2.467-15 3l-2.754.422c-4.525.643-7.12.39-11.246-1.422-3.323-.473-6.653-.753-10-1 .418-4.734 2.512-7.896 6-11 6.326-3.276 11.759-4.134 18.813-4.062l3.519.027L86 30l-.875-1.645L84 26.187l-1.125-2.144C82 22 82 22 82 19c-2.452.106-2.452.106-5 1-1.192 2.5-1.192 2.5-2 5-9.423.92-9.423.92-13.29-1.336-1.687-1.48-3.236-2.973-4.71-4.664l3 4-5 1v5l-1.562.25c-2.716.688-2.716.688-5.563 3.063-1.8 1.101-1.8 1.101-3.875 1.687-2.839-.723-5.243-1.778-7.863-3.082L34 30l-2 1h2l-1 3h-2v2l5 1v4l3-1v2h-3l-.25 2.125C34.778 47.852 33.483 50.039 31 53c-2.809.783-4.91 1.187-7.75 1.375l-2.113.207c-1.71.164-3.424.294-5.137.418l-2 8-2-2-2 9 2.5.375c3.898.696 7.667 1.634 11.5 2.625v2q-3.722-.673-7.437-1.375l-2.143-.383C12.6 72.894 10.797 72.453 9 72c-1.28-2.558-1.031-4.16-.812-7l.167-2.687L9 60q1.998-1.004 4-2l1-5 14-2 1-3-1.687-.625C24.075 45.45 22.318 42.961 20 40l1.938-1.812C24.203 36.092 24.203 36.092 25 33c4.569-4.903 4.569-4.903 7.965-5.133 2.054.26 4.02.657 6.035 1.133l3.5.563L45 30v-6l5-1-1-5c3.429-1.055 6.427-1.438 10-1m-7 6 1 3Zm19 9v1h17v-1c-5.911-.773-11.131-1.148-17 0"/><path fill="#16CCF7" d="M97 37c4.946.45 8.445 2.665 12 6 1.545 2.26 2.734 4.561 4 7l2 1c1.892 2.99 2.228 5.247 2.125 8.75l-.055 2.422L117 64h2c.135 2.27.232 4.54.313 6.813l.175 3.832C119 78 119 78 116.75 79.844L114 81l-2.176.95C106.666 83.731 102.46 84.39 97 84c-2.42-2.42-1.791-7.863-2.008-11.086.01-4.933.967-9.237 2.238-13.98.957-3.647 1.403-7.188 1.77-10.934h2v-2l-3-1z"/><path fill="#10558C" d="M56 18c4.74 2.69 4.74 2.69 6.313 4.563 2.378 2.026 4.294 1.943 7.374 2.125l3.012.199L75 25v-2h2l-1-3 6-1 .84 2.117 1.097 2.758 1.09 2.742C85.95 28.961 85.95 28.961 87 31l-2.71-.105c-8.95-.2-17.217-.374-24.29 5.668L58 39l-2 2 2 2-7-1-.863 2.191a122 122 0 0 1-2.242 5.211C43.408 59.913 45.21 70.216 48 81l-3-1-.437-3.437c-.175-3.37-.175-3.37-1.563-4.563a72 72 0 0 1-.281-4.402l-.114-2.698-.105-2.838q-.103-2.764-.219-5.527l-.092-2.488C42.12 51.935 42.12 51.935 41 50l-4 2v2h-3l-1 3-12-1v-1l3.813-.25c3.5-.387 3.5-.387 6.062-2.812L32 50h2l-1-3 1.5-1.375c1.726-1.501 1.726-1.501 1.5-3.625h3l-3-1-1-3c-2-1.209-2-1.209-4-2 0-2 0-2 1.5-3.625L34 31l-4 1 2-3q2.688.715 5.375 1.438l3.023.808C43 32 43 32 45 33c1.768-.996 3.535-2 5.246-3.09C52 29 52 29 55 29l-1-6 5-1-4-3z"/><path fill="#0F436B" d="m121 95 1 3h2l-1 4h3l1-2v3l6 1 1-2 1 4-11-1c1 3.233 2.085 6.167 3.625 9.188C129 117 129 117 129 120a140 140 0 0 1-5 5c-1.714 1.965-3.354 3.977-5 6-4.562-.71-6.686-3.407-9.805-6.602-2.622-2.014-2.622-2.014-8.195-.398l-2 12-3 1-1 2.5-1 2.5c-2.75.917-4.36 1.109-7.187 1.063L83 143c-2.66-5.563-3.962-10.933-5-17l-3.625-.437c-2.588-.313-4.803-.695-7.312-1.47-3.31-.456-3.31-.456-5.836 2.434a117 117 0 0 0-2.602 3.41l-1.363 1.749A252 252 0 0 0 54 136l-5-1c3.75-2 3.75-2 6-2 1.257-2.906 2-4.796 2-8l2.313-.875C62.15 123.037 62.15 123.037 65 121c2.811.456 5.39 1.01 8.125 1.75l2.246.555c1.897.492 3.766 1.087 5.629 1.695l1 2-1 2h2l-1 3c.31 2.303.31 2.303.938 4.688l.59 2.449L84 141l3.938-.375c.73-.07 1.461-.14 2.214-.21L92 140l1-2-4-1v-2h-2l-2-7h4l1 5 6-1-.07-2.23-.055-2.958-.07-2.917c.297-4.405 1.767-7.252 4.195-10.895 4.018-1.216 7.835-1.453 12-1 3.49 1.879 6.223 4.188 9 7l4-2v2h2a129 129 0 0 0-2-7l-2-1c-1.125-2.062-1.125-2.062-2-4l-1 2c-1.181-4.134-.692-6.118 1-10zm-23 24 1 2Zm0 5 1 2Zm-11 5 1 2Zm10 2 1 3Zm-5 3v1h5v-1zm27-18 2 1Z"/><path fill="#0B3F68" d="m53 41 1 2c-1.215 2.82-1.215 2.82-2.937 6.125l-1.715 3.32L48 55l2.313 3.188A109 109 0 0 1 56 67l1.543 2.16c1.815 3.538 2.014 6.758 2.145 10.653l.103 2.1c.082 1.695.147 3.39.209 5.087l-5 1c3.061 2.624 3.732 3 8 3l1.313 3.438L66 98l3 1v2c11.581 3.97 22.482 4.736 33.89-.125C105 100 105 100 107 100l-1 4h-2v2c-10.242 2.347-21.774 3.052-32 0v-2l-1.812-.312C68 103 68 103 66.562 101.5c-2.047-1.966-3.8-2.127-6.562-2.5v-2l-4-1v-2l-1.812-.625C49.352 90.335 48.375 84.226 47 79l-1.062-3.062C42.93 64.917 43.414 55.082 49 45c2.176-2.367 2.176-2.367 4-4m-7 20v8h1v-8zm1 8v5h1v-5zm1 5 1 3Zm1 4 1 2Zm3 5 1 2Z"/><path fill="#F8CB13" d="M75.313 52.875C81.927 55.644 86.083 60.581 89 67c.563 2.625.563 2.625 0 5-2.25 2.563-2.25 2.563-5 5l-2.312 2.313L80 81c-6.86-1.96-12.495-5.402-17-11-.308-5.702 4.646-11.265 8-15.562C73 53 73 53 75.313 52.875"/><path fill="#043B69" d="m15 55 3 1v6l2.738.34c9.451 1.58 9.451 1.58 11.758 4.652.765 2.356 1.21 4.551 1.504 7.008l.625 3.313L35 80l.625 2.188C36 84 36 84 35 87c-2.062.688-2.062.688-4 1v-5c-2.392 0-5.085 2.696-7 4l2 2-1 1.875C23.858 92.91 23.858 92.91 24 95l-6 1 1 11 2.45-.875L24.687 105l3.199-1.125c2.897-.814 5.13-1.052 8.113-.875l-1 2a146 146 0 0 1-8.562 2.125l-2.444.55c-1.996.45-3.995.888-5.994 1.325a274 274 0 0 1-2.562-4.687l-1.442-2.637c-1.148-3.084-1.07-4.594.004-7.676l2-1 1.375-2.375c1.647-2.66 2.98-4.003 5.625-5.625h2l-1-12-3.625-.375C16.724 72.177 13.455 71.295 10 70l1-9h3c.553-2.076 1-3.844 1-6m15 12 1 4Zm1 5 1 4ZM19 90l1 2 1-2z"/><path fill="#F40663" d="m80 32.625 2.211-.005c6.987.146 6.987.146 9.789 2.38.863 2.129.863 2.129 1.313 4.563l.488 2.44L94 44c-2.95 2.95-10.97 2.467-15 3l-2.754.422c-4.525.643-7.12.39-11.246-1.422-3.323-.473-6.653-.753-10-1 .508-3.76 1.07-5.578 4-8 6.766-3.406 13.535-4.366 21-4.375"/><path fill="#215780" d="m102 26 6 3v8l1.938.813C112 39 112 39 113 42l2.336.113 3.039.2 3.023.175L124 43c2 3 2 3 1.688 5.438C125 51 125 51 124.25 52.938c-.388 3.203 1.247 5.297 2.75 8.062v2l1.898.227c2.508.403 4.737.84 7.102 1.773 1.563 3.125 1.563 3.125 2 6h-2l-.223-1.898c-.57-2.285-.57-2.285-2.773-3.079l-2.441-.648c-4.384-1.196-4.384-1.196-6.563-3.375l-2 1-1-4h2l-2-3h-1v8h-3l-.078-1.758c-.4-5.518-1.405-8.794-4.922-13.242-3-3.857-3-3.857-3-6l-1.625-.687C103.088 39.943 99.714 37.07 97 33c-2.179-1.008-2.179-1.008-4.625-1.687l-2.477-.762L88 30v-1l2.047.105 2.703.082 2.672.106c3.025-.344 4.334-1.295 6.578-3.293"/><path fill="#44B3C3" d="M97 37c4.946.45 8.445 2.665 12 6 1.545 2.26 2.734 4.561 4 7l2 1c1.892 2.99 2.228 5.247 2.125 8.75l-.055 2.422L117 64h2c.135 2.27.232 4.54.313 6.813l.175 3.832C119 78 119 78 116.75 79.844L114 81l-2.176.95C106.666 83.731 102.46 84.39 97 84c-2.42-2.42-1.791-7.863-2.008-11.086.01-4.933.967-9.237 2.238-13.98.957-3.647 1.403-7.188 1.77-10.934h2v-2l-3-1zm4 15-.621 2.738-.817 3.575-.808 3.55C98 65 98 65 97 68c0 2.871.4 5.204 1 8l1 5c6.355 1.52 10.917.166 17-2 1.502-6.932 2.433-13.292-1.312-19.625-1.204-1.97-1.204-1.97-2.688-3.375h-3l-2-4z"/><path fill="#080709" d="M93 89c-.432 6.152-1.654 9.82-5 15-12.615-.662-12.615-.662-18-4-2.047-2.485-3.782-5.011-5-8 1.506-3.011 3.557-3.214 6.688-4.312C79.384 85.358 85.452 86.69 93 89"/><path fill="#053E68" d="M42 93v2l3 1a91 91 0 0 1 4 4l1.75 1.625C52 103 52 103 52 105l2 1v5h-4l-1 7h2v6l2 1-1 2-5-1c-.597-2.763-1-5.16-1-8l-2 13 4 1 1 2c-3.375-.547-5.082-1.055-8-3l.402-2.125q.55-2.957 1.055-5.922C43 120 43 120 43.637 117.734c.649-2.25.649-2.25.363-5.734-2.35-2.793-5.018-4.912-8-7l1-2c2 0 2 0 3.625 1.5L42 106l2-1c-.6-3.356-1.846-5.378-4-8l-5 1v1h-5v2h-2v-2h-4v-2l3.5-.312C32.432 96.09 37.213 93 42 93m9 15 1 2Zm-3 11 1 3Z"/><path fill="#080606" d="m117 82 1 2c-3.124 7.43-8.04 12.997-15 17-4.305 1.747-8.339 3-13 3l.926-2.184c1.123-2.728 1.123-2.728 1.617-5.351.773-3.032 1.524-4.98 3.457-7.465 3.813-1.61 7.208-2.406 11.273-3.184 3.664-.802 6.463-2.002 9.727-3.816"/><path fill="#161415" d="m153 69-.062 2.688c-.045 3.22-.045 3.22.625 5.937.47 2.55.171 3.928-.563 6.375v3l-2 2 2 1c-.596 4.869-1.57 9.328-3 14l-6-2 2 1.813c2 2.187 2 2.187 2 5.187h-8v-2h2l-.125-2.562c.14-3.86.953-6.775 2.125-10.438h3v-2h-2v-5h2l-.437-3.5-.262-2.2a97 97 0 0 0-.696-4.507c-.89-5.271-.89-5.271.52-7.856 2.593-1.296 4.16-.744 6.875.063m-5 2 2 1 1 2v-3zm0 10 1 2 1-2z"/><path fill="#12344F" d="m59 17 2.25 2.438C65.153 23.074 68.83 22.89 74 23l2-6c3.16-.108 5.986-.005 9 1 1.332 1.96 2.05 3.906 2.91 6.11 1.394 2.418 2.437 2.818 5.09 3.578 2.944.49 3.624.559 6.188-1.125L101 25c3.506.257 5.028 1.019 8 3 .293 2.164.293 2.164.188 4.625l-.083 2.477L109 37h-1v-8c-2.778-1.288-2.778-1.288-6-2l-1.812 1.438c-2.72 1.943-3.638 1.61-6.876 1.187l-2.386-.398L89 29l-1 1 1.793.262C95.498 31.276 98.324 32.494 102 37c-3.488-.436-6.522-1.155-9.75-2.5-8.101-3.127-15.985-2.98-24.25-.5-2.028.942-4.04 1.922-6 3h-2l1-3c6.402-3.201 11.72-4.134 18.813-4.062l3.519.027L86 30l-.875-1.645L84 26.187l-1.125-2.144C82 22 82 22 82 19c-2.452.106-2.452.106-5 1-1.192 2.5-1.192 2.5-2 5-9.561.934-9.561.934-13.113-1.371a166 166 0 0 1-3.39-3.348c-1.525-1.579-1.525-1.579-4.31-1.343-2.503.987-2.503.987-4.187 4.062l-1-5c3.429-1.055 6.427-1.438 10-1"/><path fill="#0F0E0E" d="m132 29 3 1v3h-2v3l6-1-1 5 3-1 2 2c-.375 2.063-.375 2.063-1 4v1l5 1-1 4h2v4h2v3l-2 1 4 3c-5.875 5-5.875 5-7 5v-5h-2c-1.125-3.75-1.125-3.75 0-6h-2l-.875-2.875c-.893-3.177-.893-3.177-3.125-5.125-2.364-3.455-3-4.68-3-9h-4c-2.25-3-2.25-3-4-6l3-1c1.667-1.5 1.667-1.5 3-3"/><path fill="#B01F54" d="M48 56c2.258 2.113 3.897 4.234 5.5 6.875l1.219 1.992L56 67l1.613 2.27c1.77 3.483 1.946 6.713 2.075 10.543l.103 2.1c.082 1.695.147 3.39.209 5.087h-6c-5.664-7.858-8-18.348-8-28h2z"/><path fill="#093354" d="M64 121c1.88.14 1.88.14 4.133.68l2.441.566 2.551.629 2.574.605c2.103.497 4.202 1.007 6.301 1.52l-1 4h2l-1 3c.31 2.303.31 2.303.938 4.688l.59 2.449L84 141l3.938-.375 2.214-.21L92 140l1-2-4-1v-2h-2l-2-7h4l1 5c4.342-.185 4.342-.185 8-2a59 59 0 0 0 .063-4.062L98 123l6-2-1.426 1.113c-2.153 2.581-2.3 4.771-2.761 8.075l-.481 3.292L99 136l-3 1-1 2.5-1 2.5c-2.75.917-4.36 1.109-7.187 1.063L83 143c-2.66-5.563-3.962-10.933-5-17l-3.625-.437c-2.588-.313-4.803-.695-7.312-1.47-3.31-.456-3.31-.456-5.836 2.434a117 117 0 0 0-2.602 3.41l-1.363 1.749A252 252 0 0 0 54 136l-5-1c3.75-2 3.75-2 6-2 1.257-2.906 2-4.796 2-8l2.375-.875c2.722-.974 2.722-.974 4.625-3.125m23 8 1 2Zm5 5v1h5v-1z"/><path fill="#0B0B0B" d="M96 9h3l1 4 1-3 3 1-1 5 1.375-2L106 12h2v6l1.313-2L111 14h3l1 3 3-1-1 5 5-2 1 5 3-1 4 4h-5l-1 2h2v3c-3.875-1.75-3.875-1.75-5-4h-2v-3l-2.312-.437C114 24 114 24 111 23l-1-2c-2.242-.876-2.242-.876-4.875-1.562-.884-.25-1.769-.498-2.68-.754L100 18l-3-1v-2l-4 1c0-3.528.643-4.468 3-7"/><path fill="#0D4F7A" d="M129 85c3.941 1.668 6.98 3.98 10 7 .375 3.313.375 3.313 0 6l-3 1c-.733 2.015-.733 2.015-1 4-3.664 1.357-5.506.523-9-1h-3l1-4h-2c-1.062-1.812-1.062-1.812-2-4l1-3v2c3.773-1.02 4.802-1.659 6.813-5.125z"/><path fill="#104F82" d="m71.941 117.902 3.621.035 3.63.028L82 118l.367 1.934.508 2.504.492 2.496L84 127l2 1c.407 2.322.744 4.657 1 7h2v2l4 1-1 3h-8c-1.422-3.317-2.39-6.442-3-10h2v-2h-2l-1-3a93 93 0 0 0-8.562-2.187l-2.444-.538A639 639 0 0 0 63 122v-3c1.207.03 1.207.03 2.438.063 3.15-.077 3.22-1.052 6.503-1.16"/><path fill="#0B4378" d="M18 96h7l-1 2 6 3v-2c3.648-1.273 7.194-2.328 11-3l1.375 2.375c1.51 2.662 1.51 2.662 3.625 4.625h-2c-.298 3.776-.298 3.776 1 6-2.622-1.049-3.794-1.65-5.25-4.125L39 103c-5.162.561-9.827 1.776-14.766 3.379C22 107 22 107 19 107c-1.203-2.405-1.1-3.95-1.062-6.625l.027-2.477z"/><path fill="#E7C15E" d="M75.313 52.875C81.927 55.644 86.083 60.581 89 67c.563 2.625.563 2.625 0 5-2.25 2.563-2.25 2.563-5 5l-2.312 2.313L80 81c-6.86-1.96-12.495-5.402-17-11-.308-5.702 4.646-11.265 8-15.562C73 53 73 53 75.313 52.875M69 59c-2.421 3.632-3.042 5.478-2.687 9.875L67 72h2v2c4.608 3.222 4.608 3.222 9.938 3.75L81 77v-2h2c2.6-3.9 2.15-7.474 2-12h-2v-3c-3.025-2.017-3.61-2.258-7-2.187l-2.062.019c-2.156.111-2.156.111-4.938 1.168"/><path fill="#AA295C" d="M52 48c1.896-.054 3.791-.093 5.688-.125l3.199-.07C64.023 48 66.177 48.669 69 50c-1.326 3.623-2.943 6.635-5.125 9.813l-1.633 2.394L61 64c-3.563-1.424-4.928-2.966-6.75-6.312l-1.297-2.301C51.901 52.75 51.821 50.812 52 48"/><path fill="#DECB74" d="M94 47c1.003 5.716 1.212 9.582-1 15l-3 1c-3.766-2.353-7.96-6.047-10-10 .313-2.75.313-2.75 1-5 4.394-.857 8.526-1.09 13-1"/><path fill="#B02960" d="m80 32.625 2.211-.005c6.987.146 6.987.146 9.789 2.38.863 2.129.863 2.129 1.313 4.563l.488 2.44L94 44c-2.95 2.95-10.97 2.467-15 3l-2.754.422c-4.525.643-7.12.39-11.246-1.422-3.323-.473-6.653-.753-10-1 .508-3.76 1.07-5.578 4-8 6.766-3.406 13.535-4.366 21-4.375M72 34v2l-3-1c-3.178 1.362-5.549 2.549-8 5 .319 2.108.319 2.108 1 4 9.879 2.829 19.024 1.427 29 0 .774-2.649 1.017-3.917.438-6.687-1.23-2.521-1.23-2.521-3.813-3.126C82.414 33.919 77.216 33.925 72 34"/><path fill="#063862" d="M75 114c3.732.193 6.45.183 10-1l1 3-1 1 3 1c1.37 3.197.825 5.699 0 9h-4c-2-5.625-2-5.625-2-9l-3.687.5c-3.136.398-6.153.5-9.313.5l-2.187.563C65 120 65 120 63 119l-.875 2.438C61 124 61 124 59 125v-4h2v-3c5.139-4.71 7.521-6.712 14-4m10 9 1 2Z"/><path fill="#103B63" d="m25 78 4 5-5 5 2 1-1 1.875C23.858 92.91 23.858 92.91 24 95l-6 1 1 11 2.45-.875L24.687 105l3.199-1.125c2.897-.814 5.13-1.052 8.113-.875l-1 2a146 146 0 0 1-8.562 2.125l-2.444.55c-1.996.45-3.995.888-5.994 1.325a274 274 0 0 1-2.562-4.687l-1.442-2.637c-1.148-3.084-1.07-4.594.004-7.676l2-1 1.375-2.375c1.647-2.66 2.98-4.003 5.625-5.625h2zm-6 12 1 2 1-2z"/><path fill="#C9125B" d="M72 34c6.705-.198 12.652-.308 19 2 1.125 5.75 1.125 5.75 0 8-3.003.541-5.908.946-8.937 1.25l-2.613.273C73.226 46.087 68.037 45.78 62 44c-.566-1.898-.566-1.898-1-4 2.15-3.287 5.367-3.95 9-5-1.57 3.662-2.939 4.939-6 8l25-2v-5H72z"/><path fill="#134B7B" d="m82 19 .84 2.117 1.097 2.758 1.09 2.742C85.95 28.961 85.95 28.961 87 31l-2.746-.07C77.138 30.824 70.866 31.106 64 33v-2l8-1v-2l-1.75.625C68 29 68 29 64 27l12-2-1-2h2l-1-3c3-1 3-1 6-1"/><path fill="#09233A" d="m121 95 1 3h2l-1 4h3l1-2v3l6 1 1-2 1 4-11-1c1 3.233 2.085 6.167 3.625 9.188C129 117 129 117 129 120a140 140 0 0 1-5 5c-1.714 1.965-3.354 3.977-5 6-1.875-.312-1.875-.312-4-1l-2-3 5 2v-2l2-1 1-3 2.625-1.75L126 119c.095-3.67.095-3.67-1-7l-2-1c-1.125-2.062-1.125-2.062-2-4l-1 2c-1.181-4.134-.692-6.118 1-10z"/><path fill="#0C4B86" d="M52 29v3l-3 2 6-2-1 3h6c-1.152 2.468-2.048 4.048-4 6l2 2-7-1-2 5h-1c-.326-4.675.294-7.167 3-11l-3.187.625C44.003 37 42.332 36.716 39 35v-1l3.688-.812C46.22 32.315 48.977 31.078 52 29"/><path fill="#43ADC3" d="M97 37c4.946.45 8.426 2.69 12 6 2 3.188 2 3.188 3 6l-1 2a412 412 0 0 1-5.875-2.25l-3.305-1.266C98.81 45.9 97.996 45.186 97 42c-.125-2.75-.125-2.75 0-5"/><path fill="#0A2841" d="M29 48h5c-1.02 2.418-1.02 2.418-3 5-2.72.705-4.933 1.099-7.687 1.313l-2.127.22c-1.727.176-3.456.324-5.186.467l-2 8-2-2-2 9 2.5.375c3.898.696 7.667 1.634 11.5 2.625v2q-3.722-.673-7.437-1.375l-2.143-.383C12.6 72.894 10.797 72.453 9 72c-1.28-2.558-1.031-4.16-.812-7l.167-2.687L9 60q1.998-1.004 4-2l1-5 14-2z"/><path fill="#0C2232" d="m59 17 2.25 2.438C65.153 23.074 68.83 22.89 74 23l2-6c3.1.013 6.002.172 9 1 2.125 2.875 2.125 2.875 3 6l-1 3-3-7h-7l-2 5c-9.561.934-9.561.934-13.113-1.371a166 166 0 0 1-3.39-3.348c-1.525-1.579-1.525-1.579-4.31-1.343-2.503.987-2.503.987-4.187 4.062l-1-5c3.429-1.055 6.427-1.438 10-1"/><path fill="#5582A3" d="M115 43a196 196 0 0 1 4.375-.187l2.46-.106L124 43c2 3 2 3 1.688 5.438C125 51 125 51 124.25 52.938c-.388 3.203 1.247 5.297 2.75 8.062v2l1.898.227c2.508.403 4.737.84 7.102 1.773 1.563 3.125 1.563 3.125 2 6h-2l-.223-1.898c-.57-2.285-.57-2.285-2.773-3.079l-2.441-.648c-4.384-1.196-4.384-1.196-6.563-3.375l-2 1-1-4h2l-1.187-2.75L121 53c1.438-2.187 1.438-2.187 3-4l-1-3-9-1z"/><path fill="#28638F" d="M32 29q2.722.676 5.438 1.375l3.058.773C43 32 43 32 44 34l-4 1 2 1v2h-2l-1 4-3-1-1-3c-2-1.209-2-1.209-4-2 0-2 0-2 1.5-3.625L34 31l-4 1z"/><path fill="#447397" d="M129 85c3.89 1.86 6.927 3.927 10 7 .375 3.313.375 3.313 0 6l-3 1c-.733 2.015-.733 2.015-1 4-3.053.981-4.947.981-8 0v-5l2.438-.375L132 97l1-2 3 1c-.593-3.392-1.767-5.21-4.062-7.75l-1.66-1.86z"/><path fill="#E9CB37" d="M93 48q.039 2.438.063 4.875l.035 2.742C93 58 93 58 92 60l-4-1-1-5h-4v-4c6.625-2 6.625-2 10-2"/><path fill="#2EAACF" d="M117 64h2c.135 2.27.232 4.54.313 6.813l.175 3.832C119 78 119 78 116.75 79.844L114 81l-2.176.95C106.66 83.733 102.461 84.297 97 84l-1-2 1.977-.148c4.993-.428 9.28-1.158 14.023-2.852h4l-.035-2.773-.028-3.602-.035-3.586C116 66 116 66 117 64"/><path fill="#1E2A57" d="m53 41 1 2a90 90 0 0 1-2.875 5.875c-5.244 9.928-5.072 18.057-1.879 28.777Q50.108 80.33 51 83h-2c-4.67-10.644-6.877-20.935-2.812-32.125C47.895 46.738 49.66 43.989 53 41"/><path fill="#E70F69" d="M51 66c3.242 2.41 4.75 3.742 5.555 7.781.233 2.744.392 5.466.445 8.219-3 0-3 0-4.64-1.187-1.739-2.318-1.888-3.941-2.11-6.813l-.234-2.625C50 69 50 69 51 66"/><path fill="#E9CB4C" d="M81 57c4.111 3.524 7.443 7.146 8.5 12.563C89 72 89 72 86.688 74.375L84 76l-3-1h2l2-12h-2v-3c-3.015-1.005-5.042-1.103-8.187-1.062l-2.731.027L70 59l1-2c3.624-1.107 6.416-1.254 10 0"/><path fill="#0B5089" d="M47 112h1l-1 14 5 1 2 2c-1.062 1.563-1.062 1.563-3 3-3.687-.312-3.687-.312-7-1-.393-6.977.369-12.517 3-19"/><path fill="#DBCA67" d="M63 77c3.871.574 6.082 2.487 9 5-1 3-1 3-3 4-2 .04-4 .043-6 0-1.125-2.25-1.125-2.25-2-5 .875-2.312.875-2.312 2-4"/><path fill="#162453" d="M95 33c1.777 1.605 1.777 1.605 3 3l-1.836-.621c-10.986-3.533-20.916-4.744-31.664.246L62 37h-2l1-3c10.52-5.26 23.171-5.993 34-1"/><path fill="#F1C72D" d="m76 57.813 2.063-.043C80 58 80 58 83 60v3h2v6c-1.945-2.918-2.453-4.625-3-8a365 365 0 0 0-4.875-.125l-2.742-.07C71.812 60.757 71.812 60.757 70 63c-.46 2.203-.46 2.203-.625 4.625l-.227 2.477L69 72h-2c-.894-4.063-1.212-6.427.25-10.375 2.403-3.604 4.667-3.774 8.75-3.812"/><path fill="#174C70" d="m48 81 1 2h3c1.605 1.68 1.605 1.68 3.188 3.875l1.605 2.18C58 91 58 91 58 93l4 1-1 2h-5v-2l-1.812-.625c-3.771-2.37-4.871-6.05-5.876-10.25z"/><path fill="#074B7F" d="m85 113 1 3-1 1 3 1c1.37 3.197.825 5.699 0 9h-4c-1.423-3.823-2.24-6.913-2-11l-2-1c3-2 3-2 5-2m0 10 1 2Z"/><path fill="#E40F62" d="m58 50 7 2-1 4h-2l-1 4c-1.875-.187-1.875-.187-4-1-1.437-2.312-1.437-2.312-2-5 1.375-2.312 1.375-2.312 3-4"/><path fill="#114D7C" d="m26 36 3 1v2h2v2h2v4l-2 1v2h-2c-1.508-1.531-1.508-1.531-3.125-3.5l-1.633-1.969L23 41l2-3z"/><path fill="#0C528F" d="m16 63 2 2-1 1 8 2v2l2 1c-4.63 1.016-8.345.838-13 0l-2-5h2v-2z"/><path fill="#0C263D" d="m45 24 3 1-1 4 5-1c-1.187 1.313-1.187 1.313-3 3l-2.062 1.938c-3.653 1.32-4.568.667-8.063-.813l-2.57-1.242C33.898 29.68 33.898 29.68 31 31a90 90 0 0 0-4 4c0-3 0-3 1.5-5.25C31 28 31 28 34.875 28.188q2.068.378 4.125.812l3.5.563L45 30z"/><path fill="#105484" d="m113 118 8 5-1 4h-2v2l-3-1v-3l-1.875-.312C111 124 111 124 109 121l4-1z"/><path fill="#31C1DD" d="M113 50c2.583 1.292 2.95 2.34 4 5 .195 2.36.195 2.36.125 4.75l-.055 2.422L117 64c-2.526-2.363-3.888-3.665-5-7l-3-1-2-3-3-2c3.719.507 6.735 1.116 10 3v-2l-2-1z"/><path fill="#114C7D" d="M46 48h2l-1.465 5.664c-1.257 5.487-1.55 9.797-.66 15.398l.555 3.598A236 236 0 0 0 48 81l-3-1-.437-3.437c-.175-3.37-.175-3.37-1.563-4.563a161 161 0 0 1-.25-8.125l-.062-2.266C42.65 56.322 43.618 52.725 46 48"/><path fill="#211E1F" d="M150.688 68.313 153 69l-.062 2.688c.055 2.934.393 5.467 1.062 8.312l-1-3-2.375.625L148 78c-2.395-2.395-2.755-3.658-3-7 1.686-2.81 2.41-3.069 5.688-2.687M148 71l2 1 1 2v-3z"/><path fill="#DE1065" d="M69 35v3l-5 5h16c-3.707 2.471-6.242 3.223-10.676 2.66l-2.636-.597-2.676-.59L62 44c-.57-1.898-.57-1.898-1-4 2.027-2.928 4.718-3.847 8-5"/><path fill="#01385E" d="M112 113c3.579 1.652 6.748 3.783 10 6l3-2 1 3-6 3c-6.429-4.143-6.429-4.143-9-7zm7 3 2 1Z"/><path fill="#023969" d="M112 112c-1.125 2.938-1.125 2.938-3 6-3 .813-3 .813-6 1l-3 1v-3l-2-1c2-3 2-3 5.313-3.687 2.928-.249 5.753-.402 8.687-.313"/><path fill="#0C0D10" d="m117 82 1 2c-1.11 2.313-1.11 2.313-2.75 5l-1.61 2.688C112 94 112 94 109 96l-1-2h2l-1-3h2v-2h-2v-3z"/><path fill="#9B295E" d="M58 72h1l1 15h-6a805 805 0 0 1-2.5-4.375l-1.406-2.46C49 78 49 78 49 76h2c1.495 2.273 2.784 4.568 4 7h3z"/><path fill="#124B71" d="m15 55 3 1v6l2 1-5 1v3l-2 1-1 3-2-1 1-9h3c.553-2.076 1-3.844 1-6"/><path fill="#053F6A" d="M32 36c2.125.938 2.125.938 4 2v3l3-1v2h-3l-.187 2.375L35 47c-2.562 1.313-2.562 1.313-5 2l1.063-1.875L32 45l-1-2h2v-2h-2v-2h-2c1-2 1-2 3-3"/><path fill="#100E0F" d="m132 29 3 1v3h-2l1 3 2 1v2c-2.75.375-2.75.375-6 0-2.375-3-2.375-3-4-6l3-1c1.667-1.5 1.667-1.5 3-3"/><path fill="#073559" d="m121 95 1 3h2l-1 4h3l1-2v3l6 1 1-2 1 4-2.555-.473-3.32-.59-3.305-.597c-2.767-.596-2.767-.596-4.82.66-.652 2.025-.652 2.025-1 4-1.181-4.134-.692-6.118 1-10z"/><path fill="#0C3151" d="m45 112 2 1-.937 3.375c-1.221 4.83-1.677 9.668-2.063 14.625l1.938.375L48 132l1 2c-3.375-.547-5.082-1.055-8-3 1.107-6.406 2.34-12.714 4-19"/><path fill="#0D4874" d="M37 96h4l1 3-2 3c-1.875.328-1.875.328-4 .25-.701-.015-1.403-.03-2.125-.047C32 102 32 102 30 101v-2l2.938-.937C35.84 97.305 35.84 97.305 37 96"/><path fill="#982A60" d="M48 56c2.724 2.353 3.814 4.625 5 8l-4-1v11h-1l-2-15h2z"/><path fill="#252122" d="m145 87 8 3-1 7-3-2-3-1 1-2h-2z"/><path fill="#054A78" d="M32 70c1.786 3.356 2.45 6.23 3 10l.625 2.188C36 84 36 84 35 87c-2.062.688-2.062.688-4 1 0-4.255.106-8.385.5-12.625l.281-3.04z"/><path fill="#04355D" d="M85 128h4l1 5 7-1v2h-5l-1 4-2-1v-2h-2zm2 1 1 2Z"/><path fill="#E3D46F" d="M65 72h4v2c4.95 2.184 9.703 3.834 15 2l-4 5c-5.932-1.695-10.84-4.378-15-9"/><path fill="#12668F" d="m119 50 2 2c-.023 2.059-.023 2.059-.375 4.438-.367 2.59-.625 4.936-.625 7.562h-3q-.254-2.124-.5-4.25l-.281-2.39C116 55 116 55 116 51z"/><path fill="#071C32" d="M63 122c0 4.176-1.834 5.54-4.5 8.688l-2.531 3.011L54 136l-5-1c3.75-2 3.75-2 6-2 1.257-2.906 2-4.796 2-8l2.438-.937c2.453-.826 2.453-.826 3.562-2.063"/><path fill="#134A77" d="M34 49c1.5 1.375 1.5 1.375 3 3v2h-3l-1 3-12-1v-1l3.688-.187c4.47-.525 6.445-2.319 9.312-5.813"/><path fill="#2D567F" d="M121 104a212 212 0 0 1 4.125 8.625l1.07 2.352C127 117 127 117 127 119c-1.875-.187-1.875-.187-4-1-1.89-3.482-2.574-7.081-3-11z"/><path fill="#020810" d="M101 98h5c-2.386 2.802-4.484 3.699-8 4.688-.866.25-1.733.502-2.625.761C93 104 93 104 90 104l2-5 1.688.5c2.499.54 4.762.57 7.312.5z"/><path fill="#153144" d="m131 81 .738 1.797c1.478 2.58 3.06 3.71 5.45 5.453 3.723 3.093 3.723 3.093 4.113 5.98C141 96.437 141 96.437 140 100l-3 1-3-3h5v-6l-1.75-.75c-2.649-1.472-4.354-2.88-6.25-5.25-.25-2.75-.25-2.75 0-5"/><path fill="#369FBB" d="M117 79c-6.294 4.196-12.532 5.407-20 5l-1-2 1.977-.148c6.46-.553 12.626-3.228 19.023-2.852"/><path fill="#134D70" d="M28 71c2.318 3.477 2.17 4.929 2 9v3l-4-2v-3h-2l1-2 2 1-.062-2.437C27 72 27 72 28 71"/><path fill="#161515" d="M143 59c6.75.75 6.75.75 9 3-5.875 5-5.875 5-7 5v-5h-2z"/><path fill="#B81956" d="M58 49c3.47.458 6.674.891 10 2-.573 3.87-2.39 6.152-5 9h-2l1-4h2c-.113-1.959-.113-1.959-1-4-2.49-1.297-2.49-1.297-5-2z"/><path fill="#074065" d="m103 29 3 1 .313 3.813c.383 3.327.383 3.327 2.25 6.062L110 41v2l2 1-3 1v-2l-1.875-.75c-2.476-1.456-3.076-2.628-4.125-5.25h2z"/><path fill="#A74484" d="M77 33v1h-5v2l-2.062.313C65.466 37.359 61.283 38.717 58 42l-3-1c3.008-3.425 5.55-4.864 9.875-6.25l3.055-1.016c3.138-.75 5.856-.868 9.07-.734"/><path fill="#145689" d="m41 99 5 4h-2c-.298 3.776-.298 3.776 1 6-2.622-1.049-3.794-1.65-5.25-4.125L39 103l-3 1v-2l1.938-.375L40 101z"/><path fill="#073D5D" d="M59 91h4l1.375 3.438c1.196 3.61 1.196 3.61 3.625 4.562l-1 2-7-2 1-5-3-2z"/><path fill="#3E8690" d="M91 76c2 2 2 2 2.125 5.125L93 84l-7-1 1-3h2z"/><path fill="#123F63" d="m130 74 1 2h2q-.488 2.502-1 5l-.375 2.25L131 85l-3 1V75z"/><path fill="#931A52" d="M77 33q2.625-.079 5.25-.125l2.953-.07c2.903.202 4.468.459 6.797 2.195.828 2.164.828 2.164 1.25 4.625l.453 2.477L94 44h-3l-1-8-13-2z"/><path fill="#3F7294" d="m28 53 1 2-8 1-1 6h-2l-2-8c4.064-.774 7.864-1.098 12-1"/><path fill="#052646" d="m36 103-1 2a146 146 0 0 1-8.562 2.125l-2.444.55c-1.996.45-3.995.888-5.994 1.325l1-3c1.996-.695 1.996-.695 4.438-1.125C33.93 102.955 33.93 102.955 36 103"/><path fill="#25C3F0" d="M115 64h2q.039 2.906.063 5.813l.035 3.269C117 76 117 76 116 79l-8 1 3-1 1-3 3 1z"/><path fill="#E9D558" d="m82 52 1 2h4l.813 2.313c1.131 2.56 2.1 3.884 4.187 5.687l-2 1c-6.705-5.094-6.705-5.094-7.937-8.875z"/><path fill="#0E3156" d="m53 41 1 2a130 130 0 0 1-3.937 7.625l-1.17 2.14A900 900 0 0 1 46 58c-1-2-1-2-.363-4.46l1.05-2.915 1.012-2.898C49.081 44.829 50.615 43.119 53 41"/><path fill="#2EC5E4" d="M100 54h1c.223 1.915.428 3.832.625 5.75l.352 3.234C102 66.038 101.614 67.462 100 70h-2c-.625-1.75-.625-1.75-1-4l2-4c.471-2.664.73-5.305 1-8"/><path fill="#090909" d="M125 23c2.625 1.438 2.625 1.438 5 3l-2 2-3-1-1 2h2v3l-4-2c.375-2.937.375-2.937 1-6z"/><path fill="#114C7A" d="M69 118h2l2 6-10-2v-3c1.207.03 1.207.03 2.438.063 2.496.233 2.496.233 3.562-1.063"/><path fill="#0E2539" d="m25 78 4 5a640 640 0 0 1-3.875 3.5l-2.18 1.969C21 90 21 90 19 90l-1 3-1-3c5.75-5 5.75-5 8-5z"/><path fill="#205B88" d="m31 81 2 1-1 5-8 1v-2c1.531-1.29 1.531-1.29 3.5-2.625l1.969-1.352z"/><path fill="#174A74" d="M47 112h1l-1 14h-3c.514-4.97 1.234-9.29 3-14"/><path fill="#004068" d="M82 118h2v3h3l1 6h-4c-2-5.625-2-5.625-2-9m3 5 1 2Z"/><path fill="#103C5C" d="m116 89 1 3c-2.04 3.571-3.558 5.705-7 8l-3-1 1.875-.75c2.546-1.498 2.952-2.59 4.125-5.25.976-1.351 1.97-2.69 3-4"/><path fill="#06447A" d="m27 70 2 1-2 6-3-1v-3l-8-1v-1l5.957.098c2.246-.015 2.246-.015 5.043-1.098"/><path fill="#6AD1E8" d="M101 47q2.409.68 4.813 1.375l2.707.773C111 50 111 50 114 52v2c-4.72-1.543-9.417-3.078-14-5z"/><path fill="#0C2539" d="m102 121 2 1-3 2c-.803 2.878-.803 2.878-1.187 6.125-.16 1.096-.318 2.191-.481 3.32L99 136h-5l3-2c.917-2.75 1.109-4.36 1.063-7.187L98 123c1.875-1.062 1.875-1.062 4-2"/><path fill="#0E375E" d="m68 99 1 2c2.574.913 2.574.913 5.563 1.625 1.011.26 2.023.52 3.066.79L80 104v1l-8 1v-2l-4-1z"/><path fill="#07446B" d="M52 29v3l-1.875.813C47.7 33.956 47.7 33.956 46 37l-7-2v-1l3.688-.812C46.22 32.315 48.977 31.078 52 29"/><path fill="#125379" d="m109 114 4 1-1 3a70 70 0 0 1-4 1l-1 2-4-2 1.875-.812c2.425-1.144 2.425-1.144 4.125-4.188"/><path fill="#134162" d="m132 89 5 4-1 4-5-2z"/><path fill="#104265" d="m131 66 5 1v4l-7 1 2-3z"/><path fill="#C4135A" d="m49 63 4 1-1 3c-.738 4.48-.738 4.48-1 9h-2z"/><path fill="#122D49" d="M29 48h5c-.875 2.438-.875 2.438-3 5-3.32.881-6.57 1.23-10 1l-2-2 9-1z"/><path fill="#5FC8E4" d="M99 38c2.717.367 4.61.727 6.875 2.313C107 42 107 42 106.688 44.187L106 46l-4-2v-4l-3-1z"/><path fill="#144B79" d="m118 122 3 1-1 4h-2v2l-3-1c.375-2.437.375-2.437 1-5z"/><path fill="#013362" d="M35 97v2h-5v2h-2v-2h-4v-2c7.625-1.125 7.625-1.125 11 0"/><path fill="#2B587F" d="m128 70 3 1c2.333.04 4.667.044 7 0l-2 2h-4l-1 2-4-1z"/><path fill="#155385" d="m29 40 4 1v4l-2 1v2h-2l-2-5h2z"/><path fill="#2D4774" d="M59 35c0 3 0 3-1.5 4.688L56 41l2 2h-4c-.625-1.812-.625-1.812-1-4 2-3 2-3 4.125-3.687z"/><path fill="#12476A" d="m50 24 2 2 1-2h2v5h-8c.375-1.937.375-1.937 1-4z"/><path fill="#155087" d="M18 96h2l1 3h1c.188 2.375.188 2.375 0 5l-3 2c-1-1-1-1-1.098-3.066l.035-2.496.028-2.504z"/><path fill="#E5CB39" d="M69 72h4v3l8 1-1 2c-4.355-.506-7.442-1.384-11-4z"/><path fill="#0E4F78" d="m113 46 6 3-2 4-6-5z"/><path fill="#194E7A" d="M52 129h4l-1 4-6 1-1-2h3z"/><path fill="#DB1466" d="m52 76 1 2h3l1-2v6c-3 0-3 0-4.687-1.5L51 79z"/><path fill="#EE0D67" d="M86 36h3l1 3c-1.187 1.5-1.187 1.5-3 3-2.687.188-2.687.188-5 0l3-1z"/><path fill="#134E98" d="M58 117h2l-1 6h-5v-4h4z"/><path fill="#080607" d="m143 104 5 2v3h-8v-2l3-1z"/><path fill="#185086" d="M23 102h8c-2.068 2.797-3.144 3.027-6.687 3.688L21 106z"/><path fill="#D6B874" d="m63 77 4 1-3 2v4l5 1v1h-6c-1.125-2.25-1.125-2.25-2-5 .875-2.312.875-2.312 2-4"/><path fill="#EFC16F" d="m83.066 47.902 2.496.035 2.504.028L90 48v1l-3.375.25c-3.683.329-3.683.329-5.062 2.813L81 54a88 88 0 0 1-1-5c1-1 1-1 3.066-1.098"/><path fill="#E6C94F" d="M64 79h3l1 5h-5z"/><path fill="#06446D" d="m24 99 4 1 2.14.535L36 102l-4 2-1-2-3 1c-2.187-.937-2.187-.937-4-2z"/><path fill="#18376C" d="m48 81 1 2h3l2 5-5-1z"/><path fill="#EFD017" d="m86 50 5 1v3h-7z"/><path fill="#0B3251" d="M20 40c4.248.472 6.268 2.889 9 6v2c-4.274-1.583-6.265-4.506-9-8"/><path fill="#2B516B" d="M108 37c1.938.813 1.938.813 4 2l1 3 2 2c-3 0-3 0-5.187-1.812C108 40 108 40 108 37"/><path fill="#4997A6" d="m97 37 4 1-.562 1.75c-.478 2.457-.195 3.894.562 6.25l-3-1z"/><path fill="#135487" d="M78 107h14c-1 2-1 2-2.766 2.684-2.602.368-4.442.014-6.984-.621l-2.422-.59L78 108z"/><path fill="#043359" d="M37 103h2c1.508 1.531 1.508 1.531 3.125 3.5l1.633 1.969L45 110l-1 2-8-7z"/><path fill="#3EBDDD" d="m97 75 2 1v5l2 1h-5z"/><path fill="#113A51" d="M52 20h2a85 85 0 0 1-2 7l-2-1h-2v-3h3z"/><path fill="#0D4166" d="m68 114 2 1 1 3-3 2-3-1c0-2 0-2 1.5-3.625z"/><path fill="#22C3EA" d="M101 52h6v4l-6-2z"/><path fill="#084D7F" d="m119 100 3 1-3 7h-2c.875-5.75.875-5.75 2-8"/><path fill="#12588C" d="m133 97 1 2h-3v2l-4 1v-4z"/><path fill="#101826" d="M59 91h4l2 5h-3l-1-2-3-2z"/><path fill="#0E0C0C" d="M148 68q2.514.428 5 1v5h-2l-1-3-3-2z"/><path fill="#135584" d="m129 65 3 1-1 4-5 1z"/><path fill="#080708" d="m144 55 5 2 1-2v3c-2.709 1.354-5.01 1.065-8 1z"/><path fill="#DE0F62" d="m89 39 3 1v2c-3.981 1.327-7.85 1.07-12 1v-1l9-1z"/><path fill="#0D3A5C" d="m124 117 2 3-6 3v-3c2-1.687 2-1.687 4-3"/><path fill="#01406E" d="m117 116 4 4-5 1zm2 0 2 1Z"/><path fill="#0C487B" d="m44 103 2 1v8l-.875-1.812c-1.172-2.381-1.172-2.381-3.125-5.188h2z"/><path fill="#40A1BD" d="M113 50c2.59 1.295 2.96 2.327 4 5 .125 2.75.125 2.75 0 5l-1-4h-3l1-4-2-1z"/><path fill="#ECC177" d="M73 53c2.438.375 2.438.375 5 1l1 2h-7z"/><path fill="#2DBCD3" d="M104 51c5.538.615 5.538.615 7.875 2.563L113 55l-4 1-2-3z"/><path fill="#211D1E" d="M132 35c2.125.938 2.125.938 4 2v2h-6v-3z"/></svg>