<svg xmlns="http://www.w3.org/2000/svg" width="500" height="500"><path fill="#FEFE02" d="m34.904 169.873 3.069-.009 3.366.007 3.55-.006q4.835-.004 9.668 0c3.402.003 6.803 0 10.204 0q8.612-.003 17.223.005 9.832.006 19.666-.002 8.51-.007 17.02-.003 5.05.003 10.1-.001c18.767-.013 37.48.397 56.23 1.136 1.222 7.556 1.094 15.043 1.022 22.678l-.03 4.437q-.04 5.992-.093 11.986-.05 6.273-.092 12.548-.085 11.867-.18 23.735-.107 13.515-.203 27.032Q185.22 301.208 185 329q-29.793.231-59.587.443-13.833.098-27.667.205-12.057.094-24.114.177-6.384.043-12.768.096-6.01.049-12.019.086-2.205.014-4.41.035-3.013.026-6.025.04l-3.405.025C32 330 32 330 27 329V171c2.944-.981 4.837-1.126 7.904-1.127"/><path fill="#07AEED" d="M412.713 212.286c4.87.191 8.078.668 11.83 3.913 4.73 5.76 8.28 12.176 11.762 18.741 3.355 6.055 7.536 11.54 11.695 17.06l.076-3.38q.142-6.188.296-12.373.065-2.682.125-5.363.088-3.847.187-7.693l.05-2.436c.152-5.641.152-5.641 1.266-6.755 1.623-.1 3.25-.13 4.875-.133l2.984-.004 3.141.012 3.14-.012 2.985.004 2.758.004C472 214 472 214 473 215c.095 2.434.126 4.84.114 7.274v2.306c0 2.526-.009 5.053-.016 7.58l-.005 5.242q-.006 6.912-.024 13.825-.014 7.048-.02 14.095-.016 13.839-.049 27.678c-3.843.256-7.683.41-11.531.547l-3.279.222c-7.913.21-7.913.21-11.54-2.571A54.6 54.6 0 0 1 438.563 279c-2.109-4.16-4.405-7.92-7.063-11.75l-1.719-2.61c-2.197-3.257-4.497-6.443-6.781-9.64l-1 38-11.437.063-3.612.027-2.822.008-2.904.016C399 293 399 293 398 292c-.1-2.398-.136-4.767-.13-7.166l-.005-2.271q-.004-3.735.002-7.47l-.003-5.167q-.002-5.423.006-10.844.006-6.967-.004-13.933-.005-5.337 0-10.675 0-2.57-.002-5.139-.003-3.585.007-7.169l-.007-2.166c.039-8.781 7.348-7.353 14.849-7.714"/><path fill="#F9F80F" d="M97 190h18c-.725 3.626-1.128 5.63-2.707 8.707l-1.03 2.03-1.076 2.076-1.04 2.04q-1.04 2.036-2.083 4.067c-1.713 3.348-3.387 6.714-5.064 10.08l1.917-.058 2.208-.067 2.32-.07c2.555.195 2.555.195 5.418 1.187 3.551 1.141 6.477 1.274 10.2 1.258l3.597.016c3.258-.26 5.367-1.005 8.34-2.266 6.665-.837 11.92.298 18 3v8l-2.512-.492c-3.81-.555-7.45-.64-11.3-.633l-2.061-.012c-3.347-.283-3.347-.283-6.127 1.137-2.657.1-5.281.139-7.937.125l-2.249.012c-5.56-.01-5.56-.01-7.814-1.137a61 61 0 0 0-4.133-.098l-2.441.01-2.551.025-2.574.014q-3.15.02-6.301.049l-.34 2.168c-.705 3.023-1.793 5.395-3.222 8.144-.456.884-.91 1.767-1.38 2.676L90 244l3.777-1.137 5.16-1.55 2.734-.822a2447 2447 0 0 1 19.636-5.795 229 229 0 0 0 11.005-3.508C136 230 136 230 140 230l-3 10 6.738-.098C146 240 146 240 149 241v2l5 1v8c-1.666.043-3.334.04-5 0l-1-1a226 226 0 0 0-8.062-.562l-2.3-.131q-2.818-.159-5.638-.307a895 895 0 0 0-1.5 4.813l-.844 2.707c-.784 2.536-.784 2.536-.656 5.48l1.676-.484c7.667-1.701 15.205-.711 22.324 2.484 1 1 1 1 1.098 2.848L154 274c-5.875-.875-5.875-.875-7-2-6.068-.445-11.292-.205-17 2q-3.495.541-7 1-1.66 4.217-3.312 8.438c-.31.783-.618 1.566-.936 2.373A283 283 0 0 0 113 302h-2c.277-3.126.574-6.25.875-9.375l.238-2.695.254-2.578.222-2.38C113 283 113 283 115 281c.398-1.988.738-3.99 1-6q-3.437-.04-6.875-.062l-3.867-.036c-3.145-.134-3.145-.134-5.258 1.098-9.583.396-19.233-.097-28.812-.437l-3.83-.12-3.628-.127-3.268-.11C58 275 58 275 57 274c-.312-3.375-.312-3.375 0-7 1.813-1.937 1.813-1.937 4-3h3v-3h7l2-10c-5.289 1.15-5.289 1.15-10.25 3.188-1.75.812-1.75.812-3.937.5C57 254 57 254 56 253c-.276-3.586-.204-6.389.938-9.812 3.662-3.885 8.499-4.076 13.652-4.301 2.137-.01 4.274.045 6.41.113l.93-1.86L81 231h-5v-2c-1.772.114-3.542.242-5.312.375l-2.989.21c-2.914.254-2.914.254-5.699 2.415-2.125-.25-2.125-.25-4-1-1.203-2.405-1.1-3.95-1.062-6.625l.027-2.477L57 220l7-1v-2c2.93-1.465 5.553-1.132 8.813-1.125l3.707-.008c3.48.133 3.48.133 6.242.703 2.395.65 2.395.65 5.238-.57.922-2.128.922-2.128 1.5-4.687 1.11-4.09 2.603-7.52 4.5-11.313 1.096-3.312 2.047-6.643 3-10"/><path fill="#04AEED" d="M216 214q8.856-.112 17.712-.165 3.006-.022 6.011-.061c26.783-.34 26.783-.34 35.277 5.851 5.61 5.624 7.238 11.541 7.5 19.375-.265 7.945-1.863 13.852-7.75 19.375-6.91 5.85-14.663 6.03-23.25 5.813L241 264v29h-25c-1.464-2.928-1.139-5.871-1.13-9.08l-.005-2.208a2246 2246 0 0 1 .002-7.243l-.003-5.022q-.001-5.265.006-10.531.006-6.76-.004-13.519a5781 5781 0 0 1 0-10.371q0-2.493-.002-4.986-.003-3.48.007-6.96l-.007-2.094c.022-4.757.022-4.757 1.136-6.986m25 18v15c8.048.548 8.048.548 15-3 1.366-1.159 1.366-1.159 1.375-4.312-.058-3.696-.058-3.696-2.187-6.125-4.808-2.357-8.868-1.82-14.188-1.563"/><path fill="#01ADED" d="M310 214c3.98-.029 7.958-.047 11.938-.062l3.443-.026 3.271-.01 3.031-.016C334 214 334 214 335 215c.094 1.78.117 3.564.114 5.346v3.458l-.016 3.762-.005 3.83q-.007 5.047-.024 10.096-.014 5.147-.02 10.295c-.01 6.738-.03 13.475-.049 20.213h37v21h-62c-1.464-2.928-1.139-5.871-1.13-9.08l-.005-2.208a2246 2246 0 0 1 .002-7.243l-.003-5.022q-.001-5.265.006-10.531.006-6.76-.004-13.519a5781 5781 0 0 1 0-10.371q0-2.493-.002-4.986-.003-3.48.007-6.96l-.007-2.094c.022-4.757.022-4.757 1.136-6.986"/><path fill="#E22527" d="M97 190h18c-.725 3.626-1.128 5.63-2.707 8.707l-1.03 2.03-1.076 2.076-1.04 2.04q-1.04 2.036-2.083 4.067c-1.713 3.348-3.387 6.714-5.064 10.08l1.917-.058 2.208-.067 2.32-.07c2.555.195 2.555.195 5.418 1.187 3.551 1.141 6.477 1.274 10.2 1.258l3.597.016c3.258-.26 5.367-1.005 8.34-2.266 6.665-.837 11.92.298 18 3v8l-2.512-.492c-3.81-.555-7.45-.64-11.3-.633l-2.061-.012c-3.347-.283-3.347-.283-6.127 1.137-2.657.1-5.281.139-7.937.125l-2.249.012c-5.56-.01-5.56-.01-7.814-1.137a61 61 0 0 0-4.133-.098l-2.441.01-2.551.025-2.574.014q-3.15.02-6.301.049l-.34 2.168c-.705 3.023-1.793 5.395-3.222 8.144-.456.884-.91 1.767-1.38 2.676L90 244l3.777-1.137 5.16-1.55 2.734-.822a2447 2447 0 0 1 19.636-5.795 229 229 0 0 0 11.005-3.508C136 230 136 230 140 230l-3 10-4-1v8l-4 2c-3-3.75-3-3.75-3-6l-2.852.656-3.773.844-3.727.844c-3.32.597-6.287.78-9.648.656l1 4-3.156 1.102c-8.323 2.916-16.614 5.89-24.84 9.068C74.214 262 74.214 262 72 262c.679-2.847 1.494-5.61 2.418-8.387l.854-2.567.915-2.733.95-2.837c4.908-14.619 10.156-29.093 15.635-43.507l.779-2.059.696-1.836c.97-2.673 1.854-5.376 2.753-8.074"/><path fill="#E9FC22" d="m72.813 215.875 3.707-.008c3.48.133 3.48.133 6.242.703 2.395.65 2.395.65 5.238-.57-5.312 15.938-5.312 15.938-5.945 17.832a2235 2235 0 0 0-3.64 10.996l-.808 2.45a1572 1572 0 0 0-1.552 4.732c-1.144 3.464-2.272 6.788-4.055 9.99l2.3.402 3.013.536 2.988.527C83 264 83 264 86 265c4.597.463 8.165.364 12.438-1.5 4.635-1.952 8.607-1.77 13.562-1.5v2l8 1q.061 3.5 0 7l-1 1q-2.35-.365-4.7-.734c-8.525-.989-8.525-.989-16.75.734-3.2 1.254-5.811 1.23-9.237 1.188l-3.45-.02C82 274 82 274 80 273v-2c-10.538.65-10.538.65-21 2-.25-5.625-.25-5.625 2-9h3v-3h7l2-10c-5.289 1.15-5.289 1.15-10.25 3.188-1.75.812-1.75.812-3.937.5C57 254 57 254 56 253c-.276-3.586-.204-6.389.938-9.812 3.662-3.885 8.499-4.076 13.652-4.301 2.137-.01 4.274.045 6.41.113l.93-1.86L81 231h-5v-2c-1.772.114-3.542.242-5.312.375l-2.989.21c-2.914.254-2.914.254-5.699 2.415-2.125-.25-2.125-.25-4-1-1.203-2.405-1.1-3.95-1.062-6.625l.027-2.477L57 220l7-1v-2c2.93-1.465 5.553-1.132 8.813-1.125"/><path fill="#F7F64F" d="m34.904 169.873 3.069-.009 3.366.007 3.55-.006q4.835-.004 9.668 0c3.402.003 6.803 0 10.204 0q8.612-.003 17.223.005 9.832.006 19.666-.002 8.51-.007 17.02-.003 5.05.003 10.1-.001c18.767-.013 37.48.397 56.23 1.136 1.222 7.556 1.094 15.043 1.022 22.678l-.03 4.437q-.04 5.992-.093 11.986-.05 6.273-.092 12.548-.085 11.867-.18 23.735-.107 13.515-.203 27.032Q185.22 301.208 185 329q-29.793.231-59.587.443-13.833.098-27.667.205-12.057.094-24.114.177-6.384.043-12.768.096-6.01.049-12.019.086-2.205.014-4.41.035-3.013.026-6.025.04l-3.405.025C32 330 32 330 27 329V171c2.944-.981 4.837-1.126 7.904-1.127M29 173q-.035 30.093-.052 60.186-.007 13.97-.023 27.943-.015 12.172-.02 24.346 0 6.45-.01 12.9a5929 5929 0 0 0-.008 12.126q0 2.232-.006 4.464-.006 3.035-.001 6.068l-.003 3.439c-.164 2.465-.164 2.465 1.123 3.528 1.572.098 3.147.126 4.722.127l3.099.009 3.43-.007 3.594.006q4.905.004 9.81 0c3.444-.003 6.888 0 10.332 0q8.72.004 17.438-.005 9.973-.006 19.945.002 8.616.007 17.232.003 5.12-.003 10.24.001 5.771.003 11.542-.007l3.272.007c12.806-.033 25.521-.661 38.344-1.136l1-155-71.875-.063-22.664-.027-13.451-.005q-4.48-.002-8.961-.01-5.73-.01-11.458-.008-2.094 0-4.188-.006c-7.533-.02-14.925.163-22.403 1.119"/><path fill="#0AACD9" d="m75 262 1 1c7.392 2.01 15.242 3.64 22.438.5 4.635-1.952 8.607-1.77 13.562-1.5v2l8 1q.061 3.5 0 7l-1 1q-2.35-.365-4.7-.734c-8.525-.989-8.525-.989-16.75.734-3.2 1.254-5.811 1.23-9.237 1.188l-3.45-.02C82 274 82 274 80 273v-2c-10.538.65-10.538.65-21 2-.25-5.625-.25-5.625 2-9 4.758-1.773 8.94-2.304 14-2"/><path fill="#F7F92D" d="M28 173h1l1 154h153V192h1l1 137c-38.207.331-38.207.331-54.191.453-11.047.084-22.093.17-33.139.27q-12.066.11-24.132.196-6.39.044-12.78.107-6.013.059-12.026.094-2.209.015-4.417.041c-2.008.023-4.017.033-6.026.042l-3.407.027C32 330 32 330 28 328z"/><path fill="#84CEDF" d="M310 214c3.98-.029 7.958-.047 11.938-.062l3.443-.026 3.271-.01 3.031-.016C334 214 334 214 335 215c.094 1.78.117 3.564.114 5.346v3.458l-.016 3.762-.005 3.83q-.007 5.047-.024 10.096-.014 5.147-.02 10.295c-.01 6.738-.03 13.475-.049 20.213h37v21h-62c-1.464-2.928-1.139-5.871-1.13-9.08l-.005-2.208a2246 2246 0 0 1 .002-7.243l-.003-5.022q-.001-5.265.006-10.531.006-6.76-.004-13.519a5781 5781 0 0 1 0-10.371q0-2.493-.002-4.986-.003-3.48.007-6.96l-.007-2.094c.022-4.757.022-4.757 1.136-6.986m1 2q-.07 13.782-.104 27.565-.014 6.399-.047 12.799-.032 6.175-.039 12.352-.004 2.355-.021 4.712c-.015 2.2-.017 4.4-.016 6.6l-.014 3.796c.227 2.998.658 4.664 2.241 7.176q10.9.07 21.8.104 5.063.014 10.123.047c3.877.024 7.754.035 11.632.044l3.68.032h3.397l3.002.014c2.555-.008 2.555-.008 4.366-2.241.244-3.357.244-3.357.125-7.125l-.055-3.883L371 275c-3.11-1.555-6.433-1.24-9.852-1.316l-2.345-.063q-3.714-.097-7.428-.183l-5.031-.131Q340.17 273.146 334 273l.007-2.12q.03-9.866.045-19.733.007-5.073.023-10.146c.013-3.884.018-7.769.023-11.653l.015-3.697v-3.397l.007-3.008c.132-2.216.132-2.216-1.12-3.246a83 83 0 0 0-4.91-.098l-2.998.01-3.154.025-3.167.014q-3.885.018-7.771.049"/><path fill="#09ABDE" d="M101 219c1.541-.055 3.083-.093 4.625-.125l2.602-.07c2.773.195 2.773.195 5.668 1.187 3.538 1.148 6.455 1.274 10.168 1.258l3.597.016c3.258-.26 5.367-1.005 8.34-2.266 6.665-.837 11.92.298 18 3v8l-2.512-.492c-3.81-.555-7.45-.64-11.3-.633l-2.061-.012c-3.347-.283-3.347-.283-6.127 1.137-2.657.1-5.281.139-7.937.125l-2.249.012c-5.56-.01-5.56-.01-7.814-1.137-2.713-.232-5.408-.42-8.125-.562l-2.285-.131A1637 1637 0 0 0 98 228v-4h2z"/><path fill="#E42426" d="M99 191h14c-1 4-1 4-3 6q-1.008 3.498-2 7a132 132 0 0 1-3 6h-2l1 6h-5l.313 2.188C99 221 99 221 96.937 223.688c-3.425 2.696-5.73 3.404-9.937 4.312v-6h2l.41-2.117c.618-3.02 1.303-6.013 2.028-9.008l.746-3.133C93 205 93 205 95 202a253 253 0 0 0 2-6z"/><path fill="#5ABBEC" d="M216 214h43v2h-42q.18 11.77.372 23.541.066 4.003.125 8.005.088 5.76.187 11.52l.05 3.603c.099 5.541.336 10.867 1.266 16.331.06 1.645.088 3.292.063 4.938l-.028 2.34L219 288h-2v4h23v-31c11.938-.375 11.938-.375 15.644-.478 6.373-.229 12.183-.912 18.356-2.522-3.773 4.103-8.235 5.76-13.71 6.236-2.938.058-5.853.026-8.79-.048L241 264v29h-25c-1.464-2.928-1.139-5.871-1.13-9.08l-.005-2.208a2246 2246 0 0 1 .002-7.243l-.003-5.022q-.001-5.265.006-10.531.006-6.76-.004-13.519a5781 5781 0 0 1 0-10.371q0-2.493-.002-4.986-.003-3.48.007-6.96l-.007-2.094c.022-4.757.022-4.757 1.136-6.986"/><path fill="#FEFB08" d="M150 220h6v11c-4 1-4 1-6.187.063-7.68-2.901-13.742-.511-21.024 2.507-5.108 2.025-10.426 3.269-15.744 4.613-5.936 1.505-11.752 3.219-17.576 5.118C93 244 93 244 90 244c1.58-5.136 3.446-10.261 6-15 3.158-1.58 6.537-1.143 10-1.125l2.234-.012c5.513.01 5.513.01 7.766 1.137 2.698.098 5.365.14 8.063.125l2.26.012c3.636.335 3.636.335 6.677-1.137 2.41-.128 4.777-.185 7.188-.187l3.98-.043c3.662.22 6.437.894 9.832 2.23l-.312-3.875-.176-2.18c-.386-2.34-.386-2.34-3.512-3.945"/><path fill="#C92D30" d="m135 236 1 4 2.082-.035 2.73-.028 2.708-.035C146 240 146 240 149 241v2l5 1v8c-1.666.043-3.334.04-5 0l-1-1c-2.802-.1-5.573-.139-8.375-.125l-2.367-.012c-3.335.006-6.074.076-9.258 1.137l-1 2h-3v-2l-3.437.125c-4.707.017-9.026-.949-13.563-2.125l-1-4c15.188-3.837 15.188-3.837 20-3 1.938 2.5 1.938 2.5 3 5l3-1 1-8h2z"/><path fill="#38B3DF" d="M413.33 213.248c7.814.132 7.814.132 11.752 2.982 1.711 2.555 2.955 4.855 3.918 7.77l-1 2c-2.438-1.188-2.438-1.188-5-3-.688-2.625-.688-2.625-1-5-6.586-3.293-14.646-1.632-22-2v75h21v-39l2 1-1 40-11.438.062-3.61.028-2.823.008-2.904.016C399 293 399 293 398 292c-.1-2.398-.136-4.767-.13-7.166l-.005-2.271q-.004-3.735.002-7.47l-.003-5.167q-.001-5.423.006-10.844.006-6.967-.004-13.933-.005-5.337 0-10.675 0-2.57-.002-5.139-.003-3.585.007-7.169l-.007-2.166c.04-9.09 7.919-6.6 15.466-6.752"/><path fill="#2FAAB4" d="M153 265c1 1 1 1 1.098 2.848L154 274c-5.875-.875-5.875-.875-7-2-6.099-.447-11.246-.141-17 2-3.375.125-3.375.125-6 0-.365-4.255.295-6.663 3-10 7.965-4.182 18.095-2.548 26 1"/><path fill="#CA4918" d="M97 190h18c-.727 3.635-1.185 5.752-2.742 8.883l-1.043 2.097-1.09 2.145-1.066 2.168-1.051 2.09-.949 1.887c-1.146 1.873-2.453 3.242-4.059 4.73v-4h2l.813-2.5a423 423 0 0 1 2.624-7.562l.684-1.91c1.064-2.455 2.502-4.734 3.879-7.028H99l-1 5a77 77 0 0 1-1.875 4.063c-2.123 4.592-3.306 9.215-4.414 14.14-.693 2.725-1.608 5.215-2.711 7.797h-2v8h-2l-.312 2.125C84 235 84 235 82.562 237.813 80.74 241.533 79.905 244.965 79 249h-2l-1 9 4-2q2.017-.501 4.063-.875c3.676-.757 7.055-1.851 10.562-3.187 4.187-1.584 7.924-2.542 12.375-2.938-3.079 2.053-5.797 3.111-9.277 4.348l-3.744 1.334-1.948.686q-2.939 1.038-5.873 2.087C75.722 261.158 75.722 261.158 72 262c.679-2.847 1.494-5.61 2.418-8.387l.854-2.567.915-2.733.95-2.837c4.908-14.619 10.156-29.093 15.635-43.507l.779-2.059.696-1.836c.97-2.673 1.854-5.376 2.753-8.074"/><path fill="#D8F938" d="m58 266 2 1-1 6 2.625-1c5.938-1.746 12.253-1.153 18.375-1v2q3.593.08 7.188.125l2.04.05c4.136.041 7.005-.582 10.772-2.175 6.199-.567 12.232-.564 18 2-.54 6.69-1.887 12.635-4 19h-1a293 293 0 0 1-.125-4.375l-.07-2.46C113 283 113 283 115 281c.398-1.988.738-3.99 1-6q-3.437-.04-6.875-.062l-3.867-.036c-3.145-.134-3.145-.134-5.258 1.098-9.583.396-19.233-.097-28.812-.437l-3.83-.12-3.628-.127-3.268-.11C58 275 58 275 57 274c-.125-3.5-.125-3.5 0-7z"/><path fill="#D13C10" d="M131 250c1 2 1 2-.04 5.273q-.78 2.055-1.585 4.102l-.846 2.205a375 375 0 0 1-4.904 12.045c-3.949 9.295-7.221 18.87-10.625 28.375h-2c1.607-9.174 3.988-18.171 7.027-26.977 1.08-3.355 1.824-6.697 2.535-10.148 1.559-7.509 1.559-7.509 2.438-10.875h4l1-3z"/><path fill="#05ABEE" d="m85 222-1 6c-4.888 1.384-9.769 1.046-14.8.96-3.586-.037-6.752.064-10.2 1.04-.25-3.312-.25-3.312 0-7 6.54-7.267 18.144-4.055 26-1"/><path fill="#50BDE5" d="M336 273h36v20h-62l1-6 2 3c2.454.446 2.454.446 5.352.356l3.387.01 3.671-.038 3.751-.006q4.939-.014 9.878-.058c3.354-.023 6.71-.025 10.065-.03q3.81-.014 7.619-.03l3.677-.014 3.378-.029 2.99-.02c2.204.108 2.204.108 3.232-1.141l1-14-35-1z"/><path fill="#07A9E3" d="M400 216c20 0 20 0 23 2v2h-4v-3h-18v73l17-1 2-34h1v36h-21z"/><path fill="#FCCF23" d="M98 187c6.433-.12 12.618.176 19 1v6h-2l-.586 2.3-.789 3.012-.773 2.989C112 205 112 205 110 208h-2l-.375 2.813C107 214 107 214 105 217l3.125-.187C112 217 112 217 114.688 218.5c4.951 2.242 9.95 2.075 15.312 1.5l2.008-1.012c2.668-1.323 4.784-1.183 7.742-1.113l2.984.055L145 218v1l-1.793.148-2.394.227-2.356.21c-2.5.322-2.5.322-4.824 1.438-3.303 1.226-6.054 1.242-9.57 1.227l-3.59.016c-3.498-.268-6.187-1.091-9.473-2.266a70 70 0 0 0-4.875-.625l-2.367-.227L102 219c1.491-4.953 3.578-9.361 5.938-13.937q1.047-2.044 2.09-4.09l.929-1.805c1.448-3.01 2.727-6.098 4.043-9.168H98z"/><path fill="#38B396" d="M101 219c1.541-.055 3.083-.093 4.625-.125l2.602-.07c2.773.195 2.773.195 5.668 1.187 3.538 1.148 6.455 1.274 10.168 1.258l3.597.016c3.258-.26 5.367-1.005 8.34-2.266 6.665-.837 11.92.298 18 3v8l-21-2v-1h19v-4c-3.786-.882-7.303-1.135-11.187-1.125l-3.168-.008c-2.622-.046-2.622-.046-4.645 1.133-2.804.127-5.57.19-8.375.188l-2.44.001c-6.538-.057-12.792-.785-19.185-2.189v2h-2v3h10l1 2H98v-4h2z"/><path fill="#D0EB59" d="M150 220h6v11c-4 1-4 1-6.187.063-5.261-1.988-10.482-1.824-15.625.437-5.189 2.222-10.64 1.944-16.188 1.5l-2-1a76 76 0 0 0-4.352-.316l-2.578-.127-2.695-.12-2.719-.13q-3.327-.16-6.656-.307l1-3q3.938-.04 7.875-.062l2.262-.026c5.636-.025 5.636-.025 7.863 1.088 2.698.098 5.365.14 8.063.125l2.26.012c3.636.335 3.636.335 6.677-1.137 2.41-.128 4.777-.185 7.188-.187l3.98-.043c3.662.22 6.437.894 9.832 2.23l-.312-3.875-.176-2.18c-.386-2.34-.386-2.34-3.512-3.945"/><path fill="#0AAED3" d="m71.063 240.875 2.66-.008C76 241 76 241 78 242c-.75 5.75-.75 5.75-3 8-2.734.306-5.383.511-8.125.625l-2.285.117c-1.863.095-3.726.177-5.59.258-.113-2.887-.113-2.887 0-6 3.56-3.56 7.186-4.14 12.063-4.125"/><path fill="#6CCBF1" d="M413.33 213.248c7.814.132 7.814.132 11.752 2.982 1.711 2.555 2.955 4.855 3.918 7.77l-1 2c-2.438-1.188-2.438-1.188-5-3-.688-2.625-.688-2.625-1-5-6.566-3.283-14.66-1-22-1l-1 75h-1q-.034-15.034-.052-30.067-.007-6.98-.023-13.96-.016-6.73-.02-13.46a2506 2506 0 0 0-.01-5.147q-.01-3.593-.009-7.184l-.01-2.171c.019-9.103 7.898-6.611 15.454-6.763"/><path fill="#60C9E9" d="M274 259c-5.673 3.382-9.506 5.137-16.203 5.098l-2.677-.008-3.37-.027L241 264v29h-25l1-2 23 1v-31c12.125-.375 12.125-.375 15.915-.478l3.03-.108 3.079-.095c3.063-.218 3.063-.218 6.167-1.407C271 258 271 258 274 259"/><path fill="#77D8F2" d="M310 214c3.98-.029 7.958-.047 11.938-.062l3.443-.026 3.271-.01 3.031-.016C334 214 334 214 335 215c.094 1.78.117 3.564.114 5.346v3.458l-.016 3.762-.005 3.83q-.007 5.047-.024 10.096-.014 5.147-.02 10.295c-.01 6.738-.03 13.475-.049 20.213h37v1h-38l-1-56-23-1z"/><path fill="#CAF64A" d="m72.813 215.875 3.707-.008c3.48.133 3.48.133 6.242.703 2.395.65 2.395.65 5.238-.57l-2 6c-5.677-.903-5.677-.903-7.875-1.562-5.804-1.195-10.672-.594-16.125 1.562l-3 1v7l1.453-.992c3.752-1.485 7.304-1.22 11.297-1.133l2.402.027c1.95.024 3.899.06 5.848.098v1l-3.176.148-4.136.227-2.092.094c-3.666.212-5.475.45-8.596 2.531-2.125-.25-2.125-.25-4-1-1.203-2.405-1.1-3.95-1.062-6.625l.027-2.477L57 220l7-1v-2c2.93-1.465 5.553-1.132 8.813-1.125"/><path fill="#1BA9E8" d="M275 220c-3.485 1.162-4.218.778-7.566-.42-5.253-1.67-9.9-1.973-15.38-1.873l-2.714.013c-2.822.016-5.643.054-8.465.093q-2.895.022-5.79.04c-4.695.033-9.39.085-14.085.147-1.789 4.639-2.295 8.627-2.414 13.586l-.059 2.127a1133 1133 0 0 0-.152 6.662l-.117 4.543q-.142 5.541-.258 11.082h-1v-40q8.697-.252 17.395-.482 2.954-.08 5.906-.166 4.268-.123 8.535-.23l2.627-.083c16.959-.405 16.959-.405 23.537 4.961"/><path fill="#FCF217" d="M122 275h1c.257 3.593.187 5.64-1.5 8.875-1.473 3.068-1.642 4.08-1.5 7.313 0 3.812 0 3.812-1.312 5.437L117 298a134 134 0 0 0-3 6h-2l1 3-2 3c-3-2-3-2-3.812-4.687-.224-3.944.359-6.645 1.812-10.313 2.125-1.937 2.125-1.937 4-3-.458 3.47-.891 6.674-2 10h2l.773-3.902c1.135-5.104 2.893-9.824 4.852-14.66l.984-2.479q1.188-2.983 2.391-5.959"/><path fill="#14A7DE" d="M333 217h1v56c11.428.29 11.428.29 22.857.568l4.291.116 2.26.05c5.364.152 5.364.152 7.592 1.266q.118 3.437.188 6.875l.105 3.867L371 289l-3 2 1-14c-3.994-.998-7.54-1.128-11.61-1.098l-1.953.003c-2.396.006-4.791.02-7.187.033L332 276z"/><path fill="#27B5E8" d="M470 216h2v76h-23l-5-6c2-1 2-1 4.563-.187C451 287 451 287 452 289l19 2z"/><path fill="#DB2732" d="m99 216 4 1-3 7h-2v5h-2l-.348 2.203c-.67 2.878-1.64 4.983-3.09 7.547l-1.308 2.36C90 243 90 243 88 244c-.213-4.468.409-7.823 2-12h-4c.563-2.312.563-2.312 2-5 3.438-1.625 3.438-1.625 7-3 2.493-1.828 2.912-2.656 3.688-5.687z"/><path fill="#CA4803" d="M97 190h18c-.727 3.635-1.185 5.752-2.742 8.883l-1.043 2.097-1.09 2.145-1.066 2.168-1.051 2.09-.949 1.887c-1.146 1.873-2.453 3.242-4.059 4.73v-4h2l.813-2.5a423 423 0 0 1 2.624-7.562l.684-1.91c1.064-2.455 2.502-4.734 3.879-7.028H99l-1 5a77 77 0 0 1-1.875 4.063c-2.123 4.592-3.306 9.215-4.414 14.14-.693 2.725-1.608 5.215-2.711 7.797h-3c1.79-6.58 4.107-12.752 6.793-19.016 1.72-4.254 2.973-8.566 4.207-12.984"/><path fill="#0AAFDF" d="M84 267c1.996.677 3.995 1.348 6 2v2l-3.625-.5c-8.434-.936-17.025-1.097-25.375.5v-4c8.685-3.657 14.375-3.572 23 0"/><path fill="#1BA5CF" d="m238 264 2 1v27h-23v-4l3.5.5c4.204.53 8.265.572 12.5.5h4z"/><path fill="#16AFC8" d="M135 221c1.896-.054 3.791-.093 5.688-.125l3.199-.07c3.136.196 5.29.864 8.113 2.195v4h-19l-1 3q-3.937.08-7.875.125l-2.262.05c-1.955.018-3.91-.072-5.863-.175l-2-2 17 1v-3l7-1 1-3z"/><path fill="#16ABDC" d="M450 216h20v1l-3.43.113q-2.222.099-4.445.2l-2.262.068c-1.963.097-3.916.35-5.863.619-2.493 3.74-2.255 6.626-2.195 10.95l.008 2.34c.011 2.466.037 4.932.062 7.398q.016 2.508.027 5.017.035 6.148.098 12.295h-6v-2h-2v-4l4 2v2h2z"/><path fill="#1AA6DA" d="M239 229c2.228-.109 4.458-.186 6.688-.25l3.761-.14c4.12.453 5.659 1.493 8.551 4.39 1.262 2.525 1.099 4.312 1.063 7.125l-.028 2.758L259 245c-3.719 2.047-3.719 2.047-6.25 1.625L251 246l2.5-1.062c2.882-1.771 2.882-1.771 3-5.375-.526-3.749-.83-4.982-3.5-7.563-3.186-.701-3.186-.701-6.687-.75l-3.575-.172L240 231l.07 2.992.055 3.883.07 3.867C240 245 240 245 238 247q-.04-3.657-.062-7.312l-.026-2.092c-.015-3.144.086-5.59 1.088-8.596"/><path fill="#18ABDF" d="M275 221c4.88 4.366 6.679 7.815 7.336 14.332.082 7.315-.144 13.466-4.336 19.668-2.25 2.063-2.25 2.063-4 3l-1-3h2l.938-3.437C277 248 277 248 278 247c.127-2.949.185-5.863.188-8.812l.037-2.487.005-2.408.013-2.202c-.282-2.43-.96-4.018-2.243-6.091l-2-1z"/><path fill="#0CACD6" d="M140.188 241.688c4.334.355 6.941 1.416 10.812 3.312v4h-16c0-6.804 0-6.804 5.188-7.312"/><path fill="#3FB59D" d="m85 222-1 6c-4.888 1.384-9.769 1.046-14.8.96-3.586-.037-6.752.064-10.2 1.04-.25-3.312-.25-3.312 0-7 6.54-7.267 18.144-4.055 26-1m-24 3v2h22v-4h-3v-2a336 336 0 0 0-6.687-.25l-3.762-.14c-4.106.451-5.706 1.453-8.551 4.39"/><path fill="#56B38E" d="M136 240c2.277-.328 2.277-.328 4.938-.25l2.652.047C146 240 146 240 149 241v2l5 1v8c-1.666.043-3.334.04-5 0l-1-1a200 200 0 0 0-7.562-.562l-2.155-.131q-2.64-.159-5.283-.307c.75-6.625.75-6.625 3-10m-1 4v5h16l-1-5c-4.923-1.921-10.865-4.135-15 0"/><path fill="#05ADE7" d="M148 265v2h3v3l-3.473-.035-4.59-.027-2.279-.026c-4.664-.02-9.057.312-13.658 1.088l1-4c6.759-2.08 12.956-2.211 20-2"/><path fill="#39A0B6" d="m125 244-1 8c-5.673.293-8.99.006-14-3 4.514-3.82 9.097-5.347 15-5"/><path fill="#CA5002" d="m121 273 2 2-1.426 3.621-1.886 4.817c-.31.783-.618 1.566-.936 2.373A283 283 0 0 0 113 302h-2c1.125-6.443 2.657-12.711 4.438-19l.621-2.285c1.59-5.48 1.59-5.48 4.941-7.715"/><path fill="#44AB95" d="M116 265h4q.061 3.5 0 7l-1 1q-2.35-.365-4.7-.734c-8.524-.987-8.524-.987-16.75.73-3.191 1.256-5.817 1.27-9.237 1.254l-3.45.016C82 274 82 274 80 272l2.922.07 3.828.055 3.797.07c3.303.05 3.303.05 5.385-1.195 2.395-1.158 3.968-1.231 6.615-1.195l2.558.02 2.645.05 2.691.027q3.28.036 6.559.098z"/><path fill="#30AC9A" d="m75 262 1 2-2.266.402-2.984.536-2.953.527c-2.294.439-4.54.938-6.797 1.535l1 3 1.938-.5c4.038-.66 7.98-.58 12.062-.5v2l-17 2c0-6 0-6 2-9 4.776-1.78 8.927-2.207 14-2"/><path fill="#36A2A4" d="M101 219c6.802-.376 11.757.225 18 3-3.654 1.268-6.49.757-10.25.063l-3.266-.59L103 221v2h-2v3h10l1 2H98v-4h2z"/><path fill="#6BCFE8" d="M399 214c20.722-1.644 20.722-1.644 26.086 2.227 1.706 2.555 2.952 4.86 3.914 7.773l-1 2c-2.437-1.187-2.437-1.187-5-3-.687-2.625-.687-2.625-1-5-2.453-1.226-4.05-1.114-6.79-1.098l-2.85.01-2.985.025-3.008.014q-3.683.018-7.367.049z"/><path fill="#42AF8D" d="m71.063 240.875 2.66-.008C76 241 76 241 78 242c-.75 5.75-.75 5.75-3 8-2.734.306-5.383.511-8.125.625l-2.285.117c-1.863.095-3.726.177-5.59.258-.113-2.887-.113-2.887 0-6 3.56-3.56 7.186-4.14 12.063-4.125M61 245v4q3.438-.173 6.875-.375l3.867-.21c3.339-.087 3.339-.087 5.258-2.415v-3c-6.214-1.02-10.484-1.63-16 2"/><path fill="#ECFD1A" d="m72.813 215.875 3.707-.008c3.48.133 3.48.133 6.242.703 2.395.65 2.395.65 5.238-.57l-2 6c-3.377-.537-6.697-1.11-10-2v-2l-12 1v-2c2.93-1.465 5.553-1.132 8.813-1.125"/><path fill="#06ADE6" d="M103 265h13l1 5-16-1z"/><path fill="#FBE122" d="M96 229c1.17 3.917.696 6.98 0 11l2-1c2.672-.134 5.323-.043 8 0-2.426 2.426-4.142 2.758-7.437 3.625-.969.26-1.937.52-2.934.79C93 244 93 244 90 244c1.599-5.196 3.741-10.066 6-15"/><path fill="#E0281F" d="M119 237v2l-6 1 1 3-2 3c-2.602.293-2.602.293-5.625.188l-3.04-.083L101 246v-3l7-1v-2q2.186-.755 4.375-1.5l2.46-.844C117 237 117 237 119 237"/><path fill="#30B8E7" d="M424 252h3c2.5 3.333 3 4.733 3 9h2v3h2v3h2l-1 4c-3.104-2.912-5.45-5.922-7.75-9.5l-1.86-2.844C424 256 424 256 424 252"/><path fill="#A5E76D" d="M102 217c9.072-.484 9.072-.484 12.875 1.5 4.827 2.317 9.854 2.065 15.125 1.5l2.008-1.012c2.668-1.323 4.784-1.183 7.742-1.113l2.984.055L145 218v1l-1.793.148-2.394.227c-.778.07-1.555.14-2.356.21-2.5.322-2.5.322-4.824 1.438-3.303 1.226-6.054 1.242-9.57 1.227l-3.59.016c-3.498-.268-6.187-1.091-9.473-2.266a70 70 0 0 0-4.875-.625l-2.367-.227L102 219z"/><path fill="#D9E343" d="m109 250 3 .438c3.994.571 7.995 1.07 12 1.562l-3 13-9-1v-2h8q.57-3.49 1-7c-1.497-1.497-2.988-1.332-5.062-1.562L112 253v-2z"/><path fill="#DCF83B" d="M98 228c17.34-.766 17.34-.766 25 4v1l-2.879-.465c-4.67-.667-9.349-.879-14.058-1.097l-2.65-.131Q100.205 231.15 97 231z"/><path fill="#D53512" d="m95 228 2 1a1322 1322 0 0 1-3.375 6.938l-.96 1.998c-2.438 4.95-2.438 4.95-4.665 6.064-.372-5.083.622-8.5 3-13 2.188-1.937 2.188-1.937 4-3"/><path fill="#33B5DE" d="M444 285c2.352.599 4.686 1.27 7 2l1 2c1.934.468 1.934.468 4.254.633l2.588.254 2.72.238 2.733.262q3.352.32 6.705.613l1-2v3c-3.729.175-7.456.281-11.187.375l-3.198.152c-7.675.146-7.675.146-10.469-1.854C444 286.96 444 286.96 444 285"/><path fill="#AEEE5E" d="m58 266 2 1-1 6 2.625-1c5.938-1.746 12.253-1.153 18.375-1v2l-3.543.184-4.644.253-2.33.12c-3.233.18-6.29.405-9.471 1.04L58 275c-1-1-1-1-1.125-4.5C57 267 57 267 58 266"/><path fill="#D7FA40" d="M134 261q3.813-.08 7.625-.125l2.16-.05c4.476-.042 7.994.484 12.215 2.175v10l-2 1-1-8c-6.328-2.43-12.238-3.59-19-4z"/><path fill="#D0470A" d="M120 237a665 665 0 0 1-4.312 1.5l-2.426.844C111 240 111 240 108 240v2c-5.528 2.106-10.07 3.379-16 3 1-2 1-2 4.605-3.219a471 471 0 0 1 4.582-1.281q2.273-.639 4.543-1.281l2.213-.614c1.81-.532 3.588-1.17 5.358-1.824 2.779-.804 4.038-.805 6.699.219"/><path fill="#FBD91A" d="M98 187c6.433-.12 12.618.176 19 1v6l-1-4H98z"/><path fill="#1DB2DE" d="m217 288 3.5.5c4.204.53 8.265.572 12.5.5h3l-1 1 5 1v1h-23z"/><path fill="#C4F553" d="M151.188 272.5 154 274v1l-3.812-.5c-9.706-1.108-9.706-1.108-19.188.5a65 65 0 0 1-4.187.063L123 275v-1l2.082-.402 2.73-.536 2.708-.527c13.854-2.989 13.854-2.989 20.667-.035"/><path fill="#CB4E08" d="m140 230-3 10c-1-4-1-4-1-7l-3 2c-2.918.414-2.918.414-6.187.625l-3.293.227L121 236c3.092-1.619 6.229-2.912 9.5-4.125l2.844-1.07C136 230 136 230 140 230"/><path fill="#DCFD38" d="m140.688 216.688 2.048-.05c1.963-.001 1.963-.001 5.264.362l2 3-2.152-.488c-2.86-.514-5.508-.68-8.41-.7l-2.817-.042c-2.595.064-2.595.064-4.582 1.226-2.767 1.363-5.033 1.27-8.101 1.254l-3.16.016C118 221 118 221 115 219l2.668.07 3.52.055 3.48.07c3.255-.012 3.255-.012 5.777-1.183 3.473-1.375 6.521-1.314 10.243-1.325"/><path fill="#9C5668" d="M126 243c.125 3.375.125 3.375 0 7l-2 2 1-8a862 862 0 0 0-6.437 1.875l-3.622 1.055c-3.058.73-3.058.73-3.941 3.07h-4l-1-4c13.633-3.444 13.633-3.444 20-3"/><path fill="#AC4849" d="m125 263 2 1-3 10-6 1 2-10 5 1z"/><path fill="#5EC682" d="M153 265c-2 1-2 1-4.012.566-4.271-.81-8.464-.67-12.8-.628l-2.678.013q-3.255.02-6.51.049c6.38-6.38 18.648-3.05 26 0"/><path fill="#EEE932" d="M76 229h7c-.591 4.847-1.98 8.607-4 13l-2-1c-1.537-.225-3.08-.408-4.625-.562l-2.477-.254L68 240v-1h9l2-4 2-4h-5z"/><path fill="#D3F63D" d="M137 239c2.25-.054 4.5-.093 6.75-.125l3.797-.07C151 239 151 239 155 241v11h-1v-8l-5-1v-2l-12-1z"/><path fill="#23AFB1" d="M76 264c6.201-.276 11.932.771 18 2v2c-3.064 1.532-5.617 1.23-9 1-2.687-1.375-2.687-1.375-5-3a174 174 0 0 0-4-2"/><path fill="#04ADED" d="M70 266c7.215-.355 13.124.84 20 3v2c-5.03-.525-10.019-1.106-15-2v-2h-5z"/><path fill="#AFEE60" d="m70.813 239.938 3.519.027L77 240l1 2-2.414-.105c-8.32-.418-8.32-.418-15.586 3.105-.975 3.09-.975 3.09-1 6l5-1-1 2h-5c-.125-7.625-.125-7.625 1-11 3.998-.956 7.708-1.104 11.813-1.062"/><path fill="#FCD923" d="m116 232 11 1c-2.716 2.716-5.764 3.24-9.375 4.188l-2.04.576c-3.811 1.017-5.66 1.217-9.585.236l10-4z"/><path fill="#11ABCE" d="M75 221h5v2h3v4H65c3.835-2.557 5.659-2.04 10.188-1.625l3.855.336L82 226v-2h-6z"/><path fill="#FDED1B" d="M112 292c1.498 3.882.431 6.434-.937 10.25l-1.153 3.266L109 308c-2-3-2-3-1.863-5.375l.55-2.625c.17-.866.338-1.733.512-2.625.857-2.54 1.768-3.673 3.801-5.375"/><path fill="#D64913" d="M92 204h1c.22 4.59-.464 8.055-2 12.375l-1.125 3.21L89 222h-3c1.765-6.107 3.696-12.074 6-18"/><path fill="#12ACCC" d="m76 269 3.25.438c5.567.7 11.157 1.124 16.75 1.562-2 2-2 2-4.102 2.266-5.642-.035-10.484-.662-15.898-2.266z"/><path fill="#5BC5E3" d="M275 221c3.89 3.48 5.703 5.956 7 11 .195 3.648.195 3.648.125 7.375l-.055 3.773L282 246h-1l-.078-2.562c-.359-7.172-1.052-12.34-4.922-18.438l-2-1z"/><path fill="#49BDE2" d="M259 215c6.524.258 10.878.822 16 5-3.816 1.272-5.36.471-9.125-.812l-3.258-1.083C260 217 260 217 259 215"/><path fill="#54C7E6" d="M254 233h4c1.262 2.525 1.099 4.312 1.063 7.125l-.028 2.758L259 245c-3.719 2.047-3.719 2.047-6.25 1.625L251 246l2.5-1.062L256 243c.549-4.39.477-6.285-2-10"/><path fill="#3EB993" d="m107.25 261.938 2.703.027L112 262v2l4 1-3.324-.035-4.364-.027-2.185-.026c-3.843-.017-7.393.153-11.127 1.088 3.551-4.084 7.03-4.131 12.25-4.062"/><path fill="#D33F04" d="m112 194 2 1a1654 1654 0 0 1-3.812 7.813l-1.08 2.236-1.065 2.158-.968 1.984c-1.144 1.925-2.432 3.297-4.075 4.809v-4h2l.813-2.5c.878-2.59 1.762-5.176 2.687-7.75l.719-2.016C110 196 110 196 112 194"/><path fill="#FACC25" d="M122 275h1c.249 4.556-.366 7.571-2.312 11.688l-1.301 2.824c-1.268 2.275-2.443 3.784-4.387 5.488 1.926-6.856 4.247-13.433 7-20"/><path fill="#B2EE53" d="M58 223h1v7l1.453-.992c3.752-1.485 7.304-1.22 11.297-1.133l2.402.027c1.95.024 3.899.06 5.848.098v1l-3.176.148-4.136.227-2.092.094c-3.666.212-5.475.45-8.596 2.531-2.187-.375-2.187-.375-4-1z"/><path fill="#09ADEE" d="M136.313 221.688 139 222l-1 4-10 1c4.185-4.923 4.185-4.923 8.313-5.312"/><path fill="#0DA6DD" d="M400 216c3.27-.058 6.541-.094 9.813-.125.928-.017 1.857-.034 2.814-.05l2.705-.02 2.491-.032C420 216 420 216 423 218v2h-4v-3h-18l-1 4z"/><path fill="#40B797" d="m148 265 6 1v8c-2.937-.375-2.937-.375-6-1l-1-2h5v-4h-4z"/><path fill="#D8FC3E" d="m106.188 259.938 3.292.027L112 260v2l-16 2 1-3c3.285-1.095 5.737-1.1 9.188-1.062"/><path fill="#F8E821" d="M138 229h9l1 2h-4l-2 3h-2l-1 5h-2l3-9z"/><path fill="#EBD83D" d="M75 249c1.236 3.708.568 4.675-.937 8.188l-1.153 2.73L72 262l-8 1v-2h7l.367-2.117.508-2.758.492-2.742C73 251 73 251 75 249"/><path fill="#FAF714" d="m156 267 4 1v2h-3l.188 2.313C157 275 157 275 155.75 276.875 154 278 154 278 151.813 277.688L150 277v-2l2.438-.625L155 273c.898-3.053.898-3.053 1-6"/><path fill="#F5FD12" d="m140.375 215.625 2.29-.074c4.066-.022 5.887.151 9.374 2.472L154 220c-4.875-.875-4.875-.875-6-2a63 63 0 0 0-4.254-.098l-2.588.01-2.72.025-2.733.014q-3.353.018-6.705.049c3.81-2.54 6.958-2.368 11.375-2.375"/><path fill="#F5FC16" d="m134 258 14 1v2h-14z"/><path fill="#D7F839" d="M150 220h6v11l-4 1 2-1c-.087-1.46-.195-2.918-.312-4.375l-.176-2.46c-.342-2.544-.342-2.544-3.512-4.165"/><path fill="#FAD225" d="m116 275 2 1-4 16h-1a293 293 0 0 1-.125-4.375l-.07-2.46C113 283 113 283 115 281c.398-1.988.738-3.99 1-6"/><path fill="#B4EB68" d="m74 261 1.98.402c3.773.747 7.552 1.454 11.332 2.16L95 265v1c-6.41.207-12.882.163-19-2z"/><path fill="#59BD8C" d="m75 262 1 2-16 2c1-2 1-2 4.125-3.125 3.776-.853 7.021-1.032 10.875-.875"/><path fill="#52C7E5" d="M429 226c4.234 3.607 6.47 8.146 9 13l-2 1-1-3-2-1v-3h-2c-2-3-2-3-2-7"/><path fill="#D7EA53" d="m109 250 3 .438c3.994.571 7.995 1.07 12 1.562l-1 5-1-3-10-1v-2z"/><path fill="#E81E2D" d="m128 240 4 2v6h-4z"/><path fill="#F9CF21" d="M95 190h2c-.975 5.802-2.013 10.84-5 16-1.079-3.223-.95-4.89.375-8 1.108-2.651 1.986-5.195 2.625-8"/><path fill="#44BBE3" d="m431 261 1 3h2v3h2l-1 4c-3.08-2.773-4.688-5.063-6-9z"/><path fill="#37B7EF" d="m239 245 1 2h11v2c-2.995.998-4.173 1.007-7.187.563L240 249z"/><path fill="#D33326" d="m129 242-1 5-2-4h-6c1-2 1-2 2.813-2.75 2.685-.307 3.912.369 6.187 1.75"/><path fill="#CAE251" d="M86 216h2l-2 6c-3.916-.534-6.393-1.197-10-3h10z"/><path fill="#CC3C09" d="m121 273 2 2-2 5h-2l-1 2c-.187-3.375-.187-3.375 0-7z"/><path fill="#A64644" d="M85 222h2v8l-4 1z"/><path fill="#FBC02A" d="m93 236 2 3h-2v3l7-1c-3.006 3.006-5.824 2.596-10 3 1.875-5.75 1.875-5.75 3-8"/><path fill="#0EA3E4" d="M370 278h1q.118 2.686.188 5.375l.105 3.023L371 289l-3 2z"/><path fill="#BE3545" d="m125 263 2 1c-1.27 3.914-2.512 5.79-6 8v-6h4z"/><path fill="#51BFE1" d="M279 248c.813 1.625.813 1.625 1 4-1.468 2.246-3.159 4.024-5 6l-2-3h2l1-3h2z"/><path fill="#50C1E8" d="M422 216c2.606 2.516 4.894 5.051 7 8l-1 2c-2.437-1.062-2.437-1.062-5-3-.812-3.687-.812-3.687-1-7"/><path fill="#B33A3E" d="M135 236h1c.407 5.42-.96 9.07-3 14-1.35-4.05-.62-6.792 0-11h2z"/><path fill="#F8F61C" d="M123 275h8c-4.625 4-4.625 4-8 4z"/><path fill="#01ACF1" d="M103 265c3.125-.187 3.125-.187 6 0v3h-8z"/><path fill="#D6FA45" d="M74 250v1c-5.455 1.385-10.367 2.24-16 2v-1c5.395-2.271 10.262-2.204 16-2"/><path fill="#06B0E1" d="m66 221 2 1-2 2 2 2-7 1c1.37-3.161 1.99-3.993 5-6"/><path fill="#E2D908" d="M110 302h3l-1 8-3-1z"/><path fill="#D3480B" d="M83 231h2c-1.45 3.791-3.152 7.387-5 11l-1-2c.777-2.164.777-2.164 1.938-4.625l1.152-2.477z"/><path fill="#C28D00" d="m113 292 2 2c-.363 2.83-1.097 5.29-2 8h-2z"/><path fill="#BC4F44" d="M106 246h6l-1 4h-4z"/><path fill="#19A4E7" d="M72 243h5l-1 4h-4z"/><path fill="#D1FA3E" d="M137 217q2.686-.118 5.375-.187l3.023-.106L148 217l2 3-2-.437c-3.656-.686-7.306-1.125-11-1.563z"/><path fill="#BE373B" d="m99 216 4 1-3 7h-2z"/><path fill="#FCD225" d="M88 258c-3.035 2.024-4.194 2.321-7.687 2.625l-2.45.227L76 261c7.179-4.786 7.179-4.786 12-3"/><path fill="#D85D08" d="M92 204h1c.25 2.75.25 2.75 0 6-2 2.375-2 2.375-4 4z"/><path fill="#18A7C1" d="m76 269 8 1v2l-8-1z"/><path fill="#E8231F" d="m127 251 2 1-1 6h-3z"/></svg>