<svg xmlns="http://www.w3.org/2000/svg" width="593" height="421"><path fill="#DDE0E3" d="M418 38q2.115.95 4.234 1.895c11.33 5.118 21.735 11.17 32.096 18.033 1.688 1.125 1.688 1.125 3.67 2.072v2l1.691.758c2.689 1.446 4.882 3.186 7.247 5.117l2.527 2.055L472 72l2.617 2.04c3.587 2.95 6.392 6.42 9.383 9.96l2.46 2.8c5.47 6.333 9.899 12.633 13.54 20.2l1.332 2.64c3.485 7.202 5.66 14.631 7.668 22.36l.533 1.84C514.27 155.744 508.31 179.18 497 198c-2.483 3.832-5.152 7.433-8 11l-2.434 3.117c-4.538 5.708-4.538 5.708-6.566 7.883h-2l-1 3h-2l-1 3c-4.457 4-4.457 4-7 4v2a94 94 0 0 1-5.375 4.125l-3.023 2.195C456 240 456 240 454 240v2c-8.343 6.029-17.743 10.58-27 15l-3.14 1.523c-41.065 19.5-86.098 27.724-131.36 27.664h-2.39c-12.8-.02-25.404-.55-38.11-2.187l-2.639-.325c-56.227-7.013-117.791-27.616-154.309-73.496C87.724 200.73 82.255 191.184 78 180l-.906-2.375C71.127 160.917 71.093 141.973 76 125l.809-3.027C81.956 104.563 93.749 90.013 106 77l1.605-1.73c1.086-1.137 2.233-2.213 3.395-3.27h2v-2l2.438-.812L118 68l1-3c3.56-2.828 7.385-5.282 11.178-7.787a298 298 0 0 0 4.99-3.416C210.592 2.718 323.951 1.502 418 38m-101 4 1.187 1.58 3.254 4.34q1.748 2.333 3.5 4.662l1.622 2.23 1.628 2.208c4.882 8.045 8.008 16.888 10.934 25.792.345 1.042.69 2.084 1.047 3.157 2.474 7.6 4.494 15.14 5.828 23.031 18.708-3.373 43.297-8.075 55.781-23.895 2.115-3.652 2.71-6.925 2.219-11.105-3.381-8.914-11.093-13.262-19.401-17.136C362.845 47.124 340.632 43.582 317 42M183.715 67.023c-3.234 3.728-4.67 6.875-4.778 11.915 2.784 8.022 8.727 13.25 16.086 17.129 2.2 1.037 4.418 2 6.665 2.933l2.463 1.031c9.874 3.984 22.031 8.67 32.849 7.969 1.395-3.928 2.458-7.838 3.343-11.91C244.436 77.338 252.209 60.14 264 45l2-3c-26.218 0-62.616 6.05-82.285 25.023m97.723 10.102C272.51 87.654 268.804 98.401 267 112c5.13.846 10.11 1.147 15.313 1.133l2.34.003q2.436 0 4.871-.006 3.703-.005 7.406.007 2.38 0 4.757-.004l2.21.006c4.479-.02 8.699-.412 13.103-1.139-5.246-22.287-5.246-22.287-20-39-6.256-1.946-10.647.048-15.562 4.125M137 96.563c-13.87 13.95-23.152 30.578-25 50.437l-.215 2.176c-.954 20.263 8.832 37.69 20.735 53.242L134 204h2v2c2.463 2.547 5.282 4.731 8 7l2.488 2.145c28.722 24.296 64.908 35.328 101.387 41.667l2.142.377c4.73.768 9.21.912 13.983.811l-1.031-1.258C237.722 224.647 234.798 182.243 234 143l-1.978-.44C207.07 136.951 182.224 130.404 162 114l-2.46-1.965C152.687 106.288 147.261 99.821 145 91c-3.504 0-5.634 3.204-8 5.563M439 91q-1.256 2.434-2.5 4.875l-1.406 2.742c-1.233 2.249-1.233 2.249-1.094 4.383h-2c-1.532 1.554-1.532 1.554-3.125 3.563-19.63 22.84-51.55 30.507-79.875 36.437l-.06 2.576c-.793 32.375-.793 32.375-2.94 45.424l-.37 2.293c-3.525 21.228-9.47 45.06-24.474 61.249-1.363 1.409-1.363 1.409-1.156 3.458 37.39 1.101 81.112-16.232 111-38l2.688-1.887c1.82-1.305 3.577-2.697 5.312-4.113v-2l1.781-.809c7.155-3.842 11.852-11.167 16.469-17.629l1.537-2.13c4.452-6.37 7.71-13.089 9.9-20.557l.7-2.32c5.116-21.311-.742-38.844-10.387-57.555h-2l-.812-1.734c-1.23-2.345-2.613-4.39-4.188-6.516l-1.562-2.14L449 99h-2l-1-3h-2l-1-3h-2v-2zm-175 56c-.103 12.066-.103 12.066.75 24l.264 2.268c2.144 16.804 6.784 34.833 19.923 46.295 4.154 1.95 6.487 1.945 11.063 1.437 8.725-3.768 13.023-14.05 16.355-22.395 2.816-8.271 4.524-16.616 5.957-25.23l.52-3.067C320.07 162.298 320 155.324 320 147z"/><path fill="#6B757C" d="M288 32c-2.306 2.306-3.383 2.425-6.5 3.125-13.885 4.041-21.488 16.8-28.125 28.75C247.569 74.767 242.085 88.462 243 101l1 1c.073 2.353.084 4.708.063 7.063l-.028 3.91L244 116c29.295 3.716 60.356 3.742 89.682.273 2.243-.264 4.488-.492 6.736-.71 12.172-1.258 24.258-3.845 35.582-8.563l-1-2a219 219 0 0 0-20.437 3.938l-2.042.477c-3.98.992-7.075 2.39-10.521 4.585h-2l-.621-3.324-1.625-8.688-.39-2.1a116 116 0 0 0-.977-4.501c-.49-3.02-.291-5.834-.137-8.887.073-7.687-2-13.614-5.25-20.5l-1.543-3.312C328.278 59.9 328.278 59.9 326 59l-1.062-2.937c-3.072-7.624-10.692-15.343-17.958-19.11l-1.793-.703L302 35v-2c24.26-.915 47.611 2.66 71 9l2.023.547C381.749 44.405 387.88 46.641 394 50l-2.5 1.875L389 54v2l2.375-.187L394 56l2 3c2.05 1.192 2.05 1.192 4 2h-2l1.563 2.375L401 66l-1 2-3-2v-2a1370 1370 0 0 0-4-2l-3.04-1.516C366.875 49.318 343.47 44.797 318 43l1.54 1.617C335.443 61.833 342.38 85.432 347 108c30.005-5.694 30.005-5.694 54.016-23.113 2.762-5.294 2.292-11.22.984-16.887 3.559 4.022 3.494 7.124 3.363 12.32-.496 3.665-2.126 5.786-4.363 8.68-.86 2.317-1.422 4.59-2 7l2.121-.5c3.055-.53 5.844-.563 8.942-.5 3.561.072 6.508-.087 9.937-1 4.446.159 6.321.287 9.438 3.563L431 100l2-3h2v-3h2l2-22c5.046 3.784 9.827 7.445 14.438 11.688l1.6 1.431c2.479 2.27 3.88 3.638 4.962 6.881l-3 1 .438 1.563c1.036 4.49 1.562 8.83 1.562 13.437l2 1v2l3 2q.57 2.988 1 6l2 3-1 3-1.023-1.645-1.352-2.168-1.336-2.144A240 240 0 0 0 459 114v-3h-2c-2.072-2.653-3.932-5.425-5.832-8.203-2.164-2.792-4.341-4.703-7.168-6.797-1.812-1.625-1.812-1.625-3-3v-2h-2l-.812 3.188c-1.06 3.403-2.102 5.944-4.188 8.812h-2l-.762 1.734C426.307 113.757 416.724 119.212 408 124l-1.824 1.012c-13.725 7.51-28.351 12.776-43.551 16.426l-2.07.497c-3.931.878-7.54 1.122-11.555 1.065l.032 2.576c.34 31.896.34 31.896-2.032 45.424l-.375 2.293C342.695 216.994 335.237 239.176 320 258c22.53-3.085 44.44-6.895 65.694-15.344C388 242 388 242 391 243c-6.748 3.705-13.6 5.953-21 8l-2.388.68c-10.069 2.835-20.115 5.202-30.48 6.64l-2.303.321a593 593 0 0 1-11.341 1.447c-7.506.934-12.724 1.851-18.488 6.912-4.116 2.126-7.825 2.42-12.437 2.563l-3.872.19c-4.326-.305-7.387-2.059-11.164-4.12-7.921-4.289-15.67-5.336-24.527-6.32a885 885 0 0 1-8.687-1.075l-2.124-.27c-5.904-.809-11.432-2.27-17.126-4.046-3.044-.916-6.073-1.604-9.188-2.234-15.69-3.57-29.95-9.733-43.875-17.688 3-1 3-1 6.168.371q2.013 1.028 4.02 2.066c20.677 10.164 43.155 15.472 65.75 19.375l2.167.377c4.37.706 8.489.92 12.895.811l-1.285-1.547C236.437 224.12 233.152 181.711 234 143l-1.832-.124c-6.357-.521-12.188-1.746-18.293-3.564l-2.762-.81c-23.345-6.979-50.072-16.859-63.48-38.732C146.026 96.729 145 94.472 145 91c-15.68 12.903-24.189 27.18-31 46h-1c.946-8.667 1.82-16.03 6.977-23.273 1.278-1.823 1.278-1.823 1.023-4.727h2l.586-2.484.789-3.266.773-3.234c.73-2.587 1.661-4.634 2.852-7.016v-3l-6 5c.897-5.05 4.093-7.57 7.625-11.062l1.832-1.893c3.926-3.922 7.3-6.205 12.543-8.045v12h2v3l2.71-.035c7.172-.054 14.175.117 21.29 1.035l-.875-1.8c-2.876-6.421-4.44-12.172-3.125-19.2 4.103-10.127 17.093-16.949 26.6-21.193C213.54 39.127 236.545 35.217 259 33l3.742-.395c8.412-.77 16.82-.702 25.258-.605M183.715 67.023c-3.234 3.728-4.67 6.875-4.778 11.915 2.784 8.022 8.727 13.25 16.086 17.129 2.2 1.037 4.418 2 6.665 2.933l2.463 1.031c9.874 3.984 22.031 8.67 32.849 7.969 1.395-3.928 2.458-7.838 3.343-11.91C244.436 77.338 252.209 60.14 264 45l2-3c-26.218 0-62.616 6.05-82.285 25.023M264 147c-.103 12.066-.103 12.066.75 24l.264 2.268c2.144 16.804 6.784 34.833 19.923 46.295 4.154 1.95 6.487 1.945 11.063 1.437 8.725-3.768 13.023-14.05 16.355-22.395 2.816-8.271 4.524-16.616 5.957-25.23l.52-3.067C320.07 162.298 320 155.324 320 147z"/><path fill="#676E75" d="M361 21c7.412.582 14.182 2.25 21.313 4.313l3.185.896C396.718 29.402 407.458 33.004 418 38q2.122.952 4.246 1.898c11.325 5.12 21.726 11.169 32.084 18.03 1.688 1.125 1.688 1.125 3.67 2.072v2l1.691.758c2.689 1.446 4.882 3.186 7.247 5.117l2.527 2.055L472 72l2.617 2.04c3.587 2.95 6.392 6.42 9.383 9.96l2.46 2.8c5.47 6.333 9.899 12.633 13.54 20.2l1.332 2.64c3.485 7.202 5.66 14.631 7.668 22.36l.533 1.84C514.27 155.744 508.31 179.18 497 198c-2.483 3.832-5.152 7.433-8 11l-2.434 3.117c-4.538 5.708-4.538 5.708-6.566 7.883h-2l-1 3h-2l-1 3c-4.457 4-4.457 4-7 4v2a94 94 0 0 1-5.375 4.125l-3.023 2.195C456 240 456 240 454 240v2c-8.343 6.029-17.743 10.58-27 15l-3.14 1.523c-41.065 19.5-86.098 27.724-131.36 27.664h-2.39c-12.8-.02-25.404-.55-38.11-2.187l-2.639-.325c-56.227-7.013-117.791-27.616-154.309-73.496C87.724 200.73 82.255 191.184 78 180l-.906-2.375C71.13 160.929 71.078 141.962 76 125l.879-3.168C78.979 114.9 82 109.026 86 103l2 1-1.39 2.535C82.037 115.208 79.123 123.418 77 133l-.582 2.297C73.523 154.017 76.38 174.555 86 191c1.663 2.096 2.418 2.928 5.113 3.261l2.414-.144 2.65-.097q2.755-.144 5.509-.313c2.522-.085 4.824-.122 7.314.293 2.531 2.414 2.531 2.414 4 5l1.563 1.5c1.437 1.5 1.437 1.5 2.812 3.938 1.86 2.934 3.871 4.464 6.625 6.562 4.835 4.505 4.835 4.505 6 8 1.876 1.066 1.876 1.066 4 2a72 72 0 0 1 3.355 2.645l1.872 1.543 1.96 1.625c4.642 3.773 9.117 7.302 14.485 9.996 1.799.92 3.552 1.93 5.281 2.976 9.147 5.52 18.63 9.486 28.605 13.274 2.523.972 5.022 1.994 7.524 3.02 4.39 1.76 8.791 3.188 13.356 4.421l2.3.63c8.674 2.324 17.448 4.167 26.262 5.87l2.617.518c36.193 6.923 76.853 6.001 112.574-2.84a333 333 0 0 1 8.809-1.975l2.985-.643q2.785-.6 5.573-1.184c5.086-1.127 9.603-2.681 14.316-4.897 3.198-1.473 6.5-2.612 9.813-3.792 6.846-2.48 13.206-5.525 19.618-8.964L418 242l2 1-3.187 1.688c-3.553 2.014-6.062 4.311-8.813 7.312 1.099 1.33 1.099 1.33 3.836 1.063l7.062-.125C422 253 422 253 425 254c3.657-1.162 3.657-1.162 7-3l1-3h3a93 93 0 0 0 4-1l-.062-2.375C440 242 440 242 441 240h4v2c5.221-1.624 5.221-1.624 8.438-5.687L454 234l-2-1 8 1v-2h4l2-4h2l2-6-4 1v-2h8l-1-4c2.49-.687 4.379-1 7-1v-2h2l.75-1.562c1.646-3.21 3.448-6.314 5.25-9.438h2l.688-2.562c1.658-4.344 3.992-9.278 8.312-11.438 11.024-23.031 11.314-48.087 3-72-1.287-3.107-2.747-6.087-4.312-9.062-.426-.81-.85-1.618-1.289-2.45-7.761-14.143-19.154-26.927-31.899-36.8l-1.826-1.417C432.585 44.218 397.62 30.906 361 22z"/><path fill="#C4CACE" d="M343 135c3.075 2.843 3.94 4.56 4.502 8.739q.028 2.179-.006 4.359l.008 2.372c0 2.532-.03 5.061-.067 7.593l-.018 2.601c-.123 16.664-1.574 32.314-6.419 48.336q-.585 2.17-1.16 4.344c-2.08 7.825-4.106 15.427-7.84 22.656l-1.75 3.563L329 242h-2v3l-4 1v-4h2v-4h2l.25-2.375c1.002-4.842 2.84-9.065 4.75-13.625l-16-1c-1-5-1-5 0-8-2.848 2.52-4.771 5.169-6.75 8.375-3.382 5.229-7.686 8.843-13.25 11.625-4.633.864-8.465.823-12.672-1.434C275.702 225.824 271.38 218.81 268 210v6h-4v-2h-15c-2.143-11.714-2.143-11.714-3-17l-.062 3.938-.036 2.214c-.108 1.865-.108 1.865 1.098 2.848.04 2 .043 4 0 6-1.902-.285-1.902-.285-4-1-9.68-21.294-7.15-48.201-7-71l3-1 1-3q2.25-.04 4.5-.062l2.531-.036c3.707.122 7.294.6 10.969 1.098l.06 2.576c-1.506 25.028-1.506 25.028 4.51 47.158L264 188v3h2v2h2q.971 2.874 1.938 5.75l1.09 3.234c.752 2.333 1.422 4.63 1.972 7.016h2a249 249 0 0 1 4 6l1.75 1.75C282 218 282 218 282 220c4.55 2.348 8.996 2.936 14 2 6.017-2.928 10.303-7.918 13-14v-3c.732-2.284 1.51-4.553 2.313-6.812 3.387-9.825 5.652-19.839 6.687-30.188h1c.684-3.447 1.07-6.772 1.14-10.277l.06-2.307q.05-2.347.054-4.695c.16-4.987 1.04-8.459 4.213-12.388 2.645-2.3 5.246-2.477 8.658-2.77l3.695-.372A103 103 0 0 1 343 135"/><path fill="#CC323C" d="M361.04 326.754c2.448 1.652 4.782 3.25 6.96 5.246v2l3 1c7.535 8.821 11.42 19.932 11.207 31.453-.992 12.204-6.294 22.664-15.277 30.988-8.7 7.027-19.1 11.333-30.442 10.918-7.903-1.141-15.447-3.63-22.488-7.359v-2l-1.687-.687c-3.997-2.269-6.853-4.932-8.313-9.313h-2c-6.928-14.146-9.167-25.791-4-41 4.958-11.402 12.369-19.492 23.941-24.195 13.393-4.61 26.642-4.24 39.098 2.949m-41.884 22.183c-4.183 7.463-4.14 15.71-3.156 24.063 2.034 6.945 7.102 12.004 13 16 5.393 2.353 10.363 2.506 16 1 4.702-2.158 7.938-4.14 10-9h2c4.648-7.657 4.83-15.222 4-24-.69-2.795-1.518-4.474-3-7l-1.562-2.937L355 345h-2v-2c-12.766-7.462-24.817-7.077-33.844 5.938"/><path fill="#CC333D" d="M197.375 329.125c10.225 8.255 15.933 18.714 17.563 31.75.61 11.786-3.186 22.966-10.567 32.152-1.702 1.805-3.457 3.396-5.371 4.973l-1.918 1.617c-8.035 6.06-20.031 9.66-30.082 8.383-13.514-2.902-23.695-7.728-32-19-1.645-2.58-2.891-5.15-4-8l-.902-2.266C126.055 367.183 127.538 356.2 132 345c1.208-2.476 2.494-4.687 4-7h2l.82-1.82c3.959-7.314 12.806-11.197 20.18-14.18 13.741-2.978 26.824-1.003 38.375 7.125m-44.312 18.063c-5.038 7.07-5.711 14.602-4.657 23.074 1.653 7.62 5.018 13.301 11.559 17.617 6.03 3.322 11.453 3.623 18.035 2.121 3.436-1.423 3.436-1.423 6-3v-2l1.832-.719c2.673-1.58 3.446-3.041 4.856-5.781l1.261-2.406c3.1-6.175 2.977-13.277 2.051-20.094-2.756-7.737-8.362-13.243-15.312-17.375-10.631-2.472-18.535.3-25.625 8.563"/><path fill="#CC323C" d="M480 325h25l2.23 5.738 2.195 5.62q.75 1.924 1.498 3.85c2.792 7.187 5.69 14.28 8.931 21.278 1.783 3.912 3.378 7.892 4.958 11.889l1.008 2.532c3.828 9.66 7.503 19.376 11.18 29.093h-23l-3-7.875-.95-2.476C508 389.222 508 389.222 508 387l-32 1-6 17h-23c1.8-5.4 3.492-10.391 5.742-15.547l1.543-3.562 1.59-3.641c3.504-8.038 6.898-16.081 9.966-24.297 1.656-4.22 3.603-8.288 5.534-12.387 3.084-6.768 5.824-13.676 8.625-20.566m12 21a6067 6067 0 0 0-5 12.375l-1.445 3.563-1.368 3.398-1.269 3.142c-1.032 2.388-1.032 2.388-.918 4.522h21c-4.732-13.601-4.732-13.601-10-27z"/><path fill="#677078" d="m356.75 134.813 3.547.082L363 135v1h12c-3.544 3.544-6.598 4.158-11.312 5.188l-2.264.537c-4.245.965-8.048 1.352-12.424 1.275.01.85.02 1.7.032 2.576.34 31.896.34 31.896-2.032 45.424l-.375 2.293C342.695 216.994 335.237 239.176 320 258c22.53-3.085 44.44-6.895 65.694-15.344C388 242 388 242 391 243c-6.748 3.705-13.6 5.953-21 8l-2.388.68c-10.069 2.835-20.115 5.202-30.48 6.64l-2.303.321a593 593 0 0 1-11.341 1.447c-7.506.934-12.724 1.851-18.488 6.912-4.116 2.126-7.825 2.42-12.437 2.563l-3.872.19c-4.326-.305-7.387-2.059-11.164-4.12-7.921-4.289-15.67-5.336-24.527-6.32a885 885 0 0 1-8.687-1.075l-2.124-.27c-5.904-.809-11.432-2.27-17.126-4.046-3.044-.916-6.073-1.604-9.188-2.234-15.69-3.57-29.95-9.733-43.875-17.688 3-1 3-1 6.168.371q2.013 1.028 4.02 2.066c20.677 10.164 43.155 15.472 65.75 19.375l2.167.377c4.37.706 8.489.92 12.895.811l-1.285-1.547C254.83 246.921 247.663 236.81 245 226c.406-2.281.406-2.281 1-4 2.083 3.124 3.538 6.261 4.875 9.75 1.698 4.396 3.77 8.387 6.172 12.438C258 246 258 246 258 248h3q-.904-2.282-1.812-4.562l-1.106-2.782a165 165 0 0 0-2.707-6.219c-1.119-2.797-1.838-5.232-2.46-8.152l-.526-2.437L252 222c3.229-.088 6.458-.14 9.688-.187l2.763-.077c7.674-.083 11.069 1.879 16.736 6.952 4.128 3.216 7.099 4.348 12.333 3.917 9.062-2.212 13.792-9.06 18.48-16.605l2-3h2c1.125 5.75 1.125 5.75 0 8l1.723-.035c4.884-.057 9.462.215 14.277 1.035-1.59 5.361-3.19 10.708-5 16h-2v4h-2v4l4-1v-3h2l.875-2.812C331 236 331 236 333 233a81 81 0 0 0 1.438-4.586 417 417 0 0 1 3.062-10.203c5.094-16.33 8.829-32.535 8.457-49.734q-.034-2.67-.064-5.34c-.038-2.772-.081-5.544-.14-8.315a749 749 0 0 1-.108-8.095l-.073-2.52c-.026-5.702-.026-5.702 2.248-8.234 3.06-1.366 5.596-1.26 8.93-1.16"/><path fill="#CBD0D4" d="M288 32c-2.306 2.306-3.383 2.425-6.5 3.125-13.885 4.041-21.488 16.8-28.125 28.75C247.569 74.767 242.085 88.462 243 101l1 1c.073 2.353.084 4.708.063 7.063l-.028 3.91L244 116c-10.818-1.18-21.71-2.38-32.012-6.082-5.738-1.65-11.826-1.164-17.738-1.106l-3.672.002c-7.244.036-14.378.384-21.578 1.186l2 1 1 3 5 1v2l3.313.813c3.472 1.118 4.405 1.624 6.687 4.187-11.49 1.034-11.49 1.034-16.437-2.812l-1.747-1.583c-1.819-1.71-1.819-1.71-4.234-3.03-9.101-5.55-15.864-14.67-19.582-24.575.324-2.383.324-2.383 1-4v3l2.71-.035c7.172-.054 14.175.117 21.29 1.035l-.875-1.8c-2.876-6.421-4.44-12.172-3.125-19.2 4.103-10.127 17.093-16.949 26.6-21.193C213.54 39.127 236.545 35.217 259 33l3.742-.395c8.412-.77 16.82-.702 25.258-.605M183.715 67.023c-3.234 3.728-4.67 6.875-4.778 11.915 2.784 8.022 8.727 13.25 16.086 17.129 2.2 1.037 4.418 2 6.665 2.933l2.463 1.031c9.874 3.984 22.031 8.67 32.849 7.969 1.395-3.928 2.458-7.838 3.343-11.91C244.436 77.338 252.209 60.14 264 45l2-3c-26.218 0-62.616 6.05-82.285 25.023"/><path fill="#C1C6CB" d="M457 92c5.1.532 6.897 2.41 10.035 6.242C474.015 108.04 479.158 118.27 482 130l.676 2.324c3.09 12.046 3.048 28.136-1.676 39.676a349 349 0 0 1-4 5c-.666 2.622-1.12 5.214-1.508 7.89L475 187l-2 1a564 564 0 0 0-2.074 5.09c-.974 2.009-2.09 3.48-3.551 5.16-2.528 2.574-2.528 2.574-3.375 5.75h-3l-.312 1.813c-.797 2.533-1.72 3.445-3.688 5.187l-1.562 1.688C454 214 454 214 452 214l-1 3h-2l-1 3c-3.062 1.188-3.062 1.188-6 2v2c-4.927 4.041-10.285 7.216-16 10l-1 2-3 1-2 3c-1.629.764-3.265 1.518-4.937 2.18-2.244.892-4.43 1.88-6.625 2.882-5.415 2.405-10.552 4.097-16.438 4.938v2l-1.906.55A208 208 0 0 0 374 258c-4.451 1.645-8.86 2.614-13.508 3.504-2.737.545-5.43 1.224-8.133 1.922-5.423 1.32-10.898 2.423-16.359 3.574l2 2c-2.995.872-5.636 1.108-8.75 1.063l-2.422-.028L325 270v-1l-2.691.219c-12.109.88-24.173.885-36.309.781v-1l2.781-.078c8.223-.38 14.603-.894 21.011-6.486 2.954-1.921 5.418-2.126 8.911-2.541l4.115-.53 2.188-.27c12.98-1.632 25.683-3.899 38.369-7.095l1.983-.49c15.025-3.38 15.025-3.38 27.642-11.51 2.214-1.192 2.214-1.192 4.797-2.348l2.885-1.32 3.068-1.394c11.008-5.129 21.281-10.784 30.527-18.727C437 214 437 214 439 214v-2c1.434-1.34 1.434-1.34 3.438-2.937C457.384 196.338 467.7 178.528 470 159c.45-9.582.626-19.602-3.074-28.617C466 128 466 128 466.063 125c-.075-3.553-1.197-5.045-3.063-8v-4l-3-2c-.695-1.988-.695-1.988-1.125-4.312l-.473-2.438L458 102l-.562-2.812L457 97l-.625-2.25L456 93z"/><path fill="#CC323C" d="M214 325c3.561-.233 7.12-.375 10.688-.5l3.052-.203c7.245-.191 7.245-.191 9.843 2.098 1.354 2.132 2.372 4.305 3.417 6.605a493 493 0 0 0 3.332 5.813q1.743 3.09 3.48 6.187l1.811 3.215q2.19 3.891 4.377 7.785c3.373-4.334 6.519-8.51 8.875-13.5l1.242-2.594L265 338h2l.688-2.562c1.557-4.08 2.912-7.577 6.312-10.438 3.638-.864 7.1-.664 10.813-.437l2.966.095c2.41.082 4.814.197 7.221.342-1.332 3.597-2.937 6.692-5.012 9.914l-1.799 2.809-1.877 2.902-1.818 2.832q-1.83 2.85-3.663 5.696a893 893 0 0 0-7.068 11.13C272 363 272 363 270.038 365.566c-5.83 7.938-6.055 15.176-5.976 24.622q-.02 2.164-.048 4.33c-.046 3.496-.029 6.983-.014 10.482h-19l.027-6.43c-.015-2.088-.042-4.177-.07-6.265q-.02-2.152-.002-4.306c.073-9.97-1.324-16.193-7.955-23.999a82 82 0 0 1-2.312-4.187c-2.253-4.201-4.837-8.117-7.5-12.063-3.352-4.973-6.65-9.968-9.813-15.062l-1.977-3.176C214 327 214 327 214 325"/><path fill="#757B80" d="M302 33c24.26-.915 47.611 2.66 71 9l2.023.547C381.749 44.405 387.88 46.641 394 50l-2.5 1.875L389 54v2l2.375-.187L394 56l2 3c2.05 1.192 2.05 1.192 4 2h-2l1.563 2.375L401 66l-1 2-3-2v-2a1370 1370 0 0 0-4-2l-3.04-1.516C366.875 49.318 343.47 44.797 318 43l1.54 1.617C335.443 61.833 342.38 85.432 347 108c30.005-5.694 30.005-5.694 54.016-23.113 2.762-5.294 2.292-11.22.984-16.887 3.559 4.022 3.494 7.124 3.363 12.32-.496 3.665-2.126 5.786-4.363 8.68-.86 2.317-1.422 4.59-2 7l2.121-.5c3.055-.53 5.844-.563 8.942-.5 3.558.072 6.512-.073 9.937-1 3.5 0 3.5 0 7 1 2.152 2.271 2.824 3.982 4 7-2.448 7.233-11.854 12.939-18 17l-3 1-1.348 1.46c-2.202 2.052-4.184 2.448-7.09 3.165l-2.87.727L396 126l-2.207.613c-2.203.476-3.67.07-5.793-.613v-2l3.035-1.172 4.027-1.578 1.99-.766 1.983-.78 1.793-.7c3.161-1.462 6.148-3.276 9.172-5.004l-50-1c3.156-1.578 5.78-2.61 9.125-3.562 3.522-1.003 3.522-1.003 6.875-2.438l-1-2a219 219 0 0 0-20.437 3.938l-2.042.477c-3.98.992-7.075 2.39-10.521 4.585h-2l-.621-3.324-1.625-8.688-.39-2.1a116 116 0 0 0-.977-4.501c-.49-3.02-.291-5.834-.137-8.887.073-7.687-2-13.614-5.25-20.5l-1.543-3.312C328.278 59.9 328.278 59.9 326 59l-1.062-2.937c-3.072-7.624-10.692-15.343-17.958-19.11l-1.793-.703L302 35z"/><path fill="#CB313B" d="M385 325h70v15h-25v65h-19v-65h-26z"/><path fill="#CB3039" d="M56 325h69v15h-25v65H81v-65H56z"/><path fill="#B9BEC3" d="M128 89c1.296 3.584.701 5.441-.812 8.875-1.57 3.67-2.985 7.314-4.188 11.125h-2l.75 1.625c.32 3.043-.823 3.97-2.559 6.348-4.121 7.013-5.605 15.018-5.191 23.027l-.5 3.438c-2.608 18.582 3.752 36.571 14.5 51.562a164 164 0 0 0 3.438 4.063C134 202 134 202 134 204h2v2l3 1v2l1.793.813c2.226 1.197 3.7 2.446 5.52 4.187 6.78 6.09 14.718 11.19 22.644 15.672L171 231v2c-3.699-1.373-6.951-3.064-10.312-5.125l-2.676-1.633L156 225l1 5c-4.652 1.55-7.78-.89-12-3-4.895-2.559-9.206-5.617-11-11l-1.75-.875c-4.534-2.267-7.045-5.714-9.25-10.125l-3-1c-1.605-1.96-1.605-1.96-3.187-4.375l-1.606-2.398C114 195 114 195 114 192h-2l-1-4h-2l-.75-3c-.81-2.91-1.92-5.358-3.375-8-2-3.779-2.046-6.716-1.875-11l-2-2c-1.821-5.256-1.226-11.14-1.25-16.625l-.062-3.45c-.034-7.193.756-13.2 3.312-19.925l.774-2.096C107.946 111.087 113.269 100.881 122 93h2a91 91 0 0 0 4-4"/><path fill="#7E878E" d="m86 103 2 1-1.39 2.535C82.037 115.208 79.123 123.418 77 133l-.582 2.297C73.523 154.017 76.38 174.555 86 191c1.663 2.096 2.418 2.928 5.113 3.261l2.414-.144 2.65-.097q2.755-.144 5.509-.313c2.522-.085 4.824-.122 7.314.293 2.531 2.414 2.531 2.414 4 5l1.563 1.5c1.437 1.5 1.437 1.5 2.812 3.938 1.86 2.934 3.871 4.464 6.625 6.562 4.835 4.505 4.835 4.505 6 8 1.876 1.066 1.876 1.066 4 2a72 72 0 0 1 3.355 2.645l1.872 1.543 1.96 1.625c4.632 3.765 9.101 7.287 14.454 9.984 2.514 1.282 4.93 2.702 7.36 4.138 6.777 3.986 13.637 7.26 20.999 10.065l-2 2c-2.625-.375-2.625-.375-5-1v1h-18v-5h-2l-1 2c-8.523.16-8.523.16-11.75-2.375-2.013-1.454-3.66-2.27-5.937-3.187C135 243 135 243 134 241l-1.875-.406c-3.316-.927-4.554-3.337-6.562-6-1.845-1.882-3.024-2.084-5.563-2.594-2.75-1.875-2.75-1.875-5-4v-3l-3.312-1.312c-2.761-1.185-4.86-2.215-6.688-4.688v-2l-3 1c-10.347-11.622-18.548-23.247-24-38l-.898-2.363C71.115 160.952 71.08 141.954 76 125l.879-3.168C78.979 114.9 82 109.026 86 103"/><path fill="#D0D5D9" d="M343 135c3.075 2.843 3.94 4.56 4.502 8.739q.028 2.179-.006 4.359l.008 2.372c0 2.532-.03 5.061-.067 7.593l-.018 2.601c-.115 15.636-1.08 30.74-5.669 45.797-1.186 4.014-2.023 8.113-2.906 12.203L338 221l-3 1-2 2a211 211 0 0 1 2.438-15.75l.796-4.2.393-2.071c2.012-10.417 2.012-10.417 2.373-20.979l-2 .5c-2.54.423-4.524.48-7.062.375-3.793-.155-3.793-.155-6.313 1.313-1.908 2.128-2.748 4.107-3.625 6.812-.78-2.807-1.171-5.42-1.316-8.328l-.127-2.422-.12-2.5-.13-2.547q-.158-3.1-.307-6.203h1c.684-3.447 1.07-6.772 1.14-10.277l.06-2.307q.05-2.347.054-4.695c.16-4.987 1.04-8.459 4.213-12.388 2.645-2.3 5.246-2.477 8.658-2.77l3.695-.372A103 103 0 0 1 343 135"/><path fill="#B3BABF" d="M402 68c3.559 4.022 3.494 7.124 3.363 12.32-.496 3.665-2.126 5.786-4.363 8.68-.86 2.317-1.422 4.59-2 7l2.121-.5c3.055-.53 5.844-.563 8.942-.5 3.558.072 6.512-.073 9.937-1 3.5 0 3.5 0 7 1 2.152 2.271 2.824 3.982 4 7-2.448 7.233-11.854 12.939-18 17l-3 1-1.348 1.46c-2.202 2.052-4.184 2.448-7.09 3.165l-2.87.727L396 126l-2.207.613c-2.203.476-3.67.07-5.793-.613v-2l3.035-1.172 4.027-1.578 1.99-.766 1.983-.78 1.793-.7c3.161-1.462 6.148-3.276 9.172-5.004l-50-1c3.156-1.578 5.78-2.61 9.125-3.562 3.522-1.003 3.522-1.003 6.875-2.438l-1-4q2.685-1.256 5.375-2.5l3.023-1.406C386 98 386 98 388 98v-3c2.047-1.648 2.047-1.648 4.75-3.375 6.426-4.116 6.426-4.116 9.734-10.723.63-4.485.542-8.457-.484-12.902"/><path fill="#969EA6" d="M318 172h1l1 17 2-5c3.761-3.306 7.053-3.255 11.816-3.008 2.236.008 4.048-.362 6.184-.992.141 5.89-.345 11.382-1.312 17.188l-.402 2.495c-1.008 6.092-2.296 12.061-3.833 18.044L334 220l1 1h2c-1.616 7.765-3.716 14.295-8 21h-2v3l-4 1v-4h2v-4h2l.25-2.375c1.002-4.842 2.84-9.065 4.75-13.625l-16-1c-1-5-1-5 0-8-2.606 2.516-4.894 5.051-7 8-1-2-1-2-1-5l-2-3 1.5-2.312c1.744-2.612 1.744-2.612 1.5-5.688a227 227 0 0 1 2.25-6.562c3.013-8.649 4.913-17.478 6.75-26.438"/><path fill="#787E85" d="M288 32c-2.306 2.306-3.383 2.425-6.5 3.125-13.885 4.041-21.488 16.8-28.125 28.75C247.569 74.767 242.085 88.462 243 101l1 1c.099 1.643.13 3.291.125 4.938l.008 2.714C244 112 244 112 243 114l-1.676-.906c-7.575-3.565-16.511-4.97-24.707-6.555-4.522-.91-7.69-2.048-11.617-4.539a303 303 0 0 0-4.625-1.687C191.917 97.013 184.216 91.476 179 84c-1.6-4.8-2.074-8.802.164-13.383 2.736-4.251 5.52-7.86 9.836-10.617h2c-1.099 3.297-1.712 3.75-4.375 5.75-3.773 3.136-5.274 5.52-6.625 10.25 0 5.318 2.388 9.25 6 13 4.949 3.889 9.89 6.59 15.688 9l2.463 1.031c10.161 4.1 21.777 8.22 32.849 7.969l.38-1.813C242.175 82.542 242.175 82.542 247 72l.871-1.912C252.377 60.32 257.308 50.692 265 43c-23.161 1.783-47.641 4.386-68.152 16.215C195 60 195 60 192 59c6.886-4.82 14.045-7.388 22-10l3.16-1.098c9.114-3.03 18.368-4.499 27.84-5.902v-2l-9 2v-1l-6-1c2.665-3.583 6.155-3.91 10.313-4.562l2.241-.37C257.62 32.7 272.757 31.606 288 32"/><path fill="#A1A7AA" d="M296 61c2.52 1.413 3.982 2.876 6 5l-1 2-3 1v4c2.332 1.206 4.496 2.165 7 3 8.672 11.734 12.034 24.852 14 39q-11.025.037-22.052.055-3.753.008-7.505.02c-3.592.013-7.183.018-10.775.023l-3.4.015h-3.154l-2.78.007C267 115 267 115 264 114l.254-2.371.308-3.067.317-3.058L265 103l-1-1c-.286-13.359 4.612-23.813 13-34 5.961-5.925 10.426-8.232 19-7m-14.562 16.125C272.51 87.654 268.804 98.401 267 112c5.13.846 10.11 1.147 15.313 1.133l2.34.003q2.436 0 4.871-.006 3.703-.005 7.406.007 2.38 0 4.757-.004l2.21.006c4.479-.02 8.699-.412 13.103-1.139-5.246-22.287-5.246-22.287-20-39-6.256-1.946-10.647.048-15.562 4.125"/><path fill="#DCDFE1" d="M103 177c2.438 1 2.438 1 5 3 .764 2.727.86 5.142 1 8h2l1 4h2l1.438 3.375c2.42 4.93 5.956 8.588 9.734 12.523C127 210 127 210 127 212l1.688.688c2.95 1.674 4.95 3.89 7.312 6.312l2.313 1.688L140 222v2l1.688.313c2.312.687 2.312.687 4.625 2.125 3.132 1.82 6.188 2.67 9.687 3.562v-5c3.699 1.373 6.951 3.064 10.313 5.125l2.675 1.633L171 233l1-2 1 3c1.587 1.114 1.587 1.114 3.563 1.973l2.164 1.037 2.273 1.053a651 651 0 0 1 4.438 2.097l1.996.926C189 242 189 242 190 244h-2l-1 3-2 1 4 4c-6.053-.47-10.417-1.783-15.75-4.625l-2.094-1.083C151.733 236.143 134.309 223.759 119 208l-1.75-1.5c-1.25-1.5-1.25-1.5-1.687-4.062L115 200c-.596-.23-1.191-.461-1.805-.7-3.337-1.977-4.375-5.128-5.882-8.55l-.932-1.988c-1.775-3.907-2.88-7.459-3.381-11.762"/><path fill="#83898D" d="m231 39 3.688.5C238 40 238 40 239 41q3.012-.43 6-1v2c-7.191 2.07-14.403 3.773-21.738 5.254-3.187.729-6.179 1.664-9.262 2.746l-3.402 1.148C204.365 53.311 198.559 55.426 193 59v2l-2.187.25c-4.84 1.29-7.192 3.91-10.125 7.875C178.28 73.561 178.644 78.089 179 83l-3-1V70l-6-3c.271-3.4.83-4.815 3.168-7.36C186.133 49.377 213.999 34.043 231 39"/><path fill="#CFD1D3" d="M299 63c5.314 1.407 8.096 4.527 11 9 3.66 7.41 6.578 15.104 9 23l1.031 3.156c3.095 9.64 3.095 9.64 3.469 14.531L324 116c1.97 1.24 1.97 1.24 4 2-11.916.945-23.77 1.156-35.719 1.13q-4.462-.005-8.924.007c-9.835.003-19.565-.118-29.357-1.137v-1h6l-.25-3.5c-.047-7.365 2.314-14.454 4.25-21.5h1l-.035 2.012c-.105 5.379-.105 5.379.66 10.676C266 107 266 107 264 114l55 1c-4.539-18.397-4.539-18.397-12.828-35.04C305 78 305 78 305 76l-1.75-.25c-2.866-.955-4.25-2.535-6.25-4.75 1-3 1-3 4-5z"/><path fill="#9099A0" d="M176.438 95.813C180 96 180 96 182 98c1.663.732 3.33 1.458 5.012 2.145 2.037.876 3.966 1.878 5.926 2.918 3.933 2.009 7.75 3.013 12.062 3.937-3.018 1.744-5.126 2.234-8.598 2.16l-2.665-.035-2.8-.062c-7.376-.092-14.608-.024-21.937.937l2 1 1 3 5 1v2l3.313.813c3.472 1.118 4.405 1.624 6.687 4.187-11.49 1.034-11.49 1.034-16.437-2.812l-1.747-1.583c-1.812-1.708-1.812-1.708-4.21-2.992-3.045-1.885-5.333-4.075-7.856-6.613l-2.64-2.625C152 103 152 103 151 100c3.946-2.613 8.117-2.406 12.688-2.562 4.583-.178 8.477-1.392 12.75-1.626"/><path fill="#525B5F" d="M439 72c5.046 3.784 9.827 7.445 14.438 11.688l1.6 1.431c2.479 2.27 3.88 3.638 4.962 6.881l-3 1 .438 1.563c1.036 4.49 1.562 8.83 1.562 13.437l2 1v2l3 2q.57 2.988 1 6l2 3-1 3-1.023-1.645-1.352-2.168-1.336-2.144A240 240 0 0 0 459 114v-3h-2c-2.072-2.653-3.932-5.425-5.832-8.203-2.164-2.792-4.341-4.703-7.168-6.797-1.812-1.625-1.812-1.625-3-3v-2h-2l-.812 3.188c-1.06 3.403-2.102 5.944-4.188 8.812h-2l-.762 1.734c-4.943 9.045-14.546 14.4-23.238 19.266l-2.504 1.422c-2.121 1.14-2.121 1.14-5.496 2.578l-3-1c7.286-4.429 7.286-4.429 12-5l1-3c1.785-1.105 1.785-1.105 4.063-2.187 4.588-2.397 7.799-5.37 11.308-9.141C427 106 427 106 429 105c1.122-1.88 1.122-1.88 2.125-4.062l1.07-2.223L433 97h2v-3h2z"/><path fill="#565D62" d="m144 74 .156 3.008c1.102 14.818 6.673 24.645 17.45 35.004 2.366 1.964 4.722 3.474 7.394 4.988q2.16 1.338 4.313 2.688l2.113 1.324L177 122c-1.68.71-1.68.71-4 1-10.428-5.697-21.596-15.272-27-26-.875-3.562-.875-3.562-1-6-15.68 12.903-24.189 27.18-31 46h-1c.946-8.667 1.82-16.03 6.977-23.273 1.278-1.823 1.278-1.823 1.023-4.727h2l.586-2.484.789-3.266.773-3.234c.73-2.587 1.661-4.634 2.852-7.016v-3l-6 5c.584-3.315 1.589-4.972 3.95-7.348l1.821-1.834 1.916-1.88 1.858-1.893C139.64 74 139.64 74 144 74"/><path fill="#889299" d="m396.95 104.086 3.318.133 3.42.156 3.455.133c8.46.36 8.46.36 11.857 1.492-.375 2.438-.375 2.438-1 5l-2 1h3l1-2 3 1c-3.11 2.73-6.055 5.131-9.687 7.125-3.184 1.572-3.184 1.572-4.68 3.39-2.195 1.996-4.206 2.403-7.07 3.11l-2.872.727L396 126l-2.207.613c-2.203.476-3.67.07-5.793-.613v-2l3.035-1.172 4.027-1.578 1.99-.766 1.983-.78 1.793-.7c3.161-1.462 6.148-3.276 9.172-5.004l-50-1c4.576-2.288 9.095-3.607 14-5l2.887-.824c6.759-1.89 12.993-3.38 20.062-3.09"/><path fill="#EEF1F3" d="M342 136c1.04 3.41 1.115 6.523 1.098 10.078l-.01 3.516-.026 3.656-.013 3.703q-.018 4.524-.049 9.047c-4.405.667-8.551 1-13 1l-4 1v-31c5.683-.71 10.407-1.1 16-1"/><path fill="#6D6E6E" d="M360 20v2l-2.316-.351c-20.76-3.15-20.76-3.15-41.684-4.649v-2c-36.144.056-36.144.056-72 4q-2.49.399-4.98.793c-7.528 1.164-7.528 1.164-14.845 3.206-3.204 1.01-6.094 1.424-9.429 1.77-8.124 1.098-15.62 3.475-23.359 6.124-2.313.79-4.634 1.559-6.955 2.324-12.629 4.221-24.716 9.234-36.041 16.322-2.58 1.576-5.218 2.987-7.891 4.398-6.608 3.567-12.675 7.768-18.5 12.5C120 68 120 68 118 68c1.778-5.333 7.62-7.775 12.178-10.787a298 298 0 0 0 4.99-3.416C196.486 12.27 288.821 2.58 360 20"/><path fill="#79838C" d="m245 194 2 1-.125 2.563c-.01 3.492-.01 3.492 1.125 6.937 1 3.5 1 3.5 1 9.5h15v2h4l-1-7c3.813 2.542 4.355 4.781 6 9l1.188 2.938L275 223l-3 1v-2h-20l2 3c.469 1.608.933 3.217 1.363 4.836 1.052 3.574 2.413 7.034 3.735 10.516.866 2.542 1.44 5.006 1.902 7.648h-3c-5.148-6.952-9.647-15.699-11.477-24.219L246 222l-2-1v-9l2-1c.043-1.666.04-3.334 0-5l-1-1a110 110 0 0 1-.062-5.562l.027-3.067z"/><path fill="#66696B" d="M267.063 39.938 270 40l-2.625 3.5-1.676 2.254a117 117 0 0 1-3.117 3.96c-8.194 10.123-13.576 21.97-17.144 34.411l-.762 2.655c-1.304 4.872-2.044 9.177-1.676 14.22l1 1c.099 1.643.13 3.291.125 4.938l.008 2.714C244 112 244 112 243 114l-1.676-.906c-7.575-3.565-16.511-4.97-24.707-6.555-4.522-.91-7.69-2.048-11.617-4.539a303 303 0 0 0-4.625-1.687C191.917 97.013 184.216 91.476 179 84c-1.6-4.8-2.074-8.802.164-13.383 2.736-4.251 5.52-7.86 9.836-10.617h2c-1.099 3.297-1.712 3.75-4.375 5.75-3.773 3.136-5.274 5.52-6.625 10.25 0 5.318 2.388 9.25 6 13 4.949 3.889 9.89 6.59 15.688 9l2.463 1.031c10.161 4.1 21.777 8.22 32.849 7.969l.38-1.813C242.175 82.542 242.175 82.542 247 72l.871-1.912C252.377 60.32 257.308 50.692 265 43l-2-2c1-1 1-1 4.063-1.062"/><path fill="#CAD0D6" d="M276 214c3.77 1.508 3.77 1.508 4.938 4 .928 2.16.928 2.16 3.125 3.25 4.97 1.269 9.553 2.097 14.19-.523 1.993-1.504 3.868-3.086 5.747-4.727l3-2 3 3c-.99 6.063-3.245 8.627-7.93 12.52-4.41 3.154-7.912 4.146-13.328 4.066-5.26-1.124-9.112-4.76-12.742-8.586-1.917-3.152-2.205-5.315-2-9h2z"/><path fill="#878C92" d="M364 40c24.585 5.585 24.585 5.585 30 11l-2.5 1.375L389 54v2l2.375-.187L394 56l2 3c2.05 1.192 2.05 1.192 4 2h-2l1.563 2.375L401 66l-1 2-3-2v-2c-10.203-5.14-20.175-9.633-31.148-12.86L363 50l-1-3-2-2 3-1c.733-2.015.733-2.015 1-4"/><path fill="#8B9396" d="M260 157c2.36 2.36 2.491 3.779 3 7l2-2 .297 3.41c1.764 18.7 5.041 40.876 20.14 53.653 4.611 1.686 8.812 1.421 13.5.125 2.394-1.075 2.394-1.075 3.063-4.188h2l.875-2.312C306 210 306 210 308 207l2 1c-3.626 6.181-7.371 11.818-14 15-4.184.84-7.624.491-11.625-.937-3.689-3.204-6.69-6.985-9.375-11.063v-2h-2a775 775 0 0 1-2.5-5.75l-1.406-3.234C268 197 268 197 268 193h-2v-2h-2c-3.789-4.599-4.749-8.398-5.25-14.25l-.23-2.26A129 129 0 0 1 258 158z"/><path fill="#515659" d="M179 124c3.91.998 7.47 2.16 11.125 3.875 4.786 2.197 9.698 3.696 14.746 5.176 2.626.796 5.135 1.71 7.691 2.699 4.576 1.576 8.942 1.446 13.739 1.258 2.478-.007 4.328.365 6.699.992 2.681-.386 2.681-.386 5-1l-1 3c-1.256 22.8-.334 46.004 6 68 2.281 8.504 2.281 8.504 2 13-3.578-3.796-4.36-8.254-5.5-13.187l-.647-2.801c-4.546-20.598-5.314-40.98-4.853-62.012l-1.832-.124c-6.357-.521-12.188-1.747-18.293-3.564l-2.745-.802c-11.04-3.29-21.975-7.01-32.13-12.51z"/><path fill="#737579" d="M300.563 72.75c8.958 5.505 12.989 17.423 15.916 27.058 1.187 4.996 1.815 10.11 2.521 15.192q-11.025.037-22.052.055-3.753.008-7.505.02c-3.592.013-7.183.018-10.775.023l-3.4.015h-3.154l-2.78.007C267 115 267 115 264 114c1.1-12.107 6.295-24.942 13-35h2c-1.116 2.975-2.37 5.692-3.875 8.5-3.9 7.668-5.772 16.265-8.125 24.5q9.021.037 18.042.055 3.068.008 6.134.02c2.944.013 5.888.018 8.832.023l2.756.015c4.53 0 8.777-.186 13.236-1.113-5.205-21.085-5.205-21.085-19-37-5.268-1.556-8.17-.415-13 2l-2.437 1.188L280 78c1.026-2.976 1.966-3.978 4.625-5.75 5.87-2.174 10.314-2.063 15.938.5"/><path fill="#9EA4AA" d="M195 48c3 5.75 3 5.75 3 8l-5 3v2l-2.187.25c-4.84 1.29-7.192 3.91-10.125 7.875C178.28 73.561 178.644 78.089 179 83l-3-1V70l-6-3c.214-3.733.885-4.889 3.625-7.535q1.669-1.289 3.375-2.528l1.77-1.323C189.218 48 189.218 48 195 48"/><path fill="#C7CDD1" d="M318 172h1l1 17 2-5 2 1c.395 6.723-2.485 12.3-5.312 18.25l-.93 1.975A578 578 0 0 1 310 221l-2-2v-3l-2-3 1.5-2.312c1.744-2.612 1.744-2.612 1.5-5.688a227 227 0 0 1 2.25-6.562c3.013-8.649 4.913-17.478 6.75-26.438"/><path fill="#C4535D" d="M56 325h1v14l5.398-.07q3.488-.029 6.977-.055c1.176-.017 2.351-.034 3.563-.05l3.398-.02 3.142-.032C82 339 82 339 84 341c.234 2.46.234 2.46.211 5.595l-.01 3.55-.04 3.851q-.013 2.977-.024 5.956c-.014 2.787-.036 5.574-.058 8.36a4298 4298 0 0 0-.088 14.618q-.018 3.892-.053 7.786l-.02 3.56-.025 3.137c-.008 2.704-.008 2.704 1.107 5.587l12 1c.887-3.548 1.151-6.252 1.205-9.87l.06-3.579.051-3.848.063-3.951q.082-5.188.153-10.377.077-5.298.161-10.598Q98.855 351.39 99 341h1v64H81v-65H56z"/><path fill="#E9EEF3" d="M420 240v2c-10.392 5.454-20.56 10.618-31.836 13.965-3.16.933-3.16.933-5.869 2.472-3.65 1.732-7.268 2.717-11.186 3.606l-2.256.525q-2.355.544-4.71 1.076a814 814 0 0 0-7.116 1.659C349.22 267.109 342.07 268.494 334 268c2.304-2.304 3.26-2.431 6.395-3l2.646-.5 2.772-.5c7.76-1.404 7.76-1.404 15.187-4l3.313-.437c3.5-.535 6.238-1.433 9.492-2.735 3.338-1.26 6.76-2.205 10.191-3.18 1.98-.472 1.98-.472 3.004-1.648a100 100 0 0 1 5 0l-1-3 2.484-.332 3.266-.48 3.234-.458c3.13-.758 4.58-1.703 7.016-3.73a221 221 0 0 1 7-3c2-1 2-1 6-1"/><path fill="#7C8184" d="M337 82c2.868 4.303 3.699 8.975 5 13.945L343 99l2 1c.633 1.848.633 1.848 1.125 4.063l.508 2.222L347 108c12.193-2.345 23.547-5.72 35.087-10.307 1.951-.707 3.893-1.225 5.913-1.693v2c-11.425 5.408-22.45 9.048-34.828 11.578-4.297.882-7.517 1.985-11.172 4.422h-2l-.621-3.324-1.625-8.688-.39-2.096c-.295-1.532-.62-3.06-.954-4.583-.454-2.558-.543-4.963-.535-7.559l-.008-2.64C336 83 336 83 337 82"/><path fill="#A7AFB5" d="M176.438 95.813C180 96 180 96 182 98l3.563 1.438L189 101l1 3c-4.687 1.268-9.033.911-13.812.563l-2.39-.159A1169 1169 0 0 1 168 104v-2l-7 1v6c-5.011-1.432-6.945-3.984-10-8 3.763-3.773 7.668-3.508 12.688-3.625 4.592-.15 8.472-1.33 12.75-1.562"/><path fill="#E8EFF3" d="M473 189h2c-1.639 13.68-19.837 28.47-30.012 36.68C426.545 240 426.545 240 421 240l1-4h3l1-3c2.398-1.5 2.398-1.5 5.375-3 3.42-1.732 5.968-3.262 8.625-6h2v-2c3-2 3-2 6-2l1-4h2l1.5-1.5 1.5-1.5h2l2-5h2l1-4h3l.254-1.64c1.005-3.177 2.72-5.426 4.683-8.11l2.153-2.984z"/><path fill="#E4EAEE" d="M103 177c2.438 1 2.438 1 5 3 .764 2.727.86 5.142 1 8h2l1 4h2l1.438 3.375c2.42 4.93 5.956 8.588 9.734 12.523C127 210 127 210 127 212l1.688.688c2.95 1.674 4.95 3.89 7.312 6.312l2.313 1.688L140 222v2l1.813.25c2.816.966 3.665 2.239 5.187 4.75v2c-10.602-4.804-19.95-14.713-28-23l-1.75-1.5c-1.25-1.5-1.25-1.5-1.687-4.062L115 200c-.596-.23-1.191-.461-1.805-.7-3.337-1.977-4.375-5.128-5.882-8.55l-.932-1.988c-1.775-3.907-2.88-7.459-3.381-11.762"/><path fill="#646667" d="m86 103 2 1-1.39 2.535C82.037 115.208 79.123 123.418 77 133l-.582 2.297C73.414 154.724 77.036 173.712 86 191l.922 2.117c2.376 5.403 5.964 9.83 9.638 14.404 1.993 2.497 3.42 4.419 4.44 7.479h-2a103 103 0 0 1-4.75-5.875l-1.36-1.799C86.486 198.75 81.81 190.014 78 180l-.906-2.375C71.13 160.929 71.078 141.962 76 125l.879-3.168C78.979 114.9 82 109.026 86 103"/><path fill="#5A5D61" d="M112 138h1l-.105 3.375c-.47 21.609 3.89 40.963 18.543 57.688C134 202 134 202 134 204h2v2l3 1v2l1.793.813c2.226 1.197 3.7 2.446 5.52 4.187 6.78 6.09 14.718 11.19 22.644 15.672L171 231v2c-4.192-1.512-7.784-3.586-11.562-5.937l-3.38-2.09C150.97 221.69 150.97 221.69 149 220v-2l-2.102-.621c-3.85-1.832-6.33-4.403-9.273-7.441l-1.745-1.784c-15.447-15.975-25.104-33.831-25.005-56.341l-.012-2.694.004-2.6.004-2.34c.129-2.177.53-4.087 1.129-6.179"/><path fill="#D3D5D7" d="M240 136h8l1 4h-5l-1 3h-2l.14 2.34c.198 3.49.373 6.98.548 10.472l.22 3.682.166 3.526.175 3.253C242 169 242 169 240.62 170.81 239 172 239 172 237 173c-1.128-3.606-1.114-6.971-1.098-10.734l.01-3.926.025-4.09q.008-2.068.014-4.137.018-5.056.049-10.113l3-1z"/><path fill="#C2C4C7" d="m262 49 2 2-1.437 2.25c-1.342 2.36-2.075 4.116-2.563 6.75h-3l-.75 3.813c-.784 3.553-1.819 6.855-3.125 10.25-4.1 10.92-6.466 22.414-8.125 33.937h-1c-3.325-10.182-1.174-17.981 2-28l.84-2.79C250.08 67.324 255.478 57.148 262 49"/><path fill="#4F565A" d="M103 217h2l1.688 2.375c2.86 3.247 5.148 3.744 9.312 4.625l.188 2.313c.584 2.88.584 2.88 3.187 4.5 2.6 1.393 2.6 1.393 5.625 1.187l.813 1.875c1.143 2.425 1.143 2.425 4.187 4.125v2l2.375.375C135 241 135 241 137 243a221 221 0 0 0 7 3v2l2.875-.062C150 248 150 248 152 249q3.511-.421 7-1l-.187 3.313c-.169 3.608-.169 3.608 1.687 5.625L162 258c-5.294-.552-9.204-2.327-13.812-4.812l-2.234-1.198c-15.68-8.632-30.683-19.938-42.954-32.99z"/><path fill="#6C7378" d="M505 173h2c-1.92 13.434-9.674 25.573-18 36l-2.434 3.117c-4.538 5.708-4.538 5.708-6.566 7.883h-2l-1 3h-2l-1 3-6 1 2-5-4 1v-2h8l-1-4c2.49-.687 4.379-1 7-1v-2h2l.75-1.562c1.646-3.21 3.448-6.314 5.25-9.438h2l.688-2.562c1.658-4.344 3.992-9.278 8.312-11.438a159 159 0 0 0 3.125-8.062l.84-2.3c.685-1.877 1.36-3.757 2.035-5.638"/><path fill="#B5BDC1" d="m94 185 2.758.117c7.633.346 7.633.346 10.867 3.196 1.185 2.315 1.81 4.183 2.375 6.687-3.583.145-7.165.234-10.75.313l-3.078.126c-7.534.124-7.534.124-10.828-2.783C84.023 190.045 83.33 187.9 83 185c3.86-1.39 7.006-.634 11 0"/><path fill="#B2B9BD" d="m245 194 2 1-.125 2.563c-.013 3.483-.013 3.483 1.125 6.875 1.04 3.706 1 6.737 1 10.562q.979 2.509 2 5c.125 3.313.125 3.313 0 6h2l.988 2.414c2.723 6.63 2.723 6.63 5.825 13.086C261 244 261 244 261 248h-3c-5.148-6.952-9.647-15.699-11.477-24.219L246 222l-2-1v-9l2-1c.043-1.666.04-3.334 0-5l-1-1a110 110 0 0 1-.062-5.562l.027-3.067z"/><path fill="#636566" d="M172 233c4.247.622 7.496 2.13 11.313 4.063 25.09 12.12 53.192 17.615 80.687 20.937v-2h2v2l3 1v1c-7.386.16-14.5-.216-21.812-1.25l-2.9-.402a121.4 121.4 0 0 1-19.16-4.391c-3.07-.939-6.11-1.622-9.253-2.27-15.69-3.569-29.95-9.732-43.875-17.687z"/><path fill="#CCD0D7" d="M264 92h1l-.035 2.012c-.105 5.379-.105 5.379.66 10.676C266 107 266 107 264 114l36 1v1h-16l1 3c-10.397.105-20.643.025-31-1v-1h6l-.25-3.5c-.047-7.365 2.314-14.454 4.25-21.5"/><path fill="#4F555B" d="M471 225v3l-4 2v2a94 94 0 0 1-5.375 4.125l-3.023 2.195C456 240 456 240 454 240v2c-6.375 4.607-13.461 8.382-20.437 12l-3.372 1.75c-3.325 1.303-5.656 1.506-9.191 1.25l4-1v-2l3.438-1.312L432 251l1-3h3a93 93 0 0 0 4-1l-.062-2.375C440 242 440 242 441 240h4v2c5.221-1.624 5.221-1.624 8.438-5.687L454 234l-2-1 8 1v-2h4l.688-1.812c1.65-2.752 3.51-3.713 6.312-5.188"/><path fill="#CAD2D7" d="M379 107c-12.602 5.02-25.402 8.485-39 9v-2c4.91-3.048 9.254-4.871 14.875-6.125l2.12-.497q3-.697 6.005-1.378l2.898-.73c5.663-1.402 8.256-1.5 13.102 1.73"/><path fill="#9DA5A9" d="M164.625 101.875 168 102v2h12v1l-16 1-1 3 1.715.332 2.222.48 2.215.458L171 111l1 3 5 1v2l3.313.813c3.472 1.118 4.405 1.624 6.687 4.187-11.49 1.034-11.49 1.034-16.437-2.812A471 471 0 0 1 167 116l-2.75-1.562c-2.734-1.747-4.35-3.833-6.25-6.438l3-1-2-3c2-2 2-2 5.625-2.125"/><path fill="#505255" d="M360 20v2l-2.316-.351c-20.76-3.15-20.76-3.15-41.684-4.649v-2l-58 1v-1c33.608-3.996 69.002-3.075 102 5"/><path fill="#52575C" d="M388 272c-9.493 3.153-19.035 5.464-28.812 7.529q-2.225.48-4.442.993a133 133 0 0 1-15.121 2.603l-2.215.253c-12.187 1.314-12.187 1.314-17.41.622l-2-2h6v-2l3 .07c8.3.275 8.3.275 16.438-1.07 4.098-1.15 7.33-1.151 11.562-1v-2h2v2l2.145-.91c2.833-1.082 5.592-1.83 8.543-2.527a138 138 0 0 0 14.156-4.208c2.699-.444 3.877.22 6.156 1.645"/><path fill="#BA3641" d="M237 363c3.849 1.417 5.909 2.367 8 6v3h2c.865 3.714 1.106 7.112 1.063 10.922l-.024 3.355-.039 3.473q-.038 3.43-.062 6.86l-.036 3.06c-.167 2.29-.167 2.29 1.098 3.33l14 1v-31h1v32h-19l.027-6.395c-.015-2.082-.042-4.163-.07-6.245a244 244 0 0 1-.002-4.286c.074-10.041-1.393-17.028-7.955-25.074"/><path fill="#D1D4DA" d="M321 104c1.713 2.74 2.14 4.966 2.375 8.125L324 116c1.967 1.281 1.967 1.281 4 2-14.325 1.228-28.633 1.102-43 1l-1-3c11.69-.903 23.28-1.115 35-1l-.062-3.348c.057-3.381.287-4.878 2.062-7.652"/><path fill="#666C71" d="m356.75 134.813 3.547.082L363 135v1h12c-3.544 3.544-6.598 4.158-11.312 5.188l-2.264.537C357.018 142.726 353.673 143 349 143v27h-1l-.076-2.4q-.176-5.393-.361-10.787l-.12-3.776-.127-3.642-.11-3.349c-.188-2.772-.588-5.341-1.206-8.046 3.486-3.288 6.057-3.328 10.75-3.187"/><path fill="#7E858B" d="M207 132c12.943-.458 25.236.88 38 3v1l-2.375.375c-2.766.416-2.766.416-4.625 2.625v-2l-3.25 1.063c-3.728.931-4.343.849-7.75-.063-1.563.005-3.126.05-4.687.125-5.05.052-9.84-.65-14.313-3.125z"/><path fill="#B83B42" d="M57 325h68v15h-25v-1h23l-1-12H58v9h2l1 3h-4z"/><path fill="#6A6E72" d="M264 175c2.313 3.47 3.22 6.91 4.313 10.875 5.22 18.49 5.22 18.49 17.125 33.188 4.61 1.686 8.811 1.421 13.5.125 2.393-1.075 2.393-1.075 3.062-4.188h2l.875-2.312C306 210 306 210 308 207l2 1c-3.626 6.181-7.371 11.818-14 15-4.184.84-7.624.491-11.625-.937-3.689-3.204-6.69-6.985-9.375-11.063v-2h-2c-3.366-7.035-5.644-13.904-7.312-21.5l-.52-2.355C264.44 181.669 264 178.566 264 175"/><path fill="#66686A" d="m313 40 20 1v2h-15l3.625 3.875c9.96 11.276 15.174 24.983 19.75 39.125l.797 2.427c1.352 4.324 2.137 7.986 1.828 12.573-2.633-2.633-2.967-4.913-3.937-8.5l-1.07-3.848a563 563 0 0 1-1.673-6.273c-1.472-5.389-3.552-10.377-5.882-15.442l-.926-2.025C328.98 61.31 328.98 61.31 326 59l-1-2.875c-2.042-5.186-6.14-8.9-9.918-12.867C313 41 313 41 313 40"/><path fill="#646669" d="M267.063 39.938 270 40l-2.625 3.5-1.676 2.254a117 117 0 0 1-3.117 3.96C252.51 62.158 247.47 76.52 243.578 91.832c-.737 2.765-1.67 5.455-2.578 8.169a147 147 0 0 0-1.125 5.375l-.508 2.648L239 110l-3-1a6728 6728 0 0 1 2.926-10.973q.947-3.538 1.867-7.086C245.258 73.943 252.332 55.668 265 43l-2-2c1-1 1-1 4.063-1.062"/><path fill="#C55765" d="M385 325h1v14h25l1-2c1.33 2.66 1.12 4.666 1.114 7.643v3.58l-.016 3.879-.005 3.96q-.006 5.213-.024 10.425-.014 5.319-.02 10.638-.016 10.438-.049 20.875h-1c-.999-6.607-1.13-13.044-1.098-19.719l.005-3.328c.005-3.485.018-6.969.03-10.453q.009-3.559.014-7.117c.01-5.795.03-11.589.049-17.383h-26z"/><path fill="#9CA3A8" d="m420 110 3 1c-3.11 2.73-6.055 5.131-9.687 7.125-3.184 1.572-3.184 1.572-4.68 3.39-2.195 1.996-4.206 2.403-7.07 3.11l-2.872.727L396 126l-2.207.613c-2.203.476-3.67.07-5.793-.613v-2l3.105-1.207 4.082-1.606 2.042-.79A67.4 67.4 0 0 0 408 115c2.813-.687 2.813-.687 5-1l1-3 5 1z"/><path fill="#5E6063" d="M391 243c-6.744 3.702-13.6 5.973-21 8l-2.582.712c-17.174 4.677-34.53 8.613-52.418 8.288l6-7c0 3 0 3-1 5 22.53-3.085 44.44-6.895 65.694-15.344C388 242 388 242 391 243"/><path fill="#616365" d="m454 197 2 1c-12.193 16.29-28.254 27.372-46 37l-1.929 1.051c-1.89 1.02-3.79 2.02-5.696 3.012l-3.414 1.785c-2.993 1.164-4.063 1.389-6.961.152l3.113-1.54c20.762-10.107 20.762-10.107 39.512-23.46 2.375-2 2.375-2 4.375-2v-2c1.504-1.445 1.504-1.445 3.563-3.125 4.265-3.612 7.87-7.584 11.437-11.875"/><path fill="#899299" d="m470 199 2 2-2 2 2 1c-2.395 2.9-4.312 3.502-8 4l1 4-1.937.313L461 213l-1 3-1.75.813c-2.542 1.158-2.542 1.158-4.687 4.125-2.445 2.921-4.333 4.192-7.563 6.062l-1.437 2c-2.083 2.666-4.546 3.557-7.563 5l-1 2c-2.305 1.306-4.476 2.159-7 3-1.516 1.02-1.516 1.02-3.062 2.063C423 243 423 243 421 243c1.204-3.612 1.823-3.701 5.063-5.437C443.159 227.68 457.813 214.45 470 199"/><path fill="#8C9297" d="M183 123c7.586-.445 13.902.748 21.125 3l2.898.867q3.495 1.048 6.977 2.133v2c-11.8 1.601-20.909.728-31-6z"/><path fill="#53585D" d="M264 283q10.089-.037 20.178-.055 3.43-.008 6.862-.02c3.291-.013 6.583-.018 9.874-.023l3.088-.015c4.782 0 9.297.107 13.998 1.113v1a113 113 0 0 1-16.305 1.133l-2.315.003q-2.407 0-4.815-.006c-2.427-.005-4.853 0-7.28.007-7.831.003-15.502-.146-23.285-1.137z"/><path fill="#5F6365" d="M467 126c7.033 8.136 6.984 22.436 6.25 32.766-1.427 12.754-6.404 28.458-16.25 37.234.572-3.616 1.522-6.288 3.375-9.437l1.36-2.375L463 182c8.356-15.105 8.546-32.463 5-49-.371-2.33-.688-4.661-1-7"/><path fill="#8A9199" d="m382.875 127.875 2.375.027c1.917.024 3.833.06 5.75.098l-4 6-1-2-3.809.992c-5.451 1.212-10.692 1.234-16.253 1.133l-2.913-.027A897 897 0 0 1 356 134c2.473-2.655 3.653-3.367 7.313-3.562 2.767-.16 4.806-.482 7.425-1.458 4.142-1.245 7.844-1.2 12.137-1.105"/><path fill="#646669" d="M235 143h1l.136 3.478c.173 4.35.361 8.7.554 13.05q.12 2.798.23 5.597c.642 16.455 2.29 32.216 7.31 47.957.736 2.79.924 5.052.77 7.918-12.062-12.798-11.32-45.45-10.842-61.726.219-5.429.494-10.852.842-16.274"/><path fill="#E8EFF4" d="m326.063 267.938 3.972.027L333 268v1c-14.561 2.019-28.934 3.309-43.625 3.313l-3.928.015c-6.792-.05-12.888-.542-19.447-2.328v-1l3.804.016q7.036.026 14.073.039 3.036.008 6.072.02c2.922.013 5.844.018 8.766.023l2.71.015c4.913 0 9.687-.25 14.562-.888 3.367-.376 6.688-.318 10.075-.288"/><path fill="#4D5256" d="M255 42c-3.017 3.017-6.74 2.88-10.812 3.438-16.074 2.384-33.024 5.552-47.27 13.742C195 60 195 60 192 59c6.884-4.82 14.045-7.394 22-10l3.23-1.098c12.36-4.038 24.713-6.57 37.77-5.902"/><path fill="#606365" d="M261 16v1l-3.121.332c-7.726.85-15.408 1.834-23.067 3.168l-2.1.359c-3.018.542-5.872 1.195-8.778 2.176-3.245 1.067-6.295 1.5-9.684 1.902-5.307.696-10.132 1.763-15.164 3.575-2.406.563-3.743.153-6.086-.512 6.68-2.72 13.41-4.418 20.438-6l3.482-.792C250.981 13.563 250.981 13.563 261 16"/><path fill="#626568" d="M300.563 72.75c9.6 5.9 13.517 18.952 16.437 29.25.557 3.05.84 5.898 1 9h-2l-.7-2.64C310.139 88.733 310.139 88.733 297 74c-5.268-1.556-8.17-.415-13 2l-2.437 1.188L280 78c1.026-2.976 1.966-3.978 4.625-5.75 5.87-2.174 10.314-2.063 15.938.5"/><path fill="#C9CFD1" d="M248 19c-.592.182-1.183.364-1.793.55-.79.252-1.58.504-2.394.762l-2.356.739c-2.533.878-2.533.878-4.832 2.515-3.266 1.784-5.733 1.904-9.437 2.059-5.799.289-5.799.289-11.563.938-3.937.475-7.664.508-11.625.437 3.385-2.257 5.25-2.427 9.25-2.875a108 108 0 0 0 15.625-3.187c13.12-3.652 13.12-3.652 19.125-1.938"/><path fill="#BDC4C9" d="M339 188h1c.105 5.758-.26 11.29-1 17l1-4h2l1-5c1.378 2.756.616 3.947-.25 6.875-1.52 5.224-2.758 10.472-3.906 15.79L338 221l-3 1-2 2a211 211 0 0 1 2.438-15.75A689 689 0 0 0 339 188"/><path fill="#BB383A" d="M386 325h64c-3.74 1.87-4.83 2.247-8.737 2.211l-2.83-.01-3.035-.04-3.13-.017a2162 2162 0 0 1-9.893-.082q-4.957-.042-9.915-.07-3.086-.019-6.17-.054l-2.812-.02-2.48-.025c-2.072-.022-2.072-.022-3.998 1.107-2.696-.168-5.324-.612-8-1-1.262 2.525-1.099 4.312-1.062 7.125l.027 2.758L388 339h-2z"/><path fill="#5D6064" d="M365 49c6.03.383 10.54 1.378 15.957 4.063 2.004.92 3.892 1.473 6.043 1.937v2l7-1 2 3c2.05 1.192 2.05 1.192 4 2h-2l1.563 2.375L401 66l-1 2-3-2v-2c-9.398-4.746-18.68-9.192-28.805-12.176C366 51 366 51 365 49"/><path fill="#EEF6F8" d="M218 261c6.645-.36 12.769 1.003 19.25 2.375q3.226.67 6.453 1.336l3.158.655c4.7.95 9.417 1.801 14.139 2.634v1c-14.663.584-29.103-1.077-43-6z"/><path fill="#7F868D" d="M386 132v2c-8.005 4.088-16.244 3.269-25 3v-1h-9v1l-7 2-2-4c7.377-1.984 14.136-2.21 21.75-2.062q3.304.051 6.61.09l2.92.054c4.007-.12 7.683-1.082 11.72-1.082"/><path fill="#6B6B6B" d="m86 103 2 1-1.39 2.535C82.037 115.208 79.123 123.418 77 133l-.57 2.438c-.585 3.485-.753 6.976-.93 10.5-.24 4.747-.621 9.382-1.5 14.062h-1c-.337-12.087-.395-23.301 3-35l.879-3.168C78.979 114.9 82 109.026 86 103"/><path fill="#B7BEC2" d="M269 199c2.979 2.979 4 5.803 4 10h2c1.063 2.375 1.063 2.375 2 5l-1 2h-2l-1 4c-1.6-2.547-2.976-4.939-4.062-7.75-.718-2.412-.718-2.412-2.938-3.25l-2 3 1-8h3z"/><path fill="#747E86" d="M360 113h52c-2.974 2.23-5.725 4.276-9 6l-2-1 1-2h2v-2l-2.734.219c-14.08 1.02-28.157.878-42.266.781z"/><path fill="#C7CBCF" d="M437 88c1 3 1 3 0 6h-2v3c-2.5 2.188-2.5 2.188-5 4l-1.625-2.437c-2.806-3.028-4.343-3.288-8.375-3.563l4-1v-4h13z"/><path fill="#656668" d="m132 201 2 1v2h2v2l3 1v2l1.793.813c2.226 1.197 3.7 2.446 5.52 4.187 6.78 6.09 14.718 11.19 22.644 15.672L171 231v2c-4.192-1.512-7.784-3.586-11.562-5.937l-3.38-2.09C150.97 221.69 150.97 221.69 149 220v-2l-2.074-.586c-4.04-1.953-6.66-4.826-9.738-8.039l-1.811-1.852A837 837 0 0 1 131 203z"/><path fill="#595C60" d="M218 251c6.895.31 13.468 1.45 20.188 2.938 8.564 1.894 17.092 3.148 25.812 4.062v-2h2v2l3 1v1c-7.294.15-14.337-.18-21.562-1.187l-2.84-.388c-9.109-1.338-17.823-3.684-26.598-6.425z"/><path fill="#C3C6C9" d="M325 138h1l-1 22h-2l-2 10h-1c.052-4.21.147-8.417.25-12.625l.043-3.605c.309-11.048.309-11.048 4.707-15.77"/><path fill="#595D5F" d="M388 96v2c-14.31 6.774-28.01 11.394-44 12v-8c2 3 2 3 3 6 12.7-2.443 28.768-12 41-12"/><path fill="#F3F7F9" d="M484 144h1c1.664 5.199 2.839 9.737 1.438 15.188-.66 2.03-.66 2.03.562 4.812-.672 2.742-.672 2.742-1.75 5.875l-1.047 3.117c-1.166 2.915-2.401 5.438-4.203 8.008h-2a491 491 0 0 1 1.938-7.547c2.526-9.86 3.788-19.283 4.062-29.453"/><path fill="#D1D3D4" d="M328 60c5.32 6.658 8.71 14.468 9 23-.437 3.5-.437 3.5-1 6-3.307-3.307-3.88-7.824-5.125-12.25l-.84-2.855c-1.348-4.736-2.42-8.918-2.035-13.895"/><path fill="#65696E" d="M125 99h1c.756 8.019-.045 13.122-4.266 19.977-2.077 3.62-3.599 7.327-5.109 11.21l-.795 2.039A868 868 0 0 0 114 137h-1c.946-8.667 1.82-16.03 6.977-23.273 1.278-1.823 1.278-1.823 1.023-4.727h2z"/><path fill="#C64F54" d="M345 321v2l-19 1-1 3c-3 1-3 1-7 1l-2.437 2.438c-2.687 2.686-3.868 3.245-7.563 3.562 10.305-10.91 22.176-13.873 37-13"/><path fill="#68696A" d="M361 21c7.412.582 14.182 2.25 21.313 4.313l3.185.896a580 580 0 0 1 16.107 4.834l2.923.919c2.469 1.037 3.762 2.012 5.472 4.038-4.232-.615-8.126-1.582-12.184-2.926l-3.542-1.16-3.712-1.227C380.773 27.492 371.01 24.435 361 22z"/><path fill="#B9BFC3" d="m160.438 93.688 3.933.011c3.345.277 5.633.852 8.629 2.301l-1 2-3.648.148-4.727.227c-.794.03-1.588.062-2.406.094-4.586.05-4.586.05-8.219 2.531l-4-4c3.598-3.47 6.567-3.375 11.438-3.312"/><path fill="#E8EEF1" d="M190 251c4.462.597 8.27 1.751 12.438 3.438 4.49 1.777 8.886 3.366 13.562 4.562v2c-5.557.27-9.98-.597-15.25-2.312l-2.14-.647c-6.543-2.075-6.543-2.075-8.61-5.041z"/><path fill="#BF414F" d="M214 325c3.604-.145 7.207-.234 10.813-.312l3.103-.127c2.781-.046 5.345-.05 8.084.439 2.2 2.52 2.2 2.52 3 5l-3 1-1-4h-15l-1 3h2l3 8-2 2a1611 1611 0 0 1-4-6.375l-1.156-1.828C214 327.227 214 327.227 214 325"/><path fill="#6D747C" d="m325 270-1 2 23 1v1h-51v-1l10-1v-1c6.373-.745 12.583-1.103 19-1"/><path fill="#6E767D" d="m207 260 19 4c-2.979 2.979-6.29 2.356-10.29 2.414l-2.48.059c-2.618.06-5.236.106-7.855.152q-2.66.057-5.32.117-6.528.142-13.055.258l-1-2 23-1z"/><path fill="#686D73" d="M245 222c3.538 3.79 5.128 7.596 6.918 12.36 1.418 3.46 3.224 6.615 5.129 9.827C258 246 258 246 258 248h3l1-3 1 5h2l-1 2-2-1-1 3c-7.53-8.215-16-20.528-16-32"/><path fill="#767676" d="m116 68 2 1a865 865 0 0 1-4.375 4.5l-2.46 2.531C109 78 109 78 107 78l-.738 1.71c-1.497 2.717-3.318 4.663-5.45 6.915C96.376 91.45 92.614 96.539 89 102l-1-3c1.555-2.566 1.555-2.566 3.875-5.562l1.235-1.6C97.156 86.666 101.5 81.78 106 77l1.605-1.73c1.086-1.137 2.233-2.213 3.395-3.27h2v-2z"/><path fill="#C64256" d="M132 345h1c.125 5.75.125 5.75-1 8-.29 2.882-.514 5.736-.687 8.625l-.182 2.371c-.248 4.09-.14 7.504.974 11.465L133 379l-2 2c-4.794-12.642-3.596-23.463 1-36"/><path fill="#C33A4E" d="M168.188 403.563c2.677.616 2.677.616 4.69-.094 2.6-.575 4.303-.174 6.872.469l2.422.59L184 405c-9.762 5.045-18.881 2.833-29 0 4.363-2.909 8.13-2.33 13.188-1.437"/><path fill="#5C6367" d="m147 248 1.863.254 2.45.309 2.425.316c2.43.269 2.43.269 5.262-.879l-.187 3.313c-.169 3.608-.169 3.608 1.687 5.625L162 258c-6.028-.476-10.767-3.197-16-6z"/><path fill="#ADAFB2" d="M246 80c2 2 2 2 2.219 5.531-.12 4.735-.878 9.316-1.719 13.969l-.434 2.492Q245.54 104.998 245 108h-1c-2.506-7.674-2.385-13.61 0-21.437l1.125-3.747z"/><path fill="#6F6F6F" d="M470 72c12.057 5.73 21.456 19.686 28 31l1 3-2 1-.855-1.625c-6.437-11.477-15.266-22.097-24.852-31.09L470 73z"/><path fill="#575A5D" d="M191 60c-1.099 3.297-1.712 3.75-4.375 5.75-3.773 3.136-5.274 5.52-6.625 10.25 0 5.383 2.449 9.139 6 13 1.935 1.467 3.94 2.707 6 4v2c-5.412-2.463-10.368-6.347-13.5-11.437-1.226-6.284-1.283-9.889 2.188-15.313C186.715 60 186.715 60 191 60"/><path fill="#6E7173" d="m335.188 15.75 2.756.275c7.49.8 14.746 2.132 22.056 3.975v2l-2.316-.351c-20.76-3.15-20.76-3.15-41.684-4.649v-1c6.598-.934 12.571-.95 19.188-.25"/><path fill="#7D8185" d="M241 96h1c2.237 5.313 2.44 10.32 2 16l-1 2-1.5-.875c-3.418-1.538-6.85-2.273-10.5-3.125l3-2c3 1 3 1 5 2z"/><path fill="#868C93" d="M388 124v2c4.161.082 7.947-.018 12-1l-2 2 1 2a519 519 0 0 1-4.875 2.063l-2.742 1.16C389 133 389 133 387 132l3-3-12-1c2.747-2.747 6.086-4 10-4"/><path fill="#BEC4C9" d="M363 108c-3.445 2.296-5.938 2.54-10 3l1 3c-2.702 1.35-5.118 1.339-8.125 1.563l-3.32.253L340 116v-2c6.218-4.194 15.576-8.475 23-6"/><path fill="#BF4654" d="M155 324v3c-4.983 3.85-4.983 3.85-8.125 4.313-2.886 1.058-3.497 3.454-4.86 6.097C141 339 141 339 138.75 339.937L137 340v2h-2v3h-2c1.875-4.75 1.875-4.75 3-7h2l.805-1.812c3.391-6.207 10.001-9.363 16.195-12.188"/><path fill="#EEF3F6" d="M420 240v2a730 730 0 0 1-8.562 4.5l-2.424 1.3c-4.969 2.556-8.421 3.74-14.014 3.2 1.805-2.206 2.988-2.996 5.734-3.906 4.42-1.48 8.356-3.668 12.461-5.852C416 240 416 240 420 240"/><path fill="#F8FAFB" d="M97 136h2l1 28-3 1c-1.093-9.822-.818-19.193 0-29"/><path fill="#484F54" d="M388 272c-22.581 7.28-22.581 7.28-32 7 3.374-2.25 6.138-2.943 10.063-3.937 5.383-1.368 10.648-2.879 15.886-4.743 2.623-.41 3.834.309 6.051 1.68"/><path fill="#5C6063" d="M233 138c2.769-.369 2.769-.369 5-1l-.96 2.32c-1.374 4.864-1.501 9.524-1.665 14.555l-.117 2.953q-.141 3.585-.258 7.172h-1v-21h-5l2-1v-2l-8-1c3.638-2.379 5.85-1.762 10-1"/><path fill="#8C9299" d="M254 231c2.888 1.444 3.007 3.249 4.063 6.25l1.035 2.89c.825 2.615 1.425 5.164 1.902 7.86h-3c-1.824-2.555-1.824-2.555-3.687-5.875l-1.887-3.305C251 236 251 236 251 234h3z"/><path fill="#8C939B" d="M207 132q4.031-.04 8.063-.062l2.279-.026c4.656-.02 9.089.143 13.658 1.088l1 2h-24z"/><path fill="#A0A3A7" d="m279.184 14.902 3.198.005c3.352.005 6.704.018 10.055.03q3.422.009 6.842.014 8.36.017 16.721.049v1l-1.713.025q-8.833.13-17.666.292-3.295.058-6.59.105c-3.16.046-6.32.104-9.48.164l-2.971.035c-4.684.101-8.278.35-12.58 2.379-2.812-.375-2.812-.375-5-1l1-2c6.01-1.299 12.06-1.129 18.184-1.098"/><path fill="#5F6466" d="M318 172h1c1.04 12.206-2.324 23.247-8 34l-2-1 .953-2.648c3.475-9.986 5.925-20 8.047-30.352"/><path fill="#575B5E" d="M422 111h2c-3.332 8.205-14.007 12.235-21.434 16.031C400 128 400 128 397 127c7.286-4.429 7.286-4.429 12-5l1-3c1.96-1.281 1.96-1.281 4.375-2.5 3.074-1.562 5.208-3.069 7.625-5.5"/><path fill="#9EA5AA" d="M245 219h2l1 3h2l1-2v6h2c1.354 2.709 1.065 5.01 1 8-1.86-.223-1.86-.223-4-1-1.266-1.996-1.266-1.996-2.25-4.437l-1.016-2.434C246 224 246 224 246 222l-2-1z"/><path fill="#A2A5A8" d="M337 82c2.926 4.388 3.136 6.525 3.125 11.813l.008 3.707c-.114 2.97-.442 5.599-1.133 8.48h-1c-2.7-15.38-2.7-15.38-2-23z"/><path fill="#BCC0C2" d="M336 18c16.893 1.927 16.893 1.927 24 4v-2l3 1v1l5 1v1h-18v-3l-3.625.125c-3.798.014-6.825-.705-10.375-2.125z"/><path fill="#8B9299" d="M333 230c1 3 1 3 .004 5.262l-1.442 2.425-1.433 2.45L329 242h-2v3l-4 1v-4h2v-4h2l1-6 1 2h2v-3z"/><path fill="#8C9297" d="M399 120v2l10-1c-2.42 2.42-4.083 2.72-7.375 3.563l-2.898.753L396 126l-2.21.617c-2.201.471-3.67.064-5.79-.617v-2a875 875 0 0 1 4.375-2l2.46-1.125C397 120 397 120 399 120"/><path fill="#C5C9CD" d="M226 108c2.086.425 4.169.866 6.25 1.313l3.516.738c3.088.906 4.85 1.842 7.234 3.949l1-2v4l-16-2 2-2z"/><path fill="#757C81" d="M445 228c-2.332 3.498-4.295 4.187-8 6l-1 2c-2.305 1.306-4.476 2.159-7 3-1.516 1.02-1.516 1.02-3.062 2.063C423 243 423 243 421 243c1.237-3.711 2.22-3.96 5.563-5.812a75 75 0 0 0 11.55-8.086c2.408-1.406 4.146-1.3 6.887-1.102"/><path fill="#79838A" d="M314 213h2c1.125 5.75 1.125 5.75 0 8h9v1h-13l-1 2c-2.062.625-2.062.625-4 1a2972 2972 0 0 1 2.938-5.437l1.652-3.06C313 214 313 214 314 213"/><path fill="#8E979B" d="M175 115h2v2l3.313.813c3.472 1.118 4.405 1.624 6.687 4.187-11.658.861-11.658.861-16.25-2.5L168 117c2-1 2-1 5.125-.062.949.35 1.898.7 2.875 1.062z"/><path fill="#B7BABA" d="M264 92h1l-.035 2.012c-.105 5.379-.105 5.379.66 10.676.552 3.406-.55 6.088-1.625 9.312h-3c-.411-7.877.564-14.503 3-22"/><path fill="#C1404D" d="M163 338c-1 3-1 3-3.75 4.75-4.848 3.356-7.88 7.862-10.25 13.25v-6h2l.375-3.437L152 343l2-1 1-3c2.928-.976 4.956-1.082 8-1"/><path fill="#41454B" d="M264 283c13.347-.218 26.668.435 40 1v1q-6.133.255-12.268.482-2.08.08-4.16.166c-7.932.33-15.69.479-23.572-.648z"/><path fill="#757E82" d="m418 242 2 1-3.187 1.688c-3.49 1.981-6.089 4.348-8.813 7.312-1 1-1 1-3.504 1.098l-3.058-.036-3.067-.027L396 253l1.734-.863a587 587 0 0 0 6.524-3.336q2.433-1.245 4.867-2.488l2.496-1.3 2.387-1.212 2.176-1.12z"/><path fill="#585A5D" d="M402 68c3.49 3.983 3.628 7.024 3.477 12.18-1.053 6.23-5.343 10.138-10.164 13.882L392 96l-3-1 2.047-1.504C398.555 87.92 398.555 87.92 403 80c.005-4.06-.394-7.988-1-12"/><path fill="#63686C" d="M264 175c2.353 3.53 3.351 7.094 4.5 11.125l.669 2.308c1.476 5.154 2.78 10.308 3.831 15.567-6.42-5.743-7.475-16.922-9-25z"/><path fill="#848688" d="M235 143h1q.287 7.848.537 15.698.087 2.672.187 5.343c.094 2.556.174 5.113.253 7.67l.097 2.421c.053 1.956-.001 3.913-.074 5.868l-2 2c-1.04-13.103-.84-25.888 0-39"/><path fill="#AEB1B6" d="M399 64c3.916.783 7.364 2.392 11 4l-2 1c-.393 2.785-.393 2.785-.5 6-.156 3.313-.156 3.313-.5 6l-2 1-.148-2.117-.227-2.758-.21-2.742c-.21-2.562-.21-2.562-2.415-4.383-2.139-2.139-2.427-3.133-3-6"/><path fill="#767D83" d="m322 244 1 2 3-1c-.125 3.25-.125 3.25-1 7-2.955 2.441-5.375 3.792-9 5v-5l3-1c1.716-3.503 1.716-3.503 3-7"/><path fill="#BEC2C7" d="M299 63c2.438.688 2.438.688 5 2 .937 2.81 1 5.038 1 8-1.5 1.688-1.5 1.688-3 3l-5-5c1-3 1-3 4-5z"/><path fill="#52595C" d="M471 225v3l-4 2v2c-1.75 1.29-1.75 1.29-4 2.625l-2.25 1.352L459 237v-2h-2v2l-4 2 1-5-2-1 8 1v-2h4l.688-1.812c1.65-2.752 3.51-3.713 6.312-5.188"/><path fill="#535B5F" d="M337 224c1 3 1 3-.547 6.582a342 342 0 0 1-2.203 4.23c-.36.7-.722 1.4-1.094 2.12a503 503 0 0 1-2.154 4.125c-.913 1.771-1.751 3.58-2.58 5.392C327 249 327 249 324 250l.938-2.312A111 111 0 0 0 327 242h2l.875-2.812C331 236 331 236 333 233l1-3c1-3 1-3 3-6"/><path fill="#EDF3F6" d="M473 189h2c-.494 4.676-2.63 7.697-5.437 11.313l-1.237 1.666c-1.054 1.384-2.185 2.708-3.326 4.021h-2c1.318-4.625 3.151-8.01 6-11.875l2.125-2.93z"/><path fill="#6E7274" d="M505 173h2c-1.31 7.262-3.76 13.383-7 20l-2-1-4 7-2-3c4.75-5.875 4.75-5.875 7-7a159 159 0 0 0 3.125-8.062l.84-2.3c.685-1.877 1.36-3.757 2.035-5.638"/><path fill="#788082" d="m458 104 .375 1.938L459 108l2 1v2l3 2q.57 2.988 1 6l2 3-1 3-1.023-1.645-1.352-2.168-1.336-2.144A240 240 0 0 0 459 114v-3h-2c-1.625-2.5-1.625-2.5-3-5l4 1z"/><path fill="#C04557" d="M469 352h1c.38 7.344-.992 12.34-6 18h-2c1.936-6.205 4.256-12.108 7-18"/><path fill="#797F84" d="m206 108 3.29.84 4.335 1.097 2.16.553c4.055 1.023 8.074 1.89 12.215 2.51l-1.875.875c-2.258 1.062-2.258 1.062-4.125 3.125l-5-2v-2l-10-2z"/><path fill="#545859" d="M277 79h2a67 67 0 0 1-3.812 8.375c-3.18 6.216-5.08 12.99-7.188 19.625h-1c-.168-10.213 4.421-19.632 10-28"/><path fill="#E8EEF3" d="M218 261c6.945-.485 13.299 1.307 20 3-2 2-2 2-5.5 2.313-5.098-.104-9.715-1.666-14.5-3.313z"/><path fill="#EBF2F4" d="m480 172 1 2a136 136 0 0 1-3 7h2l-3 9h-5l1-3h2l.078-2.012c.356-5.532.753-8.954 4.922-12.988"/><path fill="#4E5557" d="M375 136c-2.606 3.287-5.3 3.813-9.312 4.688l-3.364.761c-3.18.527-6.108.653-9.324.551v-2l2.012-.367c5.446-1.002 5.446-1.002 10.676-2.758 3.146-1.19 5.981-1.006 9.312-.875"/><path fill="#C14654" d="m279 348 2 1-1.863 2.887-2.45 3.8-1.224 1.897-1.201 1.865-1.179 1.826c-.962 1.533-1.862 3.105-2.751 4.682L269 368h-2l1-7h3l.938-2.375C273 356 273 356 274 354h2l.375-2.437L277 349z"/><path fill="#BC3D48" d="m321 343 3 1-1.277 1.863-1.66 2.45-1.653 2.425c-2.018 3.237-2.534 5.757-2.508 9.492l.01 2.432.026 2.526.013 2.56q.02 3.126.049 6.252h-2q-.331-4.593-.625-9.187l-.195-2.62c-.284-4.626-.335-7.956 1.82-12.193v-2l4-1-1-3z"/><path fill="#9DA5AA" d="m163 110 8 1 1 3c2 1.209 2 1.209 4 2v2l-12-3z"/><path fill="#45494C" d="M467 126c5.906 6.443 5.264 15.327 5.125 23.5l-.027 3.07q-.036 3.715-.098 7.43l-2-1 .07-2.895c.112-7.999-.387-15.255-2.07-23.105-.371-2.33-.688-4.661-1-7"/><path fill="#BB414E" d="m512 399 6 3v2l16-1 1-4 2 6h-23z"/><path fill="#C24C57" d="M510 340c2.133 3.199 3.66 6.491 5.188 10l.865 1.906c2.064 4.742 2.064 4.742.947 8.094-4.82-3.736-4.82-3.736-5.332-7.336.018-2.24.113-4.435.332-6.664h-2a88 88 0 0 1-1-5z"/><path fill="#43484B" d="m262 145 10 1v1h-8v19c-2-2-2-2-2.227-3.971.01-.786.02-1.571.032-2.38l.02-2.579.05-2.695.027-2.719c.024-2.219.06-4.437.098-6.656"/><path fill="#62676A" d="M435 94c1.188 1.688 1.188 1.688 2 4-1.25 2.75-1.25 2.75-3 5h-2l-.625 1.688c-1.925 3.237-4.414 4.994-7.375 7.312v-3l2.25-1.687c3.515-2.956 4.946-6.161 6.75-10.313h2z"/><path fill="#A0A7AD" d="M337 221c-1.002 3.793-1.81 6.715-4 10h-2v3h-2c.502-4.27.971-8.168 3-12 3-1 3-1 5-1"/><path fill="#ECF0F4" d="M103 177c4.828 2.476 4.828 2.476 5.594 4.813L109 184l.535 2.36 1.063 4.812L111 193h-2a715 715 0 0 1-3-5.75l-1.687-3.234C103 181 103 181 103 177"/><path fill="#F2F4F6" d="m144 69 2 1c-4.14 4.25-8.247 8.435-13 12h-3v-2h2l.688-1.812c1.663-2.773 3.519-3.621 6.312-5.188a101 101 0 0 0 3-3z"/><path fill="#595F61" d="m313 40 20 1v2h-15v3z"/><path fill="#838A8F" d="m133 81 1 2c-.777 2.164-.777 2.164-1.937 4.625l-1.153 2.477L130 92l-2-2-6 5c.474-4.317 3.034-6.336 6.063-9.25l2.785-2.703z"/><path fill="#BCBEC0" d="M250 69h1c.223 6.728-.05 12.54-2 19-2.703-4.055-2.543-7.239-2-12 .794-2.519 1.792-4.635 3-7"/><path fill="#CB717B" d="m297 350 1 2h2v5l-2 1c-.47 3.276-.47 3.276-.625 7.063l-.227 3.91L297 372c-3.59-5.384-2.218-11.44-1-17.562.325-1.482.655-2.962 1-4.438"/><path fill="#EDF1F5" d="M150 231h3l1.313 1.375c1.694 1.886 1.694 1.886 4.75 2.5C162 236 162 236 163.375 238.625L164 241c-4.165-.54-6.544-1.83-9.812-4.437l-2.395-1.872L150 233z"/><path fill="#626467" d="m308 207 2 1c-3.602 6.14-7.442 11.778-14 15-2.746.152-2.746.152-5 0 2.428-2.428 4.892-3.575 8-5h2l1-3h2l.875-2.312C306 210 306 210 308 207"/><path fill="#969DA1" d="M260 178h1l1 5 1-2h2l3 12h-2v-2h-2c-3.65-4.402-4.454-7.328-4-13"/><path fill="#B0B7BD" d="m336 207 2 3c-.875 2.688-.875 2.688-2 5h3l-1 6-3 1-2 2c.63-5.781 1.652-11.344 3-17"/><path fill="#F3F6F8" d="m114 100 1 2a101 101 0 0 1-3.75 6.938l-1.094 1.92c-1.774 3.056-3.456 5.827-6.156 8.142-.353-4.234.424-5.73 3-9l1-3.187 1-2.813 3-1z"/><path fill="#565B60" d="M213 51c-2.7 2.7-5.88 3.702-9.375 5.063l-2.04.814C198.429 58.123 195.33 59.309 192 60c3.18-3.659 6.658-5.488 11.063-7.312l1.892-.838c4.665-1.977 4.665-1.977 8.045-.85"/><path fill="#61676C" d="M355 276h2v4c-5.808 1.506-10.998 2.218-17 2l4-1v-2c2.75-.917 4.36-1.109 7.188-1.062L355 278z"/><path fill="#4B4F55" d="M206 274c14.781.595 14.781.595 21 4v1c-7.455-.366-14.05-1.21-21-4z"/><path fill="#D2D6DD" d="M328 265h12l-4 2 2 2c-2.995.872-5.636 1.108-8.75 1.063l-2.422-.028L325 270l1-3h2z"/><path fill="#C1C3C6" d="m248 19-1.863.586-2.45.789-2.425.773c-2.49.84-2.49.84-5.262 2.852-2.262-.242-2.262-.242-4.687-.875l-2.45-.617L227 22c3.411-1.982 6.618-2.595 10.5-3.187l3.406-.543c2.763-.241 4.507-.164 7.094.73"/><path fill="#BB555C" d="M345 321v2l-20 2v-2c6.618-2.463 13.004-2.19 20-2"/><path fill="#BCC2C8" d="m322 184 2 1c.355 6.03-1.318 10.31-5 15-.327-6.13-.394-10.627 3-16"/><path fill="#74787C" d="m266 105 2 2c-.375 2.625-.375 2.625-1 5h7v3c-6.625.125-6.625.125-10-1 .875-6.75.875-6.75 2-9"/><path fill="#BC4153" d="m338.11 404.902 2.285.01 2.355.026 2.402.013q2.925.02 5.848.049c-4.192 2.246-7.75 3.147-12.5 3.188l-2.281.042c-2.468-.256-4.083-1.002-6.219-2.23 2.777-.787 5.226-1.12 8.11-1.098"/><path fill="#EDF2F5" d="M165 240c5.71 1.308 10.286 3.486 15 7v1c-8.914-.755-8.914-.755-13-4-1.312-2.187-1.312-2.187-2-4"/><path fill="#C3C8CE" d="M260 108h1v6h6v4h-13v-1h6z"/><path fill="#7B7B7B" d="m453 58 5 2v2l1.703.773c2.59 1.384 4.748 3.026 7.047 4.852l2.422 1.914L471 71l-2 2-1.687-1.574C462.458 66.99 457.683 63.307 452 60z"/><path fill="#C54F59" d="M361 358c3.64 5.46 2.95 9.771 2 16h-2l-1 4c-1-3-1-3 0-6 .226-2.393.408-4.79.563-7.187l.253-3.856z"/><path fill="#5B5F64" d="M193 270h9l1 2h8v3c-6.028.393-11.404-.663-17-3z"/><path fill="#4D5156" d="M457 235h2l-1 4-4 1v2l-10 5c1.254-3.76 2.707-4.476 5.938-6.687l2.714-1.887C455 237 455 237 457 237z"/><path fill="#7D848B" d="m226 131 1 2-20-1v2l-10-2v-1c21.256-1.637 21.256-1.637 29 0"/><path fill="#6C6F72" d="m132 201 2 1v2h2v2l3 1v2l1.813.75c2.473 1.414 3.62 2.9 5.187 5.25-3 0-3 0-5.918-2.625a350 350 0 0 1-3.27-3.375l-1.693-1.734c-1.38-1.416-2.75-2.84-4.119-4.266z"/><path fill="#D0D8DB" d="m315 200 2 2c-.543 6.087-.543 6.087-2 9h-2l-1 2-1-7 4-2z"/><path fill="#879193" d="M453 85c3.83 1.453 5.12 3.429 7 7l-3 1-2 2a328 328 0 0 1-1.562-3.875l-.88-2.18C452 87 452 87 453 85"/><path fill="#6F7575" d="m439 72 7 5-1.89.71c-2.713 1.658-3 2.904-3.86 5.915l-.734 2.477L439 88c-1.182-3.547-.893-5.975-.562-9.687l.308-3.575z"/><path fill="#C14753" d="M314 400c10.93.21 10.93.21 14.188 3.563L330 406c-6.21-.444-10.605-1.915-16-5z"/><path fill="#C55862" d="M473 388h2c-.538 6.182-2.546 11.327-5 17h-1c-.45-5.708 1.069-10.687 3-16z"/><path fill="#545A5D" d="M245 222c4.934 5.286 7.406 12.026 9 19h-2c-7-13.759-7-13.759-7-19"/><path fill="#EBF1F4" d="M241 136h7l1 4h-5l-1 3h-2z"/><path fill="#C64759" d="M268 334c.982 3.057 1.077 4.964 0 8l-2 3h-3v2h-2c1.199-3.083 2.477-6.063 4-9h2z"/><path fill="#BF5057" d="M307 334c.75 1.625.75 1.625 1 4-1.812 3.25-1.812 3.25-4 6h-2v2h-2c1.361-5.198 3.467-8.095 7-12"/><path fill="#606569" d="M103 217h2l1.688 2.375c2.86 3.247 5.148 3.744 9.312 4.625l-2 5c-8.366-7.05-8.366-7.05-11-10z"/><path fill="#B0B4B7" d="M505 171c1 2 1 2-.215 5.695a465 465 0 0 1-1.723 4.43l-.88 2.285Q501.1 186.208 500 189h-3v-2h2l.938-2.875C501 181 501 181 502 179l-2-1 1-2h3z"/><path fill="#6A6A6A" d="M435 48c4.576.56 7.98 2.524 11.813 4.938l1.81 1.091c1.498.93 2.943 1.945 4.377 2.971v2c-3.602-1.349-6.83-2.957-10.125-4.937l-2.57-1.528c-2.053-1.367-3.649-2.722-5.305-4.535"/><path fill="#55595C" d="M88 198c4.84 4.538 9.147 9.598 13 15v2h-2a119 119 0 0 1-5.062-6.25l-1.393-1.777c-2.266-2.961-3.811-5.325-4.545-8.973"/><path fill="#7C8286" d="M259 144h2v13l-3 1z"/><path fill="#A7ACAB" d="M268 93c1.456 4.52.27 7.516-1 12-2.197-1.739-2.935-2.638-3.437-5.437.563-3.298 1.926-4.445 4.437-6.563"/><path fill="#606060" d="m99 85 2 1q-2.402 3.159-4.812 6.313l-1.37 1.802C92.684 96.905 90.59 99.617 88 102c.608-3.95 2.58-6.462 4.938-9.625l2.152-2.914C97 87 97 87 99 85"/><path fill="#D2D6DB" d="M305 68c3 1 3 1 4.688 4.063L311 75c-2.648 0-4.516-.172-7-1l-1-2c.938-2.125.938-2.125 2-4"/><path fill="#ADB4BA" d="M296 32h22v1h-16v2l-5 1z"/><path fill="#7F8284" d="M193.39 28.883 195 30a886 886 0 0 1-5.75 2l-3.234 1.125C183 34 183 34 179 34v-2c1.91-.727 3.828-1.43 5.75-2.125l3.234-1.195C191 28 191 28 193.391 28.883"/><path fill="#BC4753" d="M450 396h1l-1 7 13 1v1h-16z"/><path fill="#C13F4D" d="m330 389 2.195.254c5.14.541 9.719.983 14.805-.254l-1 4q-3.438-.212-6.875-.437l-3.867-.247C332 392 332 392 330 391z"/><path fill="#BE4652" d="m461 370 2 4h-2v6h-2v3h-2v3h-2c1.72-5.449 3.847-10.712 6-16"/><path fill="#4A5154" d="M240 280c10.558-.369 10.558-.369 15 2v1q-2.594.04-5.187.063l-2.918.035c-2.75-.093-5.22-.477-7.895-1.098z"/><path fill="#666C74" d="M441 240h4v2l3 1-3 2-2 3-2-1c-1.262-4.475-1.262-4.475 0-7"/><path fill="#A5ACB1" d="m470 199 2 2-2 2 2 1c-2.66 3.442-5.903 3.995-10 5q1.435-1.939 2.875-3.875l1.617-2.18C468 201 468 201 470 199"/><path fill="#6E7074" d="M318 172h1c.369 12.67.369 12.67-2 18-1.963-2.796-2.001-3.992-1.54-7.453.303-1.253.604-2.506.915-3.797l.898-3.828z"/><path fill="#969A9E" d="M243 91c2.491 3.737 2.207 5.745 2.125 10.188l-.055 3.855L245 108h-1c-1.903-5.828-3.004-10.989-1-17"/><path fill="#C24B55" d="M295 325c-1.45 4.11-3.511 7.433-6 11-1.465-3.81-.552-6.324 1-10 2-1 2-1 5-1"/><path fill="#45484E" d="M321 253c0 3 0 3-1 5h8c-4.423 2.577-7.97 2.148-13 2z"/><path fill="#7E8284" d="M264 162h1l1 16c-2.868-3.824-3.424-4.709-3.812-9.125l-.27-2.633C262 164 262 164 264 162"/><path fill="#626566" d="M217 105c5.915.452 11.352 1.158 17 3v1a440 440 0 0 1-6.25-.312l-3.516-.176c-3.342-.53-4.784-1.25-7.234-3.512"/><path fill="#474F52" d="M450 100h7l1 7c-3.403-1.012-4.757-1.648-6.812-4.625z"/><path fill="#EEF2F4" d="m123 87 2 1c-1.674 3.957-4.131 6.845-7 10h-2c.301-3.613.709-4.745 3.5-7.187L122 89z"/><path fill="#D5D7D8" d="M255 65c1 2 1 2 .223 4.602l-1.16 3.023-1.153 3.04L252 78l-2-1 1-9h2v-2z"/><path fill="#C54855" d="M476 335h2c-.75 7.625-.75 7.625-3 11h-3q.716-2.188 1.438-4.375l.808-2.46C475 337 475 337 476 335"/><path fill="#BF3746" d="M453 325h1v14h-12l6-3 5 2z"/><path fill="#8B9199" d="m325 270-2 3a76 76 0 0 1-8.625-.312l-2.43-.186A523 523 0 0 1 306 272v-1c6.373-.745 12.583-1.103 19-1"/><path fill="#4D5558" d="M422 258c-1.395 2.79-3.014 3.039-5.875 4.188l-2.68 1.105C411 264 411 264 408 263a291 291 0 0 1 4.188-2.5l2.355-1.406c2.698-1.201 4.538-1.301 7.457-1.094"/><path fill="#5A5E61" d="M498 191c1 3 1 3-.11 5.48-.54.894-1.082 1.787-1.64 2.708l-1.61 2.73L493 204h-3c1.214-3.456 2.383-5.488 5-8 1.034-1.646 2.04-3.31 3-5"/><path fill="#595D61" d="M196 131c2.82.46 2.82.46 6.125 1.375l3.32.898L208 134v2c-4.97-.514-9.29-1.234-14-3z"/><path fill="#C0495B" d="M158 338h5c-1.342 4.026-3.487 4.752-7 7-1.794 1.624-1.794 1.624-3 3 0-4 0-4 1.375-5.75C156 341 156 341 158 341z"/><path fill="#D9E1E7" d="M266 268v2h6v1l-22-1v-1q2.593-.255 5.188-.5l2.917-.281c2.647-.2 5.243-.258 7.895-.219"/><path fill="#B7C0C4" d="M273 264c3.724 1.213 7.378 2.509 11 4v1h-12v-2l2-1z"/><path fill="#7D878D" d="M445 228c-2.332 3.498-4.295 4.187-8 6l-1 2c-2-1-2-1-3-3 7.114-5.74 7.114-5.74 12-5"/><path fill="#9DA3A8" d="M183 123h10v3c-7.75.125-7.75.125-10-1z"/><path fill="#5F6062" d="M313 96c2 1 2 1 2.852 3.145l.773 2.668c.39 1.309.39 1.309.79 2.644C318 107 318 107 318 111h-2q-.755-2.904-1.5-5.812l-.844-3.27C313 99 313 99 313 96"/><path fill="#C3C8C9" d="M316 44c3.596 3.494 6.835 7.111 10 11h-3v-2l-1.812-.812c-2.23-1.211-3.643-2.18-5.188-4.188z"/><path fill="#87898B" d="M227 21c-4.759 2.38-7.548 3.101-13 3l-1-2c5.16-1.513 8.66-2.335 14-1"/><path fill="#BFC5C8" d="M479 184c1 3 1 3-.625 6.438-1.97 3.252-4.233 5.38-7.375 7.562l4-8h2l.438-2.437C478 185 478 185 479 184"/><path fill="#BCC0C2" d="M261 103c2.063 1.563 2.063 1.563 4 4-.25 3.75-.25 3.75-1 7h-3z"/><path fill="#BF4753" d="M237 363c3.872 1.256 6.028 2.368 8 6 .188 2.75.188 2.75 0 5-3.67-3.277-5.693-6.715-8-11"/><path fill="#53585E" d="M388 272q-2.186.755-4.375 1.5l-2.46.844C379 275 379 275 377 275v-3c6.964-2.41 6.964-2.41 11 0"/><path fill="#80888E" d="M266 256c3.796.542 5.472 2.201 8 5l-1 3-3-2c-1.99-.39-3.99-.732-6-1l4-2-2-1z"/><path fill="#5F6063" d="M145 215c4.49 1.497 8.478 3.834 12 7v2c-3.342-.597-5.464-1.736-8-4v-2l-4-2z"/><path fill="#9BA1A7" d="M400 123v2c-4.327 2.23-7.284 1.925-12 1v-2c4.085-.545 7.873-1 12-1"/><path fill="#9FA8AD" d="M176 119c5.957-.293 5.957-.293 8 0l3 3h-10z"/><path fill="#C9CACC" d="m319 101 2 1c.22 3.856-.396 6.492-2 10h-1l-1-10z"/><path fill="#999CA2" d="M389 56c2.375-.187 2.375-.187 5 0l2 3c2.05 1.192 2.05 1.192 4 2h-2l-1 2a396 396 0 0 1-4-2.375c-.743-.44-1.485-.882-2.25-1.336L389 58z"/><path fill="#CACCCD" d="m370 24 13 3-1 3-5-1v-2l-2.375.188L372 27z"/><path fill="#C14D58" d="m184 385 3 1-2 1-1 3c-3.473 1.158-6.36 1.069-10 1 3.225-1.737 6.513-2.89 10-4z"/><path fill="#E4E8EF" d="M210.043 257.242 216 259v2c-7.429.286-7.429.286-11-2 3-2 3-2 5.043-1.758"/><path fill="#EFF4F8" d="M440 226v3c-1.426 1.422-1.426 1.422-3.312 2.75l-1.864 1.36C433 234 433 234 430 233l4-1 .188-1.875C435 228 435 228 437.563 226.75z"/><path fill="#565C60" d="M264 175c3.268 4.903 4.28 9.132 4 15l-2-1c-.633-2.145-.633-2.145-1.125-4.812l-.508-2.645C264 179 264 179 264 175"/><path fill="#ABB3B7" d="m472 140 2 4h2l-2 14h-1z"/><path fill="#565B63" d="M386 132v2c-3.508 1.604-6.144 2.22-10 2l1-3c3.153-.7 5.727-1 9-1"/><path fill="#848A8E" d="M189 123h-6v2l-4-1-1 2-3-3c2.386-1.193 4.35-1.391 7-1.687l2.688-.325C187 121 187 121 189 123"/><path fill="#BDBFC1" d="M335 75c2.03 3.315 2.127 5.432 1.625 9.25l-.336 2.703L336 89c-2-2-2-2-2.187-5.875.067-2.84.282-5.41 1.187-8.125"/><path fill="#BABDBE" d="M328 60c2.53 3.132 4.45 6.278 6 10-.312 2.375-.312 2.375-1 4l-1.375-2.875c-1.427-3.128-1.427-3.128-3.625-5.125-.125-3.125-.125-3.125 0-6"/><path fill="#ACB2B7" d="m176 58 3 2c-2.834 3.254-4.686 4.52-9 5 1.393-3.367 2.979-4.986 6-7"/><path fill="#C84D59" d="M523 372c2.686 2.686 3.06 5.376 4 9l-2 2c-2-2-2-2-2.195-4.164l.07-2.461.055-2.477z"/><path fill="#C35058" d="M315 354h2v20h-2c-.196-3.145-.38-6.291-.562-9.437l-.17-2.721-.147-2.588-.143-2.396C314 355 314 355 315 354"/><path fill="#C0364C" d="m386 325 4 1-2 3c-.242 2.516-.242 2.516-.125 5.188l.055 2.73L388 339h-2z"/><path fill="#C14552" d="M480 325h7l-1.875.875c-3.75 1.985-4.705 4.27-6.125 8.125h-2z"/><path fill="#4A4F52" d="m182 264 1 2c2.113.907 2.113.907 4.563 1.625.826.26 1.652.52 2.503.79L192 269c-2.551.93-3.74 1.086-6.36.223l-2.39-1.16-2.422-1.153L179 266z"/><path fill="#A4ABB1" d="m245 194 2 1-.125 2.563c.14 3.86.953 6.774 2.125 10.437l-2 1c-2.026-3.35-2.217-5.87-2.125-9.75l.055-2.984z"/><path fill="#747B81" d="M209 135h15l-2 3c-4.38-.52-8.688-1.057-13-2z"/><path fill="#A5AAAD" d="M109 110h2l-1 5h-2v7h-3c2-8.571 2-8.571 4-12"/><path fill="#8E9094" d="M319 112v3h-9v-3c6.75-1.125 6.75-1.125 9 0"/><path fill="#B1B8BB" d="M154 102c2.954 1.372 5.44 2.989 8 5l-1 2c-2.915-1.074-4.778-1.778-7-4z"/><path fill="#868D93" d="M125 99h1v12l-5 1v-3h2z"/><path fill="#464A4E" d="m145 88 1 6-1-3-2.312 2.063L140 95l-3-1h2l.313-1.875C140.278 89.141 141.836 88 145 88"/><path fill="#BC363F" d="m150 347 1 3h-2l.105 1.863.083 2.45.105 2.425c-.355 2.74-1.187 3.554-3.293 5.262-.235-4.82.548-8.463 2-13h2z"/><path fill="#BF4F5D" d="M377 346c2.313 2.313 2.496 3.479 3.125 6.625l.508 2.477L381 357h-2c-2.68-4.019-2.156-6.242-2-11"/><path fill="#747475" d="m402 236 2 2a205 205 0 0 1-3.75 2.063l-2.11 1.16C396 242 396 242 392 241z"/><path fill="#979FA6" d="M252 226c2 2 2 2 2.125 5.125L254 234l-4-1-1-4h2z"/><path fill="#D7DEE3" d="m480 172 1 2c-.996 2.602-.996 2.602-2.437 5.625l-1.434 3.04L476 185c-1-2-1-2-.25-5.375 1.098-3.185 2.057-5.133 4.25-7.625"/><path fill="#7B7F81" d="M435 94c1.188 1.688 1.188 1.688 2 4-1.375 2.75-1.375 2.75-3 5l-3-1 2-5h2z"/><path fill="#B5B8BD" d="m176 69 3 1v13l-3-1z"/><path fill="#5A5C61" d="M390 59c4.993 1.277 7.576 3.173 11 7l-1 2-3-2v-2l-1.812-.812c-2.16-1.173-3.546-2.382-5.188-4.188"/><path fill="#C6535B" d="M379 371h2c-.508 4.318-1.197 8.033-3 12h-1q.214-2.157.438-4.312c.08-.801.162-1.602.246-2.426C378 374 378 374 379 371"/><path fill="#C84A58" d="M354 324c3.62 1.502 6.732 2.821 10 5l-1 3q-2.257-1.426-4.5-2.875l-2.531-1.617L354 326z"/><path fill="#838991" d="M257 238c2 1 2 1 3.125 3.313C261 244 261 244 261 248h-3l-2-4h2z"/><path fill="#DEE5EA" d="M146 228c2.763.523 5.326 1.109 8 2l-1 3v-2h-3l1 3c-1.937-.75-1.937-.75-4-2-.75-2.125-.75-2.125-1-4"/><path fill="#80878B" d="m474 216 7 1-1 3h-6z"/><path fill="#5A6062" d="M460 113c2.948 2.744 5.228 5.362 7 9l-1 3q-1.228-1.87-2.437-3.75l-1.372-2.11c-1.152-2.07-1.738-3.827-2.191-6.14"/><path fill="#505456" d="M165 116c3.219.63 5.508 1.78 8.25 3.563l2.14 1.378L177 122c-1.734.68-1.734.68-4 1-2.14-1.18-2.14-1.18-4.25-2.875l-2.14-1.68L165 117z"/><path fill="#C1C8CD" d="m211 105 8 1c-3.75 1.125-3.75 1.125-6 0l1 4-6-1z"/><path fill="#8A8D93" d="M340 92c2.68 4.019 2.156 6.242 2 11l-3 1z"/><path fill="#BEC5C9" d="M153 94h10c-3 3-3 3-5.562 3.375L155 97z"/><path fill="#4B5154" d="M191 60c-1.099 3.297-1.946 4.047-4.562 6.188l-1.942 1.605L183 69l-2-1 5-5 1.688-1.812C189 60 189 60 191 60"/><path fill="#E7E9E8" d="M453 61c3.342.597 5.464 1.736 8 4v2c-4 0-4 0-6.25-1.875C453 63 453 63 453 61"/><path fill="#B94B4D" d="M213 355h1l1 11-3-2c-.471-2.743-.178-5.196 0-8z"/><path fill="#C84F59" d="m493 347 4 2v5l2 1-3 1z"/><path fill="#C2444F" d="M338 336c7.508-.37 7.508-.37 10 1.5l1 1.5-1 2-10-4z"/><path fill="#E0E8ED" d="m445 220 2 1-1.937.688c-2.335 1.165-2.335 1.165-2.813 3.937L442 228c-3 0-3 0-5-1 1.375-1.5 1.375-1.5 3-3h2v-2z"/><path fill="#8B9398" d="M267 209c3.861 2.574 3.943 4.61 5 9l-4-1z"/><path fill="#878F95" d="m206 108 11 3v1c-7.488.368-7.488.368-10-1.437-1-1.563-1-1.563-1-2.563"/><path fill="#C4C8D1" d="m416 92 1 3c-3.982 1.054-6.982.841-11 0v-1c6.625-2 6.625-2 10-2"/><path fill="#9FA5AB" d="M401 54q2.004 1.213 4 2.438l2.25 1.37L409 59v1c-3.146.262-4.618.248-7.312-1.5L400 57z"/><path fill="#C84454" d="M512 399c2.875 1.289 4.925 2.614 7 5v1h-5z"/><path fill="#C13F54" d="M366 392h5a418 418 0 0 1-2.875 3.5l-1.617 1.969L365 399h-2v-2l2-1c.652-2.025.652-2.025 1-4"/><path fill="#C95066" d="m156 384 9 6c-5.625.25-5.625.25-9-2z"/><path fill="#C94B60" d="m320 381 8 6-2 2-4-2v-3h-2z"/><path fill="#CE5568" d="m297 350 1 2h2v5l-4 1z"/><path fill="#C5454D" d="m260 348 3 1c-.75 1.938-.75 1.938-2 4-2.125.75-2.125.75-4 1 1.875-4.875 1.875-4.875 3-6"/><path fill="#C25B65" d="M132 345h1c.196 4.219-.198 7.17-2 11h-2q.465-2.188.938-4.375l.527-2.46C131 347 131 347 132 345"/><path fill="#888D93" d="m374 261-2 3c-2.602.293-2.602.293-5.625.188l-3.04-.083L361 264c4.508-2.306 7.903-3.142 13-3"/><path fill="#565B5F" d="M131 240c3.861.623 5.276 2.276 8 5-4.68 0-5.621-.996-9-4z"/><path fill="#D3D9DC" d="m306 214 4 3c-2.052 2.248-3.007 3.002-6 4 0-3.106.54-4.353 2-7"/><path fill="#828689" d="M271 203c2.395.743 3.708 1.47 4.934 3.691.738 1.75 1.406 3.528 2.066 5.309l-2 1-1-4h-2z"/><path fill="#5E6164" d="M125 192c3.394 3.126 5.606 5.565 7 10a367 367 0 0 1-3.437-2.812l-1.934-1.583C125 196 125 196 124 193z"/><path fill="#4E5456" d="M123 111h2c-1.312 3.937-2.92 6.227-6 9 1.75-6.75 1.75-6.75 4-9"/><path fill="#D2D9DC" d="m213 106 8 1-1 3h-6z"/><path fill="#5F6264" d="M277 79h2c-1.335 3.594-2.96 6.755-5 10-1-3-1-3-.223-4.824z"/><path fill="#D4D9D9" d="m325 56 1 3h2v8c-2.009-3.013-3.04-5.527-4-9z"/><path fill="#C54256" d="M166 404h2v2h6l1 2h-8z"/><path fill="#F4F9FC" d="M364 262c-3.035 2.024-4.194 2.321-7.687 2.625l-2.45.227L352 265c3.76-3.76 6.973-3.251 12-3"/><path fill="#787A7C" d="M211 248c2.164.242 2.164.242 4.625.875l2.477.617L220 250c-3.28 1.959-3.762 2.056-7.75 1.125L209 250z"/><path fill="#EDF2F5" d="M181 248c3.688.498 5.605 1.1 8 4l-8-1z"/><path fill="#7B878C" d="m322 244 1 2 3-1c-1 3-1 3-3 4v2h-3c.875-5.875.875-5.875 2-7"/><path fill="#949CA0" d="m464 209 1 3-1.937.313L461 213l-1 3-4-1a376 376 0 0 1 2.875-3l1.617-1.687C462 209 462 209 464 209"/><path fill="#B1B6B9" d="m83 185 5 1-1 7c-2.9-2.395-3.502-4.312-4-8"/><path fill="#A1A7AB" d="M260 178h1l.375 2.438L262 183l2 1-1 5c-2.603-2.712-2.995-3.891-3.187-7.75z"/><path fill="#F4F8FC" d="M100 168h2l1 9h-2z"/><path fill="#595D61" d="M375 136c-1 1.563-1 1.563-3 3-2.766-.033-5.26-.506-8-1 3.634-2.326 6.77-2.163 11-2"/><path fill="#9DA4A6" d="M468 126h4c.125 3.375.125 3.375 0 7l-2 2z"/><path fill="#A3AAB2" d="m413 115-2 4-5-1v-2c2.463-1.231 4.28-1.072 7-1"/><path fill="#6C7477" d="M448 80c2.5 1.625 2.5 1.625 5 4 .313 3.25.313 3.25 0 6-2-1-2-1-2.852-3.066l-.773-2.496c-.26-.827-.52-1.653-.79-2.504z"/><path fill="#D1D5D7" d="M228 22c2.875-.125 2.875-.125 6 0l2 2c-2.957 1.478-5.742 1.06-9 1z"/><path fill="#BF4E59" d="M189 400h6c-3.61 3.291-6.126 4.547-11 5l2-2h3z"/><path fill="#CD576B" d="m204 387 2 4-6 5 1-5h3z"/><path fill="#C95063" d="M527 382c2.503 2.938 3.47 5.179 4 9h-3z"/><path fill="#C24853" d="M203 336c4.875 4.625 4.875 4.625 6 8l-2 2v-4l-3-1z"/><path fill="#D9E1E5" d="M396 248v2l4 2c-3.287.8-4.71 1.097-8 0l-1-3c3-1 3-1 5-1"/><path fill="#DBDCDE" d="m392 244-1 4h-6v-2c2.647-1.46 3.894-2 7-2"/><path fill="#EFF5F8" d="M120 206c2.438.75 2.438.75 5 2 .813 2.125.813 2.125 1 4-2.622-1.049-3.794-1.65-5.25-4.125z"/><path fill="#C5CBCF" d="m120 189 3 1 1 5h-4z"/><path fill="#969A9F" d="M274 112v3c-3.375.125-3.375.125-7 0l-2-2c2.957-1.478 5.742-1.06 9-1"/><path fill="#6F7477" d="m210 102 9 2-3 2c-3.687-.875-3.687-.875-7-2z"/><path fill="#CFD0D4" d="m262 49 2 2-1.375 2.25A89 89 0 0 0 259 60c-.37-6.4-.37-6.4 1.5-9.437z"/><path fill="#51575C" d="M267.063 39.938 270 40l-5 6v-3l-2-2c1-1 1-1 4.063-1.062"/><path fill="#C84853" d="M531 392c3 3.625 3 3.625 3 7l-4-1z"/><path fill="#CB4F5B" d="M518 360c2.503 2.938 3.47 5.179 4 9l-3-1v-4l-2-1z"/><path fill="#C54F52" d="m190 342-1 5-5-5c3.75-1.125 3.75-1.125 6 0"/><path fill="#CA5560" d="m411 337 2 3-2 4v-4h-10v-1h10z"/><path fill="#696C6E" d="M350 255c-3.402 2.094-6.053 2.18-10 2v-2c3.695-.95 6.305-.95 10 0"/><path fill="#E1E6EB" d="M434 230v2l-3 1v3l-5-2c5.217-4 5.217-4 8-4"/><path fill="#BBC0C2" d="m443 211 1 3-6 5-2-2z"/><path fill="#C6CBCF" d="M240 136c.934 3.01 1.044 3.867 0 7l-4-1 1-3h2z"/><path fill="#D6DBE0" d="M353 110h6l-1 3h-5z"/><path fill="#898989" d="m104 79 3 1-5 5-3-1z"/><path fill="#EAEDF1" d="m175 53 6 1a91 91 0 0 1-4 4h-2z"/><path fill="#C5525B" d="m210 377 2 1c-1.75 5.75-1.75 5.75-4 8l-1-3 1-2h2z"/><path fill="#BB4353" d="M249 349c2.063 2.313 2.063 2.313 4 5l-1 3c-2.062-2.312-2.062-2.312-4-5z"/><path fill="#BF3E49" d="m305 339 1 3-4 2v2h-2l2-5h3z"/><path fill="#C7495F" d="M155 324v3c-4.625 2.125-4.625 2.125-8 1z"/><path fill="#555A5D" d="m344 279 5 1-1 2h-8l4-1z"/><path fill="#6B7879" d="m323 247 2 3-2 4h-3v-3h3l-1-3z"/><path fill="#71797F" d="M176 249c3.375.547 5.082 1.055 8 3l-6 1z"/><path fill="#6B7176" d="m452 233 6 1c-1 3-1 3-3.062 4.188L453 239l1-5z"/><path fill="#535355" d="m419 227 3 1c-2.812 2.063-2.812 2.063-6 4l-3-1c2.813-2.062 2.813-2.062 6-4"/><path fill="#C0C8CA" d="M314 197h1v7l-4 2z"/><path fill="#555559" d="m454 197 2 1-6 7c0-3.908 1.506-5.116 4-8"/><path fill="#A2A6AB" d="m497 190 1 2c-.777 1.727-.777 1.727-1.937 3.625L494 199l-2-3z"/><path fill="#BFC5C5" d="M505 171c1 2 1 2 .063 5.125L504 179l-4-1 1-2h3z"/><path fill="#4E5258" d="M394 128v3l-7 2c2.462-3.815 2.462-3.815 5.188-4.75z"/><path fill="#687179" d="M393 117h9l-2 3c-2.962-.613-4.38-1.254-7-3"/><path fill="#AFB5B8" d="m163 110 5 1v3l-5-1z"/><path fill="#B4BABE" d="m428 99 3 3-1 3h-4z"/><path fill="#C2C4C7" d="M437 88c1 3 1 3 0 6h-3l-1-4h4z"/><path fill="#EDEDED" d="m107 79 1 2-2 3h-2v2l-3 1c1.443-3.366 3.333-5.51 6-8"/><path fill="#7A7A7A" d="M151 46v2c-2.312 1.688-2.312 1.688-5 3l-3-1c2.426-2.657 4.24-4 8-4"/><path fill="#5F6163" d="M400 32c6.523.615 6.523.615 8.938 2.563L410 36c-4.22-.48-6.797-1.166-10-4"/><path fill="#BABEC4" d="M261 16h9c-1.625 1.563-1.625 1.563-4 3-3.25-.312-3.25-.312-6-1z"/></svg>