<svg xmlns="http://www.w3.org/2000/svg" width="5120" height="2880" version="1.0" viewBox="0 0 3840 2160"><path d="M435 672.4c0 .2 1.4.6 3 .8 1.7.3 3 .1 3-.4 0-.4-1.3-.8-3-.8-1.6 0-3 .2-3 .4M442.8 673.7c.7.3 1.6.2 1.9-.1.4-.3-.2-.6-1.3-.5-1.1 0-1.4.3-.6.6M450 673.9c0 .3.7 1.5 1.5 2.5 1.4 1.9 1.5 1.9 1.5-.5 0-1.6-.6-2.6-1.5-2.6-.8 0-1.5.3-1.5.6"/><path d="M454 675.8c0 .7.7 1.5 1.5 1.8.8.4 1.5 1.5 1.5 2.5 0 1.2.7 1.9 1.9 1.9 1.4 0 1.7.6 1.3 2.5-.2 1.5 0 2.5.7 2.5.6 0 1.1.7 1.1 1.6 0 1.3.9 1.5 4.4 1.3 2.4-.2 4.8.1 5.4.7.9 1 9.1 2.9 16.2 3.8 1.4.2 3.2.6 4 .9s6.5 1.7 12.5 3.2c48.3 12 96.1 34.8 137 65.1 37.7 27.9 75.3 68.5 98.2 105.9 1.9 3 12.3 20.6 13.9 23.5 5 8.9 13.4 27.3 12.8 28.2-.4.6-.3.8.3.5 1.2-.7 6.6 13 5.7 14.5-.5.7-.2.8.6.3.9-.6 1-.2.5 1.5-.5 1.5-.3 2 .3 1.6 1.3-.8 2.6 2.9 1.6 4.5-.5.8-.3.9.6.4 1-.6 1.2-.4.7.9-.5 1.1-.3 1.5.5 1s.9.3.5 2.7c-.4 2-.4 2.9.2 2.1 1.1-1.8 3.3 4.1 2.4 6.6-.3.9-.2 1.4.2.9 1.2-1.1 5.3 11.9 4.6 14.7-.1.5.4 1.3 1.1 1.8 1.1.6 1.1 1 0 1.6-1 .7-1 1.1.3 2.2 1.1.9 1.4 2.3 1 4.4-.3 2.2-.3 2.5.3 1.1.8-1.8.9-1.7 1.5.7.4 1.5.4 3.3.1 4.1s.2 4.9 1 9c15.2 73.4 9.3 148.2-17.1 218.7-6.1 16.2-19.9 45.9-24.4 52.1-1 1.5-1.9 3.1-1.9 3.6s-1.5 3.1-3.3 5.8c-1.8 2.8-4.4 7-5.9 9.5s-3.3 5.4-4.2 6.5c-.8 1.1-3.6 5.1-6.2 9-7.1 10.6-20 26.5-20.8 25.7-.4-.4-.6-.2-.4.4.6 2.2-35.6 40.4-38.3 40.4-.7 0-1 .3-.6.6.3.3-1.5 2.2-4.1 4.2-2.6 1.9-4.9 3.8-5.2 4.1-1.6 2-12.8 11.1-13.7 11.1-.5 0-1.8.9-2.8 2-1.4 1.5-27.1 18.9-35 23.7-46.9 28.2-101 46.2-158 52.5-18 2-65.3 1.7-83.5-.6-8-.9-15.6-2-17-2.2-2-.5-2.2-.3-1 .5 2.4 1.7.2 1.3-2.5-.5-1.8-1.2-3.5-1.4-6.1-.9-2.4.4-3.4.3-2.9-.4.3-.6.2-1.1-.4-1.1-.5 0-1.7-.3-2.7-.7-1.2-.4-1.5-.3-1 .5 1 1.7-.3 1.5-2.1-.3-1.1-1.1-1.9-1.3-2.7-.5-.7.5-1.6.7-2 .3s-1.9-.9-3.4-1.1c-1.4-.2-3.2-.8-3.9-1.4-.7-.5-1.8-.6-2.4-.2-.8.4-.9.3-.5-.5.5-.8 0-1-1.8-.7-3.1.6-15-2.6-13.9-3.7.4-.5 0-.5-1-.1-.9.3-1.7.2-1.7-.2 0-.5-1.4-1-3.1-1-1.7-.1-3.4-.7-3.8-1.3-.5-.7-1.2-1.1-1.7-1-1.7.5-7.4-1.3-7.4-2.2 0-.6-.4-.8-.9-.4-2 1.2-46-18.2-46.9-20.6-.2-.5-.7-.7-1.1-.4-1.2.7-20.7-10.5-36.5-20.9-88.2-58-149.8-151.2-169-255.6-8.3-45-8.6-94.5-1-138.8 1.3-8.1 2.9-16.2 3.4-18 .5-1.9.6-4 .3-4.8s0-2.1.6-2.8c.7-.8.9-2.5.5-4-.3-1.5-.2-2.6.4-2.6.5 0 1.2-1.4 1.4-3.1.4-2.2 0-3.3-1.4-4-1-.5-1.8-1.6-1.8-2.4 0-1.5-1.9-5.5-3.1-6.5-.3-.3-1-2.1-1.7-4-.9-2.7-1.1-2.9-.8-.8.2 2-.1 2.5-1.2 2-1.2-.4-1.4.1-1 2.1.3 1.7.1 2.4-.5 2s-.8 0-.4 1c.3.9.2 1.7-.2 1.9-.5.2-2.5 7.1-4.5 15.4-25.5 106.9-7.5 219.5 50.1 311.9 93.9 150.7 272.3 222.9 444.4 180 44.3-11.1 90.8-31.9 127.9-57.3 75.6-51.7 130.8-124.8 158.9-210.5 15.6-47.4 22.1-95.4 19.9-146.5-6.3-149.9-94.1-283.7-229.2-349.3-32.1-15.5-62.3-25.7-96.1-32.4-20.7-4-24.7-4.6-24-3.5.5.8-2.3.4-5.5-.7-3-1.1-7-.8-7 .5m14.3 12.9c-.7.2-1.9.2-2.5 0-.7-.3-.2-.5 1.2-.5s1.9.2 1.3.5m322.4 304.5c-.3.8-.6.5-.6-.6-.1-1.1.2-1.7.5-1.3.3.3.4 1.2.1 1.9m1 4c-.3.8-.6.5-.6-.6-.1-1.1.2-1.7.5-1.3.3.3.4 1.2.1 1.9m3 15c-.3.8-.6.5-.6-.6-.1-1.1.2-1.7.5-1.3.3.3.4 1.2.1 1.9m1 7c-.3.7-.5.2-.5-1.2s.2-1.9.5-1.3c.2.7.2 1.9 0 2.5m1 6c-.3.8-.6.5-.6-.6-.1-1.1.2-1.7.5-1.3.3.3.4 1.2.1 1.9m1 8.5c-.3 1-.5.4-.5-1.2 0-1.7.2-2.4.5-1.8.2.7.2 2.1 0 3m1 7.5c-.3.8-.6.5-.6-.6-.1-1.1.2-1.7.5-1.3.3.3.4 1.2.1 1.9m-417 429.4c-.3.3-1.2.4-1.9.1-.8-.3-.5-.6.6-.6 1.1-.1 1.7.2 1.3.5"/><path d="M403.6 696.2c-2 1.8-4.3 8-10.7 28.3-4.4 14.3-8.4 26.3-8.8 26.7-.3.4-6.4 1.4-13.6 2.3-89.2 10.9-169.5 57.7-223.4 130.2-29.8 40.2-51.2 90.1-59.5 138.8-6.1 35.6-6.1 78.6-.1 113 3.6 20.7 13 53.8 16 56.9 2.1 2 3.7 6.6 3.7 9.9 0 1.5.3 2.5.8 2.2s1.6.8 2.5 2.4c1.7 3.3 2 5.5.5 3.1-.6-.9-1-1-1-.3s.6 1.6 1.3 2 2 2.4 2.9 4.3l1.7 3.4-7.8 8.6c-11.7 12.8-17.1 19.1-17.1 19.8 0 .2.8-.1 1.8-.8.9-.7.2.1-1.6 1.9-1.7 1.7-3.2 3.4-3.2 3.7 0 .4-2.3 3.1-5 6-4.1 4.3-5 5.9-5 8.8 0 4.5 2.9 7.6 7 7.6 2.5 0 16.1-2.9 52.2-10.9l3.7-.9 5.8 8.2c28.6 39.9 68.6 74.5 112.8 97.7 34.8 18.3 72.1 29.7 115 35.1 15.4 1.9 59 1.6 75-.6 59.2-8 109.6-28.6 156-63.6 25.5-19.3 44.7-38.8 65.8-66.6l7.6-10.1 26.3 5.9c14.5 3.2 27.8 5.7 29.7 5.6 4.4-.4 7.6-4.3 6.7-8.4-.4-1.9-7.6-10.5-19.6-23.7-10.5-11.4-19-20.9-19-21.1s2.7-6.6 5.9-14.3c24.4-57.6 31.8-120.9 21.5-182.3-15-89.4-65.7-167.6-141.5-218.2-5.2-3.4-10.5-6.9-11.9-7.6-9.7-5.2-20.7-11.8-21.8-13.1-.8-.9-1.1-1-.7-.4.4.9.1 1.1-.9.7-.9-.3-1.3-1.1-.9-1.7.3-.5.1-.7-.5-.3-1.2.7-6.3-1.3-7.4-2.9-.4-.5-.8-.7-.8-.2 0 1.1-6.2-2.3-7.8-4.2-.8-1-1.1-1-.6-.2.5 1.1.3 1.3-1 .8-1-.4-2-.7-2.2-.7-.3 0-.2-.4.1-1 .4-.6-.1-.7-1.1-.3s-2 0-2.6-1.1-1.6-1.5-3-1c-1.3.4-1.8.2-1.4-.4.6-1-5.3-3.6-6.2-2.7-.3.3.1.5.8.5s1.1.3.8.6c-.4.3-1.7 0-3-.7-1.2-.7-2.7-1.2-3.1-1.1-.5.1-.6-.2-.3-.7.8-1.2-15.7-6.4-20.6-6.5-2.3 0-3.2-.4-2.5-.9s-.1-.7-2-.5c-1.9.3-3 0-2.6-.5.4-.6-.7-.8-2.8-.4-2 .4-2.8.3-2.1-.1 2.1-1.4-17.9-5.2-39.9-7.7l-5.6-.6-7.7-24.7c-9.3-29.8-9.3-29.9-12-31.7-3.1-2.3-9.1-1.9-12 .7m7.7-.5c-.7.2-1.9.2-2.5 0-.7-.3-.2-.5 1.2-.5s1.9.2 1.3.5m2.8 10.1c2.2 2 3.8 5.4 6.3 13.7 9.1 29.4 12.9 41.1 13.7 42.1.5.6 4.6 1.4 9.2 1.7 19.6 1.6 64.8 11.8 67.4 15.3 1 1.3 1.3 1.4 1.3.3s.2-1.2.9-.1c.4.8 1.1 1.3 1.5 1.3 2.1-.3 3.4.1 5.2 1.5 1 .8 1.3 1.3.7.9-.7-.3-1.3-.2-1.3.3 0 1.3 2.9 2.4 4.2 1.6.6-.4.5-1-.3-1.5s-.9-.9-.3-.9c1.9 0 2.2 1 1.3 4.8-.9 4 .3 6.4 2.7 5.5 1.5-.5 1.7.9 1.4 7.9-.1 2.1.3 3.8.8 3.8 1.6 0 2.3 5.5 3.2 24.9.6 11.5 1.3 18.7 2 19.1 1.7 1.1 1.9 47.2.3 47.7-.9.3-1.3 2.5-1.3 6.1 0 8-2.2 26.2-3.2 26.2-.4 0-.8 1.8-.8 4 0 3.3-.3 4-2 4-1.1 0-2 .7-2 1.5 0 1.6 1.6 2.1 2.2.6.2-.6 1.6-1.2 3.2-1.5 1.5-.3 5.8-2.3 9.5-4.4 3.6-2.2 8.6-5.1 11.1-6.5s18.6-10.6 35.9-20.6 31.7-17.8 32-17.5 4 6.5 8.2 13.7l7.7 13.1-3.8 1.7c-2 .9-11.7 6.4-21.6 12.1-28.6 16.7-65.2 38-102.9 59.8-19.2 11.1-35.7 20.9-36.5 21.8-.8.8-.9 1.2-.2.8.9-.5 1.2.5 1.2 3.8 0 2.5.3 4.6.6 4.6s2.5-1.1 5-2.5c4.9-2.7 5.8-3 4.9-1.5-1 1.6.1 1.1 1.6-.7 1.2-1.4 1.2-1.6-.1-1-2.6 1.3.9-1 7-4.6 7.2-4.2 11-5.9 11-4.8 0 .5-1.8 1.6-4 2.5-2.3.9-4.3 2.3-4.6 3.1-.4.8-1.1 1.2-1.8.8-.6-.3-.3.3.7 1.4 2.1 2.4 2.2 4.2.2 4.9-.8.4-1.5 1.2-1.5 1.9 0 .8-.9 1.6-1.9 2-1.1.3-2.6 1.7-3.5 3-.9 1.4-2.1 2.5-2.7 2.5-1.7 0-4.1 2.9-3.4 4.1.4.5 0 1.6-.9 2.2-1 .7-1.7 2.8-1.8 4.9-.1 2.7-.6 3.9-2 4.4-2.7.8-.9 2.7 7.1 7.1 3.6 2.1 8.9 5.2 11.8 7 6.1 3.9 6.7 3.9 11 1.3 1.8-1.1 15.3-8.9 30-17.3 28-16.1 35-20.2 93.6-54.1 19.7-11.5 36.1-20.6 36.4-20.3.2.3 4 6.6 8.3 14.1 5.3 9.1 7.4 13.6 6.4 13.6-1.5 0-16.7 8.4-41.4 22.8-12.9 7.6-42.1 24.6-81.5 47.4-25.3 14.7-27 15.8-25.1 15.8s34.1 18.1 40.6 22.9c7.2 5.2 15.1 15.1 19.3 24.1 2 4.1 5.7 18.3 5.7 21.5 0 1.2 1.6 5.4 3.5 9.2 9.2 18.3 30.1 27.3 48.6 20.8l3.6-1.3 22.4 24c12.3 13.2 23.8 25.5 25.4 27.3 1.7 1.9 10.2 11.1 19 20.5s16.1 17.5 16.3 17.9c.4 1.2-2.3 2-4.7 1.4-1.2-.3-1.8-1-1.4-1.7.4-.6-.1-.5-1.1.3-1.5 1.3-1.9 1.3-2.6.1-.5-.8-1.2-1.2-1.5-.8-.4.3-2.1.2-3.8-.4-2.9-.9-4.9-1.2-10-1.6-1.1-.1-1.5-.7-1.1-1.3.5-.8-.1-1-2-.7-1.4.3-2.9.1-3.2-.3-.3-.5-2-.9-3.8-.9s-5.7-.7-8.7-1.7c-3-.9-6.1-1.7-6.9-1.8-3.8-.5-9.6-1.8-10.5-2.4-.5-.3-1.7-.6-2.5-.7-3.9-.2-10-1.8-10-2.6 0-.5-.9-.6-2-.3-1.2.4-2 .2-2-.5 0-.6-1-.8-2.5-.4-1.6.4-2.5.2-2.5-.6 0-.6-.4-.9-.9-.6-1.2.8-20.1-3.6-19.6-4.5.3-.4-.3-.5-1.2-.3-1 .3-4.9-.4-8.8-1.4l-7-1.8-.7-4.2c-1.1-6.4-6.5-15.8-12-20.7-7.8-7-14.6-9.8-25.5-10.3-5.2-.2-10.5 0-12.3.6-2.3.8-2.9.8-2.4 0s.1-.9-1.2-.4c-3.4 1.3-15.8 4.4-20.4 5.2-2.5.3-4.7 1-5 1.4-.8 1.2-15.5-.9-21.3-3-3-1.1-13.7-6.8-23.7-12.5-10.1-5.8-18.4-10.4-18.5-10.3-.1.2-.7 4.8-1.2 10.3-1.1 11-1 49.4.2 114.3.7 36 .6 42.5-.6 43.3-.8.5-7.7.9-15.4.9-9.6 0-14.5.4-15.3 1.2-.9.9-1.2-20-1.2-94.3v-95.5l-13.5-7.8c-7.4-4.3-13.9-8.4-14.3-9.2-.6-1-4 .5-15.2 7l-14.5 8.4v94.5c0 52-.2 94.8-.5 95-.3.3-7.6.7-16.3.9l-15.7.3v-85c0-64.9.3-85.4 1.2-86.3.7-.7 1-1.2.7-1.2s-9.5 5.2-20.5 11.5c-24.4 14.2-29.6 16-44.9 15.9-10-.1-12-.4-22-3.8-10.2-3.6-11.6-3.8-19.7-3.3-18.4 1-32.2 11.8-38.3 30l-2 6-57 13.2c-31.3 7.3-57.8 13.6-58.7 14-1.2.4-1.8.3-1.8-.5s46.6-51.9 53-58c.3-.3 3.6-3.9 7.5-8 3.8-4.1 10.3-11 14.4-15.3l7.5-7.9 7.9 1.6c12.6 2.6 23 .2 33.1-7.4 9.1-7 15.2-18.9 15.9-31.6.2-3 .9-6 1.5-6.6 1.5-1.5 1.6-3.2.2-2.3-.5.3-1 .2-1-.3 0-1.4-2.8-2.3-9-2.8-3-.3-5.8-1-6.2-1.7-.6-.9-1-.8-1.8.3-.8 1.2-1.2 1.2-1.8.3-.4-.7-3.8-2-7.5-2.9s-6.7-2.1-6.7-2.5c0-.5-1.8-.9-4-.9-2.9 0-4-.4-4-1.5 0-1-1.1-1.5-3-1.6-1.6-.1-3.4-.3-4-.4-.5-.1-1.4-.3-2-.4-.5 0-1-.8-1-1.6 0-1-1.6-1.6-5-2.1-3-.4-5-1.2-5-1.9s-1-1.5-2.2-1.8c-4.7-1.2-9.8-3.2-9.8-3.9 0-.5-.9-.8-2-.8s-2-.4-2-.9c0-.9-3.8-2.6-8.4-3.7-3-.7-9.9-6.7-9.4-8.1.2-.5-1.2-.9-3-1.1-2.2-.2-3.2-.8-3.2-2 0-1.6-7.4-6-9.2-5.5-.4.2-.8-.3-.8-1.1 0-.7-1.5-1.7-3.2-2.1-2.9-.7-3-.9-1-1.2 3-.6 2.8-2.3-.2-2.3-3.5 0-5.6-1-5.6-2.6 0-.8-.4-1.4-1-1.4-.5 0-1-.7-1-1.5s-.8-1.5-1.7-1.5c-1 0-2.5-.5-3.3-1-1.3-.9-1.3-1.1 0-2 .8-.5 1-1 .4-1-.5 0-1.5.5-2.2 1.2-.9.9-1.2.7-1.2-1 0-1.2-.6-2.2-1.4-2.2s-1.8-1.4-2.1-3.2c-.4-1.7-1.3-3.8-2-4.5-4.1-4.1 4.4-47 15.5-78.5 6-16.8 21.1-47.8 30.7-63C177.4 846.3 242.3 797 318 774.7c18.5-5.5 43.1-10.3 58.3-11.4 4.8-.3 9-1 9.3-1.5.4-.5 2.1-5.8 3.9-11.6 12.1-38.9 13.4-42.7 16.2-44.9 3.6-3 4.8-2.9 8.4.5m118.4 81c-.3.3-1.1 0-1.8-.7-.9-1-.8-1.1.6-.5 1 .3 1.5.9 1.2 1.2m1 147.2c-.3.5-1.2 1-1.8 1-.7 0-.6-.4.3-1 1.9-1.2 2.3-1.2 1.5 0M84.7 1090.7c-.2 2.1-.4.6-.4-3.2 0-3.9.2-5.5.4-3.8.2 1.8.2 5 0 7m1 17.5c-.2 1.3-.4.3-.4-2.2s.2-3.5.4-2.3c.2 1.3.2 3.3 0 4.5m1 9.5c-.3 1-.5.4-.5-1.2 0-1.7.2-2.4.5-1.8.2.7.2 2.1 0 3m1 8c-.3 1-.5.2-.5-1.7s.2-2.7.5-1.8c.2 1 .2 2.6 0 3.5m1 6.5c-.3.8-.6.5-.6-.6-.1-1.1.2-1.7.5-1.3.3.3.4 1.2.1 1.9m5 25c-.3.8-.6.5-.6-.6-.1-1.1.2-1.7.5-1.3.3.3.4 1.2.1 1.9m2 8c-.3.8-.6.5-.6-.6-.1-1.1.2-1.7.5-1.3.3.3.4 1.2.1 1.9m6.3 19.3c0 .5-.5.3-1-.5s-1-2-1-2.5c0-.6.5-.3 1 .5s1 1.9 1 2.5m1.8 6c-.3.3-.9-.2-1.2-1.2-.6-1.4-.5-1.5.5-.6.7.7 1 1.5.7 1.8"/><path d="M516.5 782c-.3.5-.1 1 .4 1 .6 0 1.1-.5 1.1-1 0-.6-.2-1-.4-1-.3 0-.8.4-1.1 1M439.9 824.1c-3.9 4.8-6.3 8.9-5.2 8.9.4 0 .1.5-.7 1s-1.6 2.2-1.7 3.7-.6 5.4-1.3 8.6c-1.5 7.9-.8 9.4 1.4 2.7 2-6.5 7.7-15.2 11.7-18 2.5-1.9 2.7-2.3 1.8-5.5-.6-1.9-.7-4-.4-4.5.3-.6 0-1-.8-1s-3 1.9-4.8 4.1M374.7 822.7c-2.1 3.7-1.5 6.1 2.4 9.9 4.7 4.5 8.6 10.7 10.4 16.7l1.4 4.2v-3.6c.1-5.2-2.6-13.6-6.4-19.4-3.6-5.5-7.1-9.1-7.8-7.8M533.4 864c0 6.9.1 9.7.3 6.2.2-3.4.2-9 0-12.5-.2-3.4-.3-.6-.3 6.3M400.9 907.6c-2.7.8-6.8 3.3-9.7 5.9-2.7 2.4-5.2 4.2-5.5 3.9s-.8 0-1.3.7c-.4.8-.3 1 .4.5 1.6-1 1.5-.5-.8 4.5-1.1 2.4-2 5.6-2 7.1 0 1.6-.4 2.8-.8 2.8-1 0-.9 3.6 0 4.6.4.3 1.2-1.2 1.8-3.3 4.7-15.5 23.7-23.8 38.5-16.9 6.2 2.9 13 10.3 15 16.5l1.5 4.6-.4-6.3c-1.2-18.1-19.1-30.1-36.7-24.6M186.6 920.5c-.9 1.3-1.6 2.8-1.6 3.2s16.3 10.2 36.3 21.8c19.9 11.5 56.2 32.6 80.7 46.8 24.5 14.3 45.1 26.2 45.8 26.4 1 .4 1.2-.5 1-3.7l-.3-4.2-15-8.7c-30.2-17.6-141.1-81.8-143.1-82.9-1.9-1-2.4-.8-3.8 1.3M380.1 929.6c0 1.1.3 1.4.6.6.3-.7.2-1.6-.1-1.9-.3-.4-.6.2-.5 1.3M521.8 940.7c.6.2 1.8.2 2.5 0 .6-.3.1-.5-1.3-.5s-1.9.2-1.2.5M141.6 998.9c-1.2 2.3-1.3 3.1-.3 3.9 1.1.9 131.8 76.6 136.4 79.1 1.8.9 2.9.9 5.3-.4 5.1-2.6 13.1 2.6-72.5-47-22.5-13.1-46.7-27.1-53.7-31.1-6.9-4.1-12.9-7.4-13.2-7.4s-1.2 1.3-2 2.9M469.1 1013.6c0 1.1.3 1.4.6.6.3-.7.2-1.6-.1-1.9-.3-.4-.6.2-.5 1.3M394 1053.3l-13.5 8.2.3 4.8c.4 5.7-.2 5.8 12-1.4 4.8-2.9 10.6-6.3 12.9-7.6l4.2-2.3 9.8 5.8c5.4 3.2 10.6 6.1 11.6 6.5s1.5 1.1 1.2 1.7.1.7.9.4c.9-.3 1.6-.1 1.6.5s-.5 1.1-1.2 1.1c-.6 0-.9.2-.7.5.3.2 1.5.2 2.7-.2 2-.5 2.3-1.1 2-4.7l-.3-4.1-12.5-7.2c-6.9-4-13.3-8-14.3-8.8-.9-.8-2.1-1.5-2.5-1.4-.4 0-6.8 3.8-14.2 8.2M432 1079.8c0 .7-.4 1.1-.9.8-1.2-.8-4.2.4-3.6 1.4.3.5-.4.6-1.5.3-1.4-.4-2 0-2 1.1 0 .9-.7 1.6-1.5 1.6s-1.5.5-1.5 1c0 1.6-5.9 7-7.5 7-.8 0-1.5.5-1.5 1.1s-.7.8-1.6.5c-2.1-.8-8.4 5.5-8.4 8.3 0 1.5-.5 1.8-2.2 1.4-2.3-.5-2.3-.5-.3 1 1.1.8 2.3 1.3 2.7 1.1.5-.3.8-.1.8.3 0 .5 1.5 1.7 3.4 2.7l3.4 1.8 5.9-3.3c3.2-1.9 7.2-4.2 8.8-5.1 1.7-1 4-2.3 5.3-3 1.2-.6 2.2-1.5 2.2-2s.4-.7.8-.4c.4.2 1.8-.4 3.1-1.3 2.2-1.7 2.3-2.2 1.6-9.5-.5-5.5-1.1-7.6-2.1-7.6-.8 0-1.4.6-1.4 1.2 0 .9-.4.8-1-.2-.7-1.1-1-1.1-1-.2M318.6 1096.7c-.4.4-8.3 5.2-17.4 10.5-9.2 5.3-16.6 10.2-16.4 10.9s-.4.9-1.3.5c-.9-.3-1.3-.2-1 .4.7 1.1-2.9 3.2-3.9 2.3-.3-.3-.6-.1-.6.6s-.4.9-1 .6c-.5-.3-1-.2-1 .3 0 .6-2 2.2-4.4 3.6-23.5 13.7-16.9 48.5 10 53 6.5 1.1 13.1-1.1 26.4-8.7 6.9-4 18.7-10.9 26.2-15.2l13.7-8 .1-9.7c0-5.3-.2-10.2-.5-11-.6-1.5-10.3-1.3-11.9.3-.6.5-2.3.9-3.8.9-1.6 0-4 .7-5.3 1.6-1.6 1-3.7 1.4-5.7 1.2-4.8-.8-18 .9-18.9 2.4-.4.7-1.1 1-1.4.6-.4-.3-1.9-.3-3.3.2-1.9.5-3.1.3-4-.6-1.8-1.9-5.9-1.7-7.1.3-.8 1.6-1.1 1.5-2.8-.6-1.7-2-2-2.1-3.2-.8-.7.9-1.9 1.3-2.7 1-1.2-.5-1.1-.8.5-1.7 1.1-.6 4-2.3 6.5-3.8 2.8-1.6 5.4-2.4 6.8-2.1 1.6.3 1.9.2 1-.5-1-.7-1-1.1.2-2.1.8-.7 2.1-.9 2.7-.5.8.4.9.3.5-.4s-.3-1.2.3-1.2c.5 0 6.2-3.2 12.6-7l11.7-7.1 12.5 7.3c6.9 3.9 13.2 7.8 13.9 8.6 1.2 1.1 1.4.6 1.4-3.5v-4.9l-13.5-7.8c-7.4-4.3-13.9-8.4-14.3-9.2s-1.2-1.1-1.6-.7m-42.6 37.7c0 .2-1.3.9-3 1.5-3.5 1.2-4.1.5-.7-.9 2.5-1 3.7-1.2 3.7-.6M489 1101.7c-17.3 10.3-20.4 12.3-19.2 12.3.7 0 1.2 1.5 1.2 3.7 0 2.5-.3 3.3-.9 2.5-.5-.8-.8 4.8-.7 13.1 0 8 .4 14.3.9 14 .4-.2 6 2.7 12.5 6.5 40.7 23.9 41.8 24.5 49.8 25 8.9.6 14.7-1.3 20.6-6.6 14-12.7 12.1-34.9-3.8-44.9-5-3.1-36.7-21.9-40.4-23.9-1.2-.6-2.7-1.9-3.4-2.9s-1.8-1.5-2.4-1.1-1.7-.2-2.4-1.4c-.7-1.1-1.5-2-1.8-2-.3.1-4.8 2.6-10 5.7"/><path d="M394.6 1100.9c1.5 1.4 5.4 2.3 5.4 1.3 0-1.1-2.4-2.2-4.8-2.2q-1.5 0-.6.9M469.3 1297.5c0 2.7.2 3.8.4 2.2.2-1.5.2-3.7 0-5-.2-1.2-.4 0-.4 2.8M469.2 1350.5c0 1.6.2 2.2.5 1.2.2-.9.2-2.3 0-3-.3-.6-.5.1-.5 1.8M885.3 736.7c.3.5 5.4 16.1 11.5 34.8 11.5 35.3 44.4 136.5 104.3 320.1l34.9 107.2V1426h149v-224.9l57.6-176.8c87.6-269 93.4-286.9 93.4-287.7 0-.3-31.4-.5-69.7-.4l-69.7.3-16.7 60c-9.2 33-23.5 84.5-31.9 114.5-8.3 30-19.9 71.6-25.7 92.5-8.9 32.4-12.3 43.1-12.3 39.1 0-.7-15-54.9-68.5-247.1-8.6-30.8-15.8-56.8-16.1-57.8-.5-1.6-4.7-1.7-70.5-1.7-38.5 0-69.8.3-69.6.7M1447.1 741.2c-.6 2.9-4.2 23.1-8 44.8-9.4 52.8-66.8 376.4-73.7 415.5-27.6 155.6-39.4 222.3-39.4 223.4 0 .8 18.2 1.1 69.3 1.1h69.2l11.3-79.8c6.3-43.8 11.6-80.7 11.9-82l.5-2.2h105.30000000000001l11.7 81.6c6.5 44.9 11.9 81.8 12.1 82s31.6.3 69.9.2l69.4-.3-10.7-60.5c-11.2-63-15.4-86.8-26.3-148-3.6-20.1-10.8-60.6-16-90-53.1-299.4-68.7-386.8-69.1-388.8l-.5-2.2h-185.9zm111.4 273.5c9.4 66.4 17 121.1 16.8 121.5-.2.5-15.9.8-34.9.8-18.9 0-34.4-.3-34.4-.8-.1-2.3 34.4-243.1 34.8-242.7.2.2 8.2 54.8 17.7 121.2M1835 1081v345h129l.2-218.7.3-218.8 10.3 60c5.7 33 16.8 97.3 24.7 143 7.9 45.6 16.2 93.6 18.4 106.5 10.7 62.2 21.2 122.8 21.7 125.2l.6 2.8h85.4l2.8-16.3c1.5-8.9 7.2-41.4 12.6-72.2s14.9-84.6 21-119.5 12.9-73.6 15.1-86c3.8-21.3 6.5-36.6 19.5-111 3-17.3 5.7-31.6 5.9-31.9.3-.2.5 98 .5 218.2V1426h129V736h-191.6l-10.3 60.2c-10.1 59.5-20.9 122.6-37.6 220.3-7.5 43.8-9.5 54.1-9.5 49.7 0-.6-1.8-11.8-4.1-24.9-2.2-13.1-7.4-43.2-11.4-66.8-29.1-170.7-34.9-204.9-37.5-220-1.7-9.4-3-17.3-3-17.8 0-.4-43.2-.7-96-.7h-96zM2533.5 737.2c-.2.7-16 89.3-35 196.8-19.1 107.5-37.3 210.3-40.5 228.5-3.3 18.1-15 84.1-26 146.5-11.1 62.4-20.3 114.3-20.6 115.2-.5 1.7 3.2 1.8 68.9 1.8 65.3 0 69.5-.1 69.9-1.8.2-.9 5.6-37.8 11.9-81.9l11.4-80.3h52.8c29 0 52.7.1 52.8.2 0 .2 5.3 37 11.8 81.8l11.7 81.5 69.7.3c47.8.1 69.7-.1 69.7-.8 0-.9-17.8-101.8-24.5-139-1.3-7.4-8.1-45.5-15-84.5-6.9-39.1-15.5-87.2-19-107s-17.5-98.3-31-174.5-26.3-148.4-28.5-160.5-4-22.3-4-22.8c0-.4-41.9-.7-93-.7-73.6 0-93.2.3-93.5 1.2m110.5 276.4c9.3 66 17 120.8 17 121.7 0 1.6-2.8 1.7-34.5 1.7H2592v-2.3c0-1.2 7.7-56 17-121.7 9.4-65.7 17-119.7 17-119.9s.2-.2.5 0c.2.3 8.1 54.5 17.5 120.5M2922 1081v345h140l.2-144.8.3-144.7 61.3-.3 61.2-.2v290h140V736h-140v275h-123V736h-140zM3526.6 738.7c-.3 1.6-6.2 34.7-13.1 73.8-6.9 39-16.8 94.8-22 124-5.2 29.1-22.5 126.6-38.4 216.5-16 89.9-32 180.1-35.6 200.5-11.2 62.8-12.5 70.4-12.5 71.5 0 .7 22.8 1 69.3 1h69.4l11.2-79.3c6.2-43.5 11.5-80.4 11.8-82l.6-2.7h105.4l11.2 79.2c6.2 43.6 11.5 80.5 11.8 82l.6 2.8H3836l-.5-2.3c-.3-1.2-8.6-47.9-18.5-103.7s-29.9-168.6-44.5-250.5c-14.6-82-33.8-190.4-42.8-241l-16.3-92-93.1-.3-93.1-.2zm111 276.1c9.4 66.4 17 121 16.7 121.4-.2.5-16 .8-35 .8h-34.5l.5-3.3c.2-1.7 8-56.6 17.3-121.9s17.1-118.5 17.3-118.2c.3.3 8.2 54.8 17.7 121.2M32.2 968.5c0 1.6.2 2.2.5 1.2.2-.9.2-2.3 0-3-.3-.6-.5.1-.5 1.8"/></svg>