<?xml version="1.0" standalone="no"?>
<!DOCTYPE svg PUBLIC "-//W3C//DTD SVG 20010904//EN"
 "http://www.w3.org/TR/2001/REC-SVG-20010904/DTD/svg10.dtd">
<svg version="1.0" xmlns="http://www.w3.org/2000/svg"
 width="3840.000000pt" height="2160.000000pt" viewBox="0 0 3840.000000 2160.000000"
 preserveAspectRatio="xMidYMid meet">

<g transform="translate(0.000000,2160.000000) scale(0.100000,-0.100000)"
fill="#000000" stroke="none">
<path d="M4350 14876 c0 -2 14 -6 30 -8 17 -3 30 -1 30 4 0 4 -13 8 -30 8 -16
0 -30 -2 -30 -4z"/>
<path d="M4428 14863 c7 -3 16 -2 19 1 4 3 -2 6 -13 5 -11 0 -14 -3 -6 -6z"/>
<path d="M4500 14861 c0 -3 7 -15 15 -25 14 -19 15 -19 15 5 0 16 -6 26 -15
26 -8 0 -15 -3 -15 -6z"/>
<path d="M4540 14842 c0 -7 7 -15 15 -18 8 -4 15 -15 15 -25 0 -12 7 -19 19
-19 14 0 17 -6 13 -25 -2 -15 0 -25 7 -25 6 0 11 -7 11 -16 0 -13 9 -15 44
-13 24 2 48 -1 54 -7 9 -10 91 -29 162 -38 14 -2 32 -6 40 -9 8 -3 65 -17 125
-32 483 -120 961 -348 1370 -651 377 -279 753 -685 982 -1059 19 -30 123 -206
139 -235 50 -89 134 -273 128 -282 -4 -6 -3 -8 3 -5 12 7 66 -130 57 -145 -5
-7 -2 -8 6 -3 9 6 10 2 5 -15 -5 -15 -3 -20 3 -16 13 8 26 -29 16 -45 -5 -8
-3 -9 6 -4 10 6 12 4 7 -9 -5 -11 -3 -15 5 -10 8 5 9 -3 5 -27 -4 -20 -4 -29
2 -21 11 18 33 -41 24 -66 -3 -9 -2 -14 2 -9 12 11 53 -119 46 -147 -1 -5 4
-13 11 -18 11 -6 11 -10 0 -16 -10 -7 -10 -11 3 -22 11 -9 14 -23 10 -44 -3
-22 -3 -25 3 -11 8 18 9 17 15 -7 4 -15 4 -33 1 -41 -3 -8 2 -49 10 -90 152
-734 93 -1482 -171 -2187 -61 -162 -199 -459 -244 -521 -10 -15 -19 -31 -19
-36 0 -5 -15 -31 -33 -58 -18 -28 -44 -70 -59 -95 -15 -25 -33 -54 -42 -65 -8
-11 -36 -51 -62 -90 -71 -106 -200 -265 -208 -257 -4 4 -6 2 -4 -4 6 -22 -356
-404 -383 -404 -7 0 -10 -3 -6 -6 3 -3 -15 -22 -41 -42 -26 -19 -49 -38 -52
-41 -16 -20 -128 -111 -137 -111 -5 0 -18 -9 -28 -20 -14 -15 -271 -189 -350
-237 -469 -282 -1010 -462 -1580 -525 -180 -20 -653 -17 -835 6 -80 9 -156 20
-170 22 -20 5 -22 3 -10 -5 24 -17 2 -13 -25 5 -18 12 -35 14 -61 9 -24 -4
-34 -3 -29 4 3 6 2 11 -4 11 -5 0 -17 3 -27 7 -12 4 -15 3 -10 -5 10 -17 -3
-15 -21 3 -11 11 -19 13 -27 5 -7 -5 -16 -7 -20 -3 -4 4 -19 9 -34 11 -14 2
-32 8 -39 14 -7 5 -18 6 -24 2 -8 -4 -9 -3 -5 5 5 8 0 10 -18 7 -31 -6 -150
26 -139 37 4 5 0 5 -10 1 -9 -3 -17 -2 -17 2 0 5 -14 10 -31 10 -17 1 -34 7
-38 13 -5 7 -12 11 -17 10 -17 -5 -74 13 -74 22 0 6 -4 8 -9 4 -20 -12 -460
182 -469 206 -2 5 -7 7 -11 4 -12 -7 -207 105 -365 209 -882 580 -1498 1512
-1690 2556 -83 450 -86 945 -10 1388 13 81 29 162 34 180 5 19 6 40 3 48 -3 8
0 21 6 28 7 8 9 25 5 40 -3 15 -2 26 4 26 5 0 12 14 14 31 4 22 0 33 -14 40
-10 5 -18 16 -18 24 0 15 -19 55 -31 65 -3 3 -10 21 -17 40 -9 27 -11 29 -8 8
2 -20 -1 -25 -12 -20 -12 4 -14 -1 -10 -21 3 -17 1 -24 -5 -20 -6 4 -8 0 -4
-10 3 -9 2 -17 -2 -19 -5 -2 -25 -71 -45 -154 -255 -1069 -75 -2195 501 -3119
939 -1507 2723 -2229 4444 -1800 443 111 908 319 1279 573 756 517 1308 1248
1589 2105 156 474 221 954 199 1465 -63 1499 -941 2837 -2292 3493 -321 155
-623 257 -961 324 -207 40 -247 46 -240 35 5 -8 -23 -4 -55 7 -30 11 -70 8
-70 -5z m143 -129 c-7 -2 -19 -2 -25 0 -7 3 -2 5 12 5 14 0 19 -2 13 -5z
m3224 -3045 c-3 -8 -6 -5 -6 6 -1 11 2 17 5 13 3 -3 4 -12 1 -19z m10 -40 c-3
-8 -6 -5 -6 6 -1 11 2 17 5 13 3 -3 4 -12 1 -19z m30 -150 c-3 -8 -6 -5 -6 6
-1 11 2 17 5 13 3 -3 4 -12 1 -19z m10 -70 c-3 -7 -5 -2 -5 12 0 14 2 19 5 13
2 -7 2 -19 0 -25z m10 -60 c-3 -8 -6 -5 -6 6 -1 11 2 17 5 13 3 -3 4 -12 1
-19z m10 -85 c-3 -10 -5 -4 -5 12 0 17 2 24 5 18 2 -7 2 -21 0 -30z m10 -75
c-3 -8 -6 -5 -6 6 -1 11 2 17 5 13 3 -3 4 -12 1 -19z m-4170 -4294 c-3 -3 -12
-4 -19 -1 -8 3 -5 6 6 6 11 1 17 -2 13 -5z"/>
<path d="M4036 14638 c-20 -18 -43 -80 -107 -283 -44 -143 -84 -263 -88 -267
-3 -4 -64 -14 -136 -23 -892 -109 -1695 -577 -2234 -1302 -298 -402 -512 -901
-595 -1388 -61 -356 -61 -786 -1 -1130 36 -207 130 -538 160 -569 21 -20 37
-66 37 -99 0 -15 3 -25 8 -22 5 3 16 -8 25 -24 17 -33 20 -55 5 -31 -6 9 -10
10 -10 3 0 -7 6 -16 13 -20 7 -4 20 -24 29 -43 l17 -34 -78 -86 c-117 -128
-171 -191 -171 -198 0 -2 8 1 18 8 9 7 2 -1 -16 -19 -17 -17 -32 -34 -32 -37
0 -4 -23 -31 -50 -60 -41 -43 -50 -59 -50 -88 0 -45 29 -76 70 -76 25 0 161
29 522 109 l37 9 58 -82 c286 -399 686 -745 1128 -977 348 -183 721 -297 1150
-351 154 -19 590 -16 750 6 592 80 1096 286 1560 636 255 193 447 388 658 666
l76 101 263 -59 c145 -32 278 -57 297 -56 44 4 76 43 67 84 -4 19 -76 105
-196 237 -105 114 -190 209 -190 211 0 2 27 66 59 143 244 576 318 1209 215
1823 -150 894 -657 1676 -1415 2182 -52 34 -105 69 -119 76 -97 52 -207 118
-218 131 -8 9 -11 10 -7 4 4 -9 1 -11 -9 -7 -9 3 -13 11 -9 17 3 5 1 7 -5 3
-12 -7 -63 13 -74 29 -4 5 -8 7 -8 2 0 -11 -62 23 -78 42 -8 10 -11 10 -6 2 5
-11 3 -13 -10 -8 -10 4 -20 7 -22 7 -3 0 -2 4 1 10 4 6 -1 7 -11 3 -10 -4 -20
0 -26 11 -6 11 -16 15 -30 10 -13 -4 -18 -2 -14 4 6 10 -53 36 -62 27 -3 -3 1
-5 8 -5 7 0 11 -3 8 -6 -4 -3 -17 0 -30 7 -12 7 -27 12 -31 11 -5 -1 -6 2 -3
7 8 12 -157 64 -206 65 -23 0 -32 4 -25 9 7 5 -1 7 -20 5 -19 -3 -30 0 -26 5
4 6 -7 8 -28 4 -20 -4 -28 -3 -21 1 21 14 -179 52 -399 77 l-56 6 -77 247
c-93 298 -93 299 -120 317 -31 23 -91 19 -120 -7z m77 5 c-7 -2 -19 -2 -25 0
-7 3 -2 5 12 5 14 0 19 -2 13 -5z m28 -101 c22 -20 38 -54 63 -137 91 -294
129 -411 137 -421 5 -6 46 -14 92 -17 196 -16 648 -118 674 -153 10 -13 13
-14 13 -3 0 11 2 12 9 1 4 -8 11 -13 15 -13 21 3 34 -1 52 -15 10 -8 13 -13 7
-9 -7 3 -13 2 -13 -3 0 -13 29 -24 42 -16 6 4 5 10 -3 15 -8 5 -9 9 -3 9 19 0
22 -10 13 -48 -9 -40 3 -64 27 -55 15 5 17 -9 14 -79 -1 -21 3 -38 8 -38 16 0
23 -55 32 -249 6 -115 13 -187 20 -191 17 -11 19 -472 3 -477 -9 -3 -13 -25
-13 -61 0 -80 -22 -262 -32 -262 -4 0 -8 -18 -8 -40 0 -33 -3 -40 -20 -40 -11
0 -20 -7 -20 -15 0 -16 16 -21 22 -6 2 6 16 12 32 15 15 3 58 23 95 44 36 22
86 51 111 65 25 14 186 106 359 206 173 100 317 178 320 175 3 -3 40 -65 82
-137 l77 -131 -38 -17 c-20 -9 -117 -64 -216 -121 -286 -167 -652 -380 -1029
-598 -192 -111 -357 -209 -365 -218 -8 -8 -9 -12 -2 -8 9 5 12 -5 12 -38 0
-25 3 -46 6 -46 3 0 25 11 50 25 49 27 58 30 49 15 -10 -16 1 -11 16 7 12 14
12 16 -1 10 -26 -13 9 10 70 46 72 42 110 59 110 48 0 -5 -18 -16 -40 -25 -23
-9 -43 -23 -46 -31 -4 -8 -11 -12 -18 -8 -6 3 -3 -3 7 -14 21 -24 22 -42 2
-49 -8 -4 -15 -12 -15 -19 0 -8 -9 -16 -19 -20 -11 -3 -26 -17 -35 -30 -9 -14
-21 -25 -27 -25 -17 0 -41 -29 -34 -41 4 -5 0 -16 -9 -22 -10 -7 -17 -28 -18
-49 -1 -27 -6 -39 -20 -44 -27 -8 -9 -27 71 -71 36 -21 89 -52 118 -70 61 -39
67 -39 110 -13 18 11 153 89 300 173 280 161 350 202 936 541 197 115 361 206
364 203 2 -3 40 -66 83 -141 53 -91 74 -136 64 -136 -15 0 -167 -84 -414 -228
-129 -76 -421 -246 -815 -474 -253 -147 -270 -158 -251 -158 19 0 341 -181
406 -229 72 -52 151 -151 193 -241 20 -41 57 -183 57 -215 0 -12 16 -54 35
-92 92 -183 301 -273 486 -208 l36 13 224 -240 c123 -132 238 -255 254 -273
17 -19 102 -111 190 -205 88 -94 161 -175 163 -179 4 -12 -23 -20 -47 -14 -12
3 -18 10 -14 17 4 6 -1 5 -11 -3 -15 -13 -19 -13 -26 -1 -5 8 -12 12 -15 8 -4
-3 -21 -2 -38 4 -29 9 -49 12 -100 16 -11 1 -15 7 -11 13 5 8 -1 10 -20 7 -14
-3 -29 -1 -32 3 -3 5 -20 9 -38 9 -18 0 -57 7 -87 17 -30 9 -61 17 -69 18 -38
5 -96 18 -105 24 -5 3 -17 6 -25 7 -39 2 -100 18 -100 26 0 5 -9 6 -20 3 -12
-4 -20 -2 -20 5 0 6 -10 8 -25 4 -16 -4 -25 -2 -25 6 0 6 -4 9 -9 6 -12 -8
-201 36 -196 45 3 4 -3 5 -12 3 -10 -3 -49 4 -88 14 l-70 18 -7 42 c-11 64
-65 158 -120 207 -78 70 -146 98 -255 103 -52 2 -105 0 -123 -6 -23 -8 -29 -8
-24 0 5 8 1 9 -12 4 -34 -13 -158 -44 -204 -52 -25 -3 -47 -10 -50 -14 -8 -12
-155 9 -213 30 -30 11 -137 68 -237 125 -101 58 -184 104 -185 103 -1 -2 -7
-48 -12 -103 -11 -110 -10 -494 2 -1143 7 -360 6 -425 -6 -433 -8 -5 -77 -9
-154 -9 -96 0 -145 -4 -153 -12 -9 -9 -12 200 -12 943 l0 955 -135 78 c-74 43
-139 84 -143 92 -6 10 -40 -5 -152 -70 l-145 -84 0 -945 c0 -520 -2 -948 -5
-950 -3 -3 -76 -7 -163 -9 l-157 -3 0 850 c0 649 3 854 12 863 7 7 10 12 7 12
-3 0 -95 -52 -205 -115 -244 -142 -296 -160 -449 -159 -100 1 -120 4 -220 38
-102 36 -116 38 -197 33 -184 -10 -322 -118 -383 -300 l-20 -60 -570 -132
c-313 -73 -578 -136 -587 -140 -12 -4 -18 -3 -18 5 0 8 466 519 530 580 3 3
36 39 75 80 38 41 103 110 144 153 l75 79 79 -16 c126 -26 230 -2 331 74 91
70 152 189 159 316 2 30 9 60 15 66 15 15 16 32 2 23 -5 -3 -10 -2 -10 3 0 14
-28 23 -90 28 -30 3 -58 10 -62 17 -6 9 -10 8 -18 -3 -8 -12 -12 -12 -18 -3
-4 7 -38 20 -75 29 -37 9 -67 21 -67 25 0 5 -18 9 -40 9 -29 0 -40 4 -40 15 0
10 -11 15 -30 16 -16 1 -34 3 -40 4 -5 1 -14 3 -20 4 -5 0 -10 8 -10 16 0 10
-16 16 -50 21 -30 4 -50 12 -50 19 0 7 -10 15 -22 18 -47 12 -98 32 -98 39 0
5 -9 8 -20 8 -11 0 -20 4 -20 9 0 9 -38 26 -84 37 -30 7 -99 67 -94 81 2 5
-12 9 -30 11 -22 2 -32 8 -32 20 0 16 -74 60 -92 55 -4 -2 -8 3 -8 11 0 7 -15
17 -32 21 -29 7 -30 9 -10 12 30 6 28 23 -2 23 -35 0 -56 10 -56 26 0 8 -4 14
-10 14 -5 0 -10 7 -10 15 0 8 -8 15 -17 15 -10 0 -25 5 -33 10 -13 9 -13 11 0
20 8 5 10 10 4 10 -5 0 -15 -5 -22 -12 -9 -9 -12 -7 -12 10 0 12 -6 22 -14 22
-8 0 -18 14 -21 32 -4 17 -13 38 -20 45 -41 41 44 470 155 785 60 168 211 478
307 630 427 675 1076 1168 1833 1391 185 55 431 103 583 114 48 3 90 10 93 15
4 5 21 58 39 116 121 389 134 427 162 449 36 30 48 29 84 -5z m1184 -810 c-3
-3 -11 0 -18 7 -9 10 -8 11 6 5 10 -3 15 -9 12 -12z m10 -1472 c-3 -5 -12 -10
-18 -10 -7 0 -6 4 3 10 19 12 23 12 15 0z m-4488 -1567 c-2 -21 -4 -6 -4 32 0
39 2 55 4 38 2 -18 2 -50 0 -70z m10 -175 c-2 -13 -4 -3 -4 22 0 25 2 35 4 23
2 -13 2 -33 0 -45z m10 -95 c-3 -10 -5 -4 -5 12 0 17 2 24 5 18 2 -7 2 -21 0
-30z m10 -80 c-3 -10 -5 -2 -5 17 0 19 2 27 5 18 2 -10 2 -26 0 -35z m10 -65
c-3 -8 -6 -5 -6 6 -1 11 2 17 5 13 3 -3 4 -12 1 -19z m50 -250 c-3 -8 -6 -5
-6 6 -1 11 2 17 5 13 3 -3 4 -12 1 -19z m20 -80 c-3 -8 -6 -5 -6 6 -1 11 2 17
5 13 3 -3 4 -12 1 -19z m63 -193 c0 -5 -5 -3 -10 5 -5 8 -10 20 -10 25 0 6 5
3 10 -5 5 -8 10 -19 10 -25z m18 -60 c-3 -3 -9 2 -12 12 -6 14 -5 15 5 6 7 -7
10 -15 7 -18z"/>
<path d="M5165 13780 c-3 -5 -1 -10 4 -10 6 0 11 5 11 10 0 6 -2 10 -4 10 -3
0 -8 -4 -11 -10z"/>
<path d="M4399 13359 c-39 -48 -63 -89 -52 -89 4 0 1 -5 -7 -10 -8 -5 -16 -22
-17 -37 -1 -15 -6 -54 -13 -86 -15 -79 -8 -94 14 -27 20 65 77 152 117 180 25
19 27 23 18 55 -6 19 -7 40 -4 45 3 6 0 10 -8 10 -8 0 -30 -19 -48 -41z"/>
<path d="M3747 13373 c-21 -37 -15 -61 24 -99 47 -45 86 -107 104 -167 l14
-42 0 36 c1 52 -26 136 -64 194 -36 55 -71 91 -78 78z"/>
<path d="M5334 12960 c0 -69 1 -97 3 -62 2 34 2 90 0 125 -2 34 -3 6 -3 -63z"/>
<path d="M4009 12524 c-27 -8 -68 -33 -97 -59 -27 -24 -52 -42 -55 -39 -3 3
-8 0 -13 -7 -4 -8 -3 -10 4 -5 16 10 15 5 -8 -45 -11 -24 -20 -56 -20 -71 0
-16 -4 -28 -8 -28 -10 0 -9 -36 0 -46 4 -3 12 12 18 33 47 155 237 238 385
169 62 -29 130 -103 150 -165 l15 -46 -4 63 c-12 181 -191 301 -367 246z"/>
<path d="M1866 12395 c-9 -13 -16 -28 -16 -32 0 -4 163 -102 363 -218 199
-115 562 -326 807 -468 245 -143 451 -262 458 -264 10 -4 12 5 10 37 l-3 42
-150 87 c-302 176 -1411 818 -1431 829 -19 10 -24 8 -38 -13z"/>
<path d="M3801 12304 c0 -11 3 -14 6 -6 3 7 2 16 -1 19 -3 4 -6 -2 -5 -13z"/>
<path d="M5218 12193 c6 -2 18 -2 25 0 6 3 1 5 -13 5 -14 0 -19 -2 -12 -5z"/>
<path d="M1416 11611 c-12 -23 -13 -31 -3 -39 11 -9 1318 -766 1364 -791 18
-9 29 -9 53 4 51 26 131 -26 -725 470 -225 131 -467 271 -537 311 -69 41 -129
74 -132 74 -3 0 -12 -13 -20 -29z"/>
<path d="M4691 11464 c0 -11 3 -14 6 -6 3 7 2 16 -1 19 -3 4 -6 -2 -5 -13z"/>
<path d="M3940 11067 l-135 -82 3 -48 c4 -57 -2 -58 120 14 48 29 106 63 129
76 l42 23 98 -58 c54 -32 106 -61 116 -65 10 -4 15 -11 12 -17 -3 -6 1 -7 9
-4 9 3 16 1 16 -5 0 -6 -5 -11 -12 -11 -6 0 -9 -2 -7 -5 3 -2 15 -2 27 2 20 5
23 11 20 47 l-3 41 -125 72 c-69 40 -133 80 -143 88 -9 8 -21 15 -25 14 -4 0
-68 -38 -142 -82z"/>
<path d="M4320 10802 c0 -7 -4 -11 -9 -8 -12 8 -42 -4 -36 -14 3 -5 -4 -6 -15
-3 -14 4 -20 0 -20 -11 0 -9 -7 -16 -15 -16 -8 0 -15 -5 -15 -10 0 -16 -59
-70 -75 -70 -8 0 -15 -5 -15 -11 0 -6 -7 -8 -16 -5 -21 8 -84 -55 -84 -83 0
-15 -5 -18 -22 -14 -23 5 -23 5 -3 -10 11 -8 23 -13 27 -11 5 3 8 1 8 -3 0 -5
15 -17 34 -27 l34 -18 59 33 c32 19 72 42 88 51 17 10 40 23 53 30 12 6 22 15
22 20 0 5 4 7 8 4 4 -2 18 4 31 13 22 17 23 22 16 95 -5 55 -11 76 -21 76 -8
0 -14 -6 -14 -12 0 -9 -4 -8 -10 2 -7 11 -10 11 -10 2z"/>
<path d="M3186 10633 c-4 -4 -83 -52 -174 -105 -92 -53 -166 -102 -164 -109 2
-7 -4 -9 -13 -5 -9 3 -13 2 -10 -4 7 -11 -29 -32 -39 -23 -3 3 -6 1 -6 -6 0
-7 -4 -9 -10 -6 -5 3 -10 2 -10 -3 0 -6 -20 -22 -44 -36 -235 -137 -169 -485
100 -530 65 -11 131 11 264 87 69 40 187 109 262 152 l137 80 1 97 c0 53 -2
102 -5 110 -6 15 -103 13 -119 -3 -6 -5 -23 -9 -38 -9 -16 0 -40 -7 -53 -16
-16 -10 -37 -14 -57 -12 -48 8 -180 -9 -189 -24 -4 -7 -11 -10 -14 -6 -4 3
-19 3 -33 -2 -19 -5 -31 -3 -40 6 -18 19 -59 17 -71 -3 -8 -16 -11 -15 -28 6
-17 20 -20 21 -32 8 -7 -9 -19 -13 -27 -10 -12 5 -11 8 5 17 11 6 40 23 65 38
28 16 54 24 68 21 16 -3 19 -2 10 5 -10 7 -10 11 2 21 8 7 21 9 27 5 8 -4 9
-3 5 4 -4 7 -3 12 3 12 5 0 62 32 126 70 l117 71 125 -73 c69 -39 132 -78 139
-86 12 -11 14 -6 14 35 l0 49 -135 78 c-74 43 -139 84 -143 92 -4 8 -12 11
-16 7z m-426 -377 c0 -2 -13 -9 -30 -15 -35 -12 -41 -5 -7 9 25 10 37 12 37 6z"/>
<path d="M4890 10583 c-173 -103 -204 -123 -192 -123 7 0 12 -15 12 -37 0 -25
-3 -33 -9 -25 -5 8 -8 -48 -7 -131 0 -80 4 -143 9 -140 4 2 60 -27 125 -65
407 -239 418 -245 498 -250 89 -6 147 13 206 66 140 127 121 349 -38 449 -50
31 -367 219 -404 239 -12 6 -27 19 -34 29 -7 10 -18 15 -24 11 -6 -4 -17 2
-24 14 -7 11 -15 20 -18 20 -3 -1 -48 -26 -100 -57z"/>
<path d="M3946 10591 c15 -14 54 -23 54 -13 0 11 -24 22 -48 22 -10 0 -12 -3
-6 -9z"/>
<path d="M4693 8625 c0 -27 2 -38 4 -22 2 15 2 37 0 50 -2 12 -4 0 -4 -28z"/>
<path d="M4692 8095 c0 -16 2 -22 5 -12 2 9 2 23 0 30 -3 6 -5 -1 -5 -18z"/>
<path d="M8853 14233 c3 -5 54 -161 115 -348 115 -353 444 -1365 1043 -3201
l349 -1072 0 -1136 0 -1136 745 0 745 0 0 1125 0 1124 576 1768 c876 2690 934
2869 934 2877 0 3 -314 5 -697 4 l-697 -3 -167 -600 c-92 -330 -235 -845 -319
-1145 -83 -300 -199 -716 -257 -925 -89 -324 -123 -431 -123 -391 0 7 -150
549 -685 2471 -86 308 -158 568 -161 578 -5 16 -47 17 -705 17 -385 0 -698 -3
-696 -7z"/>
<path d="M14471 14188 c-6 -29 -42 -231 -80 -448 -94 -528 -668 -3764 -737
-4155 -276 -1556 -394 -2223 -394 -2234 0 -8 182 -11 693 -11 l692 0 113 798
c63 438 116 807 119 820 l5 22 527 0 526 0 117 -816 c65 -449 119 -818 121
-820 2 -2 316 -3 699 -2 l694 3 -107 605 c-112 630 -154 868 -263 1480 -36
201 -108 606 -160 900 -531 2994 -687 3868 -691 3888 l-5 22 -929 0 -930 0
-10 -52z m1114 -2735 c94 -664 170 -1211 168 -1215 -2 -5 -159 -8 -349 -8
-189 0 -344 3 -344 8 -1 23 344 2431 348 2427 2 -2 82 -548 177 -1212z"/>
<path d="M18350 10790 l0 -3450 645 0 645 0 2 2187 3 2188 103 -600 c57 -330
168 -973 247 -1430 79 -456 162 -936 184 -1065 107 -622 212 -1228 217 -1252
l6 -28 427 0 427 0 28 163 c15 89 72 414 126 722 54 308 149 846 210 1195 61
349 129 736 151 860 38 213 65 366 195 1110 30 173 57 316 59 319 3 2 5 -980
5 -2182 l0 -2187 645 0 645 0 0 3450 0 3450 -958 0 -958 0 -103 -602 c-101
-595 -209 -1226 -376 -2203 -75 -438 -95 -541 -95 -497 0 6 -18 118 -41 249
-22 131 -74 432 -114 668 -291 1707 -349 2049 -375 2200 -17 94 -30 173 -30
178 0 4 -432 7 -960 7 l-960 0 0 -3450z"/>
<path d="M25335 14228 c-2 -7 -160 -893 -350 -1968 -191 -1075 -373 -2103
-405 -2285 -33 -181 -150 -841 -260 -1465 -111 -624 -203 -1143 -206 -1152 -5
-17 32 -18 689 -18 653 0 695 1 699 18 2 9 56 378 119 819 l114 803 528 0
c290 0 527 -1 528 -2 0 -2 53 -370 118 -818 l117 -815 697 -3 c478 -1 697 1
697 8 0 9 -178 1018 -245 1390 -13 74 -81 455 -150 845 -69 391 -155 872 -190
1070 -35 198 -175 983 -310 1745 -135 762 -263 1484 -285 1605 -22 121 -40
223 -40 228 0 4 -419 7 -930 7 -736 0 -932 -3 -935 -12z m1105 -2764 c93 -660
170 -1208 170 -1217 0 -16 -28 -17 -345 -17 l-345 0 0 23 c0 12 77 560 170
1217 94 657 170 1197 170 1199 0 2 2 2 5 0 2 -3 81 -545 175 -1205z"/>
<path d="M29220 10790 l0 -3450 700 0 700 0 2 1448 3 1447 613 3 612 2 0
-1450 0 -1450 700 0 700 0 0 3450 0 3450 -700 0 -700 0 0 -1375 0 -1375 -615
0 -615 0 0 1375 0 1375 -700 0 -700 0 0 -3450z"/>
<path d="M35266 14213 c-3 -16 -62 -347 -131 -738 -69 -390 -168 -948 -220
-1240 -52 -291 -225 -1266 -384 -2165 -160 -899 -320 -1801 -356 -2005 -112
-628 -125 -704 -125 -715 0 -7 228 -10 693 -10 l694 0 112 793 c62 435 115
804 118 820 l6 27 527 0 527 0 112 -792 c62 -436 115 -805 118 -820 l6 -28
698 0 699 0 -5 23 c-3 12 -86 479 -185 1037 -99 558 -299 1686 -445 2505 -146
820 -338 1904 -428 2410 l-163 920 -931 3 -931 2 -6 -27z m1110 -2761 c94
-664 170 -1210 167 -1214 -2 -5 -160 -8 -350 -8 l-345 0 5 33 c2 17 80 566
173 1219 93 653 171 1185 173 1182 3 -3 82 -548 177 -1212z"/>
<path d="M322 11915 c0 -16 2 -22 5 -12 2 9 2 23 0 30 -3 6 -5 -1 -5 -18z"/>
</g>
</svg>
